<svg xmlns="http://www.w3.org/2000/svg" viewBox="0 0 63.3 43.19"><defs><style>.cls-1{fill:#ee8c6c;}.cls-2{fill:#adacb2;}.cls-3{fill:#565859;}</style></defs><title>d1</title><g id="Capa_2" data-name="Capa 2"><g id="Capa_1-2" data-name="Capa 1"><path class="cls-1" d="M0,26.37v0A5.69,5.69,0,0,1,5.81,20.6a6.09,6.09,0,0,1,4.35,1.52L8.63,24a4.08,4.08,0,0,0-2.9-1.12A3.33,3.33,0,0,0,2.55,26.3v0A3.32,3.32,0,0,0,5.9,29.85a3.89,3.89,0,0,0,2.3-.66V27.6H5.75V25.5h4.81v4.81a7.19,7.19,0,0,1-4.73,1.76A5.55,5.55,0,0,1,0,26.37Z"/><path class="cls-1" d="M12.3,29.44v0c0-1.85,1.41-2.71,3.42-2.71a6,6,0,0,1,2.07.35V26.9c0-1-.62-1.55-1.82-1.55a6.23,6.23,0,0,0-2.34.46L13,24a7.49,7.49,0,0,1,3.29-.68,3.92,3.92,0,0,1,2.87.95A3.7,3.7,0,0,1,20.11,27v4.92H17.78V31A3.26,3.26,0,0,1,15.21,32,2.62,2.62,0,0,1,12.3,29.44Zm5.52-.55v-.43a3.74,3.74,0,0,0-1.54-.32c-1,0-1.66.41-1.66,1.17v0c0,.65.54,1,1.31,1C17.07,30.37,17.83,29.75,17.83,28.88Z"/><path class="cls-1" d="M22.18,23.39h2.41V25.1a2.62,2.62,0,0,1,2.71-1.87v2.52h-.13c-1.6,0-2.58,1-2.58,3v3.13H22.18Z"/><path class="cls-1" d="M28.8,23.39h2.41V25.1a2.62,2.62,0,0,1,2.71-1.87v2.52h-.13c-1.6,0-2.58,1-2.58,3v3.13H28.8Z"/><path class="cls-1" d="M34.52,29.44v0c0-1.85,1.41-2.71,3.42-2.71A6,6,0,0,1,40,27V26.9c0-1-.62-1.55-1.82-1.55a6.23,6.23,0,0,0-2.34.46L35.24,24a7.49,7.49,0,0,1,3.29-.68,3.92,3.92,0,0,1,2.87.95A3.7,3.7,0,0,1,42.32,27v4.92H40V31A3.26,3.26,0,0,1,37.43,32,2.62,2.62,0,0,1,34.52,29.44ZM40,28.88v-.43a3.74,3.74,0,0,0-1.54-.32c-1,0-1.66.41-1.66,1.17v0c0,.65.54,1,1.31,1C39.28,30.37,40,29.75,40,28.88Z"/><path class="cls-2" d="M58.77,6.9c.7,0,1.24-.25,1.24-.62s-.14-1.71-.14-1.71a9,9,0,0,1-3.11,1.76A5.69,5.69,0,0,0,58.77,6.9Z"/><path class="cls-2" d="M61.35,9.46a7.7,7.7,0,0,1-2.68,1.33,21,21,0,0,1-5.4-.53,14.61,14.61,0,0,0,4.52,3,3,3,0,0,1-1.19,1.66,11.42,11.42,0,0,1-6.14.52,3.1,3.1,0,0,1-1.78-1.06,13.2,13.2,0,0,1-1.06-1.51,5.66,5.66,0,0,0,.57,1.64,3.58,3.58,0,0,0,2.51,1.9,7.06,7.06,0,0,0,1.22.17h0c.52,0,.52,0,.59.8a8.61,8.61,0,0,1,0,.89c0,.1,0,.2,0,.3s0,.46.23.53h.08c.18,0,.33-.18.44-.34a12.26,12.26,0,0,0,1.16-2.33,8,8,0,0,0,3-.93,1.42,1.42,0,0,0,.2-.23,1,1,0,0,0,.65.4h0c.26,0,.26.16.28.77a8.16,8.16,0,0,1-.06.84l0,.28c0,.12,0,.43.19.52l.08,0c.17,0,.33-.15.43-.3a10.69,10.69,0,0,0,1.33-2.36,3.64,3.64,0,0,0,1.63-1.68c1-1.61,1.13-2.2,1.13-3S61.59,8,60.22,6.9c.55.77,2.33,2.8,2.35,4a6.41,6.41,0,0,1-1.09,2.64,2.32,2.32,0,0,1-2,1.33c-.66.08-.9,0-1-.09a.34.34,0,0,1-.1-.26v0a6.69,6.69,0,0,1,.09-1.36A7.73,7.73,0,0,0,61.35,9.46Z"/><path class="cls-2" d="M50.58,26.17c-1.78-.14-2.1-.46-2.54-1.31-.16-.3-.34-.78-.54-1.29A8.68,8.68,0,0,0,46,20.7a17.3,17.3,0,0,0-3.93-1.54,17.35,17.35,0,0,1-2.62-1c-.69-.54-1-1.41-1.89-4.28l-.44-1.35L36.62,11l.1,1.68c0,.2.32,5,1.89,6.36a12.77,12.77,0,0,0,3.7,1.48,10.23,10.23,0,0,1,2.87,1.11,13.52,13.52,0,0,1,1.52,3.11c.12.3.23.58.32.79l0,.05c.16.4.53,1.33,3.3,1.44l1.73,0a21,21,0,0,0-.1,4.83h1.71A19.08,19.08,0,0,1,53.53,27c3.59-.22,4-.82,4-.82l-1.48,0S52.36,26.31,50.58,26.17Z"/><path class="cls-2" d="M56.85,21.6c-.91,2.13-1,2.11-1.62,2.11H53.56c.23-1.23,0-3.56-.48-2.36-1,2.28-1.13,2.33-1.74,2.33l-.49,0c-.87-.09-1.32-.18-1.57-.94-1.09-3.33-1.91-3.9-1.91-3.9s.22.79.35,1.29.41,1.63.57,2.47c.27,1.46.6,1.9,2.29,2.06.75.07,2,.1,3.12.1s2.51,0,3.13-.1l.17,0h0a1.28,1.28,0,0,0,1-.92l-.81,0C57.35,22.52,57.23,20.69,56.85,21.6Z"/><path class="cls-2" d="M44.56,6.3a3.73,3.73,0,0,0,3.26,1,12.57,12.57,0,0,0,3.54-.94,18,18,0,0,1-3.85-1A14.74,14.74,0,0,0,44,4.14a18,18,0,0,0-2.54.1,6,6,0,0,1,2,.6C44,5.23,43.93,5.64,44.56,6.3Z"/><path class="cls-2" d="M55.18,2.35l.12-.1A7.09,7.09,0,0,1,58.4,1a13,13,0,0,1,1.46,3.39A10.64,10.64,0,0,0,59,0a5.64,5.64,0,0,0-.58,0,7,7,0,0,0-3.71,1.45,15.13,15.13,0,0,0-10.13,0S50.24.36,55.18,2.35Z"/><path class="cls-2" d="M41.93,1a8.65,8.65,0,0,0-4.47-1H37.3l0,.16a17.43,17.43,0,0,0-.44,5,24.48,24.48,0,0,0-7.48,8.52v3A24.42,24.42,0,0,1,37.88,5.64a23.68,23.68,0,0,1,.3-4.85,15.24,15.24,0,0,1,3.59.56l1.35.35Z"/><path class="cls-3" d="M4.83,42.25l.86-1a1.53,1.53,0,0,0,1.13.62c.51,0,.83-.31.83-1v-4h1.4v4.06a2.25,2.25,0,0,1-.58,1.66,2.22,2.22,0,0,1-1.61.58A2.54,2.54,0,0,1,4.83,42.25Z"/><path class="cls-3" d="M14.57,36.84h1.26l2.66,6.25H17.06l-.57-1.39H13.87l-.57,1.39H11.91ZM16,40.49l-.82-2-.82,2Z"/><path class="cls-3" d="M21,40v0a3.18,3.18,0,0,1,3.25-3.21,3.4,3.4,0,0,1,2.44.85l-.86,1A2.28,2.28,0,0,0,24.19,38,1.86,1.86,0,0,0,22.41,40v0a1.86,1.86,0,0,0,1.88,2,2.18,2.18,0,0,0,1.28-.37V40.7H24.2V39.52H26.9v2.69a4,4,0,0,1-2.65,1A3.1,3.1,0,0,1,21,40Z"/><path class="cls-3" d="M30.33,40.43V36.88h1.36v3.51c0,1,.51,1.53,1.34,1.53s1.34-.51,1.34-1.49V36.88h1.36v3.5A2.5,2.5,0,0,1,33,43.18,2.46,2.46,0,0,1,30.33,40.43Z"/><path class="cls-3" d="M41.24,36.84H42.5l2.66,6.25H43.73l-.57-1.39H40.54L40,43.09H38.58Zm1.44,3.65-.82-2-.82,2Z"/><path class="cls-3" d="M48.33,36.88h2.84a2.47,2.47,0,0,1,1.81.63,2,2,0,0,1,.53,1.42v0a1.93,1.93,0,0,1-1.33,1.92l1.52,2.22H52.1l-1.33-2H49.69v2H48.33Zm2.75,3c.66,0,1-.35,1-.88v0c0-.59-.41-.89-1.07-.89H49.69V39.9Z"/></g></g></svg>