<svg xmlns="http://www.w3.org/2000/svg" viewBox="0 0 138.83 138.83"><defs><style>.cls-1{fill:#ecedef;}.cls-2{fill:#c2c3c8;}.cls-3{fill:#fff;}.cls-4{fill:#565859;}.cls-5{fill:#ee8c6c;}.cls-6{fill:#adacb2;}</style></defs><title>d11</title><g id="Capa_2" data-name="Capa 2"><g id="Capa_1-2" data-name="Capa 1"><polygon class="cls-1" points="131.92 6.92 138.83 0 0 0 6.92 6.92 131.92 6.92"/><polygon class="cls-2" points="131.92 6.92 131.92 6.92 131.92 131.92 138.83 138.83 138.83 0 131.92 6.92"/><polygon class="cls-2" points="6.92 6.92 6.92 6.92 0 0 0 138.83 6.92 131.92 6.92 6.92"/><polygon class="cls-1" points="131.92 131.92 6.92 131.92 6.92 131.92 0 138.83 138.83 138.83 131.92 131.92 131.92 131.92"/><polygon class="cls-3" points="6.92 6.92 6.92 131.92 6.92 131.92 131.92 131.92 131.92 131.92 131.92 6.92 131.92 6.92 6.92 6.92 6.92 6.92"/><path class="cls-4" d="M54.84,94.43l1-1.16a1.85,1.85,0,0,0,1.37.75c.62,0,1-.37,1-1.24V87.93H60v4.92a2.73,2.73,0,0,1-.71,2,2.69,2.69,0,0,1-2,.7A3.07,3.07,0,0,1,54.84,94.43Z"/><path class="cls-4" d="M66.64,87.88h1.52l3.22,7.57H69.65L69,93.76H65.79l-.69,1.69H63.42Zm1.74,4.42-1-2.44-1,2.44Z"/><path class="cls-4" d="M74.41,91.71v0a3.86,3.86,0,0,1,3.94-3.89,4.12,4.12,0,0,1,3,1l-1,1.26a2.77,2.77,0,0,0-2-.76,2.26,2.26,0,0,0-2.16,2.34v0a2.25,2.25,0,0,0,2.28,2.38A2.64,2.64,0,0,0,80,93.62V92.55H78.3V91.12h3.26v3.26a4.88,4.88,0,0,1-3.21,1.19A3.76,3.76,0,0,1,74.41,91.71Z"/><path class="cls-4" d="M85.72,92.23V87.93h1.65v4.25C87.37,93.41,88,94,89,94s1.62-.61,1.62-1.8v-4.3h1.65v4.24c0,2.28-1.28,3.39-3.3,3.39A3,3,0,0,1,85.72,92.23Z"/><path class="cls-4" d="M98.95,87.88h1.52l3.22,7.57H102l-.69-1.69H98.1l-.69,1.69H95.72Zm1.74,4.42-1-2.44-1,2.44Z"/><path class="cls-4" d="M107.53,87.93H111a3,3,0,0,1,2.19.76,2.36,2.36,0,0,1,.64,1.72v0a2.33,2.33,0,0,1-1.61,2.33L114,95.45h-1.93L110.48,93h-1.3v2.4h-1.65Zm3.33,3.65c.81,0,1.27-.43,1.27-1.06v0c0-.71-.49-1.07-1.3-1.07h-1.64v2.16Z"/><path class="cls-5" d="M16.79,82.51l0,0-.06,0a.61.61,0,0,1-.22,0h-.27l-.08,0-.18,0h-.23l-.32,0a.19.19,0,0,1-.17,0l-.46-.11a1,1,0,0,1-.42-.24l-.11-.07L14.16,82l-.2-.23h0l-.08-.08-.18-.21a1,1,0,0,1-.15-.19l-.13-.19-.08-.33a5.42,5.42,0,0,1-.12-.59,7,7,0,0,1-.06-.71.12.12,0,0,0,0-.11.19.19,0,0,1,0-.08l0-.18a.88.88,0,0,0,0-.13,9,9,0,0,1,.72-2.51,12.13,12.13,0,0,1,1.22-2.13l.13-.2L15.4,74a1.88,1.88,0,0,1,.24-.29,1.84,1.84,0,0,0,.22-.26h0l.36-.46.25-.24.17-.18.09-.08,0-.1c.05-.05.08-.09.08-.1l.64-.65.44-.45q.23-.22.46-.48l0,0,0,0,0,0,.07,0h0a.18.18,0,0,1,.18-.15.24.24,0,0,0,.21-.15.18.18,0,0,1,.11,0l.14,0h0a2.79,2.79,0,0,0,.6-.34l.16,0h0a1,1,0,0,1,.46-.07l.61,0a.56.56,0,0,1,.28.07,1.26,1.26,0,0,1,.24.18l.21.21.16.17H22a.32.32,0,0,0,.12.12l.09,0,0,0a.22.22,0,0,1,0,.11.08.08,0,0,0,0,.06.07.07,0,0,1,0,0l0-.06.11.21a.07.07,0,0,0,0,0,.14.14,0,0,1,.06.06h0l.15.07a.15.15,0,0,1,.08.1v0a.82.82,0,0,1,.1.31.87.87,0,0,1,.07.29l0,.39c0,.05,0,.13,0,.22a.94.94,0,0,1,0,.22.85.85,0,0,1,0,.2.44.44,0,0,0,0,.16.1.1,0,0,0,0,.07.12.12,0,0,0,0,0l-.07.2a0,0,0,0,1,0,0,0,0,0,0,0,0,0l-.06.14c0,.07,0,.1,0,.09a.37.37,0,0,0,0,.11c-.06,0-.1,0-.1.08s0,.1,0,.11a2.18,2.18,0,0,0-.09.23l0,.13s0,.07,0,.07a.08.08,0,0,1,0,0l-.11.2,0,.15a.29.29,0,0,0-.08.16.13.13,0,0,1-.13.11v0a.13.13,0,0,1-.1,0l-.13.24a1.55,1.55,0,0,0-.11.2.46.46,0,0,1-.18.19l0-.07,0-.13s-.05,0-.06.06a.15.15,0,0,1,0,.09l-.06.1a.26.26,0,0,1-.09.07l-.13,0v0l0,.21a.26.26,0,0,0-.13,0,.36.36,0,0,0-.11.09H20.6l-.08,0h0a1.26,1.26,0,0,0-.39,0,.07.07,0,0,0-.07,0l-.16,0h-.1l0,0,0,0s0,0,0,0l-.08-.1a.54.54,0,0,1-.22-.44.92.92,0,0,1,.12-.44.17.17,0,0,1,0-.06.14.14,0,0,0,0,0c.07-.22.12-.38.16-.48a2,2,0,0,0,.1-.29,1.69,1.69,0,0,1,.11-.33,5.15,5.15,0,0,1,.24-.46,1.64,1.64,0,0,1,.16-.44,1.16,1.16,0,0,0,.13-.47l-.12,0-.19.08-.19.07c-.06,0-.09,0-.09,0a2.12,2.12,0,0,1-.28.21l-.2.15-.11.08-.33.27-.23.2-.2.2-.24.27s0,0-.06,0l-.06.08a.8.8,0,0,0-.17.2,1.59,1.59,0,0,1-.24.28h0l-.29.42a.84.84,0,0,0-.16.21l-.08.18-.11.2L17,76l-.17.28a2,2,0,0,1-.17.25,3.46,3.46,0,0,0-.2.37l-.19.42s-.07.06-.07.08,0,0-.07.06l0,0,.08,0-.11.21-.16.7,0,.29c0,.16,0,.28,0,.34a.75.75,0,0,0,0,.16s0,.09,0,.15l0,.3,0,0s0,0,0,0a.64.64,0,0,1,0,.13l.17.18.11.1.11.07.17.08.46.17a.77.77,0,0,0,.48,0l.25-.06.15,0,.23-.1.51-.29.73-.41.28-.16.16-.12.07-.06a.47.47,0,0,1,.17-.09.49.49,0,0,0,.17-.09l0-.09a.22.22,0,0,1,.11-.09h.08l.11-.08H20.5a1,1,0,0,1,.18-.16l.27-.18.26-.15.14-.08a1,1,0,0,1,0,.24.27.27,0,0,0-.12.09s0,.07,0,.09c.2-.14.32-.2.36-.18s.05.08,0,.18a1.91,1.91,0,0,1-.13.33,1.2,1.2,0,0,0-.11.26l.16,0,.1.16c.07.05.09.06.08,0s0-.05,0,0l0,.13s0,0,0,0h0a.74.74,0,0,1-.12.16l-.06,0,0,0a.34.34,0,0,0-.07.11l-.54.62a.27.27,0,0,0-.13.11l-.08.13v0a.07.07,0,0,0-.06,0l0,0,0,0-.06.06L20.1,81l-.33.27-.37.27-.37.23a1.34,1.34,0,0,1-.31.13l-.16.07-.15.06a.19.19,0,0,1-.13,0,.11.11,0,0,0-.08,0l-.15.07h0l-.18.06-.21,0a.7.7,0,0,1-.2.08l-.23,0-.14,0-.14.06Zm4.56-4.12,0,0s0,.06,0,0S21.33,78.42,21.35,78.38Zm.08-.1s0,0,0,0l-.08.07,0,0Z"/><path class="cls-5" d="M24.27,80.24v0c0,.11,0,.18-.07.21h0l0,0-.07.08-.07.11a.6.6,0,0,0-.1.14.25.25,0,0,1-.13.12v0a.23.23,0,0,0-.1.09l0,.09,0,.06a.11.11,0,0,1-.08,0c-.06,0-.1,0-.1,0a.15.15,0,0,1-.13.08.12.12,0,0,1-.1.11.26.26,0,0,1-.15.07c-.12,0-.14,0,0,0H23a.18.18,0,0,0,0,.13l-.07,0c-.07,0-.1,0-.1,0h-.95l-.16,0-.06-.1a2.67,2.67,0,0,1,.11-.52,3.65,3.65,0,0,1,.16-.41s0,0,0,0a.31.31,0,0,1,0-.08l.13-.22.15-.25v0a.29.29,0,0,1,0-.1l.06-.08a.2.2,0,0,0,0-.09l0-.11.16-.27a1.73,1.73,0,0,0,.13-.27l.26-.39-.29,0-.18,0h-.2a.81.81,0,0,1-.49-.13l0,0v0s0,0,0,0,0,0,0,0l0-.08a.11.11,0,0,1,0-.07.22.22,0,0,1,.11-.06c.1,0,.16,0,.18,0l-.16,0a.23.23,0,0,1-.11,0l-.18,0s.06,0,.28,0c0,0,0,0,0,0h0v0s0,0,0-.07a.26.26,0,0,1,.15-.11l0,0h.09l.09,0,.51-.1a3.1,3.1,0,0,0,.54-.18l.24-.07,1.08-1.61q.56-.83,1.15-1.6l.28-.39c.1-.14.2-.27.29-.39s.19-.27.29-.41.21-.29.31-.44h0l.21-.21.16-.22a1.06,1.06,0,0,0,.16-.3.51.51,0,0,1,.18-.1l.08,0,.08,0,.15-.1a.31.31,0,0,1,.18-.07h.16l.23,0a.2.2,0,0,1,.16,0,.61.61,0,0,1,.39,0h.2s.1.06.18.18l0,0a.29.29,0,0,0,.21,0,1.05,1.05,0,0,1,.26,0,.16.16,0,0,1,.16.09,1.25,1.25,0,0,1,.1.19,1.75,1.75,0,0,1,0,.33c0,.14,0,.27,0,.38a.17.17,0,0,0,0,.06.17.17,0,0,1,0,.06v.46a5.15,5.15,0,0,0,0,.56v.56c0,.12,0,.24,0,.37s0,.25,0,.37a2.62,2.62,0,0,0,0,.33q0,.16,0,.33h.38l.4,0a1.77,1.77,0,0,1,.4,0,.07.07,0,0,1,.07,0h0l.13,0a.12.12,0,0,1,.08.11l-.07.1-.11-.08a.33.33,0,0,0,.08.11.06.06,0,0,1,0,.09l-.07,0v0h0v0a.07.07,0,0,1,0,0,.07.07,0,0,0,0,0v0s0,0,0,0,0,0,0,0l0,.16,0,0h-.13l0,0a.11.11,0,0,1-.08,0H31a.32.32,0,0,0-.2,0l-.2.12-.18,0,0,.07a.07.07,0,0,0-.07,0l0,0v0l0,0a.1.1,0,0,1,0,0,.07.07,0,0,0,0,0v0a.73.73,0,0,0,0,.2.9.9,0,0,0,0,.22.07.07,0,0,1,0,0,.07.07,0,0,0,0,0l-.07.06v.88s0,0,0,0a.2.2,0,0,1,0-.1.26.26,0,0,0,0,.11.32.32,0,0,1-.07.16v0l0,0c0,.05,0,.11-.08.16s0-.1,0-.16,0-.1,0-.12a.73.73,0,0,1,0-.14v-.14h0a.47.47,0,0,0,0-.1.32.32,0,0,1,0-.08,1.41,1.41,0,0,1,0-.26h0s0,0,0,0a.09.09,0,0,1,0,0,.18.18,0,0,0,0,.08s0,.06-.07.11a.19.19,0,0,1-.07-.16v.13a1.07,1.07,0,0,0,0,.2.56.56,0,0,1,0,.2v0h0v.31a0,0,0,0,0,0,0s0,0,0,0a1.51,1.51,0,0,1,0,.44s0,0,0,.07a.36.36,0,0,0,0,.14.64.64,0,0,0,0,.12l0,.21a.25.25,0,0,1,.06-.15l0,0s0-.08.1-.13v.15a.11.11,0,0,1,0,.1.13.13,0,0,1,0,.1.39.39,0,0,0,0,.08.24.24,0,0,1,0,.06.94.94,0,0,1,0,.21.5.5,0,0,1,0,.18h0a.57.57,0,0,0,0,.16s0,.1,0,.17a1.5,1.5,0,0,1,0,.24l0-.08v.08s0,0,0,0a0,0,0,0,0,0,0h0s-.07.09-.07.23a.13.13,0,0,0-.1,0l0,0,.07,0a.09.09,0,0,1,0,.09.32.32,0,0,0,0,.09.23.23,0,0,0,0,.1l-.08-.08c0,.06,0,.09,0,.08s-.05,0-.11.08h-.23a1,1,0,0,1-.16-.16.25.25,0,0,1,0-.11.61.61,0,0,1,0-.15,1.83,1.83,0,0,0,0-.27l-.07-.33q-.07-.62-.07-1.29t0-1.34v-.51c0-.16,0-.33,0-.49a.28.28,0,0,0-.23,0l-.08,0h-.1l-.44.11-.47.14H27.3v0a.5.5,0,0,1,0-.11,1.11,1.11,0,0,0-.36.16v0c0,.07-.09.07-.13,0a0,0,0,0,1,0,0h0a.29.29,0,0,1-.21.07l0,0-.06,0-.07,0h-.09l-.11,0-.1.07,0-.08.07,0-.23.08-.07,0s0,0-.07.11l-.06.1,0,.1a.38.38,0,0,0-.16.25l-.11.1.11,0a.36.36,0,0,0-.11.12l-.06.12-.11.14a.65.65,0,0,1-.12.12v0a.53.53,0,0,0-.1.21v0a.55.55,0,0,1-.07.2c-.05,0-.08,0-.08,0l0,.11-.14,0a.08.08,0,0,0-.06.07l0,0,0,0,0,0v.06a.17.17,0,0,0,0,.07.74.74,0,0,1-.11.23l-.15.16Zm-1.11,1a.07.07,0,0,0,0,0h0l0,0Zm.31-.1,0,0h0Zm.33-.55,0,.11-.08.11h0l0,.07.15-.24v0Zm.57-1a0,0,0,0,1,0,0s0,0,0,0a.42.42,0,0,1,.11-.28,1.13,1.13,0,0,0-.15.18l-.15.23s0,0,0,.08h-.07v0a.09.09,0,0,0,0,.06.46.46,0,0,0-.13.25.21.21,0,0,0-.11.07l0,.09,0-.07v.13l0-.07a.73.73,0,0,0,.13-.17l.11-.22h.07v.07l.08,0v0l0,0,0-.08A.17.17,0,0,1,24.37,79.64Zm-.5.28s0,.06,0,.06v0l0,0,0-.07a.11.11,0,0,1,0,0Zm.23.44v0l0-.1v0a.09.09,0,0,0,0,.06S24.1,80.36,24.09,80.36Zm.08-1.45a.1.1,0,0,0,0,.08,0,0,0,0,1,0,0A.09.09,0,0,1,24.17,78.91Zm0,.77a.06.06,0,0,0,0,0A.06.06,0,0,1,24.14,79.67Zm0-.08,0,0s0,0,0,0a0,0,0,0,1,0,0Zm.18-.26,0-.07v0Zm.08-.16.08-.07,0-.11Zm.11-.65a.09.09,0,0,0,0,.07l.07-.07Zm.11-.16h0v0h0Zm.28.41-.11.16-.11.17,0,0,.11-.11h0a.25.25,0,0,0,.07-.1A.43.43,0,0,1,25,78.76Zm1.81-2.09,1-.22a8.18,8.18,0,0,0,1-.29,5.44,5.44,0,0,0,0-.59c0-.2,0-.41,0-.63a1.83,1.83,0,0,1,0-.32,1.91,1.91,0,0,0,0-.32.4.4,0,0,1,0-.15v-.07a.06.06,0,0,0,0-.06s-.05,0-.16.19l-.29.38L28,75l0,.08a.11.11,0,0,0,0,0,.33.33,0,0,0-.12.12l-.11.16-.11.13v0a.43.43,0,0,1-.07.18.4.4,0,0,0-.16.16l-.23.25-.08.18L27,76.4a.14.14,0,0,0,0,.08l-.09.07Zm1.32.42v0l0,.07v0l0,0v0Zm1.24,3.11s0,0,0,0Zm.15-.78a.15.15,0,0,0,0,.07v.06s0,0,0-.1,0,0,0,0S29.47,79.44,29.47,79.43Zm.08-1.08v0l0,0c0-.08,0-.15,0-.21a.83.83,0,0,1,0-.2l0,0,0,0s0,0,0,0h0v.1a.23.23,0,0,1,0,.1.25.25,0,0,0,0,.07A.25.25,0,0,1,29.55,78.35Zm.08.47a.12.12,0,0,0,0,0,.12.12,0,0,1,0-.07l0,0s0,0,0,0a.07.07,0,0,0,0,0l0,.17a1,1,0,0,0,0,.19l0,0v0a.18.18,0,0,1,0-.08A1,1,0,0,1,29.63,78.82Z"/><path class="cls-5" d="M32.11,80.57a.48.48,0,0,0,.07-.21.14.14,0,0,1,0-.1.07.07,0,0,1,0-.08l0-.1a.25.25,0,0,0,0-.1.41.41,0,0,0,.1-.28.08.08,0,0,0,.06-.08v0a0,0,0,0,1,0,0s0,0,0,0a.08.08,0,0,0,0-.1c.05,0,.09,0,.1,0l0-.06a0,0,0,0,0,0,0,.18.18,0,0,0,0-.1l.08-.11a.16.16,0,0,0,0,0,.22.22,0,0,1,0-.07.14.14,0,0,0,.1-.09.45.45,0,0,0,0-.12l0-.14a.15.15,0,0,1,.08-.11.22.22,0,0,1,0-.11l.07-.09.07-.11a.24.24,0,0,0,0-.13h-.07a1,1,0,0,0-.14.24,2.19,2.19,0,0,0-.07.24l0,.07s0,0,0,0l-.06.07-.06.07-.2.39a.14.14,0,0,0-.06.07.27.27,0,0,0,0,.07v.08a.13.13,0,0,1-.07.1l-.13.34,0,.1h0l0,.08a.07.07,0,0,1,0,0,0,0,0,0,0,0,0,2.14,2.14,0,0,0-.21.55.22.22,0,0,0,0,.16.25.25,0,0,0-.08.18.09.09,0,0,0,0,.07c0,.08,0,.12-.07.13a1.07,1.07,0,0,1,0,.17.12.12,0,0,1-.1.11l0,0,0,0,0,0a0,0,0,0,1,0,0l0,0,0,0h0l0,0s0,0,0,0a.38.38,0,0,1-.11.2.26.26,0,0,0-.1.08h-.28l-.25,0-.19,0a.47.47,0,0,1-.12-.29,1.46,1.46,0,0,1,0-.28.16.16,0,0,1,0-.11,8.35,8.35,0,0,1,.24-.86q.14-.42.3-.81l.23-.57.25-.59.2-.54a2.6,2.6,0,0,1,.28-.55v0s0,0,0,0h0a1.57,1.57,0,0,1,.11-.33,2.65,2.65,0,0,1,.15-.29l.13-.28s0,0,.06-.1a.47.47,0,0,0,0-.13.27.27,0,0,0,.06-.09.26.26,0,0,1,.09-.11,2,2,0,0,0,.11-.21,1.6,1.6,0,0,0,.09-.26s.07,0,.07,0a.26.26,0,0,1,0-.09,1.14,1.14,0,0,0,.2-.33,2,2,0,0,1,.16-.31,1.66,1.66,0,0,0,.12-.27A.91.91,0,0,1,33.3,74l0,0-.12.07-.09.07q-.11.15-.18.15l0,0c0-.07,0-.11,0-.13L32.75,74l-.06,0L32.6,74l-.18-.25h0l-.1-.1-.07-.15a.17.17,0,0,1-.13-.15.46.46,0,0,1-.07-.28,1,1,0,0,1,.07-.31,0,0,0,0,0,0,0l.07,0v0l.13-.1a.15.15,0,0,0,.08-.1l.22,0h.14L33,72.4l.36-.13a.29.29,0,0,0,.21-.07,18.11,18.11,0,0,1,2.18-.44,14.14,14.14,0,0,1,2.37-.13,3.89,3.89,0,0,1,.78.09,4.92,4.92,0,0,1,.59.19l.18.08.16.07a1.68,1.68,0,0,1,.42.38,1,1,0,0,1,.25.52.5.5,0,0,1,0,.11.33.33,0,0,0,0,.08.29.29,0,0,0,0,.29c0,.05,0,.13,0,.21a.68.68,0,0,1,0,.21.88.88,0,0,1-.21.52.61.61,0,0,0-.16.25l-.15.13a.42.42,0,0,1-.08.11.38.38,0,0,1-.15.08v0l-.13.11-.19.14-.07.06-.29.18h-.06a2.23,2.23,0,0,1-.51.36.47.47,0,0,0-.12.09.5.5,0,0,1-.12.09l-.39.33H37.7s0,0,0,0h0l-.11,0-.07,0v0l-.07.1-.38.11a1.65,1.65,0,0,0-.38.18l-.25.09-.23.09,0-.07.07,0a2.8,2.8,0,0,0,.57-.25l.08,0,0,0h0l.2-.18-.3.15-.25.11-.39.23a1.26,1.26,0,0,0-.21.16l-.26.14a4.31,4.31,0,0,1-.46.2l-.06,0a.19.19,0,0,0-.07.07.4.4,0,0,0-.34.13l-.39.13-.39.15-.2.09-.17.07,0,0s-.06,0-.06,0,0,0,0,0,0,0,0,0v0s0,0,0,0a.09.09,0,0,0,0,.06.13.13,0,0,1,0,.06c0,.05,0,.08-.1.07h0v0l0,0-.06.13h0a.1.1,0,0,1,0,.09l-.07,0v0l0,0,0,0a.11.11,0,0,0,0,0,.08.08,0,0,1,0,0s0,0,0,0L33,79h0l0,0,0,0,0,0v.07s-.07,0-.07,0v.13c0,.07-.06.1-.11.1l-.1.2-.08.17a.28.28,0,0,1-.08.12.07.07,0,0,1,0,.07l0,0,0,.09,0,.07,0,0,0,0,0,0,0,0a.15.15,0,0,0-.1.08.11.11,0,0,0,0,0l0,.07,0,0a.22.22,0,0,1-.07.16.33.33,0,0,1,0,.15,0,0,0,0,1,0,0,0,0,0,0,0,0,0h.06l-.1.1h0l-.11.18a1.11,1.11,0,0,0-.08.16.59.59,0,0,0,0,.21l-.08,0a.54.54,0,0,1,0-.16.23.23,0,0,1,.09-.2s0,0,0-.08v0l0-.08,0-.11a.07.07,0,0,0,0,0,.24.24,0,0,0,0-.06h-.11c.08,0,.11-.09.11-.13Zm-.33-.29v0a.07.07,0,0,1,0,0,.12.12,0,0,0,0,0l-.08.18Zm1-1.11,0,0h0S32.79,79.18,32.79,79.17Zm0,0h0Zm0,0h0v0Zm5.23-6.1-.54,0-.6,0a.79.79,0,0,1-.24,0l-.2,0-.42.08a.88.88,0,0,0-.27.06.51.51,0,0,1-.2.46,1.2,1.2,0,0,1-.11.22,1.07,1.07,0,0,1-.15.2l-.33.54a2.31,2.31,0,0,0-.22.33,2.57,2.57,0,0,1-.19.29l-.08.1h0l-.14.18a.42.42,0,0,0-.07.16,0,0,0,0,1,0,0,0,0,0,0,0,0,0l0,0s0,0,0,0l.85-.34.73-.29a6.86,6.86,0,0,0,.77-.39l.16-.08.63-.33.66-.33.23-.12.26-.17.18-.13a1.77,1.77,0,0,0,.38-.23.38.38,0,0,0,0-.2.28.28,0,0,0-.07-.16A4.49,4.49,0,0,0,38.11,73.09Zm1.19,2.15,0,0Z"/><path class="cls-5" d="M40.28,80.24v0c0,.11,0,.18-.07.21h0l0,0-.07.08-.06.11a.6.6,0,0,0-.1.14.25.25,0,0,1-.13.12v0a.22.22,0,0,0-.1.09l0,.09,0,.06a.11.11,0,0,1-.08,0c-.07,0-.1,0-.1,0a.15.15,0,0,1-.13.08.12.12,0,0,1-.1.11.27.27,0,0,1-.15.07c-.12,0-.14,0,0,0H39a.18.18,0,0,0,0,.13l-.07,0c-.06,0-.1,0-.1,0h-.95l-.16,0-.07-.1a2.74,2.74,0,0,1,.11-.52,3.86,3.86,0,0,1,.15-.41s0,0,0,0a.31.31,0,0,1,0-.08l.13-.22.15-.25v0a.27.27,0,0,1,0-.1l.06-.08a.19.19,0,0,0,0-.09l0-.11.16-.27A1.72,1.72,0,0,0,38.7,79L39,78.6l-.29,0-.18,0h-.2a.82.82,0,0,1-.49-.13l0,0v0s0,0,0,0,0,0,0,0l0-.08a.11.11,0,0,1,0-.07.23.23,0,0,1,.11-.06c.1,0,.16,0,.18,0l-.16,0a.22.22,0,0,1-.11,0l-.18,0s.06,0,.28,0c0,0,0,0,0,0h0v0s0,0,0-.07a.26.26,0,0,1,.15-.11l0,0h.09l.09,0,.5-.1a3.08,3.08,0,0,0,.54-.18l.25-.07,1.08-1.61q.56-.83,1.15-1.6l.28-.39c.1-.14.2-.27.29-.39l.29-.41c.11-.14.21-.29.31-.44h0l.21-.21.16-.22a1,1,0,0,0,.16-.3.53.53,0,0,1,.18-.1l.08,0,.08,0,.15-.1a.31.31,0,0,1,.18-.07h.16l.23,0a.2.2,0,0,1,.16,0,.61.61,0,0,1,.39,0h.2s.1.06.18.18l0,0a.29.29,0,0,0,.21,0,1.05,1.05,0,0,1,.26,0,.16.16,0,0,1,.16.09,1.35,1.35,0,0,1,.1.19,1.75,1.75,0,0,1,0,.33q0,.21,0,.38a.17.17,0,0,0,0,.06.2.2,0,0,1,0,.06v.46a5.15,5.15,0,0,0,0,.56v.56c0,.12,0,.24,0,.37s0,.25,0,.37a2.63,2.63,0,0,0,0,.33c0,.1,0,.21,0,.33h.38l.4,0a1.77,1.77,0,0,1,.4,0,.07.07,0,0,1,.06,0h0l.13,0a.11.11,0,0,1,.08.11l-.07.1-.11-.08a.32.32,0,0,0,.08.11.06.06,0,0,1,0,.09l-.07,0v0h0v0a.08.08,0,0,1,0,0,.07.07,0,0,0,0,0v0s0,0,0,0,0,0,0,0l0,.16,0,0h-.13l0,0a.11.11,0,0,1-.08,0H47a.33.33,0,0,0-.2,0l-.2.12-.18,0,0,.07a.07.07,0,0,0-.07,0l0,0v0l0,0a.12.12,0,0,1,0,0,.07.07,0,0,0,0,0v0a.76.76,0,0,0,0,.2.94.94,0,0,0,0,.22.07.07,0,0,1,0,0,.07.07,0,0,0,0,0l-.07.06v.88s0,0,0,0a.2.2,0,0,1,0-.1.26.26,0,0,0,0,.11.32.32,0,0,1-.07.16v0l0,0c0,.05,0,.11-.08.16s0-.1,0-.16,0-.1,0-.12a.74.74,0,0,1,0-.14v-.14h0a.41.41,0,0,0,0-.1.32.32,0,0,1,0-.08,1.35,1.35,0,0,1,0-.26h0a.06.06,0,0,0,0,0,.07.07,0,0,1,0,0,.18.18,0,0,0,0,.08s0,.06-.06.11a.19.19,0,0,1-.07-.16v.13a1.06,1.06,0,0,0,0,.2.56.56,0,0,1,0,.2v0h0v.31a0,0,0,0,0,0,0,.07.07,0,0,1,0,0,1.51,1.51,0,0,1,0,.44s0,0,0,.07a.38.38,0,0,0,0,.14.57.57,0,0,0,0,.12l0,.21a.25.25,0,0,1,.07-.15l0,0s0-.08.1-.13v.15a.11.11,0,0,1,0,.1.13.13,0,0,1,0,.1.33.33,0,0,0,0,.08.29.29,0,0,1,0,.06.89.89,0,0,1,0,.21.48.48,0,0,1,0,.18h0a.58.58,0,0,0,0,.16s0,.1,0,.17a1.39,1.39,0,0,1,0,.24l0-.08v.08s0,0,0,0a0,0,0,0,0,0,0h0s-.07.09-.07.23a.13.13,0,0,0-.1,0l0,0,.06,0a.08.08,0,0,1,0,.09.36.36,0,0,0,0,.09.23.23,0,0,0,0,.1l-.08-.08c0,.06,0,.09,0,.08s-.05,0-.11.08H45.1a1,1,0,0,1-.16-.16.28.28,0,0,1,0-.11.73.73,0,0,1,0-.15,1.59,1.59,0,0,0,0-.27l-.07-.33q-.06-.62-.07-1.29t0-1.34v-.51c0-.16,0-.33,0-.49a.27.27,0,0,0-.23,0l-.08,0h-.1l-.44.11-.47.14h-.08v0a.45.45,0,0,1,0-.11,1.1,1.1,0,0,0-.36.16v0c0,.07-.09.07-.13,0a0,0,0,0,1,0,0h0a.29.29,0,0,1-.21.07l0,0-.06,0-.07,0h-.09l-.11,0-.1.07,0-.08.07,0-.23.08-.07,0s0,0-.07.11l-.06.1,0,.1a.38.38,0,0,0-.16.25l-.11.1.11,0a.35.35,0,0,0-.11.12l-.06.12-.11.14a.6.6,0,0,1-.12.12v0a.55.55,0,0,0-.1.21v0a.51.51,0,0,1-.07.2c-.05,0-.08,0-.08,0l0,.11a.34.34,0,0,0-.14,0,.08.08,0,0,0-.06.07l0,0,0,0,0,0v.06a.17.17,0,0,0,0,.07.74.74,0,0,1-.11.23l-.15.16Zm-1.11,1a.07.07,0,0,0,0,0h0l0,0Zm.31-.1,0,0h0Zm.33-.55,0,.11-.08.11h0l0,.07.15-.24v0Zm.57-1s0,0,0,0,0,0,0,0a.42.42,0,0,1,.11-.28,1.19,1.19,0,0,0-.15.18l-.15.23a.08.08,0,0,0,0,.08h-.07v0a.09.09,0,0,0,0,.06.47.47,0,0,0-.13.25.2.2,0,0,0-.11.07l0,.09,0-.07v.13l0-.07a.76.76,0,0,0,.13-.17l.11-.22h.07v.07l.08,0v0l0,0,0-.08A.17.17,0,0,1,40.38,79.64Zm-.51.28s0,.06,0,.06v0l0,0,0-.07a.09.09,0,0,1,0,0Zm.23.44v0l0-.1v0a.09.09,0,0,0,0,.06S40.11,80.36,40.1,80.36Zm.08-1.45a.1.1,0,0,0,0,.08,0,0,0,0,1,0,0A.09.09,0,0,1,40.18,78.91Zm0,.77a.07.07,0,0,0,0,0A.07.07,0,0,1,40.15,79.67Zm0-.08,0,0s0,0,0,0a0,0,0,0,1,0,0Zm.18-.26,0-.07v0Zm.08-.16.08-.07,0-.11Zm.11-.65a.09.09,0,0,0,0,.07l.06-.07Zm.11-.16h0v0h0Zm.28.41-.11.16-.11.17,0,0,.11-.11h0a.28.28,0,0,0,.07-.1A.4.4,0,0,1,41,78.76Zm1.81-2.09,1-.22a8.13,8.13,0,0,0,1-.29,5.44,5.44,0,0,0,0-.59q0-.3,0-.63a1.93,1.93,0,0,1,0-.32,1.81,1.81,0,0,0,0-.32.41.41,0,0,1,0-.15v-.07s0,0,0-.06-.05,0-.15.19l-.29.38L44,75l0,.08a.12.12,0,0,0,0,0,.33.33,0,0,0-.12.12l-.11.16-.11.13v0a.43.43,0,0,1-.06.18.39.39,0,0,0-.16.16l-.23.25-.08.18L43,76.4a.14.14,0,0,0,0,.08l-.09.07Zm1.32.42v0l0,.07v0l0,0v0Zm1.24,3.11s0,0,0,0Zm.15-.78a.16.16,0,0,0,0,.07v.06s0,0,0-.1,0,0,0,0S45.48,79.44,45.48,79.43Zm.08-1.08v0l0,0c0-.08,0-.15,0-.21a.83.83,0,0,1,0-.2l0,0,0,0s0,0,0,0h0v.1a.23.23,0,0,1,0,.1.25.25,0,0,0,0,.07A.19.19,0,0,1,45.56,78.35Zm.08.47a.16.16,0,0,0,0,0,.12.12,0,0,1,0-.07l0,0a.07.07,0,0,1,0,0s0,0,0,0l0,.17a1.07,1.07,0,0,0,0,.19l0,0v0a.17.17,0,0,1,0-.08A1,1,0,0,1,45.64,78.82Z"/><path class="cls-5" d="M53.22,79.08s0,0,0,0a.08.08,0,0,0,0,0,.11.11,0,0,0-.07,0l-.06.06a0,0,0,0,0,0,0l0,.08c.05,0,.09,0,.1-.1s0-.09.08-.07,0,0,0,0,0,0,0,0,.05,0,.06,0a.05.05,0,0,1,0,0l-.13.18a.34.34,0,0,1-.18.13.13.13,0,0,0,0,.08l.06-.07.07-.06a.09.09,0,0,1,0,.06l-.07.07-.06.06,0,.06s0,0,0,0,0,0,0,0a.22.22,0,0,0-.08.18l-.21.29-.14.13a.61.61,0,0,1-.14.11l-.27.17a2.07,2.07,0,0,0-.27.17c0,.05,0,.08-.07.09l-.09,0a.21.21,0,0,0-.11.1l-.25.1,0,0,.11-.06.11,0s0,0,0,.06l-.14,0a.15.15,0,0,0-.11.08q-.34.13-.67.29a2.17,2.17,0,0,1-.78.19l0,0h-.07l-.07,0s0,0-.06,0a1.16,1.16,0,0,1-.33,0l-.4,0a2.34,2.34,0,0,1-.76-.13,2.79,2.79,0,0,1-.7-.35,2,2,0,0,1-.52-.52,1.24,1.24,0,0,1-.22-.64,2.44,2.44,0,0,1,0-.87,7,7,0,0,1,.22-.77,6,6,0,0,1,.37-.94q.22-.45.46-.87a2.57,2.57,0,0,0,.15-.27,1.59,1.59,0,0,1,.15-.25A14.55,14.55,0,0,1,49,74.76q.45-.59.92-1.14a8.11,8.11,0,0,1,.75-.75l.8-.7.31-.23.31-.24a.31.31,0,0,1,.1-.09l.13-.09.33-.18a1.06,1.06,0,0,1,.26,0l.26,0,.16.11.25.08.22.1a.15.15,0,0,0,.09.06l.15,0,.16,0a.15.15,0,0,1,.09.06l.13.14a.55.55,0,0,1,.11.14s0,0,0,0a.3.3,0,0,0,.06.12l.08.09a.78.78,0,0,1,.15.42,1.83,1.83,0,0,1,0,.48l0,.09a.14.14,0,0,0,0,.07q0,.13,0,.19a.61.61,0,0,1,0,.14l-.6,1.11a.34.34,0,0,0-.13.15.59.59,0,0,1-.11.16s0,0,0,0,0,0,0,0a.5.5,0,0,0-.15.2h0c-.05.09-.08.13-.09.11s0,0-.11.13h0a.3.3,0,0,0-.1.07l-.07.06,0,0a.15.15,0,0,0-.07.09.1.1,0,0,1-.06.07l.06-.11s0,0,0,0-.09.11-.1.1,0,0-.1.13,0,0,0,0,0,0,0,0l0,0,0,0a.14.14,0,0,0-.07.11.17.17,0,0,0-.12,0,.23.23,0,0,1-.12.06.15.15,0,0,0,0,.08s0,0-.09,0l0-.1a.28.28,0,0,0-.16.11h-.08l-.06,0s0,0,0-.09,0-.06,0,0a.29.29,0,0,1-.2,0,.38.38,0,0,0-.11-.11S51.9,76,51.89,76a.5.5,0,0,1,.06-.34l.16-.29.09-.16s0,0,0,0,0,0,0,0,0-.06.07-.15l.36-.64a6.21,6.21,0,0,0,.31-.63.33.33,0,0,0-.16.08.64.64,0,0,0-.12.15l-.19.11a.28.28,0,0,0-.12.11l-.33.28a3.33,3.33,0,0,0-.32.31l-.19.17a.87.87,0,0,0-.16.22c-.23.26-.45.53-.67.8a8.1,8.1,0,0,0-.6.86.27.27,0,0,0-.11.12.21.21,0,0,1-.1.11l0,0c0,.08-.05.12-.1.13a.28.28,0,0,1-.07.15l-.1.1a.07.07,0,0,1,0,.1s0,.06,0,.08l0,0,0,0a.41.41,0,0,1-.08.21.56.56,0,0,0-.1.23l-.07.07a.14.14,0,0,0,0,.09s-.05,0-.06,0a.11.11,0,0,1,0,.06s0,0,0,0,0,0,0,0a.76.76,0,0,0,0,.15.2.2,0,0,1,0,.11l-.11.2a.38.38,0,0,0,0,.22.39.39,0,0,0-.08.2l0,.24a1.17,1.17,0,0,0,0,.14.75.75,0,0,0,0,.19.73.73,0,0,0,.1.3.34.34,0,0,0,.23.17,1.12,1.12,0,0,0,.57,0l.47-.16a5.62,5.62,0,0,0,.56-.27l.56-.32s0,0,0,0l-.21.12-.22.12c-.06,0-.08,0,0,0a.87.87,0,0,0,.22-.1l.19-.13.17-.15.17-.13.31-.17a.67.67,0,0,0,.23-.2l.23-.17.18-.13.17-.13.22-.17s0,0,0,0a.33.33,0,0,0-.1.16s0,0,0,0,0,0,0,0,0,0,0,0l0-.06h.13a.36.36,0,0,1,0,.11.07.07,0,0,0,0,.08l.15-.13a.58.58,0,0,1-.07.16.32.32,0,0,1-.13.1c0,.05,0,.08,0,.08a.11.11,0,0,0,.08,0l.08,0s0,.07,0,.07a.23.23,0,0,1,0,.1Zm-4.09-.68,0,0Zm1.16,3.21s0,0,0,0,0,0,0,0a.83.83,0,0,1,.22-.07.86.86,0,0,0,.22-.07.07.07,0,0,0,.08,0,.13.13,0,0,1,.08,0,.72.72,0,0,1-.28.11A1.41,1.41,0,0,0,50.29,81.61Zm.49-.08a.1.1,0,0,1,.1,0,.12.12,0,0,0,.1,0,.27.27,0,0,0,.15,0l.13-.07a.58.58,0,0,1-.22.11Zm2.09-3,0,0S52.86,78.56,52.86,78.55Zm.07-.16v0s0,0,0,0Zm0,0,0,0S52.94,78.33,53,78.35Zm0,0s0,0,0,0l0,0a.06.06,0,0,1,0,0Zm-.06.11v0l0,0A0,0,0,0,0,52.95,78.47Zm0,0,0,0Zm.28.93h0s0,0,0,0,0,0,0,0S53.25,79.36,53.25,79.38Z"/><path class="cls-5" d="M56.61,77.68c-.05,0-.08,0-.08,0h0a.11.11,0,0,0,0,.08h0s0,0,0,0,0,0,0,0h0s0,0,0,0,0,0,.06,0-.06,0-.06,0a0,0,0,0,1,0,0s.07,0,.08,0l0-.06s0,.05,0,.06-.07,0,0,0-.1,0-.11.07h0a.13.13,0,0,0,0,.07.15.15,0,0,1,0,.07s0,0,0,0,0,0,.07,0a.1.1,0,0,1,0,.06l0,.06s0,0,0,0,0,0,0,0,0,0,0,0a0,0,0,0,1,0,0s0,0,0,0a0,0,0,0,0,0,0s-.07,0-.07,0,0,0,0,0,0,0,0,0l-.07,0v0s0,0,0,0,0,.08,0,.1,0,0,0,0,0,0,0,0,0,0,0,0,0,0,0,0a.15.15,0,0,0,0,.15s-.07,0-.07,0a.1.1,0,0,1,0,.07s.05,0,.06,0l0-.06s0,0,0,0,0,0,0,.06,0,0,0,0,0,0,0,0,0,.06-.06,0a.32.32,0,0,0-.1.16.92.92,0,0,1,0,.16l0,0-.09.08-.06.08h0s0,0,0,0,0,0,0,0,.08,0,.08,0,0,0,0,0,0,0,0,0,0,0,0,0,0,.1-.13.13,0,0,0,0,0,0,0,0a.12.12,0,0,1,0,.06.12.12,0,0,0,0,.07l.07,0,.08,0a.07.07,0,0,1,0,.06l-.07.06h0a.2.2,0,0,0,0,.12.16.16,0,0,1-.06.12l0,0a.18.18,0,0,0-.11.18.57.57,0,0,0,0,.14l0,.14,0,0s0,0,0,0,0,0,0,0a.15.15,0,0,1,0,.11s0,0,0,0,0,0,0,0a.45.45,0,0,0,0,.13h0a.2.2,0,0,0-.07.09.07.07,0,0,0,0,.09l.06-.09s0-.07,0-.09h0a.13.13,0,0,1,0-.08s.05.08,0,.12a.17.17,0,0,0,0,.09h0l0,.14a.45.45,0,0,0,0,.17.07.07,0,0,1-.07,0s0,0,0,0-.07,0-.06.07a.08.08,0,0,1,0,.09s0,.09,0,.14,0,.1,0,.16-.06,0-.06,0a.09.09,0,0,1,0-.09.78.78,0,0,0,0-.09s0,0,0,0,0,0,0,0-.13,0-.13,0,0,0,0,0,0,0-.07,0a.09.09,0,0,1,0-.06h0s0,0,0,0,0,0,0,0,0,0,0,0,0,0,0,0h-.07a.24.24,0,0,0,0,.15s0,.08-.11.11a.11.11,0,0,0,0-.16.16.16,0,0,1,0-.16h0s0,0,0,0,0,0,0,0a.06.06,0,0,0,0,0c-.05,0-.08,0-.08,0s0,0,0,0,0,0,0,0,0,0,0,0a.06.06,0,0,1,0,0h-.13a.08.08,0,0,1,0,.11l-.06.08-.11,0a.17.17,0,0,0-.11,0,.1.1,0,0,0-.08.07l0,.08a1.11,1.11,0,0,0-.29.06.87.87,0,0,1-.3,0,.45.45,0,0,1-.26-.36,2.55,2.55,0,0,1,.06-.82c.07-.25.14-.5.21-.74a15.29,15.29,0,0,1,.63-1.92L55.29,76l.11-.25.24-.5.29-.64.29-.66.25-.57a3.28,3.28,0,0,0,.15-.37,4.11,4.11,0,0,0,.29-.57.63.63,0,0,1,.15-.26,2.07,2.07,0,0,0,.2-.26.37.37,0,0,0,.2-.12.48.48,0,0,1,.22-.14s0,0,0,0a.11.11,0,0,0,.08,0h.08l0,0s0,0,0,0a4.45,4.45,0,0,1,.51.26l.46.29a.2.2,0,0,1,.11.14.21.21,0,0,1,0,.2.35.35,0,0,0-.11.15.87.87,0,0,1-.11.2,1.07,1.07,0,0,0-.13.24l-.1.26a2.34,2.34,0,0,0-.32.6,3.27,3.27,0,0,1-.27.58.16.16,0,0,0-.07.17.17.17,0,0,1-.07.17s0,0,0,0,0,0,0,0l0,0,0,0s0,0,0,0,0,0,0,0h0s0,.06,0,.07,0,0,0,0,0,0,0,.07a0,0,0,0,0,0,0l0,.12a.41.41,0,0,1-.08.12.34.34,0,0,1-.09.25.46.46,0,0,0-.12.22h.07s0,0,0,.07l-.07.06a.23.23,0,0,1-.07.18.37.37,0,0,0-.11.16.1.1,0,0,0,0-.06.11.11,0,0,1,.08-.06.64.64,0,0,0-.1.25.41.41,0,0,1-.13.23h0a.92.92,0,0,0,0,.15.21.21,0,0,1-.08.11s0,0,0,0,0,0,0,0-.13.07-.14.1a.16.16,0,0,1,0,.08,0,0,0,0,1,0,0s0,0,0,0,0,0,0,0,0,0,0,0l0,.1s0,.05,0,.09a.26.26,0,0,0-.07.12l.06,0,0,0,0,0h0l-.07,0-.1.07s0,0,0,0,0,0,0,0h-.07Zm-1.89,2.64a.18.18,0,0,0-.06.07s0,.05,0,.06a.26.26,0,0,0,0-.07A.13.13,0,0,1,54.72,80.32Zm.11.11h-.06a.07.07,0,0,1,0,0C54.86,80.49,54.88,80.47,54.84,80.44Zm.07,0s0,0,0,0,0,0,0,0,0,0,0,0S54.87,80.4,54.9,80.42Zm.51-1.17a0,0,0,0,0-.06,0s0,0-.06,0,0,0,0,.06,0,0,0,.06l0,0h0a1.67,1.67,0,0,0-.1.2c0,.05,0,.12-.06.2h0A.88.88,0,0,1,55,80a2.91,2.91,0,0,0-.18.31s0,0,0,0,0,0,0,0A.16.16,0,0,0,55,80.3l0-.09a.4.4,0,0,0,.2,0s0,0,0,0,0,0,0,0,.08,0,.08,0a.1.1,0,0,0,0-.07.13.13,0,0,1,0,0,.15.15,0,0,0,0-.07.7.7,0,0,1,.11-.15.25.25,0,0,0,.07-.18s0,0,0,0,0,0,0,0,0,0,0,0a.07.07,0,0,1-.07,0,.19.19,0,0,1,.06-.11.31.31,0,0,0,.07-.15h0s.06,0,0-.06S55.36,79.27,55.41,79.25Zm-.36,1a.2.2,0,0,0,0,.11.77.77,0,0,1,0,.15h0a.25.25,0,0,1,.07-.13S55.1,80.33,55,80.28Zm.13-1.09h0v0A0,0,0,0,0,55.18,79.18Zm.31-.16a.18.18,0,0,0-.11.09.19.19,0,0,1-.07.09c.09,0,.13,0,.14,0A.31.31,0,0,1,55.49,79Zm0,.46a.2.2,0,0,0-.1,0,0,0,0,0,0,.07,0S55.46,79.49,55.46,79.48Zm0-.47a.91.91,0,0,1,.08-.18l.1-.16h-.06s0,0,0,0h.08a.38.38,0,0,0,.06-.15.27.27,0,0,1,.09-.15.05.05,0,0,0,0,0s0,0-.06,0l.13-.2a.37.37,0,0,0,.07-.21.24.24,0,0,0,.11-.12.2.2,0,0,0,0-.14s0,0,0,0h0a5.77,5.77,0,0,1-.26.52v0h0a.21.21,0,0,1-.07.17.2.2,0,0,0-.07.15H55.5s0,0,0,0a.05.05,0,0,1,0,0l-.09,0a.12.12,0,0,0,0,0,.18.18,0,0,0-.07.12.8.8,0,0,1,0,.14h.1Zm0,.28a0,0,0,0,1,0,0s0,0,0,0a0,0,0,0,0,0,0S55.49,79.28,55.47,79.28Zm.23-.23a.1.1,0,0,0,0-.06s0,0,0-.07a.38.38,0,0,0-.15.12l-.1.14s0,0,0,0a.08.08,0,0,0,0,.06.13.13,0,0,0,.09-.11S55.61,79.07,55.7,79.05Zm-.15,1.32a.06.06,0,0,0,0,.07S55.55,80.42,55.55,80.37Zm.24-2.69s.07,0,.07-.08l-.07,0-.08,0s.05,0,0,0,0,0,0,0a.19.19,0,0,0,0,0,0,0,0,0,1,0,0l0,0-.06.08a.06.06,0,0,0,0,.08.8.8,0,0,1,.11-.16A.2.2,0,0,0,55.8,77.68Zm0,2.18h0l0,0S55.77,79.89,55.77,79.87Zm.13-2.09-.06,0s0,0,0,0S55.9,77.82,55.9,77.78Zm.07-.41-.07.11s0,.07,0,.09l.07-.1A.08.08,0,0,0,56,77.37Zm0,.31s0,0,0,0S56,77.72,55.93,77.68Zm0-.52a.06.06,0,0,0,0,0s0,0,0,0S55.92,77.2,56,77.16Zm.18.15,0,0,0,0a.82.82,0,0,1,.08-.2.52.52,0,0,0,.07-.18h0v0l0-.11a.46.46,0,0,0,0-.11,1.27,1.27,0,0,1-.13.25.86.86,0,0,0-.11.24s0,0,0,0,0,0,0,0-.1,0-.1,0h0l0,0c-.1,0-.15.07-.15.1s0,0,0,0,0,0,.06,0a.14.14,0,0,0,0,.09s0,.06-.07.09.13-.05.11-.09S56.09,77.33,56.14,77.31Zm-.13.24s0,0,0,0S56,77.54,56,77.55Zm.2-.11s-.07,0-.07,0l0,.07h0l0,0Zm.18-.2a.07.07,0,0,0-.07,0,0,0,0,0,0,0,0A.21.21,0,0,0,56.38,77.24Zm.1-.21c-.05,0-.08,0-.08.07l0,0a0,0,0,0,1,0,0A0,0,0,0,0,56.48,77Zm0,1s0,0,0,.07S56.45,78.05,56.45,78Zm.07-.24s-.07,0-.07.07a.55.55,0,0,0,0,.1.16.16,0,0,1,0-.09A.09.09,0,0,0,56.52,77.76Zm0-.23s0,0,0,0a0,0,0,0,1,0,0,.07.07,0,0,0,0,0,0,0,0,0,0,0,0v0Zm.11-.72s0,0,0,0-.08,0-.09.06l0,.07c.05,0,.08,0,.09,0A.12.12,0,0,1,56.65,76.82Zm-.11.2s0,0,0,0a0,0,0,0,1,0,0s0,0,0,0A0,0,0,0,1,56.53,77Zm0,.72s0,0,0,0Zm.16-1.09a1.12,1.12,0,0,1,.09-.17l.11-.19h-.13a.2.2,0,0,0,0,.1s0,.06-.07.08,0,0,0,0,0,0,0,0a.1.1,0,0,0-.07.09.19.19,0,0,1,0,.11h0Zm.23-.49q-.13,0-.11.11C57,76.24,57,76.2,57,76.15Z"/><path class="cls-5" d="M65.86,72.17s0,0,0,0,0,0,0,0,.05,0,.13,0a.07.07,0,0,1-.06,0h-.07c0,.05,0,.07,0,0s0,0,0,0a.07.07,0,0,1,0,.09l-.09,0s0,0,0,0l.07,0,.07,0s0,0,0,0l-.06,0-.06,0s0,0,0,0,0,0,0,0,0,0,0,0,0,0,0,0h0s0,0,0,0,0,0,0,0l0,0c-.07,0-.08.08,0,.11l-.11,0a.2.2,0,0,0-.09,0s0,0,0,0,0,0,0,0-.07,0,0,.07,0,.05,0,.07a.23.23,0,0,1-.06.09l-.07.07a.3.3,0,0,1-.17.08l-.2,0-.2,0-.18,0s0,0,0,0a.37.37,0,0,0-.23,0,.67.67,0,0,1-.23,0l-.26,0s0,0,0,0-.09.05-.28.11a.26.26,0,0,0-.17,0l-.15.07a1.58,1.58,0,0,0,0,.27.53.53,0,0,1-.08.24.28.28,0,0,0-.11.13,1,1,0,0,1-.13.2l0,0s0,0,0,0a.22.22,0,0,0-.07.18.26.26,0,0,1-.07.2,1.31,1.31,0,0,0-.09.18,1.28,1.28,0,0,1-.09.18l-.06.1,0,.11-.15.13a.19.19,0,0,0,0,.11.28.28,0,0,1,0,.12l-.08.07a3.08,3.08,0,0,0-.17.38l-.19.46-.2.47-.16.4-.07.19L61.6,78l-.15.36a4.06,4.06,0,0,0-.13.39q-.15.38-.33.78a6.19,6.19,0,0,0-.3.78h-.06l0,0a1.4,1.4,0,0,0-.16.34c0,.13-.09.26-.14.38a2.13,2.13,0,0,1-.16.33.51.51,0,0,1-.25.21.09.09,0,0,0-.08,0s-.06,0-.08,0l0,0,0,0c0-.06-.06-.07-.11,0l-.06,0,0,0-.16,0a.17.17,0,0,0-.11.11c-.11,0-.16,0-.16,0s0,.07-.09.16l-.14.08a.28.28,0,0,1-.19,0,1.05,1.05,0,0,1,0-.14.23.23,0,0,1,0-.09.61.61,0,0,1,0-.11,2,2,0,0,0,.06-.2,7.87,7.87,0,0,1,.23-.91l.28-.9q.16-.62.42-1.34t.55-1.44l.59-1.42.54-1.25a1.58,1.58,0,0,1-.5.06.65.65,0,0,0-.47.16.1.1,0,0,1,0,0l-.06,0s0,0,0,0v0a.09.09,0,0,1-.11,0s-.08,0-.12,0a.14.14,0,0,1-.14.09.45.45,0,0,1-.22,0s0,0,0,0,0,0,0,0l-.07,0s-.08,0-.11,0-.05,0-.07,0a1.54,1.54,0,0,0-.18-.23.43.43,0,0,1-.11-.2.27.27,0,0,1-.11-.2l-.13-.11a.52.52,0,0,1-.1-.17.24.24,0,0,1-.2-.23.62.62,0,0,1,.08-.36,1.13,1.13,0,0,0,.23-.23.61.61,0,0,1,.24-.2l.15,0a.28.28,0,0,0,.13,0l.16,0a.17.17,0,0,0,.13,0l.38-.07.36-.08a.44.44,0,0,1,.16,0l.16,0,.29-.06.19,0,.18,0,.28,0,.44-.06.44,0a.24.24,0,0,1,.15,0l.15,0,.36,0,.21,0,.22,0,.37,0h0s0,0,0,0a.33.33,0,0,1,.15,0l.18,0,.14,0h.25l.33,0h.86l.12,0,.11.06s0,.06,0,.09a.14.14,0,0,1,0,0,.13.13,0,0,0,0,0s0,0,0,0,0,0,0,0v0h0l0,0,0,0Zm.1,0h0v0Z"/><path class="cls-5" d="M65.6,80.24v0c0,.11,0,.18-.07.21h0l0,0-.06.08-.07.11a.57.57,0,0,0-.1.14.26.26,0,0,1-.13.12v0a.22.22,0,0,0-.1.09l0,.09,0,.06a.11.11,0,0,1-.08,0c-.07,0-.1,0-.1,0a.15.15,0,0,1-.13.08.12.12,0,0,1-.1.11.26.26,0,0,1-.15.07c-.12,0-.14,0,0,0h-.07a.19.19,0,0,0,0,.13l-.06,0c-.07,0-.1,0-.1,0h-.95l-.16,0-.07-.1a2.74,2.74,0,0,1,.11-.52,3.65,3.65,0,0,1,.16-.41s0,0,0,0a.28.28,0,0,1,0-.08l.13-.22.15-.25v0a.29.29,0,0,1,0-.1l.06-.08a.2.2,0,0,0,0-.09l0-.11.16-.27A1.73,1.73,0,0,0,64,79l.26-.39-.29,0-.18,0h-.2a.82.82,0,0,1-.49-.13l0,0v0s0,0,0,0,0,0,0,0l0-.08a.11.11,0,0,1,0-.07.22.22,0,0,1,.11-.06c.1,0,.16,0,.18,0l-.16,0a.23.23,0,0,1-.11,0l-.18,0s.06,0,.28,0c0,0,0,0,0,0h0v0s0,0,0-.07a.26.26,0,0,1,.15-.11l0,0h.09l.09,0,.5-.1a3.05,3.05,0,0,0,.54-.18L65,77.5,66,75.89q.56-.83,1.15-1.6l.28-.39c.1-.14.2-.27.29-.39s.18-.27.29-.41.21-.29.31-.44h0l.21-.21.16-.22a1.06,1.06,0,0,0,.16-.3.53.53,0,0,1,.18-.1l.08,0,.08,0,.15-.1a.31.31,0,0,1,.18-.07h.16l.23,0a.2.2,0,0,1,.16,0,.61.61,0,0,1,.39,0h.2s.1.06.18.18l0,0a.29.29,0,0,0,.21,0,1.05,1.05,0,0,1,.26,0,.16.16,0,0,1,.16.09,1.25,1.25,0,0,1,.1.19,1.75,1.75,0,0,1,0,.33c0,.14,0,.27,0,.38a.17.17,0,0,0,0,.06.2.2,0,0,1,0,.06v.46a5.15,5.15,0,0,0,0,.56v.56c0,.12,0,.24,0,.37s0,.25,0,.37a2.82,2.82,0,0,0,0,.33c0,.1,0,.21,0,.33H72l.4,0a1.77,1.77,0,0,1,.4,0,.07.07,0,0,1,.07,0h0l.13,0a.11.11,0,0,1,.08.11l-.07.1-.11-.08a.31.31,0,0,0,.08.11.06.06,0,0,1,0,.09l-.06,0v0h0v0a.08.08,0,0,1,0,0,.07.07,0,0,0,0,0v0s0,0,0,0,0,0,0,0l0,.16,0,0h-.13l0,0a.11.11,0,0,1-.08,0h-.26a.33.33,0,0,0-.2,0l-.2.12-.18,0,0,.07a.07.07,0,0,0-.07,0l0,0v0l0,0a.12.12,0,0,1,0,0,.07.07,0,0,0,0,0v0a.73.73,0,0,0,0,.2.9.9,0,0,0,0,.22.07.07,0,0,1,0,0,.07.07,0,0,0,0,0l-.06.06v.88s0,0,0,0a.2.2,0,0,1,0-.1.25.25,0,0,0,0,.11.32.32,0,0,1-.06.16v0l0,0c0,.05,0,.11-.08.16s0-.1,0-.16,0-.1,0-.12a.74.74,0,0,1,0-.14v-.14h0a.4.4,0,0,0,0-.1.38.38,0,0,1,0-.08,1.41,1.41,0,0,1,0-.26h0s0,0,0,0a.09.09,0,0,1,0,0,.17.17,0,0,0,0,.08s0,.06-.07.11a.19.19,0,0,1-.07-.16v.13a1.06,1.06,0,0,0,0,.2.56.56,0,0,1,0,.2v0h0v.31a0,0,0,0,0,0,0,.07.07,0,0,1,0,0,1.45,1.45,0,0,1,0,.44s0,0,0,.07a.38.38,0,0,0,0,.14.57.57,0,0,0,0,.12l0,.21a.25.25,0,0,1,.07-.15l0,0s0-.08.1-.13v.15a.11.11,0,0,1,0,.1.13.13,0,0,1,0,.1.33.33,0,0,0,0,.08.24.24,0,0,1,0,.06.94.94,0,0,1,0,.21.5.5,0,0,1,0,.18h0a.54.54,0,0,0,0,.16s0,.1,0,.17a1.5,1.5,0,0,1,0,.24l0-.08v.08s0,0,0,0a0,0,0,0,0,0,0h0s-.07.09-.07.23a.13.13,0,0,0-.1,0l0,0,.07,0a.09.09,0,0,1,0,.09.35.35,0,0,0,0,.09.23.23,0,0,0,0,.1l-.08-.08c0,.06,0,.09,0,.08s-.05,0-.11.08h-.23a1,1,0,0,1-.15-.16.25.25,0,0,1,0-.11.61.61,0,0,1,0-.15,1.73,1.73,0,0,0,0-.27l-.07-.33q-.06-.62-.07-1.29t0-1.34v-.51c0-.16,0-.33,0-.49a.28.28,0,0,0-.23,0l-.08,0h-.1l-.44.11-.47.14h-.08v0a.5.5,0,0,1,0-.11,1.1,1.1,0,0,0-.36.16v0c0,.07-.09.07-.13,0a0,0,0,0,1,0,0h0a.29.29,0,0,1-.21.07l0,0-.06,0-.07,0h-.09l-.11,0-.1.07,0-.08.07,0-.23.08-.07,0s0,0-.07.11l-.06.1,0,.1a.38.38,0,0,0-.16.25l-.11.1.11,0a.34.34,0,0,0-.11.12l-.06.12-.11.14a.63.63,0,0,1-.12.12v0a.56.56,0,0,0-.1.21v0a.53.53,0,0,1-.06.2c-.05,0-.08,0-.08,0l0,.11-.14,0a.08.08,0,0,0-.06.07l0,0,0,0,0,0v.06a.17.17,0,0,0,0,.07.71.71,0,0,1-.11.23l-.15.16Zm-1.11,1a.07.07,0,0,0,0,0h0l0,0Zm.31-.1,0,0h0Zm.33-.55,0,.11-.08.11h0l0,.07.15-.24v0Zm.57-1a0,0,0,0,1,0,0s0,0,0,0a.42.42,0,0,1,.11-.28,1.13,1.13,0,0,0-.15.18l-.15.23a.08.08,0,0,0,0,.08h-.06v0a.09.09,0,0,0,0,.06.47.47,0,0,0-.13.25.21.21,0,0,0-.11.07l0,.09,0-.07v.13l0-.07a.76.76,0,0,0,.13-.17l.11-.22h.06v.07l.08,0v0l0,0,0-.08A.17.17,0,0,1,65.69,79.64Zm-.5.28s0,.06,0,.06v0l0,0,0-.07a.1.1,0,0,1,0,0Zm.23.44v0l0-.1v0a.09.09,0,0,0,0,.06S65.43,80.36,65.42,80.36Zm.08-1.45a.09.09,0,0,0,0,.08s0,0,0,0A.09.09,0,0,1,65.5,78.91Zm0,.77a.07.07,0,0,0,0,0A.07.07,0,0,1,65.46,79.67Zm0-.08,0,0s0,0,0,0a0,0,0,0,1,0,0Zm.18-.26,0-.07v0Zm.08-.16.08-.07,0-.11Zm.11-.65a.09.09,0,0,0,0,.07l.07-.07Zm.11-.16h0v0h0Zm.28.41-.11.16-.11.17,0,0L66.2,79h0a.25.25,0,0,0,.07-.1A.43.43,0,0,1,66.28,78.76Zm1.81-2.09,1-.22a8.13,8.13,0,0,0,1-.29,5.43,5.43,0,0,0,0-.59q0-.3,0-.63a1.93,1.93,0,0,1,0-.32,1.81,1.81,0,0,0,0-.32.41.41,0,0,1,0-.15v-.07a.06.06,0,0,0,0-.06s-.05,0-.16.19l-.29.38L69.3,75l0,.08a.11.11,0,0,0,0,0,.33.33,0,0,0-.12.12l-.11.16-.11.13v0a.44.44,0,0,1-.07.18.39.39,0,0,0-.16.16l-.23.25-.08.18-.06.08a.14.14,0,0,0,0,.08l-.09.07Zm1.32.42v0l0,.07v0l0,0v0Zm1.24,3.11s0,0,0,0Zm.15-.78a.16.16,0,0,0,0,.07v.06s0,0,0-.1,0,0,0,0S70.8,79.44,70.8,79.43Zm.08-1.08v0l0,0c0-.08,0-.15,0-.21a.78.78,0,0,1,0-.2l0,0,0,0s0,0,0,0h0v.1a.23.23,0,0,1,0,.1.29.29,0,0,0,0,.07A.21.21,0,0,1,70.88,78.35Zm.08.47a.16.16,0,0,0,0,0,.12.12,0,0,1,0-.07l0,0s0,0,0,0,0,0,0,0l0,.17a1.07,1.07,0,0,0,0,.19l0,0v0a.18.18,0,0,1,0-.08A1,1,0,0,1,71,78.82Z"/><path class="cls-5" d="M78.54,79.08s0,0,0,0a.08.08,0,0,0,0,0,.11.11,0,0,0-.07,0l-.06.06a0,0,0,0,0,0,0l0,.08c.05,0,.09,0,.1-.1s0-.09.08-.07,0,0,0,0,0,0,0,0,.05,0,.07,0a.05.05,0,0,1,0,0,1.38,1.38,0,0,0-.13.18.34.34,0,0,1-.18.13.13.13,0,0,0,0,.08l.06-.07.07-.06a.09.09,0,0,1,0,.06l-.06.07-.06.06,0,.06s0,0,0,0,0,0,0,0a.22.22,0,0,0-.08.18l-.21.29-.14.13a.62.62,0,0,1-.14.11l-.27.17-.27.17c0,.05,0,.08-.07.09l-.09,0a.21.21,0,0,0-.11.1l-.24.1,0,0,.11-.06.11,0s0,0,0,.06l-.14,0a.15.15,0,0,0-.11.08q-.34.13-.67.29a2.17,2.17,0,0,1-.78.19l0,0h-.07l-.07,0s0,0-.06,0a1.16,1.16,0,0,1-.33,0l-.4,0a2.35,2.35,0,0,1-.76-.13,2.81,2.81,0,0,1-.7-.35,2,2,0,0,1-.52-.52,1.24,1.24,0,0,1-.22-.64,2.46,2.46,0,0,1,0-.87,7,7,0,0,1,.22-.77,6.11,6.11,0,0,1,.37-.94q.22-.45.46-.87a2.76,2.76,0,0,0,.15-.27,1.59,1.59,0,0,1,.15-.25,14.78,14.78,0,0,1,.84-1.22q.45-.59.92-1.14a8.11,8.11,0,0,1,.75-.75l.8-.7.31-.23.31-.24a.32.32,0,0,1,.1-.09l.13-.09.33-.18a1.06,1.06,0,0,1,.26,0l.26,0,.16.11.25.08.22.1a.15.15,0,0,0,.09.06l.16,0,.15,0a.15.15,0,0,1,.09.06l.13.14a.6.6,0,0,1,.11.14s0,0,0,0a.29.29,0,0,0,.07.12l.08.09a.78.78,0,0,1,.15.42,1.83,1.83,0,0,1,0,.48l0,.09a.15.15,0,0,0,0,.07c0,.09,0,.15,0,.19a.67.67,0,0,1,0,.14l-.6,1.11a.34.34,0,0,0-.13.15.64.64,0,0,1-.11.16s0,0,0,0,0,0,0,0a.5.5,0,0,0-.15.2h0c-.05.09-.08.13-.09.11s0,0-.11.13h0a.3.3,0,0,0-.1.07l-.07.06,0,0a.15.15,0,0,0-.06.09.1.1,0,0,1-.07.07l.07-.11s0,0,0,0-.09.11-.1.1,0,0-.1.13,0,0,0,0a0,0,0,0,1,0,0l0,0,0,0a.14.14,0,0,0-.06.11.17.17,0,0,0-.12,0,.23.23,0,0,1-.12.06.15.15,0,0,0,0,.08s0,0-.09,0l0-.1a.28.28,0,0,0-.16.11h-.08l-.07,0s0,0,0-.09,0-.06,0,0a.29.29,0,0,1-.2,0,.4.4,0,0,0-.11-.11S77.21,76,77.2,76a.5.5,0,0,1,.06-.34l.16-.29.09-.16s0,0,0,0,0,0,0,0,0-.06.07-.15l.36-.64a6.2,6.2,0,0,0,.31-.63.33.33,0,0,0-.16.08.64.64,0,0,0-.12.15l-.19.11a.28.28,0,0,0-.12.11l-.33.28a3.33,3.33,0,0,0-.32.31l-.19.17a.85.85,0,0,0-.15.22q-.34.39-.67.8a8.1,8.1,0,0,0-.6.86.28.28,0,0,0-.11.12.21.21,0,0,1-.1.11l0,0c0,.08-.05.12-.1.13a.26.26,0,0,1-.07.15l-.1.1a.07.07,0,0,1,0,.1s0,.06,0,.08l0,0,0,0a.42.42,0,0,1-.08.21.56.56,0,0,0-.1.23l-.06.07a.14.14,0,0,0,0,.09s-.05,0-.06,0a.11.11,0,0,1,0,.06s0,0,0,0,0,0,0,0a.7.7,0,0,0,0,.15.19.19,0,0,1,0,.11l-.11.2a.38.38,0,0,0,0,.22.4.4,0,0,0-.08.2l0,.24a1.17,1.17,0,0,0,0,.14.76.76,0,0,0,0,.19.73.73,0,0,0,.1.3.34.34,0,0,0,.23.17,1.12,1.12,0,0,0,.57,0l.47-.16a5.62,5.62,0,0,0,.56-.27l.56-.32s0,0,0,0l-.21.12-.22.12c-.07,0-.08,0,0,0a.88.88,0,0,0,.22-.1l.19-.13.17-.15.17-.13.31-.17a.67.67,0,0,0,.23-.2l.23-.17.18-.13.17-.13.22-.17s0,0,0,0a.33.33,0,0,0-.1.16s0,0,0,0,0,0,0,0a0,0,0,0,0,0,0l0-.06h.13a.36.36,0,0,1,0,.11.08.08,0,0,0,0,.08l.15-.13a.62.62,0,0,1-.06.16.33.33,0,0,1-.13.1c0,.05,0,.08,0,.08a.11.11,0,0,0,.08,0l.08,0s0,.07,0,.07a.23.23,0,0,1,0,.1Zm-4.09-.68,0,0Zm1.16,3.21s0,0,0,0,0,0,0,0a.83.83,0,0,1,.22-.07.86.86,0,0,0,.22-.07.07.07,0,0,0,.08,0,.13.13,0,0,1,.08,0,.72.72,0,0,1-.28.11A1.43,1.43,0,0,0,75.61,81.61Zm.49-.08a.09.09,0,0,1,.1,0,.11.11,0,0,0,.1,0,.27.27,0,0,0,.15,0l.13-.07a.59.59,0,0,1-.22.11Zm2.09-3,0,0S78.18,78.56,78.18,78.55Zm.07-.16v0a0,0,0,0,1,0,0Zm0,0,0,0S78.26,78.33,78.28,78.35Zm0,0s0,0,0,0l0,0a.07.07,0,0,1,0,0Zm-.07.11v0l0,0A0,0,0,0,0,78.26,78.47Zm0,0,0,0Zm.28.93h0s0,0,0,0,0,0,0,0S78.57,79.36,78.57,79.38Z"/><path class="cls-5" d="M81.93,77.68c-.05,0-.08,0-.08,0h0a.11.11,0,0,0,0,.08h0s0,0,0,0,0,0,0,0h0s0,0,0,0,0,0,.06,0-.06,0-.06,0a0,0,0,0,1,0,0s.07,0,.08,0l0-.06s0,.05,0,.06-.07,0,0,0-.1,0-.11.07h0a.15.15,0,0,0,0,.07.14.14,0,0,1,0,.07s0,0,0,0,0,0,.06,0a.1.1,0,0,1,0,.06l0,.06s0,0,0,0,0,0,0,0,0,0,0,0a0,0,0,0,1,0,0s0,0,0,0a0,0,0,0,0,0,0s-.07,0-.07,0,0,0,0,0,0,0,0,0l-.07,0v0s0,0,0,0,0,.08,0,.1,0,0,0,0,0,0,0,0,0,0,0,0,0,0,0,0a.15.15,0,0,0,0,.15s-.07,0-.07,0a.1.1,0,0,1,0,.07s.05,0,.06,0l0-.06s0,0,0,0,0,0,0,.06,0,0,0,0,0,0,0,0,0,.06-.07,0a.33.33,0,0,0-.1.16.92.92,0,0,1,0,.16l0,0-.09.08-.06.08h0s0,0,0,0,0,0,0,0,.08,0,.08,0,0,0,0,0,0,0,0,0,0,0,0,0,0,.1-.13.13,0,0,0,0,0,0,0,0a.12.12,0,0,1,0,.06.12.12,0,0,0,0,.07l.07,0,.08,0a.07.07,0,0,1,0,.06l-.07.06h0a.21.21,0,0,0,0,.12.15.15,0,0,1-.06.12l0,0a.18.18,0,0,0-.11.18.57.57,0,0,0,0,.14l0,.14,0,0s0,0,0,0,0,0,0,0a.15.15,0,0,1,0,.11s0,0,0,0,0,0,0,0a.45.45,0,0,0,0,.13h0a.19.19,0,0,0-.07.09.07.07,0,0,0,0,.09l.07-.09s0-.07,0-.09h0a.13.13,0,0,1,0-.08s.05.08,0,.12a.17.17,0,0,0,0,.09h0l0,.14a.45.45,0,0,0,0,.17.07.07,0,0,1-.06,0s0,0,0,0-.07,0-.06.07a.08.08,0,0,1,0,.09s0,.09,0,.14,0,.1,0,.16-.07,0-.07,0a.09.09,0,0,1,0-.09.63.63,0,0,0,0-.09s0,0,0,0,0,0,0,0-.13,0-.13,0,0,0,0,0,0,0-.07,0a.09.09,0,0,1,0-.06h0s0,0,0,0,0,0,0,0,0,0,0,0,0,0,0,0h-.07a.24.24,0,0,0,0,.15s0,.08-.11.11a.11.11,0,0,0,0-.16.16.16,0,0,1,0-.16h0s0,0,0,0,0,0,0,0a.06.06,0,0,0,0,0c-.05,0-.08,0-.08,0s0,0,0,0,0,0,0,0,0,0,0,0a.06.06,0,0,1,0,0H80.2a.08.08,0,0,1,0,.11l-.07.08-.11,0a.16.16,0,0,0-.11,0,.1.1,0,0,0-.08.07l0,.08a1.11,1.11,0,0,0-.29.06.87.87,0,0,1-.3,0,.45.45,0,0,1-.26-.36A2.55,2.55,0,0,1,79,80.5c.06-.25.14-.5.21-.74a15.29,15.29,0,0,1,.63-1.92L80.61,76l.11-.25.24-.5.29-.64.29-.66.25-.57a3.43,3.43,0,0,0,.15-.37,4.11,4.11,0,0,0,.29-.57.63.63,0,0,1,.15-.26,2.16,2.16,0,0,0,.2-.26.37.37,0,0,0,.2-.12.47.47,0,0,1,.22-.14s0,0,0,0a.11.11,0,0,0,.08,0h.08l0,0s0,0,0,0a4.42,4.42,0,0,1,.5.26l.46.29a.2.2,0,0,1,.11.14.21.21,0,0,1,0,.2.35.35,0,0,0-.11.15,1,1,0,0,1-.11.2,1.07,1.07,0,0,0-.13.24l-.1.26a2.37,2.37,0,0,0-.32.6,3.27,3.27,0,0,1-.27.58.16.16,0,0,0-.07.17.16.16,0,0,1-.07.17s0,0,0,0,0,0,0,0l0,0,0,0s0,0,0,0,0,0,0,0h0s0,.06,0,.07,0,0,0,0,0,0,0,.07a0,0,0,0,0,0,0l0,.12a.41.41,0,0,1-.08.12.34.34,0,0,1-.09.25.46.46,0,0,0-.12.22h.07s0,0,0,.07l-.07.06a.23.23,0,0,1-.07.18.37.37,0,0,0-.11.16.1.1,0,0,0,0-.06.11.11,0,0,1,.08-.06.63.63,0,0,0-.1.25.41.41,0,0,1-.13.23h0a1,1,0,0,0,0,.15.2.2,0,0,1-.08.11s0,0,0,0,0,0,0,0-.13.07-.14.1a.15.15,0,0,1,0,.08,0,0,0,0,1,0,0s0,0,0,0,0,0,0,0,0,0,0,0l0,.1s0,.05,0,.09a.26.26,0,0,0-.07.12l.07,0,0,0,0,0h0l-.07,0-.1.07s0,0,0,0,0,0,0,0h-.07ZM80,80.32a.17.17,0,0,0-.07.07s0,.05,0,.06a.26.26,0,0,0,0-.07A.12.12,0,0,1,80,80.32Zm.11.11H80.1s0,0,0,0S80.2,80.47,80.15,80.44Zm.07,0s0,0,0,0,0,0,0,0,0,0,0,0S80.19,80.4,80.22,80.42Zm.51-1.17a0,0,0,0,0-.06,0s0,0-.06,0,0,0,0,.06,0,0,0,.06l0,0h0a1.5,1.5,0,0,0-.1.2,1.89,1.89,0,0,0-.07.2h0a.91.91,0,0,1-.13.28,2.91,2.91,0,0,0-.18.31s0,0,0,0,0,0,0,0a.16.16,0,0,0,.07-.07l0-.09a.4.4,0,0,0,.2,0s0,0,0,0,0,0,0,0,.08,0,.08,0a.1.1,0,0,0,0-.07.12.12,0,0,1,0,0,.15.15,0,0,0,0-.07.74.74,0,0,1,.11-.15.25.25,0,0,0,.07-.18s0,0,0,0,0,0,0,0,0,0,0,0a.07.07,0,0,1-.07,0,.18.18,0,0,1,.06-.11.33.33,0,0,0,.07-.15h0s.06,0,0-.06S80.68,79.27,80.72,79.25Zm-.36,1a.2.2,0,0,0,0,.11.77.77,0,0,1,0,.15h0a.25.25,0,0,1,.07-.13S80.42,80.33,80.37,80.28Zm.13-1.09h0v0A0,0,0,0,0,80.5,79.18Zm.31-.16a.18.18,0,0,0-.11.09.2.2,0,0,1-.07.09c.09,0,.13,0,.14,0A.31.31,0,0,1,80.81,79Zm0,.46a.2.2,0,0,0-.1,0,0,0,0,0,0,.06,0S80.77,79.49,80.77,79.48Zm0-.47a.91.91,0,0,1,.08-.18l.1-.16h-.07s0,0,0,0H81a.39.39,0,0,0,.06-.15.27.27,0,0,1,.09-.15.05.05,0,0,0,0,0s0,0-.07,0l.13-.2a.38.38,0,0,0,.06-.21.24.24,0,0,0,.11-.12.2.2,0,0,0,0-.14s0,0,0,0h0a5.77,5.77,0,0,1-.26.52v0h0a.21.21,0,0,1-.07.17.2.2,0,0,0-.06.15h-.07s0,0,0,0a.05.05,0,0,1,0,0l-.09,0a.11.11,0,0,0,0,0,.19.19,0,0,0-.07.12.71.71,0,0,1,0,.14h.1Zm0,.28a0,0,0,0,1,0,0s0,0,0,0a0,0,0,0,0,0,0S80.81,79.28,80.79,79.28Zm.23-.23A.1.1,0,0,0,81,79s0,0,0-.07a.37.37,0,0,0-.15.12l-.1.14s0,0,0,0a.08.08,0,0,0,0,.06.13.13,0,0,0,.09-.11S80.93,79.07,81,79.05Zm-.15,1.32a.07.07,0,0,0,0,.07S80.87,80.42,80.87,80.37Zm.24-2.69s.07,0,.07-.08l-.07,0-.08,0s.05,0,0,0,0,0,0,0a.25.25,0,0,0,0,0,0,0,0,0,1,0,0l0,0a.29.29,0,0,0-.06.08A.06.06,0,0,0,81,78a.8.8,0,0,1,.11-.16A.2.2,0,0,0,81.12,77.68Zm0,2.18h0l0,0S81.08,79.89,81.08,79.87Zm.13-2.09-.06,0s0,0,0,0S81.21,77.82,81.21,77.78Zm.06-.41-.06.11s0,.07,0,.09l.06-.1A.08.08,0,0,0,81.28,77.37Zm0,.31s0,0,0,0S81.28,77.72,81.25,77.68Zm0-.52a.06.06,0,0,0,0,0s0,0,0,0S81.24,77.2,81.28,77.16Zm.18.15,0,0,0,0a.82.82,0,0,1,.08-.2.5.5,0,0,0,.07-.18h0v0l0-.11a.46.46,0,0,0,0-.11,1.27,1.27,0,0,1-.13.25.83.83,0,0,0-.11.24s0,0,0,0,0,0,0,0-.1,0-.1,0h0l0,0c-.1,0-.15.07-.15.1s0,0,0,0,0,0,.06,0a.14.14,0,0,0,0,.09s0,.06-.07.09.13-.05.11-.09S81.4,77.33,81.46,77.31Zm-.13.24s0,0,0,0S81.33,77.54,81.33,77.55Zm.2-.11s-.07,0-.07,0l0,.07h0l0,0Zm.18-.2a.06.06,0,0,0-.06,0,0,0,0,0,0,0,0A.21.21,0,0,0,81.7,77.24Zm.1-.21c-.05,0-.08,0-.08.07l0,0a0,0,0,0,1,0,0A0,0,0,0,0,81.8,77Zm0,1s0,0,0,.07S81.77,78.05,81.77,78Zm.07-.24s-.07,0-.07.07a.55.55,0,0,0,0,.1.15.15,0,0,1,0-.09A.09.09,0,0,0,81.83,77.76Zm0-.23s0,0,0,0a0,0,0,0,1,0,0,.08.08,0,0,0,0,0,0,0,0,0,0,0,0v0Zm.11-.72a0,0,0,0,1,0,0c-.05,0-.08,0-.09.06l0,.07c.05,0,.08,0,.09,0A.12.12,0,0,1,82,76.82Zm-.11.2s0,0,0,0a0,0,0,0,1,0,0s0,0,0,0A0,0,0,0,1,81.85,77Zm0,.72s0,0,0,0Zm.16-1.09a1,1,0,0,1,.09-.17l.11-.19h-.13a.2.2,0,0,0,0,.1s0,.06-.07.08,0,0,0,0,0,0,0,0a.1.1,0,0,0-.07.09.19.19,0,0,1,0,.11h0Zm.23-.49c-.09,0-.12.06-.11.11S82.32,76.2,82.29,76.15Z"/><path class="cls-5" d="M90.11,72.83s0,0,0,0,0,0,0,0,0,0,0,0,0,0,0,0,0,0,0,0,0,0,0,0,.05.11.1.11,0,0,0,0,0,0,0,0,0,0,.08,0a1.3,1.3,0,0,1,.16.24.78.78,0,0,1,.09.27.11.11,0,0,1,0,0s0,0,0,0,0,0,0,0a.06.06,0,0,1,0,0,0,0,0,0,0,0,0s0,0,0,0a.46.46,0,0,1,.09.24c0,.09,0,.17,0,.26s0,0,0-.06a.11.11,0,0,0,0-.07l0,.13s0,.07.07.1a.13.13,0,0,0,0-.08.1.1,0,0,0,0,.06s0,0,0,0,0,0,0,0a1.28,1.28,0,0,0,0,.38c0,.14,0,.27.06.4a0,0,0,0,0,0,0v0a.54.54,0,0,0,.09-.24c0-.07,0-.16,0-.27s0,0,0,.07a.08.08,0,0,0,0,.07.79.79,0,0,1,0,.38,1.78,1.78,0,0,0-.08.42.09.09,0,0,0,0,.06,1,1,0,0,0,0,.21s0,0,0,0,0,0,0,0,0,0,0,0,0,0,0,0,0,0,0,0a1.87,1.87,0,0,0,0,.33,1,1,0,0,1-.08.39,3.53,3.53,0,0,0-.13.36s0,0,0,0l0,0,0,0a.93.93,0,0,1-.11.21.24.24,0,0,0,0,.21q-.08,0-.07.11s0,.06-.06.06v.08s0,0-.07,0a0,0,0,0,0,0,0s0,0,0,0l-.07.11a.22.22,0,0,1-.07.07A.18.18,0,0,1,90,78s0,0,0,.06a.1.1,0,0,0,0,.07,1.34,1.34,0,0,0-.26.43,1.27,1.27,0,0,1-.29.45.7.7,0,0,1-.15.2.94.94,0,0,0-.16.2l0,0a3.28,3.28,0,0,1-.48.4q-.25.17-.51.38h0a.29.29,0,0,1-.09.11l-.14.07a.1.1,0,0,0-.07.1l-.15.07a.37.37,0,0,0-.13.13l.08,0-.12.07-.12.07a.06.06,0,0,1,0,0,.06.06,0,0,0,0,0h0s0,0,0,0,0,0,0,0a.29.29,0,0,0-.08.08.15.15,0,0,1-.13,0c-.09,0-.14,0-.15.08s-.07,0-.07,0,0,0,0,0a.34.34,0,0,1-.11.1.24.24,0,0,0-.1.08h0s0,0,0,0,0,0,0,0a.57.57,0,0,0-.24.12.3.3,0,0,1-.24.07s0,0,.07,0,.07,0,.07,0l-.2.07a.36.36,0,0,1-.16,0l0,0-.26,0s0,0,0,0,0,0,0,0,0,0-.07,0,0,0,0,0,0,0,0,0a.73.73,0,0,1-.33.06,1.05,1.05,0,0,0-.35,0s0,0,0,0,0,0,0,0l-.32,0h-.38l-.37,0a1.24,1.24,0,0,1-.28,0,1.2,1.2,0,0,1-.39-.2A1.46,1.46,0,0,1,83,81s0-.07,0-.08l-.06,0a.11.11,0,0,1,0,0v0a1.28,1.28,0,0,1-.15-.38c0-.15-.06-.3-.08-.45a.39.39,0,0,1,0-.11.24.24,0,0,0,0-.12l0-.06s0,0,0,0A5,5,0,0,1,83,78q.29-.7.56-1.34a2.19,2.19,0,0,0,.25-.41l.23-.47q.2-.28.39-.59l.38-.59a.5.5,0,0,0,.07-.13.18.18,0,0,1,.09-.1,2.62,2.62,0,0,1,.29-.41l.33-.37A3.72,3.72,0,0,1,86,73.1a4,4,0,0,0,.41-.52,1.11,1.11,0,0,0,.2-.15l.16-.16A1,1,0,0,1,87,72a.87.87,0,0,0,.2-.22h0a.36.36,0,0,1,.24-.1c.08,0,.15-.05.2-.16a1.67,1.67,0,0,1,.33,0,2.38,2.38,0,0,1,.43,0s0,0,0,0,0,0,0,0,.1,0,.1,0a.79.79,0,0,0,.16.2s0,0,0,0l0,0,0,0s0,0,0,0l.08.19a.25.25,0,0,0,.18.14s0,0,0,0,0,0,0,0h0s0,0,0,0,0,0,0,0a.17.17,0,0,1,.12,0l.07.07h0a.11.11,0,0,0,.12.07.11.11,0,0,1,.12.07.18.18,0,0,1,.14,0l.12.06s0,0,0,0,0,0,0,0l.1,0a.46.46,0,0,0,.16.2s0,0,0,0,0,0,0,0l0,0s0,0,0,0,0,0,0,0a.07.07,0,0,1,0,0l0,.07,0,.07s0,0,0,0Zm-3.65,2.59s0,0,0,0,0,0,0,0l-.11.07-.09.09q-.26.41-.47.78t-.44.85s0,.09-.07.23L85,78c-.09.2-.18.42-.26.65a2.64,2.64,0,0,0-.15.64.69.69,0,0,0,.1.46q.12.18.5.15l.24,0,.27-.09a.07.07,0,0,0,0,0s0,0,.06,0a4.11,4.11,0,0,0,.52-.2l.27-.21.27-.21a6.47,6.47,0,0,0,.5-.46l.47-.47a6.05,6.05,0,0,0,.42-.55L88.7,77a4.07,4.07,0,0,0,.29-.67,3.23,3.23,0,0,0,.15-.77,3.14,3.14,0,0,0,0-.59,1.89,1.89,0,0,0-.14-.55.14.14,0,0,0,0-.11.39.39,0,0,1-.07-.11,4.34,4.34,0,0,1-.24-.37,1,1,0,0,0-.31-.33,1.9,1.9,0,0,0-.6.33,6.75,6.75,0,0,0-.5.48h0s0,0,0,0-.07,0-.07,0,0,0-.06,0q-.15.26-.32.52T86.46,75.42ZM88,80.52l-.15.07-.16.09.15-.13A.15.15,0,0,1,88,80.52Zm1.79-7.94a.42.42,0,0,1,.07.1.38.38,0,0,0,.11.11.07.07,0,0,1,0-.06.12.12,0,0,0,0,0h0s0,0,0,0h0a.14.14,0,0,1,0-.08,0,0,0,0,1,0,0s0,0,0,0l-.1-.07a0,0,0,0,0,0,0,0,0,0,0,1,0,0l-.06,0s0,0,0-.06l-.15-.06a.29.29,0,0,1-.12-.07h0l-.06,0a.06.06,0,0,0-.07,0,.1.1,0,0,0,.08.07s0,0,0,0,0,0,0,0,0,0,0,0,0,0,0,0,0,0,0,0,.07,0,.13,0a.31.31,0,0,0,.18,0v0s0,0,0,0,0,0,.08,0h0Zm-.28.28s0-.07-.08-.07a.15.15,0,0,1-.13-.06.17.17,0,0,0,.1.09Zm-.11.1a.2.2,0,0,1-.1-.1.12.12,0,0,0,0,.07S89.36,73,89.38,73Zm.1,0,0-.06a0,0,0,0,0,0,0,.15.15,0,0,1,0,.07S89.46,73,89.48,72.94Zm.13.18s0,0,0,0l0,0S89.59,73.12,89.61,73.12Zm.34-.42a0,0,0,0,1,0,0,0,0,0,0,1,0,0l.06.06.06,0s0,0,0,0a.06.06,0,0,1-.07,0,.1.1,0,0,0,0-.06l0,0s0,0,0,0Zm.28,1.24s0,0,0-.11h0a0,0,0,0,0,0,0h-.07v0a.23.23,0,0,0,0,.1S90.22,74,90.23,73.93Zm.07,0v0h0S90.26,73.89,90.29,73.9Zm0,.64v0c.05,0,.08,0,.08,0s0,0,0,0,0,0,0,0a.73.73,0,0,1,0-.2.29.29,0,0,0-.07-.21.51.51,0,0,1,0,.24C90.25,74.45,90.27,74.51,90.33,74.54Zm0-.75s0,0,0,0Zm0,.88s0,0,0,0,0,0,0,0h0S90.34,74.67,90.36,74.67Zm0,1.5v0l0,0Zm.13-1.65s0,0,0,0,0,0,0-.07,0-.06,0,0a.6.6,0,0,0,0,.09A.09.09,0,0,0,90.49,74.52Zm0-.7s0,0,0,0S90.48,73.82,90.52,73.82Zm.1.86a.63.63,0,0,1,0-.17.23.23,0,0,0,0-.14.37.37,0,0,1,0,.15A.14.14,0,0,0,90.62,74.68Z"/><path class="cls-5" d="M99.42,71a.28.28,0,0,1,0,.08,1.62,1.62,0,0,1,.3.08l.22.11,0,0,0,.06a.55.55,0,0,1,.32.2,1.07,1.07,0,0,1,.2.36.39.39,0,0,1,0,.2.7.7,0,0,0,0,.19.16.16,0,0,0-.07.16l-.08.11a.53.53,0,0,0-.06.15,1.37,1.37,0,0,0-.21.31l-.16.34-.08.16-.08.16a1.87,1.87,0,0,0-.11.21l-.09.23a.77.77,0,0,0-.12.2l-.07.19a1,1,0,0,1-.08.17,1,1,0,0,1-.15.18v0a1.44,1.44,0,0,0-.15.23,1.54,1.54,0,0,1-.14.21.2.2,0,0,1,0,.16l-.11.14a.11.11,0,0,0,0,.07.07.07,0,0,0,0,.09h0s0,.06,0,.07,0,0,0,0l0,.06,0,0s0,0,0,.07h.07a.29.29,0,0,1-.06.11.29.29,0,0,0-.06.11.15.15,0,0,0,0,.11.14.14,0,0,1,0,.11s0,0,0,0,0,0,0,0a.27.27,0,0,0,0,.11.18.18,0,0,1,0,.08.17.17,0,0,1-.06.08s0,.05,0,.1,0,0,0,0a.62.62,0,0,1-.07.17l-.07.11-.07.11a.58.58,0,0,0-.07.15l0,0,0,0a.38.38,0,0,1,0,.15.2.2,0,0,0,0,.14.66.66,0,0,0-.08.15,1.08,1.08,0,0,1-.1.18.37.37,0,0,1-.09.27.32.32,0,0,0-.09.24.12.12,0,0,0-.07.08.09.09,0,0,1-.07.07s0,0,0,0,0,0,0,.07l0,0s0,0,0,.07,0,0-.06,0a.88.88,0,0,0,0,.13.32.32,0,0,1-.07.15.71.71,0,0,1-.07.3,2.56,2.56,0,0,1-.15.27.73.73,0,0,1,0,.25l-.07.29a.13.13,0,0,1,0,.1.28.28,0,0,0,0,.11h-.11a.06.06,0,0,0,0,.07,0,0,0,0,1,0,.07s.06.11.06.23,0,0,0,0,0,0,0,0,0,0,0,0a.06.06,0,0,1-.06,0,.17.17,0,0,0-.07-.08.24.24,0,0,0-.07.13.36.36,0,0,0,0,.13.13.13,0,0,1-.11,0c0,.07,0,.11,0,.13l0,0,0,0-.1.06a.15.15,0,0,1-.11,0,.5.5,0,0,1-.29,0,.86.86,0,0,0-.28-.06h-.18a.27.27,0,0,1-.16-.09.61.61,0,0,0-.2-.17s-.06-.09,0-.22a.21.21,0,0,0,0-.16A.43.43,0,0,1,95,80.7L94.87,80a6.83,6.83,0,0,1-.29-.94,8.3,8.3,0,0,0-.31-1l-.16-.59a.76.76,0,0,0-.16-.39c0-.11,0-.21-.06-.32a.64.64,0,0,0-.09-.25.48.48,0,0,1-.06-.16c0-.07,0-.09-.07-.07a.35.35,0,0,0-.06.11.37.37,0,0,1-.07.11.14.14,0,0,1,0,.1.86.86,0,0,0-.11.28,1.08,1.08,0,0,1-.08.24.78.78,0,0,1-.1.2.52.52,0,0,0-.08.21l-.1.17-.07.11-.07.11-.1.17a.48.48,0,0,1,0,.16l-.07.12.09-.29c0-.09,0-.1,0,0a.33.33,0,0,1,0,.09l0,.06a.58.58,0,0,1-.08.16.62.62,0,0,0-.08.15c0,.05,0,.07,0,0s-.06,0-.08,0,0,0,0,0,0,0,0,0a.09.09,0,0,0,0,.06v0a.21.21,0,0,1,0,.1.21.21,0,0,0,0,.08.44.44,0,0,0,0,.16.26.26,0,0,1-.07.16,1.94,1.94,0,0,1-.08.23.42.42,0,0,0,0,.23,0,0,0,0,0,0,0s0,0,0,0A.52.52,0,0,1,92,80a.44.44,0,0,0-.06.23,0,0,0,0,0,0,0,0,0,0,0,1,0,0,.14.14,0,0,1,0,.08.08.08,0,0,0,0,.08.06.06,0,0,1,0,.07.44.44,0,0,0,0,.2c0,.08,0,.12-.08.13s0,0,0,0,0,0,0,0a.6.6,0,0,1,.07-.29.56.56,0,0,0,.06-.32l0,0s0,0,0,0a0,0,0,0,0,0,0,.17.17,0,0,0,.06-.14.1.1,0,0,1,.06-.11l0,0,0,0s0,0,0,0a0,0,0,0,0,0,0,.11.11,0,0,1,0,.08.11.11,0,0,1,0,.1l0,.07s0,0,0,0,0,0,0,0l0,.06a.19.19,0,0,0,0,.07c0,.09,0,.17-.06.26a.47.47,0,0,1-.09.21.32.32,0,0,1,0,.18.5.5,0,0,0,0,.2.13.13,0,0,0-.06.07s0,0-.07,0a.29.29,0,0,1,0-.15l.06-.16a.36.36,0,0,1,0-.16.3.3,0,0,0-.11.21.72.72,0,0,1-.07.21s0,0,0,0v-.07h0s0,.09,0,.14,0,.08-.12.11a.11.11,0,0,0,0-.1.16.16,0,0,1,0-.11c-.08,0-.11,0-.11.07v.1a0,0,0,0,0,0,0,0,0,0,0,1,0,0s0,0,0,0a.18.18,0,0,1,0,.07l-.29,0-.29,0a.32.32,0,0,1-.17-.19.72.72,0,0,1,0-.27,2.76,2.76,0,0,1,0-.29,1.6,1.6,0,0,1,.06-.24.87.87,0,0,0,0-.11.15.15,0,0,1,0-.09,1.28,1.28,0,0,1,.09-.27,1.24,1.24,0,0,0,.09-.29,5.37,5.37,0,0,0,.13-.55,5.32,5.32,0,0,1,.13-.55l0-.11a.35.35,0,0,0,0-.13.43.43,0,0,1,0-.15c.09-.2.14-.33.17-.42a1.9,1.9,0,0,0,.06-.2l0-.21a2.24,2.24,0,0,1,.16-.42,2,2,0,0,0,.2-.61,2,2,0,0,1,.2-.61q.06-.15.15-.37l.17-.46.17-.45a3.66,3.66,0,0,1,.15-.34,3.31,3.31,0,0,1,.18-.42,4.07,4.07,0,0,0,.18-.4.82.82,0,0,0,.1-.19,2,2,0,0,0,.07-.22l.09-.13.09-.15,0-.14a.84.84,0,0,0,0-.11l.12-.17.11-.17a.5.5,0,0,0,.17-.14l.16-.17a.12.12,0,0,0,.13-.11.41.41,0,0,1,.23,0l.2.07.24.07a1,1,0,0,1,.24.11,1,1,0,0,0,.17.14l.17.14a.4.4,0,0,1,.07.15l.07.06,0,0a.22.22,0,0,1,0,.12.4.4,0,0,0,0,.12.87.87,0,0,1,0,.19,1.83,1.83,0,0,0,0,.22c0,.13,0,.26.06.39a2.68,2.68,0,0,0,.07.38,1.08,1.08,0,0,1,0,.2.53.53,0,0,0,0,.2s0,0,0,0a.07.07,0,0,1,0,0,2.33,2.33,0,0,1,.07.33l.08.49.08.49a2.46,2.46,0,0,0,.07.33,5.83,5.83,0,0,1,.18,1,3.66,3.66,0,0,0,.21,1,.52.52,0,0,0,.11-.36q.15-.29.27-.6l.25-.64q.2-.49.35-.85l.29-.69.29-.68q.15-.34.33-.82t.33-.68q.16-.35.29-.68v-.1a.37.37,0,0,1,.08-.15.21.21,0,0,1,.06-.15l.14-.14.08-.11a.49.49,0,0,0,.08-.14h0l0,0A.26.26,0,0,1,99.42,71Zm-8.2,10,0,0s0,0,0-.07,0,0,0,0a.07.07,0,0,1,0,0A.07.07,0,0,0,91.22,81Zm0-.15v0s0,0,0,0S91.27,80.88,91.27,80.89Zm.83-1.74a.07.07,0,0,0,0,.07s0,0,0,0l0,0a0,0,0,0,0,0,0,.14.14,0,0,1,0,.07.18.18,0,0,0,0,.08s0,0,0,0a0,0,0,0,1,0,0s0,0,0,0,0,0,0,0,0,0,0,0,0,0,0,0,0,0,0,0a.17.17,0,0,0,.06-.15v0S92.11,79.15,92.1,79.15Zm-.13.6a.18.18,0,0,0,0-.11.54.54,0,0,1,0-.15s-.07,0-.07.1S92,79.71,92,79.75Zm0-.54s0,0,0,0h0Zm0,.24v0h0v0Zm0,0s0,0,0,0,0,0,0,0S92,79.4,92,79.41Zm0-.28s.06,0,0,0,0,0,0,0h0Zm0,.13s0,0,0,0Zm.1-.59c0,.05,0,.09,0,.11a.06.06,0,0,0,0,.07s.06,0,.06-.07a.18.18,0,0,1,0-.12h0v0Zm0,.38,0,0v.08S92.14,79.1,92.14,79.05Zm.11-.41v0l0,0Zm.38-.08,0,0,0-.08Zm0,0a.13.13,0,0,0,0-.1Zm4.66-1.45s0,0,0,0a0,0,0,0,1,0,0,.4.4,0,0,1,0,.19,1,1,0,0,0-.07.17v0a.86.86,0,0,1,.08-.15.84.84,0,0,0,.08-.16l.07-.2a1.56,1.56,0,0,0,.06-.2l-.09.15A.27.27,0,0,0,97.29,77.06Zm.13-.34a.12.12,0,0,0,.09-.08.32.32,0,0,0,0-.11A.31.31,0,0,0,97.42,76.72Zm.7-1.19a.05.05,0,0,1,0,.08.29.29,0,0,0-.08.08.07.07,0,0,0,0,.06s0,0,0,.07a1.23,1.23,0,0,0,.29-.47.09.09,0,0,0-.08.09A.09.09,0,0,1,98.12,75.53Z"/><path class="cls-6" d="M120.18,51.61c.85,0,1.5-.3,1.5-.75s-.17-2.07-.17-2.07a10.86,10.86,0,0,1-3.77,2.13A6.89,6.89,0,0,0,120.18,51.61Z"/><path class="cls-6" d="M123.31,54.71a9.32,9.32,0,0,1-3.24,1.61,25.46,25.46,0,0,1-6.55-.64A17.7,17.7,0,0,0,119,59.26a3.63,3.63,0,0,1-1.44,2,13.84,13.84,0,0,1-7.44.63A3.75,3.75,0,0,1,108,60.61a16,16,0,0,1-1.28-1.83,6.86,6.86,0,0,0,.69,2,4.33,4.33,0,0,0,3,2.3,8.56,8.56,0,0,0,1.47.21h0c.63,0,.63,0,.72,1a10.43,10.43,0,0,1,0,1.08c0,.12,0,.24,0,.36s0,.56.28.65h.1c.22,0,.41-.22.53-.42a14.85,14.85,0,0,0,1.4-2.82A9.67,9.67,0,0,0,118.6,62a1.72,1.72,0,0,0,.25-.27,1.16,1.16,0,0,0,.79.49h0c.32.06.32.2.34.93a9.88,9.88,0,0,1-.07,1l0,.34c0,.14,0,.53.23.63l.09,0c.21,0,.4-.18.52-.36a13,13,0,0,0,1.61-2.86,4.4,4.4,0,0,0,2-2c1.16-2,1.37-2.66,1.37-3.67s-2.06-3.26-3.72-4.62c.67.93,2.82,3.39,2.85,4.83a7.77,7.77,0,0,1-1.32,3.2A2.81,2.81,0,0,1,121,61.24c-.8.09-1.09,0-1.2-.11a.41.41,0,0,1-.13-.32v0a8.1,8.1,0,0,1,.11-1.65A9.36,9.36,0,0,0,123.31,54.71Z"/><path class="cls-6" d="M110.26,75c-2.16-.17-2.54-.55-3.07-1.59-.19-.37-.41-.95-.65-1.56a10.52,10.52,0,0,0-1.8-3.48A21,21,0,0,0,100,66.47a21,21,0,0,1-3.17-1.15c-.83-.66-1.17-1.71-2.3-5.19L94,58.49l-.63-1.94.12,2c0,.25.39,6.07,2.29,7.7a15.47,15.47,0,0,0,4.48,1.8,12.39,12.39,0,0,1,3.48,1.35,16.38,16.38,0,0,1,1.84,3.77c.15.37.28.7.39,1l0,.06c.19.48.64,1.61,4,1.75l2.1,0a25.49,25.49,0,0,0-.12,5.86H114a23.11,23.11,0,0,1-.19-5.9c4.35-.26,4.85-1,4.85-1l-1.8,0S112.41,75.13,110.26,75Z"/><path class="cls-6" d="M117.85,69.42c-1.1,2.58-1.26,2.56-2,2.56h-2c.28-1.49,0-4.31-.59-2.86-1.17,2.76-1.37,2.82-2.1,2.82l-.59,0c-1.05-.11-1.6-.21-1.9-1.14-1.32-4-2.32-4.72-2.32-4.72s.27,1,.43,1.56.5,2,.68,3c.33,1.77.73,2.31,2.77,2.49.91.08,2.36.12,3.78.12s3,0,3.79-.12l.21,0h0a1.55,1.55,0,0,0,1.26-1.12l-1,0C118.46,70.53,118.32,68.32,117.85,69.42Z"/><path class="cls-6" d="M103,50.89c.79.83,2,1.31,3.95,1.16a15.23,15.23,0,0,0,4.28-1.14,21.82,21.82,0,0,1-4.67-1.24,17.85,17.85,0,0,0-4.24-1.39,21.8,21.8,0,0,0-3.07.12,7.31,7.31,0,0,1,2.42.73C102.3,49.59,102.21,50.09,103,50.89Z"/><path class="cls-6" d="M115.83,46.1,116,46a8.59,8.59,0,0,1,3.75-1.56,15.72,15.72,0,0,1,1.76,4.1c-.26-3.87-1.09-5.25-1.09-5.25a6.83,6.83,0,0,0-.71,0A8.54,8.54,0,0,0,115.2,45a18.32,18.32,0,0,0-12.27.06S109.84,43.69,115.83,46.1Z"/><path class="cls-6" d="M99.78,44.42a10.47,10.47,0,0,0-5.41-1.16h-.2l0,.19a21.11,21.11,0,0,0-.54,6.1,29.65,29.65,0,0,0-9.07,10.32v3.64A29.58,29.58,0,0,1,94.88,50.09a28.68,28.68,0,0,1,.36-5.88,18.46,18.46,0,0,1,4.34.68l1.64.42Z"/><path class="cls-5" d="M89.7,67.88a.25.25,0,0,1,.14-.24l.09,0,.12,0c0,.06.06.08.07.08l0,0,0,0a.4.4,0,0,1,.22,0,.49.49,0,0,1,0,.23s0,.11,0,.19a.11.11,0,0,1-.05.08.37.37,0,0,1-.2,0,.22.22,0,0,1-.18-.11.09.09,0,0,0,0-.07L89.9,68a.19.19,0,0,1,0-.07.25.25,0,0,0,0-.06l0,0,0,0,0,0S89.76,67.91,89.7,67.88Zm-3.27,2.71h.05l.11-.05a0,0,0,0,1,0,0,0,0,0,0,0,0,0,.14.14,0,0,0,.09,0l.1-.08a.1.1,0,0,0-.1,0c-.08,0-.11.06-.09.05a.37.37,0,0,0,0-.1h0a.43.43,0,0,0,0-.12l0,0a.17.17,0,0,0,0-.09.17.17,0,0,1,.07-.06h.1L87,70s0,0-.07,0l.37-.26.05-.1,0,0h0s0,0,0-.09v0h.05s0,0,0,0,0,0,.06,0l.15-.11s0,0,0,0,0-.09,0-.09h.05a.44.44,0,0,0,.15-.13h-.08a.07.07,0,0,0,0,0s0,0-.07,0l0,.07,0,0h-.06l0,0-.13.05a0,0,0,0,0,0,0l-.52.25a.79.79,0,0,1,.24-.15l.15-.08,0,0,0,0h.05l0,0,.18-.09s0,0,0,0,0,0,0,0l0,0,0,0h0l.12-.06h0l0,0,0,0a.14.14,0,0,1,.08-.12l.5-.3.18-.13.13-.1s0,0,0,0,0,0,0,0,0,0,0,0l.11-.05a.28.28,0,0,1,.29,0l.31.1s0,0,.06.08a.2.2,0,0,1,.08.12.34.34,0,0,0,0,.13l.24.09c0,.1.06.13.17.09s0,0,0,.07l.1.08-.1,0s0,0,0,0a.68.68,0,0,0-.08.2,0,0,0,0,0,0,0l-.14.12.08.06a.19.19,0,0,1-.1.12l-.09.05h0a.29.29,0,0,1-.16.06l-.17,0-1,.36a.58.58,0,0,0,.16-.1h0l-.6.21-.31.15a.08.08,0,0,0,0,0,.22.22,0,0,0-.13,0l0,0v0l-.07,0-.08,0a2.75,2.75,0,0,0-.34.18l-.31.18-.19,0,.11-.06.12-.07v0h-.06l0,0H86.8l.14-.09.12-.08a2,2,0,0,0,.34-.13l.19-.12.28-.17-.06,0h0l-.11,0s0,0,0,0,0,0-.08.06,0,0,0,0h0l-.13.06-.18.09v-.06h-.07l.06,0,.06,0s0,0,0,0l-.15.1,0,0a1.89,1.89,0,0,1-.29.13.08.08,0,0,0,0,0s0,0-.05,0l-.09.06-.09.06s0,0,0,0,0,0,0,0h-.09l0,0v0l0,0Zm3.65-1.05h0v0h0ZM88.31,69h0v0h0Zm-.18.08.05,0a.06.06,0,0,1,0,0Zm-.21.08,0,0L88,69v0Zm.54,1.19,0,0v0l0,0Zm-.64-1.15.07,0v0l-.07,0Zm-.17.12v0h0v0Zm-.28,1,.11-.06.06,0,.07,0A.49.49,0,0,0,87.37,70.28Zm.08-.2v0l0,0v0Zm-.16-.27v0l.06,0v0Zm-.11.46.12-.08.13-.09-.16.06-.07.06A0,0,0,0,0,87.17,70.27Zm-.35-.51.06,0v0l-.06,0Zm.34.89v0l.09,0v0Zm-.44-.84.08,0v0l-.08,0Zm.32.9v0l0,0v0Zm-.15-.24h0l0,0v0Zm-.38.53.28-.17s0,0,0,0h0l-.05.06h-.09s0,0,0,0,0,0,0,0Zm-.19-.23,0,0v0l0,0Zm0,.3.07,0v0l-.07.05Z"/></g></g></svg>