<svg xmlns="http://www.w3.org/2000/svg" viewBox="0 0 138.83 138.83"><defs><style>.cls-1{fill:#ecedef;}.cls-2{fill:#c2c3c8;}.cls-3{fill:#fff;}.cls-4{fill:#ee8c6c;}.cls-5{fill:#adacb2;}.cls-6{fill:#565859;}</style></defs><title>d12</title><g id="Capa_2" data-name="Capa 2"><g id="Capa_1-2" data-name="Capa 1"><polygon class="cls-1" points="131.92 6.92 138.83 0 0 0 6.92 6.92 131.92 6.92"/><polygon class="cls-2" points="131.92 6.92 131.92 6.92 131.92 131.92 138.83 138.83 138.83 0 131.92 6.92"/><polygon class="cls-2" points="6.92 6.92 6.92 6.92 0 0 0 138.83 6.92 131.92 6.92 6.92"/><polygon class="cls-1" points="131.92 131.92 6.92 131.92 6.92 131.92 0 138.83 138.83 138.83 131.92 131.92 131.92 131.92"/><polygon class="cls-3" points="6.92 6.92 6.92 131.92 6.92 131.92 131.92 131.92 131.92 131.92 131.92 6.92 131.92 6.92 6.92 6.92 6.92 6.92"/><path class="cls-4" d="M27.23,82.69a.11.11,0,0,1,0-.12.21.21,0,0,0,0-.16,1.69,1.69,0,0,0,0-.21,1.53,1.53,0,0,1,0-.17.58.58,0,0,0,.06-.22,1.19,1.19,0,0,0,0-.15,1.11,1.11,0,0,1,0-.16,1.09,1.09,0,0,1,0-.25l.26-1.61a8.46,8.46,0,0,1,.39-1.53q.31-.94.6-1.81l.59-1.72q.3-.84.63-1.68t.72-1.72a5,5,0,0,1,.35-.69l.41-.67.44-.8a.35.35,0,0,1,.29-.28,1.42,1.42,0,0,0,.42-.18.23.23,0,0,0,.15,0l.12-.07a.29.29,0,0,0,.17,0,.52.52,0,0,1,.21,0,.26.26,0,0,0,.12-.07.27.27,0,0,1,.24,0l.12.1a.15.15,0,0,0,.15,0l.14-.11a.52.52,0,0,1,.13-.09.21.21,0,0,1,.16,0,1.26,1.26,0,0,0,.29.11.57.57,0,0,1,.19.07l.17.18.15.13A.32.32,0,0,1,35,69a2.29,2.29,0,0,0-.14.46q-.15.31-.41.73a4.36,4.36,0,0,1-.47.65,7.44,7.44,0,0,0-.74,1.4,12.06,12.06,0,0,1-.68,1.44c-.06.14-.13.28-.21.41a3.77,3.77,0,0,0-.21.43l-.15.48c-.06,0-.08,0-.06.06v.06l0,0v0a.24.24,0,0,1-.08.17.5.5,0,0,0-.12.17c0,.06-.05.09-.09.09s-.06,0-.09,0a1.17,1.17,0,0,1-.15.4,1.28,1.28,0,0,0-.15.35,1.3,1.3,0,0,1-.1.34,3.47,3.47,0,0,0-.13.37l-.17.33a2.07,2.07,0,0,0-.15.37.48.48,0,0,0-.06.21.51.51,0,0,1,0,.19l-.08.21a.71.71,0,0,0,0,.23,4.51,4.51,0,0,0-.33,1,3.16,3.16,0,0,1-.39,1,.21.21,0,0,0,0,.16.56.56,0,0,1,0,.18,1.26,1.26,0,0,1-.09.2.88.88,0,0,0-.07.14.24.24,0,0,0-.06.2.15.15,0,0,1-.08.16s0,0,0,.07l-.12.07v.19a1.17,1.17,0,0,0,0,.28,1.17,1.17,0,0,1,0,.28.21.21,0,0,1-.1.14l-.17.13a.07.07,0,0,0,0,.07s0,.05-.08.07-.05,0-.12,0-.1,0-.1,0a.21.21,0,0,0-.11-.08.48.48,0,0,1-.14-.1s-.05.05-.12,0-.1,0-.09,0a1,1,0,0,1-.25-.06l-.19-.08s0,0-.06,0a1,1,0,0,1,0-.12l0-.15a.23.23,0,0,0-.06-.12l-.12.14A.33.33,0,0,1,27.23,82.69Z"/><path class="cls-4" d="M44.49,69.88s0,0,0,0l0,0,.08,0,.15.06a.19.19,0,0,1,.08.09.43.43,0,0,0,.1.13.66.66,0,0,0,.17.18l.15.11a1.06,1.06,0,0,1,.48.5.54.54,0,0,1,0,.34,1.76,1.76,0,0,1-.09.34l-.13.33s0,0,0,0,0,0,0,0c-.08.22-.14.41-.18.57l-.12.46q-.06.22-.13.46a4,4,0,0,1-.23.55c-.1.26-.21.52-.34.78l-.35.78a.31.31,0,0,0-.12.2.31.31,0,0,1-.12.2,1.62,1.62,0,0,1-.12.29,2,2,0,0,0-.13.36l0,0,0,0a.47.47,0,0,1,.11-.21.2.2,0,0,0-.12.13.35.35,0,0,1-.09.15.24.24,0,0,1,0,.13.06.06,0,0,0,0-.07s0,0,0,0a0,0,0,0,1,0,0h0l0,0a2.48,2.48,0,0,1-.27.56.5.5,0,0,1,.06-.2,1.23,1.23,0,0,0,.08-.2s-.06.05-.06.13a.14.14,0,0,1-.1.14q0,.15-.11.38a2,2,0,0,1-.16.4s0,0,0,0,0,0,0,0a2.08,2.08,0,0,0-.2.56,2.29,2.29,0,0,1-.22.59,2.09,2.09,0,0,1,.13-.42c.06-.14.11-.29.16-.44a1,1,0,0,1,.09-.41,1.89,1.89,0,0,0,.12-.41.06.06,0,0,0-.06,0,.07.07,0,0,0,0,.09.1.1,0,0,0-.07.11.1.1,0,0,1,0,.11A1.51,1.51,0,0,1,43,78a1.52,1.52,0,0,0-.09.34.53.53,0,0,0-.11.21,1.73,1.73,0,0,1-.07.21l0,0a2,2,0,0,0-.12.48,1.51,1.51,0,0,1-.12.44s0,0,0,0a.07.07,0,0,1,0-.07c0,.06,0,.13-.07.19a.65.65,0,0,0,0,.19.08.08,0,0,1,0,0,.27.27,0,0,0,0,.11,0,0,0,0,0,0,0s0,0-.1,0,0,.12,0,.12,0,0,0,0l0,0s0,0,0,.11-.1.07-.1.1,0,0,0,0,0,0,0,0a.15.15,0,0,0,0,.1.1.1,0,0,1,0,.1,0,0,0,0,0,0,0v.14l0,0,0,0a.21.21,0,0,1,0,.11s0,.06,0,.13,0,0,0,0,0,0-.11,0,0,0,0,0,0,0,0,0l0,0s0,0,0,0a.06.06,0,0,1,0,.06s0,0,0,.06a.24.24,0,0,0-.17.19s0,0,0,0,0,0,0,0l-.08.08-.12.08a.21.21,0,0,1-.25,0,.41.41,0,0,0-.19-.11.94.94,0,0,1-.13-.25,1.37,1.37,0,0,1-.06-.25.8.8,0,0,1,0-.25.33.33,0,0,1,0-.12l.07-.12a1.23,1.23,0,0,0,.08-.25,1.62,1.62,0,0,0,0-.29q.19-.77.41-1.55t.47-1.51l.12-.42c0-.14.08-.26.12-.37l.07-.11a.19.19,0,0,0,0-.11,3.41,3.41,0,0,0,.21-.76,3.53,3.53,0,0,1,.21-.76h0c0-.15.07-.27.1-.36l.08-.23.08-.22a3.42,3.42,0,0,1,.13-.33l-.6.73-.61.74-.75.86q-.41.47-1,1.08l-.32.42a2.42,2.42,0,0,0-.28.46l-.16.21-.13.15-.14.17a1.26,1.26,0,0,0-.15.27l-.46.64a5.8,5.8,0,0,0-.44.72h-.08a.51.51,0,0,1-.35.31h-.42a.58.58,0,0,0-.22,0,.6.6,0,0,1-.22,0l-.07,0-.07,0-.17-.08a.13.13,0,0,1-.1-.12v-.1a6.68,6.68,0,0,1-.25-2q0-1,.06-2c0-.1,0-.2,0-.3A.8.8,0,0,0,36,75s0,0-.08.1l-.34.73s0,0,0,0,0,0,0,0,0,0,0,0,0,0-.08,0a1.06,1.06,0,0,0-.06.2.25.25,0,0,1-.1.16v.1l-.06.08-.06.08a.05.05,0,0,0,0,0h0s0,0,0,0,0,0,0,.06a.26.26,0,0,0,0,.17c-.05,0-.08,0-.09.07a.76.76,0,0,1,0,.13h0a.13.13,0,0,1-.06.06.08.08,0,0,0,0,.08h0a.45.45,0,0,0-.06.16.23.23,0,0,1-.12.16c.06,0,.07.05,0,.08s-.06.05,0,.08h-.06s0,.07,0,.1l0,.08v0a.23.23,0,0,0-.1.21s0,0,0,0,0,0,0,0,0,0,0,0a0,0,0,0,0-.06,0s.06.05.06,0a.24.24,0,0,0-.06.12.24.24,0,0,1-.1.13,1.21,1.21,0,0,0-.07.16,1.47,1.47,0,0,0,0,.18l0,0s0,0,0,0,0,0,0,0a2.52,2.52,0,0,0-.21.45c-.05.15-.1.29-.13.43s0,0,0,0a0,0,0,0,0,0,0q-.08,0-.08.17c-.06,0-.1.13-.1.27s-.06.21-.1.32a1.57,1.57,0,0,1-.15.32,2.34,2.34,0,0,1,.13-.52,1.74,1.74,0,0,0,.11-.48.23.23,0,0,1,.06-.1s0,0,0,0h0l.09-.25a.91.91,0,0,0,0-.25.22.22,0,0,0,0,.13.12.12,0,0,1-.09.11.43.43,0,0,1,0-.18,1,1,0,0,0,.06-.16,1,1,0,0,1,.12-.34.35.35,0,0,0,0-.28.14.14,0,0,0-.1.14.16.16,0,0,1-.06.14,1,1,0,0,1-.11.35.72.72,0,0,0-.09.32s0,0,0,0a0,0,0,0,1,0,.06.19.19,0,0,1,0,.14.25.25,0,0,0-.07.13.68.68,0,0,0-.11.33,1.19,1.19,0,0,1-.09.37v0a.25.25,0,0,0-.1.16.19.19,0,0,1-.1.14.44.44,0,0,0,0-.19.39.39,0,0,0,0-.12h0l-.06.08a.18.18,0,0,0,0,.13l-.06.09s0,0-.1,0,0,.06,0,.07,0,0,0,0,0,0,0,0,0,0,0,0,0,.08-.12.08a.17.17,0,0,1,.06-.15s-.05,0-.08,0,0,0,0,0a.11.11,0,0,1-.08,0s0,0,0,.07a.09.09,0,0,1,0,.07h-.9l-.21,0a.26.26,0,0,0,0-.12l0-.07a1.21,1.21,0,0,1-.06-.56,3,3,0,0,1,.12-.5l.5-1.55a4.27,4.27,0,0,1,.2-.56,2.37,2.37,0,0,0,.16-.5,0,0,0,0,0,0,0s0,0,0,0q.17-.54.38-1.05t.46-1q.33-.81.66-1.54t.62-1.51a1.33,1.33,0,0,1,.12-.36l.17-.36a.05.05,0,0,1,0-.07.09.09,0,0,0,0-.07.59.59,0,0,1,.1-.16.4.4,0,0,0,.08-.2.17.17,0,0,0,.15-.17.28.28,0,0,1,.25,0,.16.16,0,0,0,0,.12h1l.29.08A.19.19,0,0,1,37,71l.11.08.13.08s.06,0,.06.06a.19.19,0,0,0,.08.1l.1.08a.09.09,0,0,0,.07.09.16.16,0,0,1,.09.07.61.61,0,0,1,.14.29l.09.33a2.23,2.23,0,0,1,.1,1q-.06.51-.1,1t-.07,1.24q0,.64-.07,1.29a.76.76,0,0,0,.19-.25.76.76,0,0,1,.19-.25v0q.65-.92,1.31-1.78t1.43-1.71l.23-.25.13-.13.13-.12.23-.24a2.45,2.45,0,0,0,.26-.22l.2-.22q.36-.27.79-.63a5.26,5.26,0,0,1,.82-.59.3.3,0,0,1,.21-.06.27.27,0,0,0,.22.07c.1,0,.14,0,.14-.12a.17.17,0,0,0,.14-.09.1.1,0,0,1,.11-.07s0,0,0,0A.09.09,0,0,1,44.49,69.88ZM34.06,79.1l-.06,0Zm7.83,1.73,0,0Zm.4-.75h0s0,0,0,0v0Zm0-.31,0,0A.06.06,0,0,0,42.29,79.78Zm.25.46,0,0s0,0,0,0,0,0,0,0A.31.31,0,0,0,42.53,80.24Zm0-.63s0,0,0,0,0,0,0,0v0Zm.12-.29,0,.12-.06.13v-.1s0,0,0,0,0,0,0,0a.52.52,0,0,1,0-.12l0-.17s0,0,0,0,0,0,0,0,0,0,0,.07A.14.14,0,0,0,42.69,79.32Zm.13-.12s0,0,0,0,0,0,0,0v0S42.81,79.2,42.82,79.2Zm0-.06v0Zm0-.13a0,0,0,0,1,0,0,.08.08,0,0,0,0,.06s0,0,0-.06A.06.06,0,0,0,42.9,79Zm.46-1.57a1.42,1.42,0,0,1,0,.18l0,.16s0,0,0,0,0,.12-.06.13,0,0,0,0l0,0a.75.75,0,0,1-.14.31.65.65,0,0,0-.11.4.2.2,0,0,0-.11.15.63.63,0,0,1-.07.21,2.36,2.36,0,0,1,.18-.68,4.82,4.82,0,0,0,.24-.72s0,0,0,0A0,0,0,0,1,43.36,77.44Zm-.15.86s0,0,0-.06a.09.09,0,0,0,0,0Zm.08-1,0,0Zm.08.15s0,0,0,0,0,0,0,0,0,0,0,0l0,0Zm0-.17s0,0,0,.06a0,0,0,0,1,0,0A0,0,0,0,0,43.4,77.26Zm.17-.54a.07.07,0,0,1,0-.06s0,0,0,0,0,0,0,0,0,0,0,0S43.58,76.73,43.57,76.73Z"/><path class="cls-4" d="M45.45,80.47a.26.26,0,0,0,.06-.13.27.27,0,0,0,0-.12.16.16,0,0,1,0-.12.09.09,0,0,1,0-.1l0-.12a.3.3,0,0,0,0-.12.49.49,0,0,0,.11-.33.09.09,0,0,0,.08-.1V79.3s0,0,0,0,0,0,0,0a.1.1,0,0,0,0-.12c.06,0,.1,0,.12-.06L46,79a.06.06,0,0,0,0,0,.2.2,0,0,0,0-.11l.1-.13a.18.18,0,0,0,0,0,.28.28,0,0,1,0-.09.18.18,0,0,0,.12-.11.53.53,0,0,0,0-.14l0-.16a.17.17,0,0,1,.1-.12.25.25,0,0,1,0-.12.46.46,0,0,1,.08-.11l.08-.13a.27.27,0,0,0,0-.15h-.08a1.2,1.2,0,0,0-.16.28,2.3,2.3,0,0,0-.09.28l0,.08s0,0,0,0l-.07.09-.07.09-.23.46a.16.16,0,0,0-.07.09.31.31,0,0,0,0,.09v.1a.16.16,0,0,1-.08.12l-.15.4-.06.12h0l0,.1a.08.08,0,0,1,0,.06.05.05,0,0,0,0,0,2.48,2.48,0,0,0-.25.65.26.26,0,0,0-.06.19A.29.29,0,0,0,45,81a.11.11,0,0,0,0,.08c0,.09,0,.14-.08.15a1.21,1.21,0,0,1,0,.2.14.14,0,0,1-.12.13l0,0,0,0-.06,0s0,0,0,0l0,0-.06,0h-.06l0,0a0,0,0,0,1,0,0,.43.43,0,0,1-.13.23.31.31,0,0,0-.11.1h-.33l-.3,0-.22,0a.56.56,0,0,1-.14-.35,1.79,1.79,0,0,1,0-.33.19.19,0,0,1,0-.13,10.3,10.3,0,0,1,.28-1c.11-.33.23-.64.35-.95l.27-.67.29-.69.23-.63a3.1,3.1,0,0,1,.33-.65v0s0,0,0-.06h0a1.79,1.79,0,0,1,.13-.38,3,3,0,0,1,.18-.35l.15-.33s0-.05.07-.12a.56.56,0,0,0,0-.15.32.32,0,0,0,.07-.11.33.33,0,0,1,.11-.12,2.09,2.09,0,0,0,.13-.25,1.87,1.87,0,0,0,.11-.31c.05,0,.08,0,.08,0a.33.33,0,0,1,0-.11,1.34,1.34,0,0,0,.24-.38,2.48,2.48,0,0,1,.18-.36,1.9,1.9,0,0,0,.14-.32,1,1,0,0,1,.16-.3l0,0-.14.08-.11.08q-.13.17-.21.17l0,0c.05-.08,0-.13,0-.15l-.13-.15-.07,0L46,72.68l-.21-.29h0l-.12-.12-.08-.17a.2.2,0,0,1-.15-.17.54.54,0,0,1-.09-.33,1.15,1.15,0,0,1,.09-.37,0,0,0,0,0,0,0,.11.11,0,0,0,.08,0v0l.15-.12a.17.17,0,0,0,.1-.12l.26,0h.16l.19-.07.42-.15a.35.35,0,0,0,.25-.08,21.19,21.19,0,0,1,2.56-.52A16.58,16.58,0,0,1,52.47,70a4.56,4.56,0,0,1,.92.11,5.7,5.7,0,0,1,.69.22l.21.1.19.08a2,2,0,0,1,.49.44,1.2,1.2,0,0,1,.3.61.67.67,0,0,1,0,.13.38.38,0,0,0,0,.1.35.35,0,0,0,0,.35c0,.06,0,.15,0,.25a.83.83,0,0,1,0,.25,1.06,1.06,0,0,1-.25.61.71.71,0,0,0-.19.29l-.17.15a.5.5,0,0,1-.1.13.43.43,0,0,1-.17.1v0l-.15.13-.22.16-.09.07-.35.21h-.08a2.64,2.64,0,0,1-.59.42.52.52,0,0,0-.14.11.54.54,0,0,1-.14.11l-.46.38H52s0,0,0,0H52a.26.26,0,0,0-.12,0l-.09.06v0l-.08.12-.45.13a1.94,1.94,0,0,0-.45.21l-.29.11-.27.11,0-.08.08-.06a3.24,3.24,0,0,0,.67-.29l.1,0,.06,0h-.06l.23-.21-.35.17-.3.13-.46.27a1.38,1.38,0,0,0-.25.19l-.31.16a5.13,5.13,0,0,1-.54.24l-.08,0a.22.22,0,0,0-.08.08.47.47,0,0,0-.4.15l-.46.15-.46.17-.24.11-.2.09,0,0c-.05,0-.08,0-.08.06s0,0,0,0,0,0,0,0v0s0,0,0,.06a.1.1,0,0,0,0,.07.16.16,0,0,1,0,.07c0,.06,0,.09-.12.08h0v.06l0,0-.08.15h0a.11.11,0,0,1,0,.11l-.09,0v0l-.06,0-.06,0a.15.15,0,0,0,0,.06.08.08,0,0,1,0,0s0,0,0,0l-.12.15h0l-.06,0,0,0s0,0,0,0v.08q-.08,0-.08,0v.15c0,.08-.07.12-.13.12l-.11.23-.1.2c0,.08-.07.13-.1.14a.09.09,0,0,1,0,.08l0,0-.06.11-.06.09,0,0,0,0,0,0,0,0c-.06,0-.1.06-.11.1a.14.14,0,0,0,0,.06l0,.08,0,0a.26.26,0,0,1-.08.19.39.39,0,0,1,0,.17,0,0,0,0,1,0,0,0,0,0,0,0,0,0h.08l-.12.11h0l-.13.21a1.42,1.42,0,0,0-.1.19.69.69,0,0,0,0,.25l-.1,0a.6.6,0,0,1,0-.18.27.27,0,0,1,.11-.24s0,0,0-.1v0l0-.1.06-.13a.09.09,0,0,0,0-.06.35.35,0,0,0,0-.08h-.13c.09-.05.13-.1.13-.15Zm-.38-.34v0a.08.08,0,0,1,0,0,.14.14,0,0,0,0-.06l-.1.21Zm1.19-1.3,0,0h0S46.26,78.83,46.26,78.82Zm0,0h0Zm.06,0h0v0Zm6.16-7.17-.63,0-.71,0a.93.93,0,0,1-.29,0l-.23.06-.49.1a1.06,1.06,0,0,0-.32.08.59.59,0,0,1-.23.54,1.37,1.37,0,0,1-.12.26,1.29,1.29,0,0,1-.18.24l-.38.63a2.6,2.6,0,0,0-.26.38,3.14,3.14,0,0,1-.22.34l-.1.12h0l-.16.21a.51.51,0,0,0-.09.19.05.05,0,0,1,0,0,.06.06,0,0,0,0,0L48,75s0,0,0,0l1-.4.85-.35a8,8,0,0,0,.91-.46l.19-.1.74-.38.78-.38.27-.14a2.6,2.6,0,0,0,.31-.2l.21-.15a2.15,2.15,0,0,0,.44-.27.45.45,0,0,0,0-.23.34.34,0,0,0-.08-.19A5.28,5.28,0,0,0,52.51,71.66Zm1.4,2.53,0,0Z"/><path class="cls-4" d="M55.06,80.08v0q0,.19-.08.25h0l0,0a.42.42,0,0,0-.08.1l-.08.13a.71.71,0,0,0-.12.16.3.3,0,0,1-.15.14v0a.26.26,0,0,0-.12.11l-.06.11,0,.08a.13.13,0,0,1-.1.06c-.08,0-.12,0-.12-.06a.17.17,0,0,1-.15.1.14.14,0,0,1-.12.13.3.3,0,0,1-.17.08c-.14,0-.16,0-.06-.06h-.08a.21.21,0,0,0,0,.15l-.08,0c-.08,0-.11,0-.11,0H52.22l-.19,0L52,81.46a3.14,3.14,0,0,1,.12-.61,4.39,4.39,0,0,1,.18-.48s0,0,0-.06a.36.36,0,0,1,0-.1l.15-.26.17-.3v0a.33.33,0,0,1,0-.12l.07-.1a.23.23,0,0,0,.06-.11l0-.12.19-.32a2,2,0,0,0,.15-.32l.31-.46-.34,0-.21,0h-.23a1,1,0,0,1-.58-.15l0,0v0s0,0,0,0,0,0,0,0l0-.1a.13.13,0,0,1,0-.09.27.27,0,0,1,.12-.07c.12,0,.19,0,.21-.06l-.19,0a.26.26,0,0,1-.13-.06l-.21,0s.07,0,.33,0c0,0,0,0,0,0h0v0s0-.05.06-.08a.3.3,0,0,1,.17-.13l.06,0h.11l.11,0,.59-.11a3.82,3.82,0,0,0,.63-.21l.29-.08L55.59,75q.66-1,1.35-1.88l.33-.46c.12-.17.23-.32.34-.46s.22-.31.35-.48.25-.34.36-.52h0l.25-.25.19-.26A1.24,1.24,0,0,0,59,70.3a.63.63,0,0,1,.21-.12.24.24,0,0,1,.1-.06.23.23,0,0,0,.1-.06l.17-.11a.36.36,0,0,1,.21-.08h.19l.27,0a.24.24,0,0,1,.19,0,.71.71,0,0,1,.46,0h.23q.08,0,.21.21l0,0a.34.34,0,0,0,.25,0,1.23,1.23,0,0,1,.31,0,.18.18,0,0,1,.19.11,1.39,1.39,0,0,1,.12.22,2.07,2.07,0,0,1,.06.38c0,.17,0,.31,0,.44a.23.23,0,0,0,0,.07.2.2,0,0,1,0,.07V72a6,6,0,0,0,0,.66v.66c0,.14,0,.28,0,.43s0,.29-.06.43a3.24,3.24,0,0,0,0,.39c0,.12,0,.25,0,.39h.44l.47-.06a2.07,2.07,0,0,1,.47,0,.08.08,0,0,1,.08,0h.06l.15.06a.14.14,0,0,1,.1.13l-.08.12-.13-.1a.39.39,0,0,0,.1.13.07.07,0,0,1,0,.11l-.08,0v0h0v0a.08.08,0,0,1,0,0,.09.09,0,0,0,0,0v0s0,0,0,0,0,0,0,0l0,.19,0,0H63.4l0,0a.13.13,0,0,1-.1,0h-.18a.12.12,0,0,1-.09,0h0a.39.39,0,0,0-.23,0L62.5,76l-.21.06,0,.08a.09.09,0,0,0-.08,0l-.06,0v0l0,0a.14.14,0,0,1,0,.06.08.08,0,0,0,0,0v0a.88.88,0,0,0,0,.24,1.1,1.1,0,0,0,0,.26.08.08,0,0,1,0,0,.08.08,0,0,0,0,0L62,77v1s0,0,0,0a.22.22,0,0,1,0-.12.3.3,0,0,0,0,.13.38.38,0,0,1-.08.19v0l0,0c0,.06,0,.13-.1.19s0-.11,0-.18,0-.12,0-.14a.79.79,0,0,1,0-.16v-.16h0a.49.49,0,0,0,0-.12.44.44,0,0,1,0-.1,1.59,1.59,0,0,1,0-.31h0s0,0,0,.06a.09.09,0,0,1,0,0,.21.21,0,0,0,0,.1s0,.07-.08.13a.22.22,0,0,1-.08-.19v.15a1.26,1.26,0,0,0,0,.24.66.66,0,0,1,0,.24v0h0v.36a0,0,0,0,0,0,0,.08.08,0,0,1,0,0,1.77,1.77,0,0,1,0,.52s0,0-.06.08a.43.43,0,0,0,0,.16.7.7,0,0,0,0,.14l0,.25a.29.29,0,0,1,.08-.17l0,0s0-.09.12-.15v.17a.13.13,0,0,1,.06.12.16.16,0,0,1,0,.12.38.38,0,0,0,0,.1.3.3,0,0,1,0,.08,1.09,1.09,0,0,1,0,.25.58.58,0,0,1,0,.21h0a.68.68,0,0,0,0,.19c0,.05,0,.12,0,.2a1.74,1.74,0,0,1,0,.28l0-.1v.1s0,0,0,0a0,0,0,0,0,0,0h-.06c-.05,0-.08.1-.08.27a.16.16,0,0,0-.12,0l-.06.06.08.06a.1.1,0,0,1,0,.11.41.41,0,0,0,0,.11.25.25,0,0,0,0,.12l-.1-.1c0,.08,0,.11,0,.1s-.06,0-.12.1h-.27a1.2,1.2,0,0,1-.18-.18.31.31,0,0,1-.06-.13.72.72,0,0,1,0-.17,1.87,1.87,0,0,0,0-.32l-.08-.38q-.08-.73-.09-1.51t0-1.57v-.59c0-.19,0-.38,0-.58a.32.32,0,0,0-.27,0l-.1,0H59.8a4.19,4.19,0,0,0-.52.12l-.56.16h-.1v0a.62.62,0,0,1-.06-.13,1.27,1.27,0,0,0-.42.19v0c-.05.08-.1.08-.15,0a0,0,0,0,1,0,0H57.9a.35.35,0,0,1-.25.08l0,0-.07,0-.09,0h-.11a.3.3,0,0,0-.12,0l-.12.08,0-.1.08,0-.27.1-.08.06s0,0-.08.13l-.07.12,0,.12a.45.45,0,0,0-.19.29l-.13.12.13,0a.4.4,0,0,0-.12.14l-.07.14-.12.16a.74.74,0,0,1-.14.14v0a.65.65,0,0,0-.12.25v0a.61.61,0,0,1-.08.23c-.06,0-.1,0-.1,0l0,.13a.41.41,0,0,0-.16,0,.09.09,0,0,0-.07.09l0,0,0,0,.06,0v.07a.19.19,0,0,0,0,.09.87.87,0,0,1-.13.27l-.17.19Zm-1.3,1.21a.08.08,0,0,0,0-.06h0l0,0Zm.36-.12,0,0h0Zm.38-.65,0,.13-.1.13h.06l0,.08.17-.29v-.06Zm.67-1.15a0,0,0,0,1,0,0s0,0,0,0a.49.49,0,0,1,.13-.33,1.39,1.39,0,0,0-.17.21l-.17.27a.09.09,0,0,0-.06.1h-.08v-.06a.11.11,0,0,0,0,.08.54.54,0,0,0-.15.29.25.25,0,0,0-.12.09.52.52,0,0,0,0,.11l0-.08v.15l0-.08a.9.9,0,0,0,.15-.2l.13-.26H55v.08l.1-.06v-.06l0,0,.06-.1A.21.21,0,0,1,55.17,79.37Zm-.59.33q0,.08,0,.08v0l0,0,0-.08a.12.12,0,0,1,0-.06Zm.27.52v0l.06-.12v0a.11.11,0,0,0,0,.07S54.86,80.22,54.85,80.22Zm.1-1.71a.11.11,0,0,0-.06.1s0,0,0,0A.11.11,0,0,1,54.94,78.51Zm0,.9a.08.08,0,0,0,0,.06A.08.08,0,0,1,54.91,79.41Zm.06-.1a.1.1,0,0,1,0,0s0,0,0,0a.06.06,0,0,1,0,0Zm.21-.31.06-.08v0Zm.1-.19.1-.08,0-.13ZM55.4,78a.11.11,0,0,0,0,.08l.08-.08Zm.13-.19h0v0h0Zm.33.48-.13.18-.13.2,0,0,.13-.13h0a.3.3,0,0,0,.08-.12A.51.51,0,0,1,55.86,78.34ZM58,75.88l1.14-.26a9.57,9.57,0,0,0,1.16-.34,6.36,6.36,0,0,0,0-.7c0-.24,0-.48,0-.74a2.25,2.25,0,0,1,0-.37,2.12,2.12,0,0,0,0-.37.48.48,0,0,1,0-.17v-.09s0-.05-.06-.07-.06,0-.18.22l-.34.45-.4.5,0,.1a.15.15,0,0,0,0,.06.38.38,0,0,0-.14.14,1.41,1.41,0,0,1-.12.18l-.13.15v0a.51.51,0,0,1-.08.21.46.46,0,0,0-.19.19l-.27.29-.1.21-.07.1a.17.17,0,0,0,0,.1l-.11.09A.76.76,0,0,0,58,75.88Zm1.55.5v0l0,.08v0l0,0v0ZM61,80s0,0,0,0Zm.17-.92a.2.2,0,0,0,0,.09v.07s0,0,0-.12,0,0,0,0S61.18,79.14,61.18,79.12Zm.1-1.27v.06l.06,0c0-.09,0-.17,0-.25a1,1,0,0,1,0-.23l0,0,0,0s0,0,0,0h0v.12a.27.27,0,0,1,0,.12.29.29,0,0,0,0,.08A.32.32,0,0,1,61.27,77.86Zm.1.56a.17.17,0,0,0,0,0,.15.15,0,0,1,0-.09l0,0a.07.07,0,0,1,0,0,.08.08,0,0,0,0,0l0,.2a1.24,1.24,0,0,0,0,.22l0,0v0a.21.21,0,0,1,0-.1A1.09,1.09,0,0,1,61.37,78.41Z"/><path class="cls-4" d="M70.29,78.72s0,0,0,0a.09.09,0,0,0,0,0,.14.14,0,0,0-.09,0l-.07.07a.06.06,0,0,0,0,0l0,.1c.06,0,.1,0,.12-.11s0-.1.1-.08,0,0,0,0,0,0,0,0,.06,0,.08,0a.06.06,0,0,1,.06,0,1.83,1.83,0,0,0-.15.21.39.39,0,0,1-.21.15.15.15,0,0,0,0,.1l.07-.08.09-.08a.11.11,0,0,1,0,.08l-.08.08-.07.07,0,.07s0,0,0,0,0,0,0,0a.26.26,0,0,0-.1.21l-.25.35-.16.15a.69.69,0,0,1-.16.13,2.3,2.3,0,0,1-.32.2,2.28,2.28,0,0,0-.32.2c0,.06,0,.1-.09.11l-.11,0a.25.25,0,0,0-.13.12l-.29.12,0,0,.13-.07.13,0s0,0,0,.07l-.16,0a.18.18,0,0,0-.12.1c-.27.1-.53.21-.79.34a2.57,2.57,0,0,1-.92.22l0,0H66.3l-.09,0s-.05,0-.07,0a1.4,1.4,0,0,1-.39,0l-.47,0a2.74,2.74,0,0,1-.89-.15,3.33,3.33,0,0,1-.83-.41,2.32,2.32,0,0,1-.61-.61,1.45,1.45,0,0,1-.26-.76,2.88,2.88,0,0,1,0-1,8.45,8.45,0,0,1,.26-.91,7.26,7.26,0,0,1,.43-1.1q.26-.53.55-1a3.31,3.31,0,0,0,.17-.32,1.87,1.87,0,0,1,.17-.3q.46-.75,1-1.44t1.08-1.34a9.52,9.52,0,0,1,.88-.88l.94-.82.37-.27.36-.29a.37.37,0,0,1,.12-.11l.15-.11.38-.21a1.24,1.24,0,0,1,.31,0l.31,0,.19.13.3.1.26.12s0,0,.11.07l.18.06.18.06a.17.17,0,0,1,.11.07l.15.16a.72.72,0,0,1,.13.16s0,0,0,0a.34.34,0,0,0,.08.14l.1.11a.94.94,0,0,1,.17.49,2.14,2.14,0,0,1,0,.57.52.52,0,0,1,0,.11.18.18,0,0,0,0,.09,2.08,2.08,0,0,0,0,.22.76.76,0,0,1,0,.16l-.71,1.3a.4.4,0,0,0-.15.17.75.75,0,0,1-.13.19s0,0,0,0,0,0,.06,0a.61.61,0,0,0-.17.23h0q-.1.15-.11.13s0,0-.12.15h0a.36.36,0,0,0-.12.09l-.08.07,0,0a.18.18,0,0,0-.08.11.12.12,0,0,1-.08.09l.08-.13s0,0,0-.06-.1.13-.12.11-.05,0-.11.15,0,0,0,0,0,0,0,0l0,0-.06,0a.16.16,0,0,0-.08.13.2.2,0,0,0-.14,0,.27.27,0,0,1-.14.07.18.18,0,0,0,0,.1s0,.06-.11.06l0-.12a.33.33,0,0,0-.19.13h-.1l-.08.06s0,0,0-.11,0-.07,0,0a.35.35,0,0,1-.23,0,.46.46,0,0,0-.13-.12s-.06-.07-.08-.16a.59.59,0,0,1,.07-.4l.18-.35.11-.19s0,0,0,0,0,0,0,0,0-.07.09-.17l.42-.76a7.16,7.16,0,0,0,.36-.74.39.39,0,0,0-.18.1.75.75,0,0,0-.14.17l-.22.13a.33.33,0,0,0-.14.13l-.39.33a3.8,3.8,0,0,0-.37.36l-.22.2a1,1,0,0,0-.18.26q-.4.46-.79.94a9.57,9.57,0,0,0-.71,1,.32.32,0,0,0-.13.14.25.25,0,0,1-.12.13l0,0c0,.09-.06.14-.12.15a.3.3,0,0,1-.08.17L66,76.8a.08.08,0,0,1,0,.12s0,.07,0,.1l0,0,0,0a.49.49,0,0,1-.1.25.65.65,0,0,0-.12.27l-.08.09a.17.17,0,0,0,0,.11.06.06,0,0,0-.07,0,.13.13,0,0,1,0,.07s0,0,0,0,0,0,0,0a.84.84,0,0,0,0,.17.24.24,0,0,1,0,.13,2.63,2.63,0,0,0-.12.24.44.44,0,0,0,0,.26.46.46,0,0,0-.1.23c0,.09,0,.19,0,.29a1.18,1.18,0,0,0,0,.16.89.89,0,0,0,0,.22.85.85,0,0,0,.12.35.4.4,0,0,0,.27.2,1.32,1.32,0,0,0,.67,0A5.65,5.65,0,0,0,66.7,80a7.1,7.1,0,0,0,.66-.32l.66-.37s0,0,0,0l-.25.14-.26.14c-.08,0-.1.05-.06,0a1,1,0,0,0,.26-.12l.22-.15.2-.17a1.28,1.28,0,0,1,.2-.15,3,3,0,0,1,.36-.2.79.79,0,0,0,.27-.24l.27-.2.21-.15.2-.15.26-.2s0,0,.06,0a.38.38,0,0,0-.12.19s0,0,0,0,0,0,.06,0a0,0,0,0,0,0,0L70,78h.15a.43.43,0,0,1,0,.13.09.09,0,0,0,0,.1l.17-.15a.75.75,0,0,1-.08.19.38.38,0,0,1-.15.12c0,.06,0,.1.06.1a.13.13,0,0,0,.1,0,.24.24,0,0,1,.1-.06c0,.05,0,.08,0,.08a.26.26,0,0,1,0,.11Zm-4.81-.81,0,0Zm1.36,3.78s0,0,0,0,0,0,0,0a1.05,1.05,0,0,1,.26-.09,1.06,1.06,0,0,0,.26-.09.08.08,0,0,0,.1,0,.16.16,0,0,1,.1,0,.83.83,0,0,1-.33.13A1.8,1.8,0,0,0,66.84,81.69Zm.58-.1a.11.11,0,0,1,.12,0,.13.13,0,0,0,.12,0,.32.32,0,0,0,.17,0l.15-.09a.66.66,0,0,1-.26.13Zm2.46-3.51,0,0A0,0,0,0,0,69.87,78.09Zm.08-.19v0a0,0,0,0,1,0,0Zm0,0,0,0S70,77.83,70,77.86Zm.06,0s0,0,0,0A.15.15,0,0,0,70,78a.07.07,0,0,1,0-.06ZM70,78v0l0,0S69.95,78,70,78Zm0,0,0,0Zm.33,1.09h0s0-.06.06-.06,0,0,0,0S70.33,79,70.33,79.07Z"/><path class="cls-4" d="M80.59,70.59s0,0,0,0,0,0,0,0a.32.32,0,0,0,.15,0,.08.08,0,0,1-.08,0h-.08c0,.06,0,.08.06.06s.05,0,0,0a.08.08,0,0,1,0,.11l-.11,0s0,0,.06,0l.09-.06.09,0s0,0,0,0l-.07,0-.07,0s0,.05,0,0,0,0,0,0,0,0,0,0,0,0,0,0h0s0,0,0,0,0,0,0,0l0,0c-.08.05-.1.1-.06.13l-.12.06a.25.25,0,0,0-.11.06s0,0,0,0,0,0,0,0-.08.05,0,.09,0,.06,0,.09a.27.27,0,0,1-.07.11l-.09.09a.35.35,0,0,1-.2.1l-.24,0-.23,0-.21,0s-.06,0-.06,0a.43.43,0,0,0-.27,0,.79.79,0,0,1-.27,0l-.31.06s.06,0,.06,0-.11.06-.33.13a.31.31,0,0,0-.2,0l-.18.09a1.9,1.9,0,0,0,0,.32.63.63,0,0,1-.1.28.33.33,0,0,0-.13.15,1.19,1.19,0,0,1-.15.23l0,0s0,0,0,0a.26.26,0,0,0-.08.21.31.31,0,0,1-.08.23,1.51,1.51,0,0,0-.11.21,1.56,1.56,0,0,1-.11.21l-.08.12-.06.13-.17.15a.21.21,0,0,0,0,.12.33.33,0,0,1,0,.14l-.1.08a3.56,3.56,0,0,0-.2.44l-.22.55-.23.56-.19.47-.09.22-.09.22-.17.42a4.79,4.79,0,0,0-.15.46q-.17.44-.39.92a7.33,7.33,0,0,0-.35.92h-.07l0,0a1.7,1.7,0,0,0-.19.4c-.05.15-.11.3-.16.45a2.5,2.5,0,0,1-.19.39.6.6,0,0,1-.3.25.1.1,0,0,0-.1,0s-.07,0-.1,0l0,0,0,0c0-.08-.07-.08-.13,0l-.07,0,0,0-.19,0a.2.2,0,0,0-.13.12c-.13,0-.19,0-.18,0s0,.08-.11.18l-.16.1a.33.33,0,0,1-.22,0l0-.16a.32.32,0,0,1,0-.11.75.75,0,0,1,0-.13,2.37,2.37,0,0,0,.07-.23,9.48,9.48,0,0,1,.27-1.07l.33-1.05q.19-.73.49-1.57t.64-1.7q.35-.85.69-1.67l.63-1.47a1.86,1.86,0,0,1-.59.07.76.76,0,0,0-.56.18.13.13,0,0,1-.06.06l-.08.06s0,0,0,.06v0a.1.1,0,0,1-.12,0s-.09,0-.14,0a.17.17,0,0,1-.16.11.54.54,0,0,1-.26,0s0,0,0,0,0,0,0,0l-.08,0c-.05,0-.09,0-.12,0s-.06,0-.09,0a1.74,1.74,0,0,0-.21-.27.52.52,0,0,1-.13-.23.32.32,0,0,1-.13-.23l-.15-.12a.65.65,0,0,1-.12-.2A.28.28,0,0,1,71.8,72a.73.73,0,0,1,.1-.42,1.35,1.35,0,0,0,.27-.27.72.72,0,0,1,.29-.23l.17,0a.34.34,0,0,0,.15,0l.19.06a.2.2,0,0,0,.15,0l.44-.08.42-.1a.51.51,0,0,1,.19,0l.19,0,.33-.08.22,0,.21,0,.33,0,.52-.07.52,0a.27.27,0,0,1,.17-.06l.17,0,.42-.06.25,0,.26,0,.43-.06h0s0,0,0,0a.39.39,0,0,1,.17,0l.21,0,.16,0h.3l.38,0h1l.14,0,.12.07s.05.07,0,.11a.15.15,0,0,1,0,0,.15.15,0,0,0,0,0s0,0-.06,0,0,0-.06,0v.06h-.06l0,0,.06,0Zm.12,0h0v0Z"/><path class="cls-4" d="M86.46,71.36s0,0,0,0,0,0,0,0,0,0,0,0,0,0,0,0,0,0,0,0,0,0,0,0,.06.13.12.13,0,0,0,0,0,0,0,0,0,0,.1,0a1.57,1.57,0,0,1,.18.28.93.93,0,0,1,.11.32.13.13,0,0,1,.06.06s0,0,0,0,0,0,0,.06,0,0,0,.06a0,0,0,0,0,0,0s0,0,0,0a.54.54,0,0,1,.11.29c0,.1,0,.2,0,.31s0,0,0-.07a.13.13,0,0,0,0-.09L87,73s0,.08.08.12a.15.15,0,0,0,0-.1.12.12,0,0,0,0,.07s0,0,0,0,0,0,.06,0a1.47,1.47,0,0,0,0,.45c0,.16,0,.32.07.47a0,0,0,0,0,0,0V74a.64.64,0,0,0,.11-.28c0-.08,0-.19,0-.32,0,0,0,.05,0,.09a.09.09,0,0,0,0,.09.93.93,0,0,1,0,.45,2.16,2.16,0,0,0-.1.49.11.11,0,0,0,0,.08,1.08,1.08,0,0,0,0,.25s0,0,0,0,0,0,0,0,0,0,0,0,0,0,0,0,0,0,0,0a2.08,2.08,0,0,0,0,.38,1.2,1.2,0,0,1-.1.46,4.16,4.16,0,0,0-.15.42s0,0,.06,0l-.06,0-.06,0a1.17,1.17,0,0,1-.12.25.28.28,0,0,0,0,.25c-.06,0-.09.08-.09.13s0,.07-.07.07V77s0,0-.08,0a0,0,0,0,0,0,0s0,0,0,0l-.09.13a.28.28,0,0,1-.09.09.21.21,0,0,1-.08.13s0,0,0,.07a.12.12,0,0,0,0,.09,1.61,1.61,0,0,0-.31.51,1.5,1.5,0,0,1-.35.53.8.8,0,0,1-.17.24,1.11,1.11,0,0,0-.19.24l0,0a4,4,0,0,1-.57.47q-.3.2-.6.45h0a.32.32,0,0,1-.11.13l-.16.09a.12.12,0,0,0-.08.11l-.17.08a.42.42,0,0,0-.15.15c.05,0,.08,0,.1,0l-.14.09-.14.09a.07.07,0,0,1,0,0,.06.06,0,0,0,0,0h0s0,0,0,0,0,0,0,0a.34.34,0,0,0-.1.1A.17.17,0,0,1,83,81c-.1,0-.16.06-.17.1s-.08,0-.09,0,0,0,0,0a.38.38,0,0,1-.13.12.29.29,0,0,0-.12.1h0s0,0,0,0,0,0,0,0a.68.68,0,0,0-.28.14.35.35,0,0,1-.28.09s0,0,.09-.06.09,0,.09-.06l-.23.09a.42.42,0,0,1-.19,0l0,0-.31.06s0,0,0,0,0,0,0,0,0,0-.09,0,0,0,0,0,0,0,0,0a.85.85,0,0,1-.39.07,1.23,1.23,0,0,0-.41,0s0,0,0,0,0,0,0,0l-.37,0h-.45l-.44,0a1.47,1.47,0,0,1-.33-.06,1.41,1.41,0,0,1-.46-.24,1.71,1.71,0,0,1-.31-.34.15.15,0,0,0,0-.1L78,80.81a.13.13,0,0,1-.06-.06V80.7a1.51,1.51,0,0,1-.17-.45c0-.17-.07-.35-.1-.53a.46.46,0,0,1,0-.12.28.28,0,0,0,0-.14l0-.07a.07.07,0,0,1,0,0,5.8,5.8,0,0,1,.39-1.88q.34-.82.66-1.57A2.64,2.64,0,0,0,79,75.4l.27-.56c.15-.22.31-.45.46-.69l.44-.69a.66.66,0,0,0,.09-.15.21.21,0,0,1,.11-.12,3,3,0,0,1,.34-.48l.39-.44a4.28,4.28,0,0,1,.46-.59,4.9,4.9,0,0,0,.48-.61,1.38,1.38,0,0,0,.23-.17l.19-.19a1.16,1.16,0,0,1,.25-.28,1,1,0,0,0,.23-.26h0a.42.42,0,0,1,.28-.12c.1,0,.18-.06.24-.19a2,2,0,0,1,.39,0,2.87,2.87,0,0,1,.51,0s0,0,0,0,0,0,0,0,.12,0,.12,0a.88.88,0,0,0,.19.23s0,0,0,0l0,0,.06,0s0,0,0,0l.1.22a.29.29,0,0,0,.21.16s0,0,0,0,0,0,0,0h.06s0,0,0,0,0,0,0,0a.2.2,0,0,1,.14,0l.09.09H85.4a.13.13,0,0,0,.14.09.13.13,0,0,1,.14.09.21.21,0,0,1,.16,0l.14.07s0,0,0,0,0,0-.06,0a.2.2,0,0,0,.12,0,.54.54,0,0,0,.19.23s0,0,0,0-.05,0,0,0,0,0,0,0,0,0,0,0,0,0,0,0a.08.08,0,0,1,0-.06l.06.08,0,.08s0,0,0,0Zm-4.3,3s0,0,0,0,0,0,0,0a.45.45,0,0,0-.12.09l-.11.11q-.31.48-.56.92t-.52,1s0,.1-.08.27l-.28.6q-.16.35-.31.77A3.14,3.14,0,0,0,80,79a.83.83,0,0,0,.12.55q.14.21.58.17a1.23,1.23,0,0,0,.28,0l.32-.11a.09.09,0,0,0,0,0s0,0,.07,0a4.64,4.64,0,0,0,.61-.23l.32-.25.32-.25a7.62,7.62,0,0,0,.59-.54l.56-.56a7.2,7.2,0,0,0,.5-.64l.48-.7a4.81,4.81,0,0,0,.34-.79,4.62,4.62,0,0,0,.18-1.6,2.24,2.24,0,0,0-.16-.64.17.17,0,0,0,0-.12A.46.46,0,0,1,85,73a5,5,0,0,1-.29-.44,1.16,1.16,0,0,0-.36-.38,2.22,2.22,0,0,0-.7.39,7.74,7.74,0,0,0-.58.57h0s0,0,0,0-.08,0-.09,0,0,0-.07,0c-.11.21-.24.41-.37.61A7.43,7.43,0,0,1,82.16,74.41Zm1.78,6-.18.09-.18.11.17-.15A.17.17,0,0,1,83.94,80.41Zm2.11-9.34a.43.43,0,0,1,.09.12.45.45,0,0,0,.13.13.09.09,0,0,1,0-.07.14.14,0,0,0,0,0h0s0,0,0,0h0a.15.15,0,0,1-.06-.1s0,0,0,0,0,0,0,0L85.94,71a0,0,0,0,0,0,0,0,0,0,0,1,0,0l-.07,0s0,0,0-.07l-.18-.07a.35.35,0,0,1-.14-.09h0l-.07,0a.06.06,0,0,0-.09,0,.12.12,0,0,0,.1.08s-.05,0,0,0,.05,0,0,0a0,0,0,0,0,0,0s0,0,0,0,0,0,0,0,.08,0,.15,0a.35.35,0,0,0,.21,0v0s.06,0,.06,0,0,0,.1,0h.06Zm-.33.33c0-.05,0-.08-.1-.08a.18.18,0,0,1-.15-.08.2.2,0,0,0,.11.11Zm-.13.11a.24.24,0,0,1-.11-.11.15.15,0,0,0,0,.09S85.57,71.52,85.59,71.51Zm.12,0a.19.19,0,0,1,0-.07,0,0,0,0,0,0,0,.17.17,0,0,1,0,.09S85.68,71.52,85.71,71.49Zm.15.21s0,0,0,0l0,0S85.84,71.7,85.86,71.7Zm.4-.5a.06.06,0,0,1,0,0,.06.06,0,0,1,0,0l.07.07a.09.09,0,0,0,.07,0s0-.06,0-.06a.07.07,0,0,1-.08,0,.12.12,0,0,0-.06-.07l0,0s0,0-.06,0Zm.33,1.46s0,0,0-.13h-.06a.05.05,0,0,0,.06-.06h-.08v.06a.25.25,0,0,0,0,.12S86.58,72.69,86.59,72.66Zm.08,0v0h-.06S86.63,72.61,86.67,72.62Zm0,.75v.06c.06,0,.1,0,.1-.06s0,0,0,0,0,0,0,0a.9.9,0,0,1,0-.23.34.34,0,0,0-.09-.25.6.6,0,0,1,0,.29Q86.61,73.33,86.71,73.37Zm0-.88s0,0,0,0Zm0,1s0,0,0,0,0,0,0,0h-.06C86.71,73.5,86.72,73.52,86.74,73.52Zm0,1.76v0l0,0Zm.15-1.94s0,0,0-.06,0,0,0-.08,0-.07,0-.06a.71.71,0,0,0,0,.11A.1.1,0,0,0,86.9,73.35Zm0-.83s0-.06,0-.06S86.88,72.53,86.93,72.53Zm.12,1a.79.79,0,0,1,0-.2.26.26,0,0,0,0-.16.45.45,0,0,1,0,.18A.17.17,0,0,0,87.05,73.54Z"/><path class="cls-5" d="M106.18,51.61c.85,0,1.5-.3,1.5-.75s-.17-2.07-.17-2.07a10.85,10.85,0,0,1-3.77,2.13A6.89,6.89,0,0,0,106.18,51.61Z"/><path class="cls-5" d="M109.3,54.71a9.32,9.32,0,0,1-3.24,1.61,25.46,25.46,0,0,1-6.55-.64A17.7,17.7,0,0,0,105,59.26a3.63,3.63,0,0,1-1.44,2,13.84,13.84,0,0,1-7.44.63A3.75,3.75,0,0,1,94,60.61a16,16,0,0,1-1.28-1.83,6.86,6.86,0,0,0,.69,2,4.33,4.33,0,0,0,3,2.3,8.56,8.56,0,0,0,1.47.21h0c.63,0,.63,0,.72,1a10.43,10.43,0,0,1,0,1.08c0,.12,0,.24,0,.36s0,.56.28.65H99c.22,0,.41-.22.53-.42a14.85,14.85,0,0,0,1.4-2.82A9.67,9.67,0,0,0,104.59,62a1.72,1.72,0,0,0,.25-.27,1.16,1.16,0,0,0,.79.49h0c.32.06.32.2.34.93a9.88,9.88,0,0,1-.07,1l0,.34c0,.14,0,.53.23.63l.09,0c.21,0,.4-.18.52-.36a13,13,0,0,0,1.61-2.86,4.4,4.4,0,0,0,2-2c1.16-2,1.37-2.66,1.37-3.67s-2.06-3.26-3.72-4.62c.67.93,2.82,3.39,2.85,4.83a7.77,7.77,0,0,1-1.32,3.2A2.81,2.81,0,0,1,107,61.24c-.8.09-1.09,0-1.2-.11a.41.41,0,0,1-.13-.32v0a8.1,8.1,0,0,1,.11-1.65A9.36,9.36,0,0,0,109.3,54.71Z"/><path class="cls-5" d="M96.25,75c-2.16-.17-2.54-.55-3.07-1.59-.19-.37-.41-.95-.65-1.56a10.52,10.52,0,0,0-1.8-3.48A21,21,0,0,0,86,66.47a21,21,0,0,1-3.17-1.15c-.83-.66-1.17-1.71-2.3-5.19L80,58.49l-.63-1.94.12,2c0,.25.39,6.07,2.29,7.7a15.47,15.47,0,0,0,4.48,1.8,12.39,12.39,0,0,1,3.48,1.35,16.38,16.38,0,0,1,1.84,3.77c.15.37.28.7.39,1l0,.06c.19.48.64,1.61,4,1.75l2.1,0A25.49,25.49,0,0,0,98,81.87H100a23.11,23.11,0,0,1-.19-5.9c4.35-.26,4.85-1,4.85-1l-1.8,0S98.4,75.13,96.25,75Z"/><path class="cls-5" d="M103.84,69.42c-1.1,2.58-1.26,2.56-2,2.56h-2c.28-1.49,0-4.31-.59-2.86-1.17,2.76-1.37,2.82-2.1,2.82l-.59,0c-1.05-.11-1.6-.21-1.9-1.14-1.32-4-2.32-4.72-2.32-4.72s.27,1,.43,1.56.5,2,.68,3c.33,1.77.73,2.31,2.77,2.49.91.08,2.36.12,3.78.12s3,0,3.79-.12l.21,0h0a1.55,1.55,0,0,0,1.26-1.12l-1,0C104.45,70.53,104.31,68.32,103.84,69.42Z"/><path class="cls-5" d="M89,50.89c.79.83,2,1.31,3.95,1.16a15.23,15.23,0,0,0,4.28-1.14,21.82,21.82,0,0,1-4.67-1.24,17.85,17.85,0,0,0-4.24-1.39,21.8,21.8,0,0,0-3.07.12,7.31,7.31,0,0,1,2.42.73C88.29,49.59,88.2,50.09,89,50.89Z"/><path class="cls-5" d="M101.82,46.1,102,46a8.59,8.59,0,0,1,3.75-1.56,15.72,15.72,0,0,1,1.76,4.1c-.26-3.87-1.09-5.25-1.09-5.25a6.83,6.83,0,0,0-.71,0A8.54,8.54,0,0,0,101.19,45a18.32,18.32,0,0,0-12.27.06S95.84,43.69,101.82,46.1Z"/><path class="cls-5" d="M85.78,44.42a10.47,10.47,0,0,0-5.41-1.16h-.2l0,.19a21.11,21.11,0,0,0-.54,6.1,29.65,29.65,0,0,0-9.07,10.32v3.64A29.58,29.58,0,0,1,80.87,50.09a28.68,28.68,0,0,1,.36-5.88,18.46,18.46,0,0,1,4.34.68l1.64.42Z"/><path class="cls-6" d="M40.84,94.43l1-1.16a1.85,1.85,0,0,0,1.37.75c.62,0,1-.37,1-1.24V87.93H46v4.92a2.73,2.73,0,0,1-.71,2,2.68,2.68,0,0,1-2,.7A3.07,3.07,0,0,1,40.84,94.43Z"/><path class="cls-6" d="M52.63,87.88h1.52l3.22,7.57H55.65L55,93.76H51.78l-.69,1.69H49.41Zm1.74,4.42-1-2.44-1,2.44Z"/><path class="cls-6" d="M60.4,91.71v0a3.86,3.86,0,0,1,3.94-3.89,4.12,4.12,0,0,1,3,1l-1,1.26a2.77,2.77,0,0,0-2-.76,2.26,2.26,0,0,0-2.16,2.34v0a2.25,2.25,0,0,0,2.28,2.38A2.64,2.64,0,0,0,66,93.62V92.55H64.3V91.12h3.26v3.26a4.88,4.88,0,0,1-3.21,1.19A3.76,3.76,0,0,1,60.4,91.71Z"/><path class="cls-6" d="M71.72,92.23V87.93h1.65v4.25C73.37,93.41,74,94,75,94s1.62-.61,1.62-1.8v-4.3h1.65v4.24c0,2.28-1.28,3.39-3.3,3.39A3,3,0,0,1,71.72,92.23Z"/><path class="cls-6" d="M84.94,87.88h1.52l3.22,7.57H88l-.69-1.69H84.09l-.69,1.69H81.72Zm1.74,4.42-1-2.44-1,2.44Z"/><path class="cls-6" d="M93.53,87.93H97a3,3,0,0,1,2.19.76,2.36,2.36,0,0,1,.64,1.72v0a2.33,2.33,0,0,1-1.61,2.33L100,95.45H98.09L96.48,93h-1.3v2.4H93.53Zm3.33,3.65c.8,0,1.27-.43,1.27-1.06v0c0-.71-.49-1.07-1.3-1.07H95.18v2.16Z"/></g></g></svg>