<svg xmlns="http://www.w3.org/2000/svg" viewBox="0 0 108.74 43.19"><defs><style>.cls-1{fill:#ee8c6c;}.cls-2{fill:#adacb2;}.cls-3{fill:#565859;}</style></defs><title>d2</title><g id="Capa_2" data-name="Capa 2"><g id="Capa_1-2" data-name="Capa 1"><path class="cls-1" d="M0,27.18v0a4.79,4.79,0,0,1,4.91-4.87,4.86,4.86,0,0,1,3.71,1.45L7.31,25.25A3.48,3.48,0,0,0,4.9,24.19a2.79,2.79,0,0,0-2.73,2.93v0a2.8,2.8,0,0,0,2.73,3A3.4,3.4,0,0,0,7.37,29l1.32,1.33A4.81,4.81,0,0,1,4.83,32,4.75,4.75,0,0,1,0,27.18Z"/><path class="cls-1" d="M9.7,29.79v0c0-1.57,1.2-2.3,2.91-2.3a5.13,5.13,0,0,1,1.76.3v-.12c0-.85-.52-1.32-1.55-1.32a5.31,5.31,0,0,0-2,.39l-.51-1.56a6.37,6.37,0,0,1,2.8-.58,3.33,3.33,0,0,1,2.44.81,3.15,3.15,0,0,1,.78,2.3v4.18h-2v-.78a2.77,2.77,0,0,1-2.18.91A2.23,2.23,0,0,1,9.7,29.79Zm4.7-.47V29a3.18,3.18,0,0,0-1.31-.27c-.87,0-1.41.35-1.41,1v0c0,.55.46.87,1.12.87C13.75,30.58,14.4,30.06,14.4,29.32Z"/><path class="cls-1" d="M18.1,24.65h2v1a2.65,2.65,0,0,1,2.25-1.17c1.68,0,3.28,1.32,3.28,3.73v0c0,2.41-1.57,3.73-3.28,3.73a2.77,2.77,0,0,1-2.25-1.08V34h-2Zm5.53,3.62v0a1.77,1.77,0,1,0-3.51,0v0a1.77,1.77,0,1,0,3.51,0Z"/><path class="cls-1" d="M26.76,29.79v0c0-1.57,1.2-2.3,2.91-2.3a5.13,5.13,0,0,1,1.76.3v-.12c0-.85-.52-1.32-1.55-1.32a5.31,5.31,0,0,0-2,.39l-.51-1.56a6.37,6.37,0,0,1,2.8-.58,3.33,3.33,0,0,1,2.44.81,3.15,3.15,0,0,1,.78,2.3v4.18h-2v-.78a2.77,2.77,0,0,1-2.18.91A2.23,2.23,0,0,1,26.76,29.79Zm4.7-.47V29a3.18,3.18,0,0,0-1.31-.27c-.87,0-1.41.35-1.41,1v0c0,.55.46.87,1.12.87C30.81,30.58,31.45,30.06,31.45,29.32Z"/><path class="cls-1" d="M34.81,28.3v0a3.7,3.7,0,0,1,3.78-3.75,3.55,3.55,0,0,1,2.88,1.21l-1.25,1.35a2.11,2.11,0,0,0-1.64-.79,1.84,1.84,0,0,0-1.75,2v0a1.85,1.85,0,0,0,1.83,2,2.28,2.28,0,0,0,1.65-.77l1.2,1.21A3.63,3.63,0,0,1,38.56,32,3.68,3.68,0,0,1,34.81,28.3Z"/><path class="cls-1" d="M42.88,22H45v1.82H42.88Zm.05,2.61h2v7.21h-2Z"/><path class="cls-1" d="M47.24,29.82V26.4h-.86V24.65h.86V22.81h2v1.84H51V26.4h-1.7v3.08c0,.47.2.7.66.7a2.08,2.08,0,0,0,1-.26v1.64a3,3,0,0,1-1.61.42C48.09,32,47.24,31.48,47.24,29.82Z"/><path class="cls-1" d="M52.06,29.79v0c0-1.57,1.2-2.3,2.91-2.3a5.13,5.13,0,0,1,1.76.3v-.12c0-.85-.52-1.32-1.55-1.32a5.31,5.31,0,0,0-2,.39l-.51-1.56a6.37,6.37,0,0,1,2.8-.58,3.33,3.33,0,0,1,2.44.81,3.15,3.15,0,0,1,.78,2.3v4.18h-2v-.78a2.77,2.77,0,0,1-2.18.91A2.23,2.23,0,0,1,52.06,29.79Zm4.7-.47V29a3.18,3.18,0,0,0-1.31-.27c-.87,0-1.41.35-1.41,1v0c0,.55.46.87,1.12.87C56.11,30.58,56.76,30.06,56.76,29.32Z"/><path class="cls-1" d="M60.11,28.3v0a3.7,3.7,0,0,1,3.78-3.75,3.55,3.55,0,0,1,2.88,1.21l-1.25,1.35a2.11,2.11,0,0,0-1.64-.79,1.84,1.84,0,0,0-1.75,2v0a1.85,1.85,0,0,0,1.83,2,2.28,2.28,0,0,0,1.65-.77l1.2,1.21A3.63,3.63,0,0,1,63.86,32,3.68,3.68,0,0,1,60.11,28.3Z"/><path class="cls-1" d="M68.18,22h2.15v1.82H68.18Zm.05,2.61h2v7.21h-2Z"/><path class="cls-1" d="M71.86,28.3v0a3.91,3.91,0,0,1,7.8,0v0a3.91,3.91,0,0,1-7.8,0Zm5.79,0v0a1.92,1.92,0,0,0-1.9-2,1.85,1.85,0,0,0-1.87,2v0a1.92,1.92,0,0,0,1.9,2A1.85,1.85,0,0,0,77.64,28.3Zm-1.2-6.82,1.76.77-1.75,1.61H75Z"/><path class="cls-1" d="M81.14,24.65h2v1a2.55,2.55,0,0,1,2.11-1.16,2.37,2.37,0,0,1,2.45,2.68v4.67h-2v-4c0-1-.46-1.47-1.24-1.47s-1.28.5-1.28,1.47v4h-2Z"/><path class="cls-2" d="M104.22,6.9c.7,0,1.24-.25,1.24-.62s-.14-1.71-.14-1.71a9,9,0,0,1-3.11,1.76A5.69,5.69,0,0,0,104.22,6.9Z"/><path class="cls-2" d="M106.8,9.46a7.7,7.7,0,0,1-2.68,1.33,21,21,0,0,1-5.4-.53,14.61,14.61,0,0,0,4.52,3,3,3,0,0,1-1.19,1.66,11.42,11.42,0,0,1-6.14.52,3.1,3.1,0,0,1-1.78-1.06,13.2,13.2,0,0,1-1.06-1.51,5.66,5.66,0,0,0,.57,1.64,3.58,3.58,0,0,0,2.51,1.9,7.06,7.06,0,0,0,1.22.17h0c.52,0,.52,0,.59.8a8.61,8.61,0,0,1,0,.89c0,.1,0,.2,0,.3s0,.46.23.53h.08c.18,0,.33-.18.44-.34a12.26,12.26,0,0,0,1.16-2.33,8,8,0,0,0,3-.93,1.42,1.42,0,0,0,.2-.23,1,1,0,0,0,.65.4h0c.26,0,.26.16.28.77a8.16,8.16,0,0,1-.06.84l0,.28c0,.12,0,.43.19.52l.08,0c.17,0,.33-.15.43-.3A10.69,10.69,0,0,0,106,15.42a3.64,3.64,0,0,0,1.63-1.68c1-1.61,1.13-2.2,1.13-3S107,8,105.67,6.9c.55.77,2.33,2.8,2.35,4a6.41,6.41,0,0,1-1.09,2.64,2.32,2.32,0,0,1-2,1.33c-.66.08-.9,0-1-.09a.34.34,0,0,1-.1-.26v0a6.69,6.69,0,0,1,.09-1.36A7.73,7.73,0,0,0,106.8,9.46Z"/><path class="cls-2" d="M96,26.17c-1.78-.14-2.1-.46-2.54-1.31-.16-.3-.34-.78-.54-1.29a8.68,8.68,0,0,0-1.49-2.87,17.3,17.3,0,0,0-3.93-1.54,17.35,17.35,0,0,1-2.62-1c-.69-.54-1-1.41-1.89-4.28l-.44-1.35L82.07,11l.1,1.68c0,.2.32,5,1.89,6.36a12.77,12.77,0,0,0,3.7,1.48,10.23,10.23,0,0,1,2.87,1.11,13.52,13.52,0,0,1,1.52,3.11c.12.3.23.58.32.79l0,.05c.16.4.53,1.33,3.3,1.44l1.73,0a21,21,0,0,0-.1,4.83h1.71A19.08,19.08,0,0,1,99,27c3.59-.22,4-.82,4-.82l-1.48,0S97.8,26.31,96,26.17Z"/><path class="cls-2" d="M102.29,21.6c-.91,2.13-1,2.11-1.62,2.11H99c.23-1.23,0-3.56-.48-2.36-1,2.28-1.13,2.33-1.74,2.33l-.49,0c-.87-.09-1.32-.18-1.57-.94-1.09-3.33-1.91-3.9-1.91-3.9s.22.79.35,1.29.41,1.63.57,2.47c.27,1.46.6,1.9,2.29,2.06.75.07,2,.1,3.12.1s2.51,0,3.13-.1l.17,0h0a1.28,1.28,0,0,0,1-.92l-.81,0C102.8,22.52,102.68,20.69,102.29,21.6Z"/><path class="cls-2" d="M90,6.3a3.73,3.73,0,0,0,3.26,1,12.57,12.57,0,0,0,3.54-.94,18,18,0,0,1-3.85-1,14.74,14.74,0,0,0-3.5-1.15,18,18,0,0,0-2.54.1,6,6,0,0,1,2,.6C89.46,5.23,89.38,5.64,90,6.3Z"/><path class="cls-2" d="M100.63,2.35l.12-.1A7.09,7.09,0,0,1,103.84,1a13,13,0,0,1,1.46,3.39A10.64,10.64,0,0,0,104.4,0a5.64,5.64,0,0,0-.58,0,7,7,0,0,0-3.71,1.45A15.13,15.13,0,0,0,90,1.5S95.68.36,100.63,2.35Z"/><path class="cls-2" d="M87.38,1a8.65,8.65,0,0,0-4.47-1h-.16l0,.16a17.43,17.43,0,0,0-.44,5,24.48,24.48,0,0,0-7.48,8.52v3A24.42,24.42,0,0,1,83.33,5.64a23.68,23.68,0,0,1,.3-4.85,15.24,15.24,0,0,1,3.59.56l1.35.35Z"/><path class="cls-3" d="M50.28,42.25l.86-1a1.53,1.53,0,0,0,1.13.62c.51,0,.83-.31.83-1v-4h1.4v4.06a2.25,2.25,0,0,1-.58,1.66,2.22,2.22,0,0,1-1.61.58A2.54,2.54,0,0,1,50.28,42.25Z"/><path class="cls-3" d="M60,36.84h1.26l2.66,6.25H62.51l-.57-1.39H59.32l-.57,1.39H57.36Zm1.44,3.65-.82-2-.82,2Z"/><path class="cls-3" d="M66.43,40v0a3.18,3.18,0,0,1,3.25-3.21,3.4,3.4,0,0,1,2.44.85l-.86,1A2.28,2.28,0,0,0,69.64,38,1.86,1.86,0,0,0,67.86,40v0a1.86,1.86,0,0,0,1.88,2A2.18,2.18,0,0,0,71,41.58V40.7H69.65V39.52h2.69v2.69a4,4,0,0,1-2.65,1A3.1,3.1,0,0,1,66.43,40Z"/><path class="cls-3" d="M75.77,40.43V36.88h1.36v3.51c0,1,.51,1.53,1.34,1.53s1.34-.51,1.34-1.49V36.88h1.36v3.5a2.5,2.5,0,0,1-2.72,2.8A2.46,2.46,0,0,1,75.77,40.43Z"/><path class="cls-3" d="M86.69,36.84h1.26l2.66,6.25H89.18l-.57-1.39H86l-.57,1.39H84Zm1.44,3.65-.82-2-.82,2Z"/><path class="cls-3" d="M93.78,36.88h2.84a2.47,2.47,0,0,1,1.81.63A2,2,0,0,1,99,38.93v0a1.93,1.93,0,0,1-1.33,1.92l1.52,2.22h-1.6l-1.33-2H95.14v2H93.78Zm2.75,3c.66,0,1-.35,1-.88v0c0-.59-.41-.89-1.07-.89H95.14V39.9Z"/></g></g></svg>