<svg xmlns="http://www.w3.org/2000/svg" viewBox="0 0 84.85 43.19"><defs><style>.cls-1{fill:#ee8c6c;}.cls-2{fill:#adacb2;}.cls-3{fill:#565859;}</style></defs><title>d3</title><g id="Capa_2" data-name="Capa 2"><g id="Capa_1-2" data-name="Capa 1"><path class="cls-1" d="M0,20.8H2.44V31.88H0Z"/><path class="cls-1" d="M5,23.39H7.36v1.2a3,3,0,0,1,2.5-1.36,2.54,2.54,0,0,1,2.39,1.35A3.5,3.5,0,0,1,15,23.23c1.79,0,2.86,1.08,2.86,3.12v5.52H15.5V27.14c0-1.14-.51-1.73-1.41-1.73s-1.46.59-1.46,1.73v4.73H10.23V27.14c0-1.14-.51-1.73-1.41-1.73S7.36,26,7.36,27.14v4.73H5Z"/><path class="cls-1" d="M20,23.39H22.4v1.22A3.12,3.12,0,0,1,25,23.23c2,0,3.86,1.55,3.86,4.39v0C28.91,30.48,27.06,32,25,32a3.26,3.26,0,0,1-2.64-1.27v3.64H20Zm6.51,4.26v0a2.08,2.08,0,1,0-4.13,0v0a2.08,2.08,0,1,0,4.13,0Z"/><path class="cls-1" d="M30.18,29.44v0c0-1.85,1.41-2.71,3.42-2.71a6,6,0,0,1,2.07.35v-.14c0-1-.62-1.55-1.82-1.55a6.24,6.24,0,0,0-2.34.46L30.91,24a7.49,7.49,0,0,1,3.29-.68,3.92,3.92,0,0,1,2.87.95A3.7,3.7,0,0,1,38,27v4.92H35.65V31A3.26,3.26,0,0,1,33.09,32,2.62,2.62,0,0,1,30.18,29.44Zm5.52-.55v-.43a3.74,3.74,0,0,0-1.54-.32c-1,0-1.66.41-1.66,1.17v0c0,.65.54,1,1.31,1C34.94,30.37,35.7,29.75,35.7,28.88Z"/><path class="cls-1" d="M39.65,27.68v0a4.36,4.36,0,0,1,4.45-4.42,4.17,4.17,0,0,1,3.39,1.43L46,26.24a2.48,2.48,0,0,0-1.93-.93A2.17,2.17,0,0,0,42,27.62v0A2.17,2.17,0,0,0,44.17,30a2.69,2.69,0,0,0,1.95-.9l1.41,1.43a4.27,4.27,0,0,1-3.47,1.55A4.33,4.33,0,0,1,39.65,27.68Z"/><path class="cls-1" d="M49.49,29.47v-4h-1V23.39h1V21.22H51.9v2.17h2v2.06h-2v3.62c0,.55.24.82.78.82a2.45,2.45,0,0,0,1.19-.3v1.93A3.55,3.55,0,0,1,52,32C50.49,32,49.49,31.43,49.49,29.47Z"/><path class="cls-1" d="M55,27.68v0a4.59,4.59,0,0,1,9.18,0v0a4.59,4.59,0,0,1-9.18,0Zm6.81,0v0a2.25,2.25,0,0,0-2.23-2.34,2.17,2.17,0,0,0-2.2,2.31v0A2.25,2.25,0,0,0,59.63,30,2.17,2.17,0,0,0,61.83,27.68Z"/><path class="cls-2" d="M80.32,6.9c.7,0,1.24-.25,1.24-.62s-.14-1.71-.14-1.71a9,9,0,0,1-3.11,1.76A5.69,5.69,0,0,0,80.32,6.9Z"/><path class="cls-2" d="M82.9,9.46a7.7,7.7,0,0,1-2.68,1.33,21,21,0,0,1-5.4-.53,14.61,14.61,0,0,0,4.52,3,3,3,0,0,1-1.19,1.66,11.42,11.42,0,0,1-6.14.52,3.1,3.1,0,0,1-1.78-1.06,13.2,13.2,0,0,1-1.06-1.51,5.66,5.66,0,0,0,.57,1.64,3.58,3.58,0,0,0,2.51,1.9,7.06,7.06,0,0,0,1.22.17h0c.52,0,.52,0,.59.8a8.61,8.61,0,0,1,0,.89c0,.1,0,.2,0,.3s0,.46.23.53h.08c.18,0,.33-.18.44-.34A12.26,12.26,0,0,0,76,16.39a8,8,0,0,0,3-.93,1.42,1.42,0,0,0,.2-.23,1,1,0,0,0,.65.4h0c.26,0,.26.16.28.77a8.16,8.16,0,0,1-.06.84l0,.28c0,.12,0,.43.19.52l.08,0c.17,0,.33-.15.43-.3a10.69,10.69,0,0,0,1.33-2.36,3.64,3.64,0,0,0,1.63-1.68c1-1.61,1.13-2.2,1.13-3S83.14,8,81.77,6.9c.55.77,2.33,2.8,2.35,4A6.41,6.41,0,0,1,83,13.52a2.32,2.32,0,0,1-2,1.33c-.66.08-.9,0-1-.09a.34.34,0,0,1-.1-.26v0A6.69,6.69,0,0,1,80,13.09,7.73,7.73,0,0,0,82.9,9.46Z"/><path class="cls-2" d="M72.13,26.17c-1.78-.14-2.1-.46-2.54-1.31-.16-.3-.34-.78-.54-1.29a8.68,8.68,0,0,0-1.49-2.87,17.3,17.3,0,0,0-3.93-1.54,17.35,17.35,0,0,1-2.62-1c-.69-.54-1-1.41-1.89-4.28l-.44-1.35L58.17,11l.1,1.68c0,.2.32,5,1.89,6.36a12.77,12.77,0,0,0,3.7,1.48,10.23,10.23,0,0,1,2.87,1.11,13.52,13.52,0,0,1,1.52,3.11c.12.3.23.58.32.79l0,.05c.16.4.53,1.33,3.3,1.44l1.73,0a21,21,0,0,0-.1,4.83h1.71A19.08,19.08,0,0,1,75.08,27c3.59-.22,4-.82,4-.82l-1.48,0S73.91,26.31,72.13,26.17Z"/><path class="cls-2" d="M78.4,21.6c-.91,2.13-1,2.11-1.62,2.11H75.1c.23-1.23,0-3.56-.48-2.36-1,2.28-1.13,2.33-1.74,2.33l-.49,0c-.87-.09-1.32-.18-1.57-.94-1.09-3.33-1.91-3.9-1.91-3.9s.22.79.35,1.29.41,1.63.57,2.47c.27,1.46.6,1.9,2.29,2.06.75.07,2,.1,3.12.1s2.51,0,3.13-.1l.17,0h0a1.28,1.28,0,0,0,1-.92l-.81,0C78.9,22.52,78.78,20.69,78.4,21.6Z"/><path class="cls-2" d="M66.1,6.3a3.73,3.73,0,0,0,3.26,1,12.57,12.57,0,0,0,3.54-.94,18,18,0,0,1-3.85-1,14.74,14.74,0,0,0-3.5-1.15,18,18,0,0,0-2.54.1,6,6,0,0,1,2,.6C65.56,5.23,65.48,5.64,66.1,6.3Z"/><path class="cls-2" d="M76.73,2.35l.12-.1A7.09,7.09,0,0,1,79.94,1,13,13,0,0,1,81.4,4.34,10.64,10.64,0,0,0,80.5,0a5.64,5.64,0,0,0-.58,0,7,7,0,0,0-3.71,1.45,15.13,15.13,0,0,0-10.13,0S71.79.36,76.73,2.35Z"/><path class="cls-2" d="M63.48,1A8.65,8.65,0,0,0,59,0h-.16l0,.16a17.43,17.43,0,0,0-.44,5,24.48,24.48,0,0,0-7.48,8.52v3A24.42,24.42,0,0,1,59.43,5.64a23.68,23.68,0,0,1,.3-4.85,15.24,15.24,0,0,1,3.59.56l1.35.35Z"/><path class="cls-3" d="M26.38,42.25l.86-1a1.53,1.53,0,0,0,1.13.62c.51,0,.83-.31.83-1v-4h1.4v4.06A2.25,2.25,0,0,1,30,42.6a2.22,2.22,0,0,1-1.61.58A2.53,2.53,0,0,1,26.38,42.25Z"/><path class="cls-3" d="M36.12,36.84h1.26L40,43.09H38.61L38,41.7H35.42l-.57,1.39H33.46Zm1.44,3.65-.82-2-.82,2Z"/><path class="cls-3" d="M42.53,40v0a3.18,3.18,0,0,1,3.25-3.21,3.4,3.4,0,0,1,2.44.85l-.86,1A2.28,2.28,0,0,0,45.74,38,1.86,1.86,0,0,0,44,40v0a1.86,1.86,0,0,0,1.88,2,2.18,2.18,0,0,0,1.28-.37V40.7H45.75V39.52h2.69v2.69a4,4,0,0,1-2.65,1A3.1,3.1,0,0,1,42.53,40Z"/><path class="cls-3" d="M51.87,40.43V36.88h1.36v3.51c0,1,.51,1.53,1.34,1.53s1.34-.51,1.34-1.49V36.88h1.36v3.5a2.5,2.5,0,0,1-2.72,2.8A2.46,2.46,0,0,1,51.87,40.43Z"/><path class="cls-3" d="M62.79,36.84H64l2.66,6.25H65.28l-.57-1.39H62.09l-.57,1.39H60.13Zm1.44,3.65-.82-2-.82,2Z"/><path class="cls-3" d="M69.88,36.88h2.84a2.47,2.47,0,0,1,1.81.63,2,2,0,0,1,.53,1.42v0a1.93,1.93,0,0,1-1.33,1.92l1.51,2.22H73.64l-1.33-2H71.24v2H69.88Zm2.75,3c.66,0,1-.35,1-.88v0c0-.59-.41-.89-1.07-.89H71.24V39.9Z"/></g></g></svg>