<svg xmlns="http://www.w3.org/2000/svg" viewBox="0 0 77.93 52.32"><defs><style>.cls-1{fill:#565859;}.cls-2{fill:#ee8c6c;}.cls-3{fill:#adacb2;}</style></defs><title>d4</title><g id="Capa_2" data-name="Capa 2"><g id="Capa_1-2" data-name="Capa 1"><path class="cls-1" d="M7.11,51.17l1-1.16a1.85,1.85,0,0,0,1.37.75c.62,0,1-.37,1-1.24V44.68h1.7V49.6a2.73,2.73,0,0,1-.71,2,2.69,2.69,0,0,1-2,.7A3.07,3.07,0,0,1,7.11,51.17Z"/><path class="cls-1" d="M18.91,44.63h1.52l3.22,7.57H21.92l-.69-1.69H18.06l-.69,1.69H15.69ZM20.65,49l-1-2.44-1,2.44Z"/><path class="cls-1" d="M26.68,48.46v0a3.86,3.86,0,0,1,3.94-3.89,4.12,4.12,0,0,1,3,1l-1,1.26a2.77,2.77,0,0,0-2-.76,2.26,2.26,0,0,0-2.16,2.34v0a2.25,2.25,0,0,0,2.28,2.38,2.64,2.64,0,0,0,1.56-.45V49.3H30.58V47.87h3.26v3.26a4.88,4.88,0,0,1-3.21,1.19A3.76,3.76,0,0,1,26.68,48.46Z"/><path class="cls-1" d="M38,49V44.68h1.65v4.25c0,1.22.61,1.86,1.62,1.86s1.62-.61,1.62-1.8v-4.3h1.65v4.24c0,2.28-1.28,3.39-3.3,3.39A3,3,0,0,1,38,49Z"/><path class="cls-1" d="M51.22,44.63h1.52L56,52.19H54.23l-.69-1.69H50.37l-.69,1.69H48ZM53,49l-1-2.44L51,49Z"/><path class="cls-1" d="M59.8,44.68h3.43a3,3,0,0,1,2.19.76,2.36,2.36,0,0,1,.64,1.72v0a2.33,2.33,0,0,1-1.61,2.33l1.84,2.68H64.36l-1.61-2.4h-1.3v2.4H59.8Zm3.33,3.65c.81,0,1.27-.43,1.27-1.06v0c0-.71-.49-1.07-1.3-1.07H61.46v2.16Z"/><path class="cls-2" d="M4.79,38.38l-.08,0-.08,0a.46.46,0,0,0-.16.09.21.21,0,0,1-.18,0v0l-.1,0-.12,0-.08,0-.08,0s0,0,0,0l-.44.11a2.22,2.22,0,0,1-.61.08H2.37a.77.77,0,0,1-.26-.06l-.19,0-.21-.07-.06,0,0,0A1.43,1.43,0,0,1,.7,38.1a4.57,4.57,0,0,1-.55-.83A2.17,2.17,0,0,1,0,36.62q0-.34,0-.73A3.94,3.94,0,0,1,.11,35a4.49,4.49,0,0,1,.26-.81c.14-.36.28-.68.42-1s.29-.58.44-.85.32-.55.5-.83l.59-.92s0,0,.07-.07l.16-.19.27-.32.44-.56.87-1q.41-.44.83-.83t.89-.78q.47-.38,1-.81s0-.05.06-.08L7.07,26l.16-.12a3,3,0,0,0,.38-.26l.57-.41.55-.36c.17-.1.27-.15.33-.13l.21-.13.11,0,.08,0s0,0,0,0l.08,0,.08,0,.08,0h0l.18-.09.07,0a1,1,0,0,0,.24-.11l.13-.08.15-.06a1,1,0,0,1,.3,0,.51.51,0,0,0,.18-.06l.18-.08h.36l.22,0a.45.45,0,0,1,.16.06.62.62,0,0,0,.24,0s.09,0,.14.09l.13.06,1.07.75a2.16,2.16,0,0,1,.13.23l.08.13.1.12a.57.57,0,0,1,.08.27.74.74,0,0,1,0,.6c-.08.2-.18.39-.28.58v.08a2.13,2.13,0,0,0-.18.23l-.07.12-.33.34a1.61,1.61,0,0,1-.22.25.81.81,0,0,0-.2.31l-.09.21a.59.59,0,0,1-.2.25h0a.23.23,0,0,1-.15.17v0l-.08.1V29H12s-.06,0-.06,0l-.09.21a.51.51,0,0,1-.09.15l-.06.06,0,0c0,.1,0,.15-.13.15h-.21l-.08.06-.08.06h-.06l-.27.08,0-.08-.15,0a.18.18,0,0,0-.15.08.49.49,0,0,1-.23.08L10,30H9.53a.55.55,0,0,1-.27-.26.46.46,0,0,1,0-.32.43.43,0,0,1,0-.15.45.45,0,0,1,.1-.15l.17-.21a2.14,2.14,0,0,0,.19-.35l.27-.46.06-.06a.24.24,0,0,0,.06-.12l.23-.38a4.27,4.27,0,0,0,.25-.46h0l-.17.08-.33.08a.31.31,0,0,1-.11.07.32.32,0,0,0-.12.07v0l-.13.12,0,0h0c0,.05-.06.1-.19.13a.11.11,0,0,1-.1.06l-.06.06q-.5.33-.75.52l-.48.38.11-.07a0,0,0,0,0,0,0,.12.12,0,0,1,0,.06l-.09.08-.29.21-.13.15-.1.15a.33.33,0,0,1-.21.13s-.06.05-.13.08l-.2.23a.92.92,0,0,0-.18.25,4.21,4.21,0,0,0-.52.45,3.84,3.84,0,0,0-.38.47l-.39.46a1.44,1.44,0,0,1-.39.33l-.06.1a.2.2,0,0,0,0,.08v.08s0,.06-.1.1l0,0-.06.06-.17.29H4.6l-.33.47-.18.26L4,33.2l0,.1v.08c-.06,0-.1,0-.1.08l-.12.1h.12l-.21.21s0,0,0,0,0,0,0,0,0,.11,0,.14l-.1.09-.1.15a3.91,3.91,0,0,0-.21.52c0,.13-.07.23-.09.31a.81.81,0,0,0,0,.19.43.43,0,0,1,0,.13v.15l0,.12a.11.11,0,0,0,0,.12.05.05,0,0,0,0,.08.07.07,0,0,1,0,.08h0l0,0s0,0,0,0a.35.35,0,0,0,.18.23,1.22,1.22,0,0,0,.34.12h0a2.41,2.41,0,0,0,.54,0,1.68,1.68,0,0,0,.56-.09,4.19,4.19,0,0,0,.49-.12,2.16,2.16,0,0,0,.37-.16L6,35.7l.38-.21A4.48,4.48,0,0,1,7,35.17a3.5,3.5,0,0,0,.59-.34l.22-.17.33-.28.3-.27A.64.64,0,0,1,8.57,34s0,0,0,0h0L8,34.11a.59.59,0,0,0-.24.09.38.38,0,0,1-.2.07l-.42.19-.12,0-.12,0-.1,0h-.1l-.43,0a1,1,0,0,1-.35-.08l-.12,0-.1,0v0a0,0,0,0,0,0,0l-.09-.06-.08-.06a.28.28,0,0,0-.15,0c.06-.06.07-.1,0-.12s-.08,0-.08-.06a.06.06,0,0,0,0-.06s0,0,0-.1v-.1l0,0a.18.18,0,0,0-.08-.15c-.05,0-.05-.07,0-.1a.29.29,0,0,0,.15-.19l.11-.11a.22.22,0,0,1,.12-.07l.07,0a.14.14,0,0,1,.11,0,4.71,4.71,0,0,1,.77-.37q.42-.16.86-.37L8,32.11l.86-.36.36-.12.07,0,.09,0,.12,0,.21,0,.31-.08h0a.54.54,0,0,1,.27-.08,1.94,1.94,0,0,1,.54-.18l.59-.12h.08L11.6,31l.61-.1.29-.08.22,0,.22,0,.31-.06.12,0h0l-.16,0s0,0,0-.06h.15l.28,0a1.15,1.15,0,0,1,.3,0,1.41,1.41,0,0,1,.59.19h0a.68.68,0,0,1,.24.08.19.19,0,0,1,0,.15l-.17.17-.12.08a.11.11,0,0,0,0,.08,0,0,0,0,1,0,0l0,0,0,0s-.06.06-.06.08a0,0,0,0,1,0,0,.07.07,0,0,0,0,0,.29.29,0,0,0,0,.08.35.35,0,0,1,0,.08.17.17,0,0,0,0,.08l0,.08,0,.25a.38.38,0,0,1,0,.17.39.39,0,0,1-.19.2l-.27.11-.15,0a1.78,1.78,0,0,0-.35.1.22.22,0,0,0-.11.1.6.6,0,0,1-.09.12,1.05,1.05,0,0,1-.31.18l-.19.19a.85.85,0,0,1-.24.28,1.25,1.25,0,0,0-.26.26l0,0L12.2,34h.06a.75.75,0,0,0-.15.23,1,1,0,0,1-.1.18l-.15.22-.19.25a1,1,0,0,1-.17.25,1.22,1.22,0,0,0-.19.27,1.27,1.27,0,0,0-.11.19l-.1.21,0,0-.1.31c-.06.09-.14.2-.22.34a1.93,1.93,0,0,0-.16.33,1.55,1.55,0,0,1-.15.36c-.08.14-.13.26-.17.35a1.85,1.85,0,0,1-.12.22l-.07.09s0,0,0,0h0a.21.21,0,0,0,0,.07l-.08.23a.42.42,0,0,1-.09.12s0,.05,0,.12a1.84,1.84,0,0,1-.08.27c0,.06,0,.1,0,.1a.1.1,0,0,0-.07,0l0,.06-.2.29,0,0v0s0,0-.06,0,0,0,0,0l0-.1a.34.34,0,0,1,0-.1s0,0,0,0L9.19,39s0,.06,0,.12-.13.11-.1.19a.33.33,0,0,1,0,.21s-.06.05-.17.09-.17.07-.17.13l-.17.06a.1.1,0,0,1-.12,0,.23.23,0,0,0-.17,0,.42.42,0,0,0-.2,0l-.2.06-.17,0a.16.16,0,0,1-.13-.1s0-.06,0-.06H7.45s0-.05,0-.12v-.32a1.48,1.48,0,0,1,0-.24,2,2,0,0,1,.07-.27c0-.1.08-.24.14-.42l0,0q0-.25.07-.38a.88.88,0,0,1,.06-.19.34.34,0,0,1,.07-.1.47.47,0,0,0,.08-.12A1.16,1.16,0,0,1,8,37.36l.2-.53,0-.1a1,1,0,0,1,.12-.2s0,0,.06-.11l0-.12-.11,0a.23.23,0,0,0-.12.06.55.55,0,0,0-.17.17.38.38,0,0,1-.23.15,1,1,0,0,0-.15.14l-.21.2-.4.21s0,0-.07,0,0,0-.07,0a.08.08,0,0,0,0,.06.05.05,0,0,1,0,0l-.26.13-.14.06,0,.06a.08.08,0,0,1-.07,0ZM2.34,30.61l0,0A0,0,0,0,0,2.34,30.61Z"/><path class="cls-2" d="M15.75,36.83v0c0,.13,0,.21-.08.25h0l0,0a.39.39,0,0,0-.08.1l-.08.13a.68.68,0,0,0-.12.16.3.3,0,0,1-.15.14v0a.26.26,0,0,0-.12.11l-.06.11L15,38a.14.14,0,0,1-.1.06c-.08,0-.11,0-.11-.06a.17.17,0,0,1-.15.1.14.14,0,0,1-.11.13.31.31,0,0,1-.17.08c-.14,0-.16,0-.06-.06h-.08a.22.22,0,0,0,0,.15l-.08,0c-.08,0-.12,0-.12,0H12.91l-.19,0-.08-.11a3.21,3.21,0,0,1,.13-.61,4.39,4.39,0,0,1,.18-.48s0,0,0-.06a.4.4,0,0,1,0-.1l.15-.26.17-.3v0a.37.37,0,0,1,0-.12l.07-.1a.23.23,0,0,0,.06-.11l0-.12.19-.32a2,2,0,0,0,.15-.32l.31-.46-.34,0-.21,0h-.23a1,1,0,0,1-.58-.15l0,0v0s0,0,0,0,0,0,0,0l0-.1a.14.14,0,0,1,0-.09.27.27,0,0,1,.13-.07c.12,0,.19,0,.21-.06l-.19,0a.27.27,0,0,1-.13-.06l-.21,0s.07,0,.33,0c0,0,0,0,0,0h0v0s0-.05.06-.08a.3.3,0,0,1,.17-.13l.06,0h.11l.11,0,.59-.11a3.76,3.76,0,0,0,.63-.21l.29-.08,1.28-1.9q.66-1,1.35-1.88l.33-.46q.17-.25.34-.46t.35-.48c.13-.17.25-.34.36-.52h0l.25-.25.19-.26a1.24,1.24,0,0,0,.19-.35.63.63,0,0,1,.21-.12.24.24,0,0,1,.1-.06.23.23,0,0,0,.1-.06l.17-.11a.36.36,0,0,1,.21-.08h.19l.27,0a.24.24,0,0,1,.19,0,.71.71,0,0,1,.46,0h.23q.08,0,.21.21l0,0a.34.34,0,0,0,.25,0,1.23,1.23,0,0,1,.31,0,.18.18,0,0,1,.19.11,1.48,1.48,0,0,1,.12.22,2.07,2.07,0,0,1,.06.38c0,.17,0,.31,0,.44a.2.2,0,0,0,0,.07.2.2,0,0,1,0,.07v.54a5.79,5.79,0,0,0,0,.66V30c0,.14,0,.28,0,.43s0,.29-.06.43a3.06,3.06,0,0,0,0,.39c0,.12,0,.25,0,.39h.44l.47-.06a2.08,2.08,0,0,1,.47,0,.08.08,0,0,1,.08,0h.06l.15.06a.14.14,0,0,1,.1.13l-.08.12-.13-.1a.39.39,0,0,0,.1.12.07.07,0,0,1,0,.11l-.08,0v0h0v0a.08.08,0,0,1,0,0,.08.08,0,0,0,0,0v0s0,0,0,0,0,0,0,0l0,.19,0,0h-.15l0,0a.13.13,0,0,1-.1,0h-.18a.12.12,0,0,1-.09,0h0a.39.39,0,0,0-.23,0l-.23.14-.21.06,0,.08a.09.09,0,0,0-.08,0l-.06,0v0l0,0a.14.14,0,0,1,0,.06.08.08,0,0,0,0,0v0a.85.85,0,0,0,0,.24,1.05,1.05,0,0,0,0,.26.07.07,0,0,1,0,0,.08.08,0,0,0,0,0l-.08.08v1s0,0,0,0a.23.23,0,0,1,0-.12.31.31,0,0,0,0,.13.38.38,0,0,1-.08.19v0l0,0c0,.06,0,.13-.1.19s0-.11,0-.18,0-.12,0-.14a.85.85,0,0,1,0-.16V34.6h0a.49.49,0,0,0,0-.12.38.38,0,0,1,0-.1,1.66,1.66,0,0,1,0-.31h0a.07.07,0,0,0,0,.06.09.09,0,0,1,0,0,.21.21,0,0,0,0,.1s0,.07-.08.13a.22.22,0,0,1-.08-.19v.15a1.25,1.25,0,0,0,0,.24.66.66,0,0,1,0,.24v0h0v.36a0,0,0,0,0,0,0,.08.08,0,0,1,0,0,1.77,1.77,0,0,1,0,.52s0,0-.06.08a.45.45,0,0,0,0,.16.7.7,0,0,0,0,.14l0,.25a.29.29,0,0,1,.08-.17l0,0s0-.09.11-.15v.17a.13.13,0,0,1,.06.12.16.16,0,0,1,0,.12.38.38,0,0,0,0,.1.35.35,0,0,1,0,.08,1.09,1.09,0,0,1,0,.25.58.58,0,0,1,0,.21h0a.67.67,0,0,0,0,.19q0,.08,0,.2a1.74,1.74,0,0,1,0,.28l0-.1v.1s0,0,0,0a0,0,0,0,0,0,0h-.06c-.05,0-.08.1-.08.27a.16.16,0,0,0-.12,0l-.06.06.08.06a.1.1,0,0,1,0,.11.42.42,0,0,0,0,.11.27.27,0,0,0,0,.12l-.1-.1c0,.08,0,.11,0,.1s-.06,0-.12.1h-.27a1.19,1.19,0,0,1-.18-.18.3.3,0,0,1-.06-.13.72.72,0,0,1,0-.17,2,2,0,0,0,0-.32l-.08-.38Q21,36.85,21,36.06t0-1.57v-.59c0-.19,0-.38,0-.58a.32.32,0,0,0-.27,0l-.1,0h-.12a4.19,4.19,0,0,0-.52.12l-.56.16h-.1v0a.62.62,0,0,1-.06-.13,1.27,1.27,0,0,0-.42.19v0c-.05.08-.1.08-.15,0a0,0,0,0,1,0,0h-.06a.35.35,0,0,1-.25.08l0,0-.07,0-.09,0H18a.31.31,0,0,0-.12,0l-.12.08,0-.1.08,0-.27.1-.08.06s0,0-.08.13l-.07.12,0,.12a.45.45,0,0,0-.19.29l-.13.12.13,0A.4.4,0,0,0,17,35l-.07.14-.12.16a.76.76,0,0,1-.14.14v0a.64.64,0,0,0-.12.25v0a.61.61,0,0,1-.08.23c-.06,0-.1,0-.1,0l0,.13a.41.41,0,0,0-.16,0,.09.09,0,0,0-.07.09l0,0,0,0,.06,0v.07a.19.19,0,0,0,0,.09.85.85,0,0,1-.13.27l-.17.19ZM14.44,38a.08.08,0,0,0,0-.06h0l0,0Zm.37-.12,0,0h0Zm.38-.65,0,.13-.1.13h.06l0,.08.17-.29v-.06Zm.67-1.15s0,0,0,0,0,0,0,0a.49.49,0,0,1,.13-.33,1.45,1.45,0,0,0-.17.21l-.17.27a.09.09,0,0,0-.06.1h-.08v-.06a.11.11,0,0,0,0,.08.55.55,0,0,0-.15.29.25.25,0,0,0-.12.09.52.52,0,0,0,0,.11l0-.08v.15l0-.08a.93.93,0,0,0,.15-.2l.13-.26h.08v.08l.1-.06v-.06l0,0,.06-.1A.2.2,0,0,1,15.86,36.12Zm-.59.33q0,.08,0,.08v0l0,0,0-.08a.12.12,0,0,1,0-.06Zm.27.52v0l.06-.12v0a.1.1,0,0,0,0,.07S15.55,37,15.54,37Zm.1-1.71a.11.11,0,0,0-.06.1s0,0,0,0A.11.11,0,0,1,15.63,35.26Zm0,.9a.08.08,0,0,0,0,.06A.08.08,0,0,1,15.59,36.16Zm.06-.1,0,0s0,0,0,0a.05.05,0,0,1,0,0Zm.21-.31.06-.08v0Zm.1-.19.1-.08,0-.13Zm.13-.77a.11.11,0,0,0,0,.08l.08-.08Zm.13-.19h0v0h0Zm.33.48-.13.18-.13.2,0,0,.13-.13h0a.29.29,0,0,0,.08-.12A.47.47,0,0,1,16.55,35.08Zm2.13-2.46,1.14-.26A9.53,9.53,0,0,0,21,32a6.36,6.36,0,0,0,0-.7c0-.24,0-.48,0-.74a2.15,2.15,0,0,1,0-.37,2.12,2.12,0,0,0,0-.37.46.46,0,0,1,0-.17v-.09s0-.05-.06-.07-.06,0-.18.22l-.33.45-.4.5,0,.1a.13.13,0,0,0,0,.06.39.39,0,0,0-.14.14,1.33,1.33,0,0,1-.12.18l-.13.15v0a.52.52,0,0,1-.08.21.46.46,0,0,0-.19.19L19.1,32l-.1.21-.07.1a.17.17,0,0,0,0,.1l-.11.09A.76.76,0,0,0,18.68,32.63Zm1.55.5v0l0,.08v0l0,0v0Zm1.46,3.66s0,0,0,0Zm.17-.92a.2.2,0,0,0,0,.09V36s0,0,0-.12,0,0,0,0S21.87,35.88,21.87,35.87ZM22,34.6v.06l.06,0c0-.09,0-.17,0-.25a.92.92,0,0,1,0-.23l0,0,0,0s0,0,0,0h0v.12a.27.27,0,0,1,0,.12.29.29,0,0,0,0,.08A.29.29,0,0,1,22,34.6Zm.1.56a.17.17,0,0,0,0,0,.14.14,0,0,1,0-.09l0,0a.07.07,0,0,1,0,0s0,0,0,0l0,.2a1.24,1.24,0,0,0,0,.22l0,0v0a.21.21,0,0,1,0-.1A1.09,1.09,0,0,1,22.06,35.16Z"/><path class="cls-2" d="M34.6,29.94V30a.15.15,0,0,1,0,0,.08.08,0,0,0,0,.07l-.31.33-.12.1c-.15.06-.23.12-.23.17l-.13.06a.17.17,0,0,0-.15.1l-.25.1-.08,0-.15,0s0,0-.07.06l-.12,0-.13,0h0a.36.36,0,0,1-.11.09h-.07a.13.13,0,0,0-.1,0v0a.08.08,0,0,1-.08,0l-.08,0,0,0a.39.39,0,0,1-.23.08l0,0,0,0,0,0-.13.1-.17.08-.17.06-.06,0a.16.16,0,0,0-.1,0l0,0-.19.12-.06.08v0l-.06.08v0h0a.15.15,0,0,1,.1-.06v.06l0,0s0,0-.06,0-.06,0-.06.1-.08,0-.08,0v0s-.05,0-.12,0,0,0,0,0,0,0,0,0v0a.13.13,0,0,0,0,.06.21.21,0,0,1,0,.08s0,0,0,.11,0,.13,0,.2a2.14,2.14,0,0,0,0,.22.28.28,0,0,0,0,.13q0,.27.12.75c.05.32.1.65.14,1s.09.63.12.89a4.7,4.7,0,0,1,.06.49h-.06c0,.09,0,.12,0,.1s0,0,0,.12a.08.08,0,0,0,0,0,.1.1,0,0,1,0,0l0,.14a.24.24,0,0,1,0,.16l-.08,0a.06.06,0,0,1,0,0,.28.28,0,0,1,0,.09.18.18,0,0,0,0,0h-.06a1,1,0,0,0,0-.17l0-.08a1.14,1.14,0,0,1,0,.52v.1a.18.18,0,0,1,0,.09.17.17,0,0,0,0,.09s0,0,0,0,0,0,0,0h0l0,0h0v.12h0a.26.26,0,0,0,0,.12.08.08,0,0,1,0,0v.17s0,0-.12.06l-.1,0h-.12l-.17,0-.29,0a.35.35,0,0,1-.21-.12l-.19-.33a.47.47,0,0,0-.11-.16.2.2,0,0,1-.07-.14,1.34,1.34,0,0,0,0-.22l-.06-.16-.06-.17a1.59,1.59,0,0,1,0-.29.22.22,0,0,0,0-.07.2.2,0,0,1,0-.07l-.1-.63a.5.5,0,0,0,0-.09.61.61,0,0,1,0-.12s0-.09-.06-.24-.08-.31-.12-.48L29,34.29c0-.15,0-.23,0-.24l0-.38-.34-.94,0,0s0,0,0,0,0,0,0,0l0,0,0-.06-.12.13h0l-.38,0,0,0s0,0,0,0,0,0,0,0,0,0,0,0l0,0v0h0l-.09.09a.13.13,0,0,1-.09,0l-.06.1a.7.7,0,0,1,.31-.13l0,.06-.21.15-.21.12a.21.21,0,0,1-.15.19l-.29.61-.13.28a3.31,3.31,0,0,0-.17.41,2.76,2.76,0,0,0-.28.56c-.07.19-.16.41-.26.65H26a2.34,2.34,0,0,0-.07.34.8.8,0,0,1,0,.23l-.06.07-.06.12a.19.19,0,0,0-.13.06.06.06,0,0,0-.07.06.37.37,0,0,1,0,.1,0,0,0,0,1,0,0,0,0,0,0,0,0,0,.09.09,0,0,1,0,.09.78.78,0,0,1,0,.11v.08h-.06a.29.29,0,0,1,0-.11l0,.1-.11.16a.76.76,0,0,0-.1.24l-.11.1L25,37.9S25,38,25,38s0,0,0,0a.42.42,0,0,1,0-.09s0,0,0,0,0,0,0,0h-.08l0,0,0,0h-.12l0,0h-.1s0,0,0-.06,0-.08,0-.06l-.1.15a.2.2,0,0,1-.13.08h-.08l0,0h-.43l-.22,0c-.06,0-.1,0-.12-.06l-.06-.34a.41.41,0,0,1,0-.14.23.23,0,0,0,0-.09v-.1l.17-.46c.05-.14.1-.28.14-.42s.09-.29.13-.46.11-.36.18-.58.19-.58.28-.87a5.55,5.55,0,0,1,.37-.93.18.18,0,0,1,0-.11s0-.07-.07-.07.08-.12,0-.12,0,0,0,0l.31-.15c.15-.36.32-.71.49-1.05s.35-.68.53-1,.3-.56.47-.92l.45-1-.1.08-.23.06-.23.16-.23.12H26a.39.39,0,0,1-.16-.12l-.14-.16-.15-.06-.06-.12-.08,0h0l-.09,0h-.37l0-.08v-.12l0,0a1.08,1.08,0,0,1-.15-.34.45.45,0,0,1,.13-.27l.1-.17a.52.52,0,0,0,.19-.07l.15-.09.32-.07a.74.74,0,0,0,.3-.14l.27,0a.74.74,0,0,0,.21,0l.35-.08a3.78,3.78,0,0,0,.5-.13,3,3,0,0,1,.6-.15l.68-.12.26,0L29,27a10.61,10.61,0,0,1,1.6-.2q.87,0,1.77,0h.31a6.67,6.67,0,0,1,1.61.27,2,2,0,0,1,1.15.84,0,0,0,0,0,0,0s0,0,0,0l0,.11a.19.19,0,0,1,0,.14h0a.11.11,0,0,1,0,.11.25.25,0,0,1-.06.09.08.08,0,0,0,0,.06.06.06,0,0,1,0,0l.08.29a.16.16,0,0,1,0,.1.9.9,0,0,1,0,.43.54.54,0,0,1-.22.32c-.05.1-.09.15-.12.15v0l-.1.13h-.12a.38.38,0,0,1-.17,0l0,0v.06Zm-9.71,8v0ZM26,36,26,36S26,36,26,36Zm4.68-5.52a.78.78,0,0,1,.2-.09.57.57,0,0,0,.2-.11l.21-.09.21-.09a6.11,6.11,0,0,0,.93-.43q.37-.22.85-.55l.12-.1q.4-.29.4-.4t-.28-.21a3.34,3.34,0,0,0-.66-.06H32.6l-.26,0-.78.07-.8.11-.4.08-.15,0-.35.06a.62.62,0,0,0-.3.12.58.58,0,0,1,.07.34.71.71,0,0,1-.12.27,3.21,3.21,0,0,1-.19.34,1.11,1.11,0,0,0-.13.26.64.64,0,0,1-.17.33l-.25.36-.12.17-.12.27a1.28,1.28,0,0,1-.15.27c.37-.18.75-.35,1.15-.52Zm.29,1.8H30.9Zm3.86-2.57a.11.11,0,0,0-.06.1l.1-.1Z"/><path class="cls-2" d="M44.57,29.94V30a.17.17,0,0,1,0,0,.08.08,0,0,0,0,.07l-.31.33-.12.1c-.15.06-.23.12-.23.17l-.13.06a.17.17,0,0,0-.15.1l-.25.1-.08,0-.15,0s0,0-.07.06l-.12,0-.13,0h0a.37.37,0,0,1-.11.09h-.07a.13.13,0,0,0-.1,0v0a.08.08,0,0,1-.08,0l-.08,0,0,0a.39.39,0,0,1-.23.08l0,0,0,0,0,0-.13.1-.17.08-.17.06-.06,0-.1,0,0,0-.19.12-.06.08v0l-.06.08v0h0a.15.15,0,0,1,.1-.06v.06l0,0s0,0-.06,0-.06,0-.06.1-.08,0-.08,0v0a.2.2,0,0,1-.12,0s0,0,0,0,0,0,0,0v0a.13.13,0,0,0,0,.06.19.19,0,0,1,0,.08s0,0,0,.11,0,.13,0,.2,0,.15,0,.22a.3.3,0,0,0,0,.13c0,.18.06.43.12.75s.1.65.14,1,.09.63.13.89.06.42.06.49h-.06c0,.09,0,.12,0,.1s0,0,0,.12a.09.09,0,0,0,0,0,.08.08,0,0,1,0,0l0,.14a.24.24,0,0,1,0,.16l-.08,0a.05.05,0,0,1,0,0,.31.31,0,0,1,0,.09.15.15,0,0,0,0,0h-.06a.9.9,0,0,0,0-.17l0-.08a1.17,1.17,0,0,1,0,.52v.1a.17.17,0,0,1,0,.09.18.18,0,0,0,0,.09s0,0,0,0,0,0,0,0h0l0,0h0v.12h0a.26.26,0,0,0,0,.12.09.09,0,0,1,0,0v.17s0,0-.11.06l-.1,0h-.11l-.17,0-.29,0a.35.35,0,0,1-.21-.12l-.19-.33a.5.5,0,0,0-.11-.16.2.2,0,0,1-.07-.14,1.26,1.26,0,0,0,0-.22l-.06-.16-.06-.17a1.6,1.6,0,0,1,0-.29.19.19,0,0,0,0-.07.2.2,0,0,1,0-.07l-.1-.63a.42.42,0,0,0,0-.09.69.69,0,0,1,0-.12s0-.09-.06-.24-.08-.31-.12-.48L39,34.29c0-.15,0-.23,0-.24l0-.38-.35-.94,0,0s0,0,0,0,0,0,0,0l0,0,0-.06-.12.13h0l-.38,0,0,0s0,0,0,0,0,0,0,0,0,0,0,0l0,0v0h0l-.09.09a.13.13,0,0,1-.09,0l-.06.1a.69.69,0,0,1,.31-.13l0,.06-.21.15-.21.12a.21.21,0,0,1-.15.19l-.29.61-.13.28a3,3,0,0,0-.17.41,2.82,2.82,0,0,0-.28.56c-.07.19-.16.41-.26.65H36a2.63,2.63,0,0,0-.07.34.76.76,0,0,1,0,.23l-.06.07-.06.12a.18.18,0,0,0-.13.06.06.06,0,0,0-.07.06.37.37,0,0,1,0,.1,0,0,0,0,1,0,0,0,0,0,0,0,0,0,.09.09,0,0,1,0,.09l0,.11v.08h-.06a.29.29,0,0,1,0-.11l0,.1-.12.16a.78.78,0,0,0-.1.24l-.12.1-.06.06a.2.2,0,0,0,0,.12s0,0,0,0a.48.48,0,0,1,0-.09s0,0,0,0,0,0,0,0h-.08l0,0,0,0h-.12l0,0h-.1s0,0,0-.06,0-.08,0-.06l-.1.15a.2.2,0,0,1-.13.08h-.08l0,0h-.43l-.22,0c-.06,0-.1,0-.11-.06l-.06-.34a.42.42,0,0,1,0-.14.22.22,0,0,0,0-.09v-.1l.17-.46.14-.42q.07-.21.13-.46c0-.17.11-.36.18-.58s.2-.58.28-.87a5.55,5.55,0,0,1,.37-.93.18.18,0,0,1,0-.11s0-.07-.07-.07.08-.12,0-.12,0,0,0,0l.31-.15c.15-.36.32-.71.49-1.05s.35-.68.53-1,.3-.56.47-.92.32-.68.45-1l-.1.08-.23.06-.23.16-.23.12h-.13a.38.38,0,0,1-.16-.12l-.14-.16-.15-.06-.06-.12-.08,0h0l-.09,0h-.36l0-.08v-.12l0,0a1.11,1.11,0,0,1-.15-.34.45.45,0,0,1,.13-.27l.1-.17a.51.51,0,0,0,.19-.07l.15-.09.32-.07a.75.75,0,0,0,.3-.14l.27,0a.76.76,0,0,0,.21,0l.34-.08a3.74,3.74,0,0,0,.5-.13,3,3,0,0,1,.6-.15l.68-.12.26,0,.26-.06a10.62,10.62,0,0,1,1.6-.2q.87,0,1.77,0h.31a6.68,6.68,0,0,1,1.61.27,2,2,0,0,1,1.15.84,0,0,0,0,0,0,0s0,0,0,0l0,.11a.2.2,0,0,1,0,.14h0a.11.11,0,0,1,0,.11.26.26,0,0,1-.06.09.08.08,0,0,0,0,.06.05.05,0,0,1,0,0l.08.29a.16.16,0,0,1,0,.1.9.9,0,0,1,0,.43.54.54,0,0,1-.22.32c-.05.1-.09.15-.12.15v0l-.1.13h-.12a.39.39,0,0,1-.17,0l0,0v.06Zm-9.7,8v0ZM36,36,36,36S36,36,36,36Zm4.68-5.52a.79.79,0,0,1,.2-.09.57.57,0,0,0,.2-.11l.21-.09.21-.09a6.1,6.1,0,0,0,.93-.43q.38-.22.85-.55l.12-.1q.4-.29.4-.4c0-.1-.09-.17-.28-.21a3.34,3.34,0,0,0-.66-.06h-.26l-.26,0-.78.07-.8.11-.4.08-.15,0-.35.06a.62.62,0,0,0-.3.12.58.58,0,0,1,.07.34.72.72,0,0,1-.12.27,3.21,3.21,0,0,1-.19.34,1.08,1.08,0,0,0-.13.26.63.63,0,0,1-.17.33l-.25.36-.12.17-.11.27a1.28,1.28,0,0,1-.15.27c.37-.18.75-.35,1.15-.52Zm.29,1.8h-.06Zm3.85-2.57a.11.11,0,0,0-.06.1l.1-.1Z"/><path class="cls-2" d="M45.65,36.83v0c0,.13,0,.21-.08.25h0l0,0a.39.39,0,0,0-.08.1l-.08.13a.68.68,0,0,0-.12.16.3.3,0,0,1-.15.14v0a.26.26,0,0,0-.12.11l-.06.11,0,.08a.14.14,0,0,1-.1.06c-.08,0-.11,0-.11-.06a.17.17,0,0,1-.15.1.14.14,0,0,1-.11.13.31.31,0,0,1-.17.08c-.14,0-.16,0-.06-.06h-.08a.22.22,0,0,0,0,.15l-.08,0c-.08,0-.12,0-.12,0H42.81l-.19,0-.08-.11a3.21,3.21,0,0,1,.13-.61,4.39,4.39,0,0,1,.18-.48s0,0,0-.06a.4.4,0,0,1,0-.1l.15-.26.17-.3v0a.37.37,0,0,1,0-.12l.07-.1a.23.23,0,0,0,.06-.11l0-.12.19-.32a2,2,0,0,0,.15-.32l.31-.46-.34,0-.21,0h-.23a1,1,0,0,1-.58-.15l0,0v0s0,0,0,0,0,0,0,0l0-.1a.14.14,0,0,1,0-.09.27.27,0,0,1,.13-.07c.12,0,.19,0,.21-.06l-.19,0a.27.27,0,0,1-.13-.06l-.21,0s.07,0,.33,0c0,0,0,0,0,0h0v0s0-.05.06-.08a.3.3,0,0,1,.17-.13l.06,0h.11l.11,0,.59-.11a3.76,3.76,0,0,0,.63-.21l.29-.08,1.28-1.9q.66-1,1.35-1.88l.33-.46q.17-.25.34-.46t.35-.48c.13-.17.25-.34.36-.52h0l.25-.25.19-.26a1.24,1.24,0,0,0,.19-.35.63.63,0,0,1,.21-.12.24.24,0,0,1,.1-.06.23.23,0,0,0,.1-.06l.17-.11a.36.36,0,0,1,.21-.08h.19l.27,0a.24.24,0,0,1,.19,0,.71.71,0,0,1,.46,0h.23q.08,0,.21.21l0,0a.34.34,0,0,0,.25,0,1.23,1.23,0,0,1,.31,0,.18.18,0,0,1,.19.11,1.48,1.48,0,0,1,.12.22,2.07,2.07,0,0,1,.06.38c0,.17,0,.31,0,.44a.2.2,0,0,0,0,.07.2.2,0,0,1,0,.07v.54a5.79,5.79,0,0,0,0,.66V30c0,.14,0,.28,0,.43s0,.29-.06.43a3.06,3.06,0,0,0,0,.39c0,.12,0,.25,0,.39h.44l.47-.06a2.08,2.08,0,0,1,.47,0,.08.08,0,0,1,.08,0h.06l.15.06a.14.14,0,0,1,.1.13l-.08.12-.13-.1a.39.39,0,0,0,.1.12.07.07,0,0,1,0,.11l-.08,0v0h0v0a.08.08,0,0,1,0,0,.08.08,0,0,0,0,0v0s0,0,0,0,0,0,0,0l0,.19,0,0H54l0,0a.13.13,0,0,1-.1,0h-.18a.12.12,0,0,1-.09,0h0a.39.39,0,0,0-.23,0l-.23.14-.21.06,0,.08a.09.09,0,0,0-.08,0l-.06,0v0l0,0a.14.14,0,0,1,0,.06.08.08,0,0,0,0,0v0a.85.85,0,0,0,0,.24,1.05,1.05,0,0,0,0,.26.07.07,0,0,1,0,0,.08.08,0,0,0,0,0l-.08.08v1s0,0,0,0a.23.23,0,0,1,0-.12.31.31,0,0,0,0,.13.38.38,0,0,1-.08.19v0l0,0c0,.06,0,.13-.1.19s0-.11,0-.18,0-.12,0-.14a.85.85,0,0,1,0-.16V34.6h0a.49.49,0,0,0,0-.12.38.38,0,0,1,0-.1,1.66,1.66,0,0,1,0-.31h0a.07.07,0,0,0,0,.06.09.09,0,0,1,0,0,.21.21,0,0,0,0,.1s0,.07-.08.13a.22.22,0,0,1-.08-.19v.15a1.25,1.25,0,0,0,0,.24.66.66,0,0,1,0,.24v0h0v.36a0,0,0,0,0,0,0,.08.08,0,0,1,0,0,1.77,1.77,0,0,1,0,.52s0,0-.06.08a.45.45,0,0,0,0,.16.7.7,0,0,0,0,.14l0,.25a.29.29,0,0,1,.08-.17l0,0s0-.09.11-.15v.17a.13.13,0,0,1,.06.12.16.16,0,0,1,0,.12.38.38,0,0,0,0,.1.35.35,0,0,1,0,.08,1.09,1.09,0,0,1,0,.25.58.58,0,0,1,0,.21h0a.67.67,0,0,0,0,.19q0,.08,0,.2a1.74,1.74,0,0,1,0,.28l0-.1v.1s0,0,0,0a0,0,0,0,0,0,0H52c-.05,0-.08.1-.08.27a.16.16,0,0,0-.12,0l-.06.06.08.06a.1.1,0,0,1,0,.11.42.42,0,0,0,0,.11.27.27,0,0,0,0,.12l-.1-.1c0,.08,0,.11,0,.1s-.06,0-.12.1h-.27a1.19,1.19,0,0,1-.18-.18.3.3,0,0,1-.06-.13.72.72,0,0,1,0-.17,2,2,0,0,0,0-.32L51,37.58q-.08-.73-.09-1.51t0-1.57v-.59c0-.19,0-.38,0-.58a.32.32,0,0,0-.27,0l-.1,0h-.12a4.19,4.19,0,0,0-.52.12l-.56.16h-.1v0a.62.62,0,0,1-.06-.13,1.27,1.27,0,0,0-.42.19v0c-.05.08-.1.08-.15,0a0,0,0,0,1,0,0h-.06a.35.35,0,0,1-.25.08l0,0-.07,0L48,34h-.11a.31.31,0,0,0-.12,0l-.12.08,0-.1.08,0-.27.1-.08.06s0,0-.08.13l-.07.12,0,.12a.45.45,0,0,0-.19.29l-.13.12.13,0a.4.4,0,0,0-.12.14l-.07.14-.12.16a.76.76,0,0,1-.14.14v0a.64.64,0,0,0-.12.25v0a.61.61,0,0,1-.08.23c-.06,0-.1,0-.1,0l0,.13a.41.41,0,0,0-.16,0,.09.09,0,0,0-.07.09l0,0,0,0,.06,0v.07a.19.19,0,0,0,0,.09.85.85,0,0,1-.13.27l-.17.19ZM44.34,38a.08.08,0,0,0,0-.06h0l0,0Zm.37-.12,0,0h0Zm.38-.65,0,.13-.1.13H45l0,.08.17-.29v-.06Zm.67-1.15s0,0,0,0,0,0,0,0a.49.49,0,0,1,.13-.33,1.45,1.45,0,0,0-.17.21l-.17.27a.09.09,0,0,0-.06.1h-.08v-.06a.11.11,0,0,0,0,.08.55.55,0,0,0-.15.29.25.25,0,0,0-.12.09.52.52,0,0,0,0,.11l0-.08v.15l0-.08a.93.93,0,0,0,.15-.2l.13-.26h.08v.08l.1-.06v-.06l0,0,.06-.1A.2.2,0,0,1,45.76,36.12Zm-.59.33q0,.08,0,.08v0l0,0,0-.08a.12.12,0,0,1,0-.06Zm.27.52v0l.06-.12v0a.1.1,0,0,0,0,.07S45.45,37,45.44,37Zm.1-1.71a.11.11,0,0,0-.06.1s0,0,0,0A.11.11,0,0,1,45.53,35.26Zm0,.9a.08.08,0,0,0,0,.06A.08.08,0,0,1,45.49,36.16Zm.06-.1,0,0s0,0,0,0a.05.05,0,0,1,0,0Zm.21-.31.06-.08v0Zm.1-.19.1-.08,0-.13ZM46,34.8a.11.11,0,0,0,0,.08L46,34.8Zm.13-.19h0v0h0Zm.33.48-.13.18-.13.2,0,0,.13-.13h0a.29.29,0,0,0,.08-.12A.47.47,0,0,1,46.45,35.08Zm2.13-2.46,1.14-.26A9.53,9.53,0,0,0,50.88,32a6.36,6.36,0,0,0,0-.7c0-.24,0-.48,0-.74a2.15,2.15,0,0,1,0-.37,2.12,2.12,0,0,0,0-.37.46.46,0,0,1,0-.17v-.09s0-.05-.06-.07-.06,0-.18.22l-.33.45-.4.5,0,.1a.13.13,0,0,0,0,.06.39.39,0,0,0-.14.14,1.33,1.33,0,0,1-.12.18l-.13.15v0a.52.52,0,0,1-.08.21.46.46,0,0,0-.19.19L49,32l-.1.21-.07.1a.17.17,0,0,0,0,.1l-.11.09A.76.76,0,0,0,48.58,32.63Zm1.55.5v0l0,.08v0l0,0v0Zm1.46,3.66s0,0,0,0Zm.17-.92a.2.2,0,0,0,0,.09V36s0,0,0-.12,0,0,0,0S51.77,35.88,51.77,35.87Zm.1-1.27v.06l.06,0c0-.09,0-.17,0-.25a.92.92,0,0,1,0-.23l0,0,0,0s0,0,0,0h0v.12a.27.27,0,0,1,0,.12.29.29,0,0,0,0,.08A.29.29,0,0,1,51.86,34.6Zm.1.56a.17.17,0,0,0,0,0A.14.14,0,0,1,52,35l0,0a.07.07,0,0,1,0,0s0,0,0,0l0,.2a1.24,1.24,0,0,0,0,.22l0,0v0a.21.21,0,0,1,0-.1A1.09,1.09,0,0,1,52,35.16Z"/><path class="cls-3" d="M72.45,8.35c.85,0,1.5-.3,1.5-.75s-.17-2.07-.17-2.07A10.85,10.85,0,0,1,70,7.66,6.89,6.89,0,0,0,72.45,8.35Z"/><path class="cls-3" d="M75.58,11.46a9.32,9.32,0,0,1-3.24,1.61,25.46,25.46,0,0,1-6.55-.64A17.7,17.7,0,0,0,71.27,16a3.63,3.63,0,0,1-1.44,2,13.84,13.84,0,0,1-7.44.63,3.75,3.75,0,0,1-2.16-1.29A16,16,0,0,1,59,15.53a6.86,6.86,0,0,0,.69,2,4.33,4.33,0,0,0,3,2.3,8.56,8.56,0,0,0,1.47.21h0c.63,0,.63,0,.72,1a10.43,10.43,0,0,1,0,1.08c0,.12,0,.24,0,.36s0,.56.28.65h.1c.22,0,.41-.22.53-.42a14.85,14.85,0,0,0,1.4-2.82,9.67,9.67,0,0,0,3.69-1.12,1.72,1.72,0,0,0,.25-.27,1.16,1.16,0,0,0,.79.49h0c.32.06.32.2.34.93a9.88,9.88,0,0,1-.07,1l0,.34c0,.14,0,.53.23.63l.09,0c.21,0,.4-.18.52-.36a13,13,0,0,0,1.61-2.86,4.4,4.4,0,0,0,2-2c1.16-2,1.37-2.66,1.37-3.67S75.87,9.7,74.21,8.35c.67.93,2.82,3.39,2.85,4.83a7.77,7.77,0,0,1-1.32,3.2A2.81,2.81,0,0,1,73.29,18c-.8.09-1.09,0-1.2-.11a.41.41,0,0,1-.13-.32v0a8.1,8.1,0,0,1,.11-1.65A9.36,9.36,0,0,0,75.58,11.46Z"/><path class="cls-3" d="M62.53,31.7c-2.16-.17-2.54-.55-3.07-1.59-.19-.37-.41-.95-.65-1.56A10.52,10.52,0,0,0,57,25.07a21,21,0,0,0-4.76-1.86,21,21,0,0,1-3.17-1.15c-.83-.66-1.17-1.71-2.3-5.19l-.53-1.63-.63-1.94.12,2c0,.25.39,6.07,2.29,7.7a15.47,15.47,0,0,0,4.48,1.8A12.39,12.39,0,0,1,56,26.18a16.38,16.38,0,0,1,1.84,3.77c.15.37.28.7.39,1l0,.06c.19.48.64,1.61,4,1.75l2.1,0a25.49,25.49,0,0,0-.12,5.86H66.3a23.11,23.11,0,0,1-.19-5.9c4.35-.26,4.85-1,4.85-1l-1.8,0S64.68,31.88,62.53,31.7Z"/><path class="cls-3" d="M70.12,26.17c-1.1,2.58-1.26,2.56-2,2.56h-2c.28-1.49,0-4.31-.59-2.86-1.17,2.76-1.37,2.82-2.1,2.82l-.59,0c-1.05-.11-1.6-.21-1.9-1.14-1.32-4-2.32-4.72-2.32-4.72s.27,1,.43,1.56.5,2,.68,3c.33,1.77.73,2.31,2.77,2.49.91.08,2.36.12,3.78.12s3,0,3.79-.12l.21,0h0a1.55,1.55,0,0,0,1.26-1.12l-1,0C70.73,27.28,70.59,25.06,70.12,26.17Z"/><path class="cls-3" d="M55.23,7.63c.79.83,2,1.31,3.95,1.16a15.23,15.23,0,0,0,4.28-1.14,21.82,21.82,0,0,1-4.67-1.24A17.85,17.85,0,0,0,54.56,5a21.8,21.8,0,0,0-3.07.12,7.31,7.31,0,0,1,2.42.73C54.57,6.33,54.48,6.83,55.23,7.63Z"/><path class="cls-3" d="M68.1,2.84l.14-.12A8.59,8.59,0,0,1,72,1.16a15.72,15.72,0,0,1,1.76,4.1C73.5,1.39,72.67,0,72.67,0A6.83,6.83,0,0,0,72,0a8.54,8.54,0,0,0-4.49,1.75,18.32,18.32,0,0,0-12.27.06S62.11.44,68.1,2.84Z"/><path class="cls-3" d="M52.05,1.17A10.47,10.47,0,0,0,46.64,0h-.2l0,.19a21.11,21.11,0,0,0-.54,6.1,29.65,29.65,0,0,0-9.07,10.32v3.64A29.58,29.58,0,0,1,47.15,6.83,28.68,28.68,0,0,1,47.5,1a18.46,18.46,0,0,1,4.34.68l1.64.42Z"/></g></g></svg>