<svg xmlns="http://www.w3.org/2000/svg" viewBox="0 0 138.83 138.83"><defs><style>.cls-1{fill:#ecedef;}.cls-2{fill:#c2c3c8;}.cls-3{fill:#fff;}.cls-4{fill:#ee8c6c;}.cls-5{fill:#adacb2;}.cls-6{fill:#565859;}</style></defs><title>d8</title><g id="Capa_2" data-name="Capa 2"><g id="Capa_1-2" data-name="Capa 1"><polygon class="cls-1" points="131.92 6.92 138.83 0 0 0 6.92 6.92 131.92 6.92"/><polygon class="cls-2" points="131.92 6.92 131.92 6.92 131.92 131.92 138.83 138.83 138.83 0 131.92 6.92"/><polygon class="cls-2" points="6.92 6.92 6.92 6.92 0 0 0 138.83 6.92 131.92 6.92 6.92"/><polygon class="cls-1" points="131.92 131.92 6.92 131.92 6.92 131.92 0 138.83 138.83 138.83 131.92 131.92 131.92 131.92"/><polygon class="cls-3" points="6.92 6.92 6.92 131.92 6.92 131.92 131.92 131.92 131.92 131.92 131.92 6.92 131.92 6.92 6.92 6.92 6.92 6.92"/><path class="cls-4" d="M15,75v0A4.79,4.79,0,0,1,20,70.1a4.86,4.86,0,0,1,3.71,1.45l-1.32,1.52A3.48,3.48,0,0,0,19.94,72a2.79,2.79,0,0,0-2.73,2.93v0a2.8,2.8,0,0,0,2.73,3,3.4,3.4,0,0,0,2.48-1.1l1.32,1.33a4.81,4.81,0,0,1-3.86,1.68A4.75,4.75,0,0,1,15,75Z"/><path class="cls-4" d="M24.75,77.61v0c0-1.57,1.2-2.3,2.91-2.3a5.13,5.13,0,0,1,1.76.3v-.12c0-.85-.52-1.32-1.55-1.32a5.31,5.31,0,0,0-2,.39L25.37,73a6.37,6.37,0,0,1,2.8-.58,3.33,3.33,0,0,1,2.44.81,3.15,3.15,0,0,1,.78,2.3v4.18h-2V78.9a2.77,2.77,0,0,1-2.18.91A2.23,2.23,0,0,1,24.75,77.61Zm4.7-.47v-.36a3.18,3.18,0,0,0-1.31-.27c-.87,0-1.41.35-1.41,1v0c0,.55.46.87,1.12.87C28.8,78.4,29.44,77.88,29.44,77.14Z"/><path class="cls-4" d="M33.15,72.47h2v1a2.65,2.65,0,0,1,2.25-1.17c1.68,0,3.28,1.32,3.28,3.73v0c0,2.41-1.57,3.73-3.28,3.73a2.77,2.77,0,0,1-2.25-1.08v3.09h-2Zm5.53,3.62v0a1.77,1.77,0,1,0-3.51,0v0a1.77,1.77,0,1,0,3.51,0Z"/><path class="cls-4" d="M41.8,77.61v0c0-1.57,1.2-2.3,2.91-2.3a5.13,5.13,0,0,1,1.76.3v-.12c0-.85-.52-1.32-1.55-1.32a5.31,5.31,0,0,0-2,.39L42.42,73a6.37,6.37,0,0,1,2.8-.58,3.33,3.33,0,0,1,2.44.81,3.15,3.15,0,0,1,.78,2.3v4.18h-2V78.9a2.77,2.77,0,0,1-2.18.91A2.23,2.23,0,0,1,41.8,77.61Zm4.7-.47v-.36a3.18,3.18,0,0,0-1.31-.27c-.87,0-1.41.35-1.41,1v0c0,.55.46.87,1.12.87C45.85,78.4,46.5,77.88,46.5,77.14Z"/><path class="cls-4" d="M49.85,76.11v0a3.7,3.7,0,0,1,3.78-3.75,3.55,3.55,0,0,1,2.88,1.21l-1.25,1.35a2.11,2.11,0,0,0-1.64-.79,1.84,1.84,0,0,0-1.75,2v0a1.85,1.85,0,0,0,1.83,2,2.28,2.28,0,0,0,1.65-.77l1.2,1.21a3.63,3.63,0,0,1-2.95,1.32A3.68,3.68,0,0,1,49.85,76.11Z"/><path class="cls-4" d="M57.92,69.86h2.15v1.82H57.92ZM58,72.47h2v7.21H58Z"/><path class="cls-4" d="M62.28,77.63V74.22h-.86V72.47h.86V70.62h2v1.84H66v1.75h-1.7V77.3c0,.47.2.7.66.7a2.08,2.08,0,0,0,1-.26v1.64a3,3,0,0,1-1.61.42C63.13,79.8,62.28,79.3,62.28,77.63Z"/><path class="cls-4" d="M67.1,77.61v0c0-1.57,1.2-2.3,2.91-2.3a5.13,5.13,0,0,1,1.76.3v-.12c0-.85-.52-1.32-1.55-1.32a5.31,5.31,0,0,0-2,.39L67.72,73a6.37,6.37,0,0,1,2.8-.58,3.33,3.33,0,0,1,2.44.81,3.15,3.15,0,0,1,.78,2.3v4.18h-2V78.9a2.77,2.77,0,0,1-2.18.91A2.23,2.23,0,0,1,67.1,77.61Zm4.7-.47v-.36a3.18,3.18,0,0,0-1.31-.27c-.87,0-1.41.35-1.41,1v0c0,.55.46.87,1.12.87C71.15,78.4,71.8,77.88,71.8,77.14Z"/><path class="cls-4" d="M75.15,76.11v0a3.7,3.7,0,0,1,3.78-3.75,3.55,3.55,0,0,1,2.88,1.21l-1.25,1.35a2.11,2.11,0,0,0-1.64-.79,1.84,1.84,0,0,0-1.75,2v0a1.85,1.85,0,0,0,1.83,2,2.28,2.28,0,0,0,1.65-.77l1.2,1.21a3.63,3.63,0,0,1-2.95,1.32A3.68,3.68,0,0,1,75.15,76.11Z"/><path class="cls-4" d="M83.23,69.86h2.15v1.82H83.23Zm.05,2.61h2v7.21h-2Z"/><path class="cls-4" d="M86.9,76.11v0a3.91,3.91,0,0,1,7.8,0v0a3.91,3.91,0,0,1-7.8,0Zm5.79,0v0a1.92,1.92,0,0,0-1.9-2,1.85,1.85,0,0,0-1.87,2v0a1.92,1.92,0,0,0,1.9,2A1.85,1.85,0,0,0,92.69,76.11Zm-1.2-6.82,1.76.77L91.5,71.67H90Z"/><path class="cls-4" d="M96.19,72.47h2v1a2.55,2.55,0,0,1,2.11-1.16A2.37,2.37,0,0,1,102.79,75v4.67h-2v-4c0-1-.46-1.47-1.24-1.47s-1.28.5-1.28,1.47v4h-2Z"/><path class="cls-5" d="M119.26,54.71c.7,0,1.24-.25,1.24-.62s-.14-1.71-.14-1.71a9,9,0,0,1-3.11,1.76A5.69,5.69,0,0,0,119.26,54.71Z"/><path class="cls-5" d="M121.84,57.28a7.7,7.7,0,0,1-2.68,1.33,21,21,0,0,1-5.4-.53,14.61,14.61,0,0,0,4.52,3,3,3,0,0,1-1.19,1.66,11.42,11.42,0,0,1-6.14.52,3.1,3.1,0,0,1-1.78-1.06,13.2,13.2,0,0,1-1.06-1.51,5.66,5.66,0,0,0,.57,1.64,3.58,3.58,0,0,0,2.51,1.9,7.06,7.06,0,0,0,1.22.17h0c.52,0,.52,0,.59.8a8.61,8.61,0,0,1,0,.89c0,.1,0,.2,0,.3s0,.46.23.53h.08c.18,0,.33-.18.44-.34a12.26,12.26,0,0,0,1.16-2.33,8,8,0,0,0,3-.93,1.42,1.42,0,0,0,.2-.23,1,1,0,0,0,.65.4h0c.26,0,.26.16.28.77a8.16,8.16,0,0,1-.06.84l0,.28c0,.12,0,.43.19.52l.08,0c.17,0,.33-.15.43-.3A10.69,10.69,0,0,0,121,63.24a3.64,3.64,0,0,0,1.63-1.68c1-1.61,1.13-2.2,1.13-3s-1.7-2.69-3.07-3.81c.55.77,2.33,2.8,2.35,4A6.41,6.41,0,0,1,122,61.34a2.32,2.32,0,0,1-2,1.33c-.66.08-.9,0-1-.09a.34.34,0,0,1-.1-.26v0a6.69,6.69,0,0,1,.09-1.36A7.73,7.73,0,0,0,121.84,57.28Z"/><path class="cls-5" d="M111.07,74c-1.78-.14-2.1-.46-2.54-1.31-.16-.3-.34-.78-.54-1.29a8.68,8.68,0,0,0-1.49-2.87A17.3,17.3,0,0,0,102.58,67,17.35,17.35,0,0,1,100,66c-.69-.54-1-1.41-1.89-4.28l-.44-1.35-.52-1.6.1,1.68c0,.2.32,5,1.89,6.36a12.77,12.77,0,0,0,3.7,1.48,10.23,10.23,0,0,1,2.87,1.11,13.52,13.52,0,0,1,1.52,3.11c.12.3.23.58.32.79l0,.05c.16.4.53,1.33,3.3,1.44l1.73,0a21,21,0,0,0-.1,4.83h1.71a19.08,19.08,0,0,1-.16-4.87c3.59-.22,4-.82,4-.82l-1.48,0S112.85,74.13,111.07,74Z"/><path class="cls-5" d="M117.34,69.42c-.91,2.13-1,2.11-1.62,2.11H114c.23-1.23,0-3.56-.48-2.36-1,2.28-1.13,2.33-1.74,2.33l-.49,0c-.87-.09-1.32-.18-1.57-.94-1.09-3.33-1.91-3.9-1.91-3.9s.22.79.35,1.29.41,1.63.57,2.47c.27,1.46.6,1.9,2.29,2.06.75.07,2,.1,3.12.1s2.51,0,3.13-.1l.17,0h0a1.28,1.28,0,0,0,1-.92l-.81,0C117.84,70.33,117.72,68.51,117.34,69.42Z"/><path class="cls-5" d="M105,54.12a3.73,3.73,0,0,0,3.26,1,12.57,12.57,0,0,0,3.54-.94,18,18,0,0,1-3.85-1,14.74,14.74,0,0,0-3.5-1.15,18,18,0,0,0-2.54.1,6,6,0,0,1,2,.6C104.5,53,104.42,53.46,105,54.12Z"/><path class="cls-5" d="M115.67,50.16l.12-.1a7.09,7.09,0,0,1,3.1-1.29,13,13,0,0,1,1.46,3.39,10.64,10.64,0,0,0-.9-4.33,5.64,5.64,0,0,0-.58,0,7,7,0,0,0-3.71,1.45,15.13,15.13,0,0,0-10.13,0S110.73,48.18,115.67,50.16Z"/><path class="cls-5" d="M102.42,48.78a8.65,8.65,0,0,0-4.47-1h-.16l0,.16a17.43,17.43,0,0,0-.44,5,24.48,24.48,0,0,0-7.48,8.52v3a24.42,24.42,0,0,1,8.55-11.09,23.68,23.68,0,0,1,.3-4.85,15.24,15.24,0,0,1,3.59.56l1.35.35Z"/><path class="cls-6" d="M65.32,90.06l.86-1a1.53,1.53,0,0,0,1.13.62c.51,0,.83-.31.83-1v-4h1.4v4.06A2.25,2.25,0,0,1,69,90.42a2.22,2.22,0,0,1-1.61.58A2.54,2.54,0,0,1,65.32,90.06Z"/><path class="cls-6" d="M75.06,84.66h1.26L79,90.91H77.55L77,89.51H74.36l-.57,1.39H72.4Zm1.44,3.65-.82-2-.82,2Z"/><path class="cls-6" d="M81.48,87.82v0a3.18,3.18,0,0,1,3.25-3.21,3.4,3.4,0,0,1,2.44.85l-.86,1a2.28,2.28,0,0,0-1.62-.63,1.86,1.86,0,0,0-1.78,1.93v0a1.86,1.86,0,0,0,1.88,2,2.18,2.18,0,0,0,1.28-.37v-.89H84.69V87.34h2.69V90a4,4,0,0,1-2.65,1A3.1,3.1,0,0,1,81.48,87.82Z"/><path class="cls-6" d="M90.82,88.25V84.7h1.36v3.51c0,1,.51,1.53,1.34,1.53s1.34-.51,1.34-1.49V84.7h1.36v3.5A2.5,2.5,0,0,1,93.5,91,2.46,2.46,0,0,1,90.82,88.25Z"/><path class="cls-6" d="M101.73,84.66H103l2.66,6.25h-1.43l-.57-1.39H101l-.57,1.39H99.07Zm1.44,3.65-.82-2-.82,2Z"/><path class="cls-6" d="M108.82,84.7h2.84a2.47,2.47,0,0,1,1.81.63,2,2,0,0,1,.53,1.42v0a1.93,1.93,0,0,1-1.33,1.92l1.52,2.22h-1.6l-1.33-2h-1.07v2h-1.36Zm2.75,3c.66,0,1-.35,1-.88v0c0-.59-.41-.89-1.07-.89h-1.36v1.78Z"/></g></g></svg>