<svg xmlns="http://www.w3.org/2000/svg" viewBox="0 0 138.83 138.83"><defs><style>.cls-1{fill:#ecedef;}.cls-2{fill:#c2c3c8;}.cls-3{fill:#fff;}.cls-4{fill:#ee8c6c;}.cls-5{fill:#adacb2;}.cls-6{fill:#565859;}</style></defs><title>d9</title><g id="Capa_2" data-name="Capa 2"><g id="Capa_1-2" data-name="Capa 1"><polygon class="cls-1" points="131.92 6.92 138.83 0 0 0 6.92 6.92 131.92 6.92"/><polygon class="cls-2" points="131.92 6.92 131.92 6.92 131.92 131.92 138.83 138.83 138.83 0 131.92 6.92"/><polygon class="cls-2" points="6.92 6.92 6.92 6.92 0 0 0 138.83 6.92 131.92 6.92 6.92"/><polygon class="cls-1" points="131.92 131.92 6.92 131.92 6.92 131.92 0 138.83 138.83 138.83 131.92 131.92 131.92 131.92"/><polygon class="cls-3" points="6.92 6.92 6.92 131.92 6.92 131.92 131.92 131.92 131.92 131.92 131.92 6.92 131.92 6.92 6.92 6.92 6.92 6.92"/><path class="cls-4" d="M27,68.61h2.44V79.69H27Z"/><path class="cls-4" d="M31.95,71.21h2.41v1.2a3,3,0,0,1,2.5-1.36,2.54,2.54,0,0,1,2.39,1.35A3.5,3.5,0,0,1,42,71.05c1.79,0,2.86,1.08,2.86,3.12v5.52H42.49V75c0-1.14-.51-1.73-1.41-1.73s-1.46.59-1.46,1.73v4.73H37.22V75c0-1.14-.51-1.73-1.41-1.73s-1.46.59-1.46,1.73v4.73H31.95Z"/><path class="cls-4" d="M47,71.21H49.4v1.22A3.12,3.12,0,0,1,52,71.05c2,0,3.86,1.55,3.86,4.39v0c0,2.83-1.85,4.39-3.86,4.39a3.26,3.26,0,0,1-2.64-1.27v3.64H47Zm6.51,4.26v0a2.08,2.08,0,1,0-4.13,0v0a2.08,2.08,0,1,0,4.13,0Z"/><path class="cls-4" d="M57.17,77.26v0c0-1.85,1.41-2.71,3.42-2.71a6,6,0,0,1,2.07.35v-.14c0-1-.62-1.55-1.82-1.55a6.24,6.24,0,0,0-2.34.46l-.6-1.84a7.49,7.49,0,0,1,3.29-.68,3.92,3.92,0,0,1,2.87.95A3.7,3.7,0,0,1,65,74.77v4.92H62.65v-.92a3.26,3.26,0,0,1-2.56,1.08A2.62,2.62,0,0,1,57.17,77.26Zm5.52-.55v-.43A3.74,3.74,0,0,0,61.16,76c-1,0-1.66.41-1.66,1.17v0c0,.65.54,1,1.31,1C61.93,78.19,62.69,77.57,62.69,76.7Z"/><path class="cls-4" d="M66.64,75.5v0a4.36,4.36,0,0,1,4.45-4.42,4.17,4.17,0,0,1,3.39,1.43L73,74.06a2.48,2.48,0,0,0-1.93-.93A2.17,2.17,0,0,0,69,75.44v0a2.17,2.17,0,0,0,2.15,2.34,2.69,2.69,0,0,0,1.95-.9l1.41,1.43a4.27,4.27,0,0,1-3.47,1.55A4.33,4.33,0,0,1,66.64,75.5Z"/><path class="cls-4" d="M76.49,77.29v-4h-1V71.21h1V69h2.41v2.17h2v2.06h-2v3.62c0,.55.24.82.78.82a2.45,2.45,0,0,0,1.19-.3v1.93a3.55,3.55,0,0,1-1.9.49C77.48,79.84,76.49,79.25,76.49,77.29Z"/><path class="cls-4" d="M82,75.5v0a4.59,4.59,0,0,1,9.18,0v0a4.59,4.59,0,0,1-9.18,0Zm6.81,0v0a2.25,2.25,0,0,0-2.23-2.34,2.17,2.17,0,0,0-2.2,2.31v0a2.25,2.25,0,0,0,2.23,2.34A2.17,2.17,0,0,0,88.82,75.5Z"/><path class="cls-5" d="M107.31,54.71c.7,0,1.24-.25,1.24-.62s-.14-1.71-.14-1.71a9,9,0,0,1-3.11,1.76A5.69,5.69,0,0,0,107.31,54.71Z"/><path class="cls-5" d="M109.89,57.28a7.7,7.7,0,0,1-2.68,1.33,21,21,0,0,1-5.4-.53,14.61,14.61,0,0,0,4.52,3,3,3,0,0,1-1.19,1.66,11.42,11.42,0,0,1-6.14.52,3.1,3.1,0,0,1-1.78-1.06,13.2,13.2,0,0,1-1.06-1.51,5.66,5.66,0,0,0,.57,1.64,3.58,3.58,0,0,0,2.51,1.9,7.06,7.06,0,0,0,1.22.17h0c.52,0,.52,0,.59.8a8.61,8.61,0,0,1,0,.89c0,.1,0,.2,0,.3s0,.46.23.53h.08c.18,0,.33-.18.44-.34A12.26,12.26,0,0,0,103,64.21a8,8,0,0,0,3-.93,1.42,1.42,0,0,0,.2-.23,1,1,0,0,0,.65.4h0c.26,0,.26.16.28.77a8.16,8.16,0,0,1-.06.84l0,.28c0,.12,0,.43.19.52l.08,0c.17,0,.33-.15.43-.3a10.69,10.69,0,0,0,1.33-2.36,3.64,3.64,0,0,0,1.63-1.68c1-1.61,1.13-2.2,1.13-3s-1.7-2.69-3.07-3.81c.55.77,2.33,2.8,2.35,4A6.41,6.41,0,0,1,110,61.34a2.32,2.32,0,0,1-2,1.33c-.66.08-.9,0-1-.09a.34.34,0,0,1-.1-.26v0a6.69,6.69,0,0,1,.09-1.36A7.73,7.73,0,0,0,109.89,57.28Z"/><path class="cls-5" d="M99.12,74c-1.78-.14-2.1-.46-2.54-1.31-.16-.3-.34-.78-.54-1.29a8.68,8.68,0,0,0-1.49-2.87A17.3,17.3,0,0,0,90.63,67,17.35,17.35,0,0,1,88,66c-.69-.54-1-1.41-1.89-4.28l-.44-1.35-.52-1.6.1,1.68c0,.2.32,5,1.89,6.36a12.77,12.77,0,0,0,3.7,1.48,10.23,10.23,0,0,1,2.87,1.11,13.52,13.52,0,0,1,1.52,3.11c.12.3.23.58.32.79l0,.05c.16.4.53,1.33,3.3,1.44l1.73,0a21,21,0,0,0-.1,4.83h1.71a19.08,19.08,0,0,1-.16-4.87c3.59-.22,4-.82,4-.82l-1.48,0S100.9,74.13,99.12,74Z"/><path class="cls-5" d="M105.39,69.42c-.91,2.13-1,2.11-1.62,2.11H102.1c.23-1.23,0-3.56-.48-2.36-1,2.28-1.13,2.33-1.74,2.33l-.49,0c-.87-.09-1.32-.18-1.57-.94-1.09-3.33-1.91-3.9-1.91-3.9s.22.79.35,1.29.41,1.63.57,2.47c.27,1.46.6,1.9,2.29,2.06.75.07,2,.1,3.12.1s2.51,0,3.13-.1l.17,0h0a1.28,1.28,0,0,0,1-.92l-.81,0C105.89,70.33,105.78,68.51,105.39,69.42Z"/><path class="cls-5" d="M93.1,54.12a3.73,3.73,0,0,0,3.26,1,12.57,12.57,0,0,0,3.54-.94,18,18,0,0,1-3.85-1A14.74,14.74,0,0,0,92.54,52a18,18,0,0,0-2.54.1,6,6,0,0,1,2,.6C92.55,53,92.47,53.46,93.1,54.12Z"/><path class="cls-5" d="M103.72,50.16l.12-.1a7.09,7.09,0,0,1,3.1-1.29,13,13,0,0,1,1.46,3.39,10.64,10.64,0,0,0-.9-4.33,5.64,5.64,0,0,0-.58,0,7,7,0,0,0-3.71,1.45,15.13,15.13,0,0,0-10.13,0S98.78,48.18,103.72,50.16Z"/><path class="cls-5" d="M90.47,48.78a8.65,8.65,0,0,0-4.47-1h-.16l0,.16a17.43,17.43,0,0,0-.44,5,24.48,24.48,0,0,0-7.48,8.52v3a24.42,24.42,0,0,1,8.55-11.09,23.68,23.68,0,0,1,.3-4.85,15.24,15.24,0,0,1,3.59.56l1.35.35Z"/><path class="cls-6" d="M53.37,90.06l.86-1a1.53,1.53,0,0,0,1.13.62c.51,0,.83-.31.83-1v-4h1.4v4.06A2.25,2.25,0,0,1,57,90.42,2.22,2.22,0,0,1,55.4,91,2.53,2.53,0,0,1,53.37,90.06Z"/><path class="cls-6" d="M63.11,84.66h1.26L67,90.91H65.6L65,89.51H62.41l-.57,1.39H60.45Zm1.44,3.65-.82-2-.82,2Z"/><path class="cls-6" d="M69.53,87.82v0a3.18,3.18,0,0,1,3.25-3.21,3.4,3.4,0,0,1,2.44.85l-.86,1a2.28,2.28,0,0,0-1.62-.63A1.86,1.86,0,0,0,71,87.79v0a1.86,1.86,0,0,0,1.88,2,2.18,2.18,0,0,0,1.28-.37v-.89H72.74V87.34h2.69V90a4,4,0,0,1-2.65,1A3.1,3.1,0,0,1,69.53,87.82Z"/><path class="cls-6" d="M78.87,88.25V84.7h1.36v3.51c0,1,.51,1.53,1.34,1.53s1.34-.51,1.34-1.49V84.7h1.36v3.5A2.5,2.5,0,0,1,81.55,91,2.46,2.46,0,0,1,78.87,88.25Z"/><path class="cls-6" d="M89.78,84.66H91l2.66,6.25H92.27l-.57-1.39H89.08l-.57,1.39H87.12Zm1.44,3.65-.82-2-.82,2Z"/><path class="cls-6" d="M96.87,84.7h2.84a2.47,2.47,0,0,1,1.81.63,2,2,0,0,1,.53,1.42v0a1.93,1.93,0,0,1-1.33,1.92l1.51,2.22h-1.59l-1.33-2H98.24v2H96.87Zm2.75,3c.66,0,1-.35,1-.88v0c0-.59-.41-.89-1.07-.89H98.24v1.78Z"/></g></g></svg>