<svg xmlns="http://www.w3.org/2000/svg" width="60" height="60" viewBox="0 0 60 60">
  <g id="Grupo_171" data-name="Grupo 171" transform="translate(-2177 6419)">
    <rect id="Rectángulo_159" data-name="Rectángulo 159" width="60" height="60" transform="translate(2177 -6419)" fill="none"/>
    <path id="Trazado_117" data-name="Trazado 117" d="M49.808,28.521,46.49,25.2A10.142,10.142,0,0,0,43.6,23.189a10.8,10.8,0,0,0,.983-4.494V14.1a.678.678,0,0,0-.678-.678h-4.6a10.8,10.8,0,0,0-4.495.983A10.141,10.141,0,0,0,32.8,11.517L29.485,8.2a.678.678,0,0,0-.958,0l-3.318,3.318A10.142,10.142,0,0,0,23.195,14.4a10.8,10.8,0,0,0-4.493-.983H14.1a.678.678,0,0,0-.678.678v4.6a10.8,10.8,0,0,0,.983,4.495A10.142,10.142,0,0,0,11.523,25.2L8.2,28.522a.678.678,0,0,0,0,.958L11.523,32.8a10.142,10.142,0,0,0,2.885,2.014,10.8,10.8,0,0,0-.983,4.493v4.6a.678.678,0,0,0,.678.678h4.6A10.8,10.8,0,0,0,23.2,43.6a10.142,10.142,0,0,0,2.014,2.885L28.528,49.8a.678.678,0,0,0,.958,0L32.8,46.484A10.142,10.142,0,0,0,34.818,43.6a10.8,10.8,0,0,0,4.493.983h4.6a.678.678,0,0,0,.678-.678v-4.6a10.8,10.8,0,0,0-.983-4.495A10.142,10.142,0,0,0,46.49,32.8l3.318-3.318a.678.678,0,0,0,0-.958ZM39.31,14.772h3.921v3.921a9.445,9.445,0,0,1-.889,4,10.176,10.176,0,0,0-3.04-.466h-.272a10.123,10.123,0,0,0-4.133.881,10.123,10.123,0,0,0,.881-4.133V18.7a10.176,10.176,0,0,0-.466-3.039,9.444,9.444,0,0,1,4-.89ZM34.423,39.027V39.3a8.842,8.842,0,0,1-.328,2.367A9.561,9.561,0,0,1,32.6,40.443l-.144-.144a9.426,9.426,0,0,1-2.778-6.708V30.636L31.845,32.8a8.752,8.752,0,0,1,2.578,6.229Zm-10.84.271v-.271A8.751,8.751,0,0,1,26.165,32.8l2.163-2.163V33.6a9.426,9.426,0,0,1-2.78,6.709l-.144.144a9.561,9.561,0,0,1-1.491,1.222,8.844,8.844,0,0,1-.331-2.375Zm0-20.326V18.7a8.838,8.838,0,0,1,.328-2.367A9.566,9.566,0,0,1,25.4,17.556l.144.144a9.426,9.426,0,0,1,2.778,6.708v2.963L26.16,25.208a8.751,8.751,0,0,1-2.578-6.235Zm10.84-.271v.271a8.751,8.751,0,0,1-2.58,6.229l-2.163,2.164V24.4a9.426,9.426,0,0,1,2.778-6.708l.144-.144a9.561,9.561,0,0,1,1.491-1.222,8.841,8.841,0,0,1,.331,2.37Zm-7.056,9.622H24.4A9.426,9.426,0,0,1,17.7,25.545l-.144-.144a9.561,9.561,0,0,1-1.222-1.491,8.844,8.844,0,0,1,2.37-.331h.271A8.751,8.751,0,0,1,25.2,26.162Zm0,1.355L25.2,31.841a8.751,8.751,0,0,1-6.229,2.58H18.7a8.842,8.842,0,0,1-2.367-.328A9.566,9.566,0,0,1,17.56,32.6l.144-.144a9.426,9.426,0,0,1,6.708-2.778Zm3.271,0H33.6a9.426,9.426,0,0,1,6.709,2.778l.144.144a9.561,9.561,0,0,1,1.222,1.491,8.84,8.84,0,0,1-2.371.331h-.276a8.751,8.751,0,0,1-6.229-2.58Zm0-1.355L32.8,26.162a8.751,8.751,0,0,1,6.229-2.58H39.3a8.838,8.838,0,0,1,2.367.328A9.561,9.561,0,0,1,40.446,25.4l-.144.144a9.426,9.426,0,0,1-6.708,2.778Zm-4.474-15.85L29,9.63l2.84,2.84a8.787,8.787,0,0,1,1.777,2.574,10.886,10.886,0,0,0-1.975,1.55l-.144.144A10.8,10.8,0,0,0,29,20.65a10.8,10.8,0,0,0-2.5-3.912l-.144-.144a10.885,10.885,0,0,0-1.976-1.551,8.787,8.787,0,0,1,1.779-2.571Zm-11.39,6.22V14.772H18.7a9.445,9.445,0,0,1,4,.889,10.177,10.177,0,0,0-.466,3.04v.271a10.123,10.123,0,0,0,.881,4.133,10.123,10.123,0,0,0-4.133-.881H18.7a10.176,10.176,0,0,0-3.039.466,9.444,9.444,0,0,1-.89-4Zm-2.3,13.148L9.632,29l2.842-2.838a8.786,8.786,0,0,1,2.571-1.779,10.885,10.885,0,0,0,1.55,1.975l.144.144A10.8,10.8,0,0,0,20.653,29a10.8,10.8,0,0,0-3.912,2.5l-.144.144a10.886,10.886,0,0,0-1.551,1.976,8.786,8.786,0,0,1-2.571-1.777ZM18.7,43.228H14.775V39.307a9.445,9.445,0,0,1,.889-4,10.176,10.176,0,0,0,3.04.466h.271a10.123,10.123,0,0,0,4.133-.881,10.123,10.123,0,0,0-.881,4.133V39.3a10.176,10.176,0,0,0,.466,3.039,9.444,9.444,0,0,1-4,.89Zm13.148,2.3L29,48.368l-2.838-2.84a8.79,8.79,0,0,1-1.777-2.567,10.885,10.885,0,0,0,1.975-1.553l.144-.144A10.8,10.8,0,0,0,29,37.351a10.8,10.8,0,0,0,2.5,3.912l.144.144a10.886,10.886,0,0,0,1.976,1.553,8.79,8.79,0,0,1-1.779,2.568Zm11.388-6.22v3.921H39.31a9.445,9.445,0,0,1-4-.889,10.176,10.176,0,0,0,.466-3.04v-.272a10.124,10.124,0,0,0-.882-4.134,10.123,10.123,0,0,0,4.133.881H39.3a10.177,10.177,0,0,0,3.039-.466A9.444,9.444,0,0,1,43.231,39.307Zm2.3-7.467a8.786,8.786,0,0,1-2.567,1.777,10.885,10.885,0,0,0-1.553-1.975l-.144-.144A10.8,10.8,0,0,0,37.353,29a10.8,10.8,0,0,0,3.912-2.5l.144-.144a10.886,10.886,0,0,0,1.553-1.976,8.786,8.786,0,0,1,2.567,1.777L48.37,29Z" transform="translate(2177.994 -6418)" fill="#5c94ec"/>
  </g>
</svg>
