<svg xmlns="http://www.w3.org/2000/svg" width="65" height="65" viewBox="0 0 65 65">
  <g id="Grupo_200" data-name="Grupo 200" transform="translate(-6074 -1432)">
    <path id="Trazado_100" data-name="Trazado 100" d="M-225.409,5615.317l-27.462,27.493-9.905-9.274a3.2,3.2,0,0,0-4.635,0,3.206,3.206,0,0,0,0,4.639l12.225,11.589a2.991,2.991,0,0,0,2.315,1,3,3,0,0,0,2.316-1l12.766-12.779,17.011-17.029a3.206,3.206,0,0,0,0-4.639,3.19,3.19,0,0,0-4.631,0Zm0,0" transform="translate(6350.403 -4168.322)" fill="#2c366e"/>
    <rect id="Rectángulo_168" data-name="Rectángulo 168" width="65" height="65" transform="translate(6074 1432)" fill="none"/>
  </g>
</svg>
