<svg xmlns="http://www.w3.org/2000/svg" xmlns:xlink="http://www.w3.org/1999/xlink" width="60" height="60" viewBox="0 0 60 60">
  <defs>
    <clipPath id="clip-path">
      <rect id="Rect치ngulo_79" data-name="Rect치ngulo 79" width="37.481" height="45.582" fill="#5c94ec"/>
    </clipPath>
  </defs>
  <g id="Grupo_175" data-name="Grupo 175" transform="translate(-1729 -2716)">
    <g id="Grupo_164" data-name="Grupo 164" transform="translate(-55 -5.418)">
      <g id="Grupo_147" data-name="Grupo 147" transform="translate(1443 1766.418)">
        <g id="Grupo_72" data-name="Grupo 72" transform="translate(352 962)">
          <g id="Grupo_71" data-name="Grupo 71" clip-path="url(#clip-path)">
            <path id="Trazado_42" data-name="Trazado 42" d="M389.393,1003.8l-1.781-33.119a3.831,3.831,0,0,0-3.56-3.687v-2.319A2.674,2.674,0,0,0,381.382,962h-3.561a2.674,2.674,0,0,0-2.671,2.671v.89h-8.9v-.89A2.674,2.674,0,0,0,363.576,962h-3.561a2.674,2.674,0,0,0-2.671,2.671v2.319a3.83,3.83,0,0,0-3.56,3.687l-.142,2.631a.89.89,0,0,0,.841.937h.049a.891.891,0,0,0,.888-.843l.141-2.631a2.033,2.033,0,0,1,1.782-2v14.592a3.744,3.744,0,0,0,3.739,3.739h6.944V988a2.671,2.671,0,1,0,5.342,0v-.89h6.944a3.744,3.744,0,0,0,3.739-3.739V968.775a2.033,2.033,0,0,1,1.782,2l1.781,33.119a1.715,1.715,0,0,1-.489,1.276,2.036,2.036,0,0,1-1.471.635h-1.6v-9.081a3.743,3.743,0,0,0-3.739-3.739h-19.23a3.743,3.743,0,0,0-3.739,3.739v9.081h-1.6a2.036,2.036,0,0,1-1.471-.635,1.716,1.716,0,0,1-.489-1.276l1.257-23.376a.89.89,0,1,0-1.778-.1L352,1003.8a3.478,3.478,0,0,0,.975,2.6,3.824,3.824,0,0,0,2.763,1.19h29.913a3.825,3.825,0,0,0,2.763-1.19,3.479,3.479,0,0,0,.974-2.6ZM376.93,964.671a.891.891,0,0,1,.89-.89h3.561a.891.891,0,0,1,.89.89v.953a2.312,2.312,0,0,0-.534-.063H376.93Zm-16.915-.89h3.561a.891.891,0,0,1,.89.89v.89h-4.807a2.31,2.31,0,0,0-.534.063v-.953a.891.891,0,0,1,.89-.89ZM371.589,988a.89.89,0,0,1-1.781,0v-3.561a.89.89,0,0,1,1.781,0Zm10.683-4.629a1.961,1.961,0,0,1-1.959,1.959h-6.944v-.89a2.671,2.671,0,1,0-5.342,0v.89h-6.944a1.961,1.961,0,0,1-1.959-1.959V967.876a.541.541,0,0,1,.534-.534h22.079a.541.541,0,0,1,.534.534Zm-21.189,11.4h19.23a1.961,1.961,0,0,1,1.95,1.781h-23.13a1.961,1.961,0,0,1,1.95-1.781Zm-1.959,3.561h23.147v7.478H359.125Zm0,0" transform="translate(-351.999 -962)" fill="#5c94ec"/>
          </g>
        </g>
        <path id="Trazado_43" data-name="Trazado 43" d="M507.385,1043a5.342,5.342,0,1,0,5.342,5.342,5.348,5.348,0,0,0-5.342-5.342Zm3.561,5.342a3.537,3.537,0,0,1-.317,1.466l-2.354-2.354v-2.561a3.568,3.568,0,0,1,2.671,3.448Zm-4.451,3.448a3.55,3.55,0,0,1-1.229-.589l1.229-1.229Zm1.781-1.818,1.229,1.229a3.553,3.553,0,0,1-1.229.589Zm-1.781-5.079v2.561l-2.354,2.354a3.559,3.559,0,0,1,2.354-4.914Zm0,0" transform="translate(-136.685 -73.789)" fill="#5c94ec"/>
        <path id="Trazado_44" data-name="Trazado 44" d="M552.934,1414h0a.89.89,0,1,0,.891.89.89.89,0,0,0-.891-.89Zm0,0" transform="translate(-182.234 -411.76)" fill="#5c94ec"/>
        <path id="Trazado_45" data-name="Trazado 45" d="M598.275,1414h-5.341a.89.89,0,1,0,0,1.781h5.341a.89.89,0,0,0,0-1.781Zm0,0" transform="translate(-218.673 -411.76)" fill="#5c94ec"/>
        <path id="Trazado_46" data-name="Trazado 46" d="M369.139,1121.27l.056,0a.891.891,0,0,0,.888-.835h0a.89.89,0,1,0-.944.833Zm0,0" transform="translate(-14.853 -143.47)" fill="#5c94ec"/>
      </g>
    </g>
    <rect id="Rect치ngulo_146" data-name="Rect치ngulo 146" width="60" height="60" transform="translate(1729 2716)" fill="none"/>
  </g>
</svg>
