<svg xmlns="http://www.w3.org/2000/svg" width="60" height="60" viewBox="0 0 60 60">
  <g id="Grupo_176" data-name="Grupo 176" transform="translate(-1717 -2844)">
    <g id="Grupo_165" data-name="Grupo 165" transform="translate(-67 -10.418)">
      <g id="Grupo_150" data-name="Grupo 150" transform="translate(1711 1815)">
        <g id="Grupo_78" data-name="Grupo 78" transform="translate(-184.9 1075.418)">
          <path id="Trazado_53" data-name="Trazado 53" d="M308.191-10.739l-.816-.761c0-.011-.011-.022-.022-.033l-3.286-8.876A4,4,0,0,0,300.33-23H277.066a4,4,0,0,0-3.738,2.591l-3.253,8.776-1.235,1.025A5.435,5.435,0,0,0,266.9-6.473V6.317a4.024,4.024,0,0,0,4.024,3.98h2.4a3.941,3.941,0,0,0,3.936-3.947V4.674h22.272V6.317a3.943,3.943,0,0,0,3.914,3.98h2.426a4.024,4.024,0,0,0,4.024-3.98V-6.792A5.405,5.405,0,0,0,308.191-10.739Zm-32.79-8.92a1.752,1.752,0,0,1,1.665-1.136h23.253a1.752,1.752,0,0,1,1.665,1.136l2.745,7.354h-1.687a6.485,6.485,0,0,0-6.34-5.325,6.453,6.453,0,0,0-6.318,5.325H272.666Zm25.392,7.354h-8.159a4.231,4.231,0,0,1,5.182-2.977,4.209,4.209,0,0,1,2.977,2.977ZM275.07,6.317a1.737,1.737,0,0,1-1.7,1.775h-2.437a1.812,1.812,0,0,1-1.819-1.775V4.266a4.176,4.176,0,0,0,1.819.408h4.135Zm30.817,1.775h-2.4a1.736,1.736,0,0,1-1.731-1.742V4.674h4.135a4.141,4.141,0,0,0,1.819-.408V6.317A1.812,1.812,0,0,1,305.887,8.092ZM307.706.705a1.8,1.8,0,0,1-1.819,1.764H270.935A1.8,1.8,0,0,1,269.116.705V-6.462a3.3,3.3,0,0,1,1.158-2.481L271.63-10.1h34.058l.992.937A3.255,3.255,0,0,1,307.706-6.8V.705Z" transform="translate(0 0)" fill="#5c94ec"/>
          <path id="Trazado_54" data-name="Trazado 54" d="M315.041,125.1a1.106,1.106,0,0,0-1.1-1.1H307.1a1.106,1.106,0,0,0-1.1,1.1v4.741a1.106,1.106,0,0,0,1.1,1.1h6.836a1.106,1.106,0,0,0,1.1-1.1Zm-2.205,3.638h-4.631v-2.536h4.631Z" transform="translate(-34.789 -130.792)" fill="#5c94ec"/>
          <path id="Trazado_55" data-name="Trazado 55" d="M545.041,125.1a1.106,1.106,0,0,0-1.1-1.1H537.1a1.106,1.106,0,0,0-1.1,1.1v4.741a1.106,1.106,0,0,0,1.1,1.1h6.836a1.106,1.106,0,0,0,1.1-1.1Zm-2.205,3.638h-4.631v-2.536h4.631Z" transform="translate(-239.43 -130.792)" fill="#5c94ec"/>
          <path id="Trazado_56" data-name="Trazado 56" d="M421.99,158H413.2a1.1,1.1,0,1,0,0,2.205h8.787a1.1,1.1,0,1,0,0-2.205Z" transform="translate(-129.191 -161.044)" fill="#5c94ec"/>
          <path id="Trazado_57" data-name="Trazado 57" d="M421.99,133H413.2a1.1,1.1,0,1,0,0,2.205h8.787a1.1,1.1,0,1,0,0-2.205Z" transform="translate(-129.191 -138.8)" fill="#5c94ec"/>
        </g>
      </g>
    </g>
    <rect id="Rectángulo_148" data-name="Rectángulo 148" width="60" height="60" transform="translate(1717 2844)" fill="none"/>
  </g>
</svg>
