<svg xmlns="http://www.w3.org/2000/svg" width="60" height="60" viewBox="0 0 60 60">
  <g id="Grupo_178" data-name="Grupo 178" transform="translate(-1732 -3109)">
    <g id="Grupo_170" data-name="Grupo 170" transform="translate(-52 -10.225)">
      <g id="Grupo_153" data-name="Grupo 153" transform="translate(1706 1815)">
        <g id="Grupo_81" data-name="Grupo 81" transform="translate(-0.555 1312.225)">
          <path id="Trazado_69" data-name="Trazado 69" d="M215.282,478.617a.847.847,0,0,0-1.1.471.99.99,0,0,1-.918.607h-3.1a.99.99,0,0,1-.918-.607.847.847,0,1,0-1.573.63,2.664,2.664,0,0,0,2.491,1.671h3.1a2.663,2.663,0,0,0,2.49-1.671A.847.847,0,0,0,215.282,478.617Z" transform="translate(-102.568 -438.013)" fill="#5c94ec"/>
          <path id="Trazado_70" data-name="Trazado 70" d="M122.664,36.24a4.18,4.18,0,0,0-2.006-2.82,4.21,4.21,0,0,0,1.506-3.9,10.681,10.681,0,0,0-5.924-8.034,9.717,9.717,0,0,0-4.44-16,3.665,3.665,0,0,0,.858-2.366A3.127,3.127,0,0,0,109.534,0h0A2.838,2.838,0,0,0,107.7.637a2.312,2.312,0,0,0-.835,1.8.847.847,0,0,0,.847.847h0a.847.847,0,0,0,.847-.847.627.627,0,0,1,.232-.5,1.148,1.148,0,0,1,.742-.238h0a1.431,1.431,0,0,1,1.43,1.429,2,2,0,0,1-2,2h0c-.021,0-.041,0-.061,0a9.718,9.718,0,0,0-6.848,16.364,10.681,10.681,0,0,0-5.924,8.034,4.21,4.21,0,0,0,1.506,3.9,4.181,4.181,0,0,0-1.194,6.193l1.814,2.318a3.777,3.777,0,0,0,2.976,1.44,3.737,3.737,0,0,0,1.872-.5,3.783,3.783,0,0,0,1.61-4.669l-1.1-2.73a4.174,4.174,0,0,0-.257-.525h6.214a.847.847,0,0,0,0-1.694h-7.824V31.467a.417.417,0,0,1,.417-.417h13.968a.418.418,0,0,1,.417.417v1.9a4.18,4.18,0,0,0-1.868,2.1l-1.1,2.73a3.783,3.783,0,0,0,1.61,4.669,3.737,3.737,0,0,0,1.872.5,3.777,3.777,0,0,0,2.976-1.44l1.814-2.318A4.179,4.179,0,0,0,122.664,36.24ZM109.148,6.817a8.029,8.029,0,1,1-8.029,8.029A8.038,8.038,0,0,1,109.148,6.817ZM97.807,29.776a8.945,8.945,0,0,1,5.652-7.049,9.7,9.7,0,0,0,11.377,0,8.945,8.945,0,0,1,5.652,7.049,2.524,2.524,0,0,1-2.245,2.888v-1.2a2.114,2.114,0,0,0-1.259-1.931V28.508a.847.847,0,0,0-1.694,0v.847H103.011v-.847a.847.847,0,0,0-1.694,0v1.025a2.114,2.114,0,0,0-1.264,1.933v1.2a2.524,2.524,0,0,1-2.245-2.888ZM102.259,41.4a2.081,2.081,0,0,1-2.667-.517l-1.814-2.318a2.487,2.487,0,1,1,4.266-2.463l1.1,2.73A2.081,2.081,0,0,1,102.259,41.4Zm18.259-2.836L118.7,40.888a2.071,2.071,0,0,1-3.552-2.051l1.1-2.73a2.487,2.487,0,1,1,4.266,2.463Z" transform="translate(0)" fill="#5c94ec"/>
          <path id="Trazado_71" data-name="Trazado 71" d="M292.166,393.946a.847.847,0,1,0-.6.248A.853.853,0,0,0,292.166,393.946Z" transform="translate(-178.631 -359.247)" fill="#5c94ec"/>
          <path id="Trazado_72" data-name="Trazado 72" d="M224.915,208.531a3.165,3.165,0,0,0,4.921,0,.847.847,0,0,0-1.316-1.067,1.471,1.471,0,0,1-2.288,0,.847.847,0,0,0-1.316,1.067Z" transform="translate(-118.228 -189.601)" fill="#5c94ec"/>
          <path id="Trazado_73" data-name="Trazado 73" d="M196.344,163.131a.277.277,0,0,1,.391,0,.847.847,0,0,0,1.2-1.2,1.974,1.974,0,0,0-2.788,0,.847.847,0,0,0,1.2,1.2Z" transform="translate(-90.927 -147.687)" fill="#5c94ec"/>
          <path id="Trazado_74" data-name="Trazado 74" d="M279.187,163.379a.845.845,0,0,0,.6-.248.277.277,0,0,1,.391,0,.847.847,0,0,0,1.2-1.2,1.974,1.974,0,0,0-2.788,0,.847.847,0,0,0,.6,1.446Z" transform="translate(-167.3 -147.686)" fill="#5c94ec"/>
        </g>
      </g>
    </g>
    <rect id="Rectángulo_152" data-name="Rectángulo 152" width="60" height="60" transform="translate(1732 3109)" fill="none"/>
  </g>
</svg>
