<svg xmlns="http://www.w3.org/2000/svg" width="30" height="30" viewBox="0 0 30 30">
  <g id="Grupo_184" data-name="Grupo 184" transform="translate(-1106 -6)">
    <rect id="Rectángulo_157" data-name="Rectángulo 157" width="30" height="30" transform="translate(1106 6)" fill="none"/>
    <g id="Grupo_180" data-name="Grupo 180" transform="translate(226.304 -12.925)">
      <g id="Grupo_20" data-name="Grupo 20" transform="translate(886.696 22.925)">
        <path id="Trazado_30" data-name="Trazado 30" d="M891.974,40.179V40.2a2.609,2.609,0,0,0,5.217,0v-.017Zm0,0" transform="translate(-886.048 -20.804)" fill="#fff"/>
        <path id="Trazado_31" data-name="Trazado 31" d="M903.559,39.039l-2.348-3.448v-4.3a5.981,5.981,0,0,0-4.807-5.865V24.1a1.173,1.173,0,0,0-2.346,0v1.325a5.983,5.983,0,0,0-4.808,5.866v4.3L886.9,39.039a1.186,1.186,0,0,0,.98,1.854h14.7a1.187,1.187,0,0,0,.98-1.854Zm0,0" transform="translate(-886.696 -22.925)" fill="#fff"/>
      </g>
    </g>
  </g>
</svg>
