<svg xmlns="http://www.w3.org/2000/svg" width="80" height="64" viewBox="0 0 80 64">
  <g id="Grupo_126" data-name="Grupo 126" transform="translate(-522 -1186)">
    <path id="Trazado_96" data-name="Trazado 96" d="M562,1210a12,12,0,1,0,12,12,12,12,0,0,0-12-12Zm32-12h-9.6a3.553,3.553,0,0,1-3.156-2.277l-2.484-7.446A3.558,3.558,0,0,0,575.6,1186H548.4a3.553,3.553,0,0,0-3.156,2.277l-2.484,7.446A3.558,3.558,0,0,1,539.6,1198H530a8.026,8.026,0,0,0-8,8v36a8.026,8.026,0,0,0,8,8h64a8.026,8.026,0,0,0,8-8v-36a8.026,8.026,0,0,0-8-8Zm-32,44a20,20,0,1,1,20-20,20,20,0,0,1-20,20Zm29.2-30.406a2.8,2.8,0,1,1,2.8-2.8,2.8,2.8,0,0,1-2.8,2.8Zm0,0" fill="#2c366e"/>
  </g>
</svg>
