<svg xmlns="http://www.w3.org/2000/svg" width="30" height="30" viewBox="0 0 30 30">
  <g id="Grupo_191" data-name="Grupo 191" transform="translate(-742 -6)">
    <rect id="Rectángulo_155" data-name="Rectángulo 155" width="30" height="30" transform="translate(742 6)" fill="none"/>
    <g id="Grupo_19" data-name="Grupo 19" transform="translate(-1 -15.517)">
      <g id="Grupo_18" data-name="Grupo 18" transform="translate(744 24.517)">
        <path id="Trazado_27" data-name="Trazado 27" d="M760.363,41.365a2.122,2.122,0,1,0,.621-1.5,2.046,2.046,0,0,0-.621,1.5Zm0,0" transform="translate(-739.158 -20.159)" fill="#0f206c"/>
        <path id="Trazado_28" data-name="Trazado 28" d="M771.252,26.953a1.013,1.013,0,0,0-.745-.315h-19.9c-.012-.078-.036-.219-.075-.424s-.069-.367-.091-.489a3.066,3.066,0,0,0-.124-.438,1.309,1.309,0,0,0-.215-.406,1.065,1.065,0,0,0-.332-.258,1.009,1.009,0,0,0-.472-.108H745.06a1.061,1.061,0,0,0,0,2.121h3.38l2.933,13.634c-.022.044-.136.254-.34.629s-.368.7-.488.986a1.789,1.789,0,0,0-.183.654,1.078,1.078,0,0,0,1.06,1.061h16.963a1.061,1.061,0,0,0,0-2.121H753.144a3.181,3.181,0,0,0,.4-1.06,1.721,1.721,0,0,0-.042-.364c-.027-.133-.06-.279-.1-.439s-.064-.279-.075-.356l17.3-2.02a1.066,1.066,0,0,0,.945-1.061V27.7a1.017,1.017,0,0,0-.315-.745Zm0,0" transform="translate(-744 -24.517)" fill="#0f206c"/>
        <path id="Trazado_29" data-name="Trazado 29" d="M748.909,41.365a2.121,2.121,0,1,0,.621-1.5,2.046,2.046,0,0,0-.621,1.5Zm0,0" transform="translate(-742.547 -20.159)" fill="#0f206c"/>
      </g>
    </g>
  </g>
</svg>
