<svg xmlns="http://www.w3.org/2000/svg" xmlns:xlink="http://www.w3.org/1999/xlink" width="60" height="60" viewBox="0 0 60 60">
  <defs>
    <clipPath id="clip-path">
      <rect id="Rect치ngulo_80" data-name="Rect치ngulo 80" width="36.318" height="45.398" fill="#5c94ec"/>
    </clipPath>
  </defs>
  <g id="Grupo_173" data-name="Grupo 173" transform="translate(-1901 -2847)">
    <g id="Grupo_166" data-name="Grupo 166" transform="translate(-12 -4.418)">
      <g id="Grupo_149" data-name="Grupo 149" transform="translate(1555 1880.418)">
        <g id="Grupo_76" data-name="Grupo 76" transform="translate(370 978)">
          <g id="Grupo_75" data-name="Grupo 75" clip-path="url(#clip-path)">
            <path id="Trazado_48" data-name="Trazado 48" d="M382.555,991.947a14.3,14.3,0,0,1-1.206-5.763V982.54a.757.757,0,0,0,.757-.757v-3.027a.757.757,0,0,0-.757-.757H375.3a.757.757,0,0,0-.757.757v3.027a.757.757,0,0,0,.757.757v3.644a14.309,14.309,0,0,1-1.205,5.763l-2.124,4.856a23.305,23.305,0,0,0-1.967,9.4v16.438a.757.757,0,0,0,.757.757h15.133a.757.757,0,0,0,.757-.757V1006.2a23.3,23.3,0,0,0-1.967-9.4Zm-6.5-12.434h4.54v1.513h-4.54Zm9.08,42.372H371.513V1006.2a21.809,21.809,0,0,1,1.84-8.8l2.124-4.856a15.81,15.81,0,0,0,1.332-6.369V982.54h3.027v3.644a15.8,15.8,0,0,0,1.333,6.369l2.124,4.856a21.809,21.809,0,0,1,1.84,8.8Zm0,0" transform="translate(-370 -978)" fill="#5c94ec"/>
          </g>
        </g>
        <path id="Trazado_49" data-name="Trazado 49" d="M473.841,1170.479l.63,1.438a19.182,19.182,0,0,1,.83,2.29.757.757,0,0,0,.726.544.77.77,0,0,0,.213-.03.756.756,0,0,0,.513-.939,20.757,20.757,0,0,0-.9-2.471l-.63-1.437a.757.757,0,1,0-1.386.6Zm0,0" transform="translate(-93.951 -173.295)" fill="#5c94ec"/>
        <path id="Trazado_50" data-name="Trazado 50" d="M458.766,1135.906a.756.756,0,0,0,.694.454.742.742,0,0,0,.3-.063.756.756,0,0,0,.389-1l-.518-1.186a.757.757,0,0,0-1.386.605Zm0,0" transform="translate(-79.852 -140.957)" fill="#5c94ec"/>
        <path id="Trazado_51" data-name="Trazado 51" d="M402.757,1258a.757.757,0,0,0-.757.757v12.863a.757.757,0,0,0,.757.757h9.08a.757.757,0,0,0,.757-.757v-12.863a.757.757,0,0,0-.757-.757Zm8.323,12.863h-7.566v-11.35h7.566Zm0,0" transform="translate(-28.973 -253.518)" fill="#5c94ec"/>
        <path id="Trazado_52" data-name="Trazado 52" d="M592.225,1130.233a9.9,9.9,0,0,0-5.145-1.937v-10.662a8.331,8.331,0,0,0,7.566-8.285.737.737,0,0,0-.007-.108l-.4-2.789v-.005l-1.115-7.8a.757.757,0,0,0-.749-.649H580.27a.757.757,0,0,0-.749.649l-1.513,10.593a.746.746,0,0,0-.008.108,8.331,8.331,0,0,0,7.566,8.285V1128.3a9.9,9.9,0,0,0-5.145,1.937l-.606.454a.757.757,0,0,0,.454,1.361h12.106a.757.757,0,0,0,.454-1.362Zm-11.3-30.719H591.72l.908,6.356-1.456.163a12.788,12.788,0,0,1-4.931-.411l-.09-.026a14.344,14.344,0,0,0-5.723-.432l-.314.039Zm-1.413,9.888.378-2.648.722-.088a12.8,12.8,0,0,1,5.111.378l.089.026a14.278,14.278,0,0,0,5.527.463l1.5-.168.29,2.037a6.81,6.81,0,0,1-13.619,0Zm3.347,21.134a8.464,8.464,0,0,1,6.925,0Zm0,0" transform="translate(-188.327 -108.65)" fill="#5c94ec"/>
      </g>
    </g>
    <rect id="Rect치ngulo_149" data-name="Rect치ngulo 149" width="60" height="60" transform="translate(1901 2847)" fill="none"/>
  </g>
</svg>
