<svg xmlns="http://www.w3.org/2000/svg" width="60" height="60" viewBox="0 0 60 60">
  <g id="Grupo_174" data-name="Grupo 174" transform="translate(-1906 -2731)">
    <g id="Grupo_163" data-name="Grupo 163" transform="translate(-7 4.024)">
      <g id="Grupo_148" data-name="Grupo 148" transform="translate(1528 1620.976)">
        <path id="Trazado_47" data-name="Trazado 47" d="M430.834,1127.528a11.8,11.8,0,0,0-4.57.915l-3.366-6.53h4.7a.926.926,0,1,1,0,1.851h-1a.956.956,0,0,0,0,1.913h1a2.838,2.838,0,1,0,0-5.677h-6.273a.956.956,0,0,0-.851,1.395l1.674,3.247h-13.8l-1.392-2.729h2.2a.956.956,0,0,0,0-1.913h-6.273a.956.956,0,0,0,0,1.913h1.923l1.859,3.643-2.184,3.385a11.87,11.87,0,1,0,6.22,11.415h2.806l-1.09,3.548h-.628a.956.956,0,1,0,0,1.913h3.443a.956.956,0,1,0,0-1.913h-.815l1.258-4.1,7.958-12.284.927,1.8a11.866,11.866,0,1,0,6.269-1.794Zm-23.161,0,5.57,10.917H410.7a11.869,11.869,0,0,0-4.615-8.462Zm1.11,10.917h-8.156l4.42-6.847a9.952,9.952,0,0,1,3.736,6.847Zm-9.912,10.915a9.959,9.959,0,1,1,4.57-18.8l-5.374,8.325a.956.956,0,0,0,.8,1.475h9.912a9.972,9.972,0,0,1-9.912,9Zm16.032-11.87-5.578-10.933h12.661Zm15.931,11.87a9.954,9.954,0,0,1-5.388-18.326l4.539,8.806a.956.956,0,1,0,1.7-.876l-4.54-8.809a9.958,9.958,0,1,1,3.69,19.206Zm0,0" fill="#5c94ec"/>
      </g>
    </g>
    <rect id="Rectángulo_147" data-name="Rectángulo 147" width="60" height="60" transform="translate(1906 2731)" fill="none"/>
  </g>
</svg>
