<svg xmlns="http://www.w3.org/2000/svg" width="29.453" height="21.326" viewBox="0 0 29.453 21.326">
  <g id="Grupo_123" data-name="Grupo 123" transform="translate(-26.841 -1577)">
    <g id="Grupo_120" data-name="Grupo 120" transform="translate(-939.621 1554.075)">
      <path id="Trazado_32" data-name="Trazado 32" d="M980.421,33.355c2.371,0,4.293-2.335,4.293-5.215s-.631-5.215-4.293-5.215-4.293,2.335-4.293,5.215,1.922,5.215,4.293,5.215Zm0,0" transform="translate(0.311 0)" fill="#0f206c"/>
      <path id="Trazado_33" data-name="Trazado 33" d="M972.622,39.829c0-.175,0-.049,0,0Zm0,0" transform="translate(0 1.488)"/>
      <rect id="Rectángulo_3" data-name="Rectángulo 3" width="16.223" height="21.326" transform="translate(972.621 22.925)" fill="none"/>
      <path id="Trazado_34" data-name="Trazado 34" d="M988.831,40.227c-.079-5.018-.735-6.447-5.748-7.353a3.52,3.52,0,0,1-4.7,0c-4.959.9-5.655,2.3-5.746,7.189-.008.4-.011.42-.012.373v.527s1.194,2.407,8.109,2.407,8.108-2.407,8.108-2.407c0-.18,0-.3,0-.39a3.314,3.314,0,0,1-.01-.347Zm0,0" transform="translate(0 0.88)" fill="#0f206c"/>
    </g>
    <g id="Grupo_121" data-name="Grupo 121" transform="translate(-924.78 1554.555)">
      <path id="Trazado_32-2" data-name="Trazado 32" d="M978.365,28.36a2.513,2.513,0,0,0,2.237-2.717c0-1.5-.329-2.717-2.237-2.717s-2.237,1.217-2.237,2.717a2.513,2.513,0,0,0,2.237,2.717Zm0,0" transform="translate(-1.518 0)" fill="#0f206c"/>
      <path id="Trazado_33-2" data-name="Trazado 33" d="M972.622,39.786c0-.091,0-.026,0,0Zm0,0" transform="translate(0 -7.278)"/>
      <rect id="Rectángulo_3-2" data-name="Rectángulo 3" width="8.453" height="11.112" transform="translate(972.621 22.925)" fill="none"/>
      <path id="Trazado_34-2" data-name="Trazado 34" d="M981.068,36.705c-.041-2.615-.383-3.359-3-3.831a1.834,1.834,0,0,1-2.45,0c-2.584.467-2.946,1.2-2.994,3.746,0,.208-.006.219-.006.195v.275s.622,1.254,4.225,1.254,4.225-1.254,4.225-1.254c0-.094,0-.159,0-.2a1.72,1.72,0,0,1-.005-.181Zm0,0" transform="translate(0 -4.306)" fill="#0f206c"/>
    </g>
    <g id="Grupo_122" data-name="Grupo 122" transform="translate(-945.78 1554.555)">
      <path id="Trazado_32-3" data-name="Trazado 32" d="M978.365,28.36a2.513,2.513,0,0,0,2.237-2.717c0-1.5-.329-2.717-2.237-2.717s-2.237,1.217-2.237,2.717a2.513,2.513,0,0,0,2.237,2.717Zm0,0" transform="translate(-1.518 0)" fill="#0f206c"/>
      <path id="Trazado_33-3" data-name="Trazado 33" d="M972.622,39.786c0-.091,0-.026,0,0Zm0,0" transform="translate(0 -7.278)"/>
      <rect id="Rectángulo_3-3" data-name="Rectángulo 3" width="8.453" height="11.112" transform="translate(972.621 22.925)" fill="none"/>
      <path id="Trazado_34-3" data-name="Trazado 34" d="M981.068,36.705c-.041-2.615-.383-3.359-3-3.831a1.834,1.834,0,0,1-2.45,0c-2.584.467-2.946,1.2-2.994,3.746,0,.208-.006.219-.006.195v.275s.622,1.254,4.225,1.254,4.225-1.254,4.225-1.254c0-.094,0-.159,0-.2a1.72,1.72,0,0,1-.005-.181Zm0,0" transform="translate(0 -4.306)" fill="#0f206c"/>
    </g>
  </g>
</svg>
