<svg xmlns="http://www.w3.org/2000/svg" xmlns:xlink="http://www.w3.org/1999/xlink" width="30" height="30" viewBox="0 0 30 30">
  <defs>
    <clipPath id="clip-path">
      <rect id="Rect치ngulo_4" data-name="Rect치ngulo 4" width="23.537" height="22.326" fill="#0f206c"/>
    </clipPath>
  </defs>
  <g id="Grupo_190" data-name="Grupo 190" transform="translate(-798 -5)">
    <rect id="Rect치ngulo_159" data-name="Rect치ngulo 159" width="30" height="30" transform="translate(798 5)" fill="none"/>
    <g id="Grupo_27" data-name="Grupo 27" transform="translate(653 -185.197)">
      <g id="Grupo_26" data-name="Grupo 26" transform="translate(149 193.197)">
        <g id="Grupo_25" data-name="Grupo 25" clip-path="url(#clip-path)">
          <path id="Trazado_36" data-name="Trazado 36" d="M172.271,199.863c-.339-3.745-2.99-6.462-6.308-6.462a6.275,6.275,0,0,0-5.372,3.1,6.042,6.042,0,0,0-5.243-3.1c-3.319,0-5.969,2.717-6.309,6.462a6.631,6.631,0,0,0,.2,2.456,10.516,10.516,0,0,0,3.229,5.385l8.121,7.371,8.259-7.369a10.538,10.538,0,0,0,3.229-5.387,6.679,6.679,0,0,0,.2-2.456Zm0,0" transform="translate(-149 -193.287)" fill="#0f206c"/>
        </g>
      </g>
    </g>
  </g>
</svg>
