<svg xmlns="http://www.w3.org/2000/svg" width="60" height="60" viewBox="0 0 60 60">
  <g id="Grupo_171" data-name="Grupo 171" transform="translate(-1963 -3128)">
    <g id="Grupo_169" data-name="Grupo 169" transform="translate(49 9.775)">
      <g id="Grupo_152" data-name="Grupo 152" transform="translate(1565 2113.225)">
        <path id="Trazado_62" data-name="Trazado 62" d="M368.514,1265.775a3.614,3.614,0,0,0-6.808-.972,3.1,3.1,0,0,0-.369-.223v-11.923a.723.723,0,1,0-1.446,0v11.567a2.892,2.892,0,0,0,0,5.784h7.952a2.169,2.169,0,0,0,.67-4.232Zm-.67,2.786h-7.952a1.446,1.446,0,1,1,0-2.891,1.571,1.571,0,0,1,1.492.976.723.723,0,0,0,1.4-.253,2.169,2.169,0,0,1,4.338,0,.723.723,0,0,0,.723.723.723.723,0,1,1,0,1.446Zm0,0" transform="translate(0 -213.631)" fill="#5c94ec"/>
        <path id="Trazado_63" data-name="Trazado 63" d="M399.654,1018.784H385.918a.723.723,0,1,0,0,1.446h13.013v15.606L379.2,1016.1a.728.728,0,0,0-1.026,0l-19.727,19.73v-15.6H366.4a.723.723,0,0,0,.723-.723v-2.892a.723.723,0,0,0-.723-.723h-.723v-1.446h4.337v1.446h-.723a.723.723,0,0,0-.723.723v2.892a.723.723,0,0,0,.723.723h2.169a.723.723,0,0,0,0-1.446h-1.446v-1.446h.723a.723.723,0,0,0,.723-.723v-2.892a.723.723,0,0,0-.723-.723h-5.784a.723.723,0,0,0-.723.723v2.892a.723.723,0,0,0,.723.723h.723v1.446h-7.952a.723.723,0,0,0-.723.723l0,18.073a.723.723,0,0,0,1.234.511l20.449-20.457,20.457,20.457a.723.723,0,0,0,.511.212.722.722,0,0,0,.723-.723v-18.073a.723.723,0,0,0-.723-.723Zm0,0" fill="#5c94ec"/>
        <path id="Trazado_64" data-name="Trazado 64" d="M543.974,1264.224v-11.567a.723.723,0,1,0-1.446,0v11.923a3.069,3.069,0,0,0-.369.223,3.615,3.615,0,0,0-6.808.972,2.174,2.174,0,0,0-1.5,2.063,2.116,2.116,0,0,0,.134.723H521.563a.723.723,0,1,0,0,1.446h22.411a2.892,2.892,0,1,0,0-5.783Zm0,4.337h-7.952a.723.723,0,0,1,0-1.446.723.723,0,0,0,.723-.723,2.169,2.169,0,1,1,4.338,0,.723.723,0,0,0,1.4.253,1.57,1.57,0,0,1,1.491-.976,1.446,1.446,0,1,1,0,2.891Zm0,0" transform="translate(-146.489 -213.631)" fill="#5c94ec"/>
        <path id="Trazado_65" data-name="Trazado 65" d="M540.276,1125.119a2.892,2.892,0,1,0-2.891,2.892,2.894,2.894,0,0,0,2.891-2.892Zm-4.338,0a1.446,1.446,0,1,1,1.446,1.446,1.448,1.448,0,0,1-1.446-1.446Zm0,0" transform="translate(-158.696 -97.66)" fill="#5c94ec"/>
        <path id="Trazado_66" data-name="Trazado 66" d="M624.367,1245.105h-5.784a.723.723,0,0,0-.723.723v7.952h-.723a.723.723,0,0,0,0,1.446h8.676a.723.723,0,1,0,0-1.446h-.723v-7.952a.723.723,0,0,0-.723-.723Zm-.723,8.676h-4.338v-2.892h4.338Zm0-4.338h-4.338v-2.891h4.338Zm0,0" transform="translate(-231.942 -207.525)" fill="#5c94ec"/>
        <path id="Trazado_67" data-name="Trazado 67" d="M507.994,1260.287a.723.723,0,0,0-.723-.723H505.1v-13.736a.723.723,0,0,0-.723-.723H497.15a.723.723,0,0,0-.723.723v13.736h-2.169a.723.723,0,0,0-.723.723v2.892a.723.723,0,0,0,1.446,0v-2.169h12.29a.723.723,0,0,0,.723-.723Zm-4.338-7.952h-.723a.723.723,0,1,0,0,1.446h.723v5.784h-5.784v-13.013h5.784Zm0,0" transform="translate(-122.076 -207.525)" fill="#5c94ec"/>
        <path id="Trazado_68" data-name="Trazado 68" d="M419.566,1245.105h-5.784a.723.723,0,0,0-.723.723v7.952h-.723a.723.723,0,1,0,0,1.446h8.675a.723.723,0,1,0,0-1.446h-.723v-7.952a.723.723,0,0,0-.723-.723Zm-.723,8.676h-4.337v-2.892h4.337Zm0-4.338h-4.337v-2.891h4.337Zm0,0" transform="translate(-48.83 -207.525)" fill="#5c94ec"/>
      </g>
    </g>
    <rect id="Rectángulo_153" data-name="Rectángulo 153" width="60" height="60" transform="translate(1963 3128)" fill="none"/>
  </g>
</svg>
