<svg xmlns="http://www.w3.org/2000/svg" width="30" height="30" viewBox="0 0 30 30">
  <g id="Grupo_193" data-name="Grupo 193" transform="translate(-634 -7)">
    <rect id="Rectángulo_156" data-name="Rectángulo 156" width="30" height="30" transform="translate(634 7)" fill="none"/>
    <g id="Grupo_17" data-name="Grupo 17" transform="translate(-7 -12)">
      <path id="Trazado_25" data-name="Trazado 25" d="M667.574,33.09l-3.633-3.635v-4.2a1.374,1.374,0,0,0-2.749,0v1.449l-2.7-2.7a3.615,3.615,0,0,0-5,0L644.4,33.09a1.374,1.374,0,0,0,1.944,1.944l9.086-9.086a.811.811,0,0,1,1.111,0l9.087,9.087a1.374,1.374,0,1,0,1.943-1.944Zm0,0" transform="translate(0 0)" fill="#0f206c"/>
      <path id="Trazado_26" data-name="Trazado 26" d="M656,27.8a.674.674,0,0,0-.954,0l-7.992,7.99a.672.672,0,0,0-.2.478V42.1a2.476,2.476,0,0,0,2.477,2.475h3.956V38.445h4.468v6.127h3.957a2.475,2.475,0,0,0,2.475-2.475V36.27a.672.672,0,0,0-.2-.478Zm0,0" transform="translate(0.467 0.754)" fill="#0f206c"/>
    </g>
  </g>
</svg>
