<svg xmlns="http://www.w3.org/2000/svg" width="132.848" height="47.291" viewBox="0 0 132.848 47.291">
  <g id="Grupo_179" data-name="Grupo 179" transform="translate(-177.226 -314.301)">
    <g id="Grupo_9" data-name="Grupo 9" transform="translate(177.226 314.301)">
      <g id="Grupo_7" data-name="Grupo 7" transform="translate(0 10.305)">
        <g id="Grupo_6" data-name="Grupo 6">
          <g id="Grupo_5" data-name="Grupo 5">
            <g id="Grupo_4" data-name="Grupo 4">
              <g id="Grupo_3" data-name="Grupo 3">
                <g id="Grupo_2" data-name="Grupo 2">
                  <g id="Grupo_1" data-name="Grupo 1">
                    <path id="Trazado_1" data-name="Trazado 1" d="M315.837,342.469a1.909,1.909,0,0,0-.957.693,2.467,2.467,0,0,1,2.546-1.02c1.834.244.041.427-.266.529a3.488,3.488,0,0,0-.549-.168,1.869,1.869,0,0,1,.427.251.853.853,0,0,1-.795.693,2.528,2.528,0,0,1-1.364-.285,4.1,4.1,0,0,1,.957-.693" transform="translate(-259.32 -341.191)" fill="#0f206c" fill-rule="evenodd"/>
                    <path id="Trazado_2" data-name="Trazado 2" d="M305.579,419.069c1.832.952,2.244-.395,2.244-.395a1.75,1.75,0,0,0,.876.523c-.214.257-.465.588-.791,1.019-1.316,1.74-2.014,2.684-2.47,2.851a20.782,20.782,0,0,1-3.1.1l1.27-5.595a8.047,8.047,0,0,0,1.972,1.494" transform="translate(-251.84 -386.197)" fill="#29a0d7"/>
                    <path id="Trazado_3" data-name="Trazado 3" d="M180.885,354.831c-2.743,2.308-4.046,5.214-3.558,5.578s2.249-1.284,2.249-1.284c.887-.8,2.636-1.89,5.5-3.953a43.735,43.735,0,0,1,11.576-5.627c.5-.151,1-.328,1.5-.522a20.318,20.318,0,0,1-1.824,1.552c-2.865,2.064-3.982,3.038-6.767,3.583s-3.817,1.218-3.5,1.572,2.549.406,4.407.115c1.657-.259,9.843-6.624,13.307-9.535a41.06,41.06,0,0,1,4.42-2.108c2.352-.88,6.74.057,9.173.7a14.362,14.362,0,0,1,2.127-.288v0c.438-.031.746-.042.746-.042s-.295-.026-.708-.078h0c-1.006-.128-2.688-.406-2.617-.836.081-.492,2.975-.364,4.1-.3h0c.26.016.42.028.42.028s-.164-.016-.418-.046h0c-.972-.115-3.205-.413-3.047-.738.095-.2.844-.2,1.6-.144l.154.011.032,0c.761.062,1.47.166,1.47.166s-.058-.011-.154-.031v0c-.557-.113-2.247-.491-2.1-.907.039-.109.176-.173.354-.213-2.75-.859-7.971-2.248-10.55-1.378a12.435,12.435,0,0,0-3.493,2.21c-3.539.918-7.636,3.638-10.84,5.672-3.394,2.154-10.823,4.533-13.566,6.84m33.794-12.281c-1.6-.2-3.334-.461-5.022-.559a6.211,6.211,0,0,1,4.5.346c.177.076.345.143.517.213" transform="translate(-177.226 -339.833)" fill="#29a0d7"/>
                    <path id="Trazado_4" data-name="Trazado 4" d="M195.727,367.381c-1.821.226-2.888.575-2.858,1.288s5.172.678,9.007-1.487,9.032-7.418,13.2-9.176a17.923,17.923,0,0,1,5.469-1.345,3.713,3.713,0,0,0-.783.662,15,15,0,0,1-6.876,5c-3.452,1.339-4.2,1.823-4.4,2.321s-.083.908,2.3.307a29.307,29.307,0,0,0,5.711-2.842c-.239.2-.465.41-.674.623-3.717,3.793-5.064,5.938-6.387,6.967s-1.776,1.6-1.719,1.8,1.451.042,2.953-.537,4.312-3.847,7.37-5.41,5.2-3.259,6.641-3.436c.228-.027.463-.069.7-.108-.1.106-.209.211-.313.32-3.749,3.886-6.971,5.612-8.756,6.029s-2.811.876-2.707,1.582,5.215.128,8.8-2.431c.316-.224.642-.483.972-.752a6.5,6.5,0,0,0,.874-.586,20.372,20.372,0,0,1,3.615-2.254c.021.082.04.163.062.243a20.616,20.616,0,0,0,1.376,3.6,4,4,0,0,1,1.792-.532.924.924,0,0,0,.328-.014c.5-.036,1.345-.143,2.131-.251a6.555,6.555,0,0,1,1.727,1.248,3.592,3.592,0,0,1,.851,1.377,4.018,4.018,0,0,0-1.213-2.277,5.566,5.566,0,0,0-2.628-1.4,3.493,3.493,0,0,1-1.609.666c-.574-.064,2.45-2.053,3.055-2.548.26-.214.1-.273-.113-.11s-.8.654-1.326,1.043a5.449,5.449,0,0,1-2.645.208c-.919-.082-1.514-.816-.088-.927a3.584,3.584,0,0,0,2-1.042,3.462,3.462,0,0,1-1.154.33c-.27-.019-.244-.283-.095-.619l.033-.012a9.111,9.111,0,0,1,.98-1.5l-.049.028.024-.029a6.219,6.219,0,0,1-2.454.878.588.588,0,0,1-.458-.223c-.546-.767,2.571-2.8,2.571-2.8l-.152.082.126-.084s-2.285,1.265-3.215,1.216a.362.362,0,0,1-.333-.184c-.344-.758,2.839-1.905,2.839-1.905l-.075.018.05-.019a22.436,22.436,0,0,1-3.015.478v0c-.5.022-.871-.021-.919-.2-.127-.458,2.109-1.427,3.082-1.825v-.013c.257-.1.422-.168.422-.168a19.465,19.465,0,0,1-2.483.035v0c-.813-.056-1.518-.212-1.543-.578-.045-.635,2.3-1.042,3.613-1.22V354.9c.5-.068.842-.1.842-.1s-.346-.033-.842-.092v0a11.557,11.557,0,0,1-3.327-.729c-3.053-.066-7.637,0-10,.89-3.729,1.4-6.822,3.985-10.962,7.452s-7.527,4.844-9.348,5.068M224.234,358c-1.15.428-2.418.946-3.656,1.552.46-.3.853-.572,1.134-.772a5.867,5.867,0,0,1,2.521-.78" transform="translate(-186.554 -348.254)" fill="#29a0d7"/>
                    <path id="Trazado_5" data-name="Trazado 5" d="M282.931,343.4c.042-.086.082-.173.123-.258a1.8,1.8,0,0,0,.561.217c.444.11-.106.032-.685.041" transform="translate(-240.266 -341.807)" fill="#29a0d7"/>
                    <path id="Trazado_6" data-name="Trazado 6" d="M296.236,367.3a2.616,2.616,0,1,0,3.217,1.827,2.617,2.617,0,0,0-3.217-1.827m.124.454a.416.416,0,1,1-.291.512.415.415,0,0,1,.291-.512m2.347,2.009a.415.415,0,1,1,.291-.511.414.414,0,0,1-.291.511m-1.207,2.128a.416.416,0,1,1,.29-.512.416.416,0,0,1-.29.512m-.394-1.232a.854.854,0,1,1,.6-1.05.854.854,0,0,1-.6,1.05m-1.733.023a.416.416,0,1,1,.291-.511.415.415,0,0,1-.291.511" transform="translate(-247.054 -356.156)" fill="#29a0d7"/>
                  </g>
                </g>
              </g>
            </g>
          </g>
        </g>
      </g>
      <g id="Grupo_8" data-name="Grupo 8" transform="translate(42.943)">
        <path id="Trazado_7" data-name="Trazado 7" d="M327.417,354.509l-.011.013Z" transform="translate(-309.733 -338.28)" fill="#0f206c"/>
        <path id="Trazado_8" data-name="Trazado 8" d="M288.331,314.3h28.928a5.007,5.007,0,0,1,5.007,5.007v30.077a5.163,5.163,0,0,1-5.142,5.053H308.37l.008-.013a6.82,6.82,0,0,1-1.139-1.433,12.777,12.777,0,0,1-.763-1.33,6.415,6.415,0,0,1-1.156,1.294,3.562,3.562,0,0,1-1.606,2.324c-.108.068-.207.125-.31.184-.039,0-.079.01-.118.012a3.582,3.582,0,0,0,1.3-2.37s1.37-1.33,1.344-2.442-1.717-1.152-2.758-1.875a1.871,1.871,0,0,1-.98-1.522l-.568-.236-.582.179c-.007.013-.016.032-.023.046-.051.1-.109.217-.169.336-.021.04-.04.077-.061.118q-.115.221-.24.447c-.006.013-.014.025-.021.038-.075.135-.151.265-.226.39-.022.036-.043.069-.064.1-.083.133-.166.26-.242.362-.534.707-1.03,1.348-1.03,1.348a6.463,6.463,0,0,1-2.8-2.03,3.016,3.016,0,0,1-.162-.291c-.016-.032-.031-.067-.046-.1-.036-.078-.071-.157-.1-.241-.016-.04-.031-.082-.046-.123-.032-.088-.064-.179-.094-.274-.011-.036-.024-.073-.035-.11-.082-.27-.155-.557-.218-.846-.007-.031-.013-.061-.02-.091q-.037-.177-.072-.356l-.019-.1c-.023-.124-.044-.245-.064-.365,0-.022-.006-.041-.011-.062-.023-.143-.044-.284-.064-.418a12.383,12.383,0,0,0,4.849,1.673c5.93.687,9.5-1.71,8.92-2.8s-2.584,1.433-6.555.8a18,18,0,0,1-7.05-3.168.1.1,0,0,1-.04-.069.1.1,0,0,1,.019-.077,1.288,1.288,0,0,0-1.424-2.007,4.763,4.763,0,0,0-.642.35,1.053,1.053,0,0,1,.579-.545,1.493,1.493,0,0,1,1.712,2.242,17.235,17.235,0,0,0,6.632,3.017,8.255,8.255,0,0,1,.4-1.485c.113-.046,1.176-.235,1.792-.442s.684-.693.6-1.211-.581-.946-.567-1.237a1.039,1.039,0,0,1,.167-.507.786.786,0,0,0-.079-.515.529.529,0,0,0-.518-.251.414.414,0,0,1,.255-.127c.186-.031.189-.075.241-.272s.141-.627.141-.627a2.535,2.535,0,0,0-.214-.528.579.579,0,0,1-.127-.474c.04-.17.2-.213.352-.319a1.039,1.039,0,0,0,.49-1.009c-.082-.58-1.047-.956-1.324-1.26s-1.258-1.046-1.388-1.256.029-.471-.08-.953a2.015,2.015,0,0,0-.564-.955,4.77,4.77,0,0,0-.48-.458l-.011.012.037-.042a.116.116,0,0,0,.016-.017l.108-.119c.01-.01.014-.017.025-.028.738-.811,3.431-3.505,3.649-3.7,1.466-1.286,1.876.274,2.26.075s-1.021-3.208-2.133-3.937a4.685,4.685,0,0,0-2.879-.118c-.488.333-.885.661-.888.823a1.168,1.168,0,0,0,.047.318,1.261,1.261,0,0,1-.255,1.179c-.111.174-.237.4-.372.635a5.807,5.807,0,0,1-2.094,2.5c-.205.089-.441.18-.691.276-1.12.432-2.793.995-3.422,2.056-.774,1.306-1.972,6.664-1.983,6.718a.089.089,0,0,1-.086.069l-.019,0a.088.088,0,0,1-.067-.1c.048-.22,1.163-5.411,1.952-6.742.66-1.114,2.086-1.665,3.232-2.107.249-.1.482-.186.685-.274a5.7,5.7,0,0,0,2.011-2.43c.136-.24.264-.466.378-.644a1.108,1.108,0,0,0,.233-1.041,1.313,1.313,0,0,1-.053-.364c0-.2.3-.48.667-.755-1.091.187-1.989.416-1.989.416s-7.568,2.022-8.754,1.816-1.232-.257-1.68-.29.182.891.493.994-1.231-.257-1.73-.245c-.184,0-.108.186.059.414a4.165,4.165,0,0,1,.975.754.2.2,0,0,1,.048.171.207.207,0,0,1-.1.146,5.319,5.319,0,0,0-1.686,1.652,7.252,7.252,0,0,0-.95,2.49,6.368,6.368,0,0,1,.9-2.7,5.9,5.9,0,0,1,1.6-1.643,4.458,4.458,0,0,0-1.726-.992,25.011,25.011,0,0,0-3.463-.116l-.037.01v-6.367A4.734,4.734,0,0,1,288.331,314.3Z" transform="translate(-283.62 -314.301)" fill="#0f206c"/>
      </g>
      <path id="Trazado_9" data-name="Trazado 9" d="M355.771,331.258l1.83-.861-1.184,2.476,1.4,3.014-1.939-1.077-2.368,3.122.43-3.875-2.261-1.185,2.261-.968-.323-3.338Z" transform="translate(-281.267 -322.809)" fill="#fff" fill-rule="evenodd"/>
    </g>
    <g id="Grupo_15" data-name="Grupo 15" transform="translate(265.269 322.329)">
      <g id="Grupo_10" data-name="Grupo 10" transform="translate(0 11.372)">
        <path id="Trazado_10" data-name="Trazado 10" d="M404.414,365.637a3.226,3.226,0,0,1-.132.911,2.732,2.732,0,0,1-.416.84,2.565,2.565,0,0,1-.743.672,3.274,3.274,0,0,1-1.115.407v.106a3.743,3.743,0,0,1,1.1.266,2.717,2.717,0,0,1,.893.592,2.785,2.785,0,0,1,.6.92,3.328,3.328,0,0,1,.221,1.265,2.972,2.972,0,0,1-.451,1.663,3.66,3.66,0,0,1-1.176,1.132,5.52,5.52,0,0,1-1.662.654,8.617,8.617,0,0,1-1.91.212h-.84q-.522,0-1.114-.027t-1.2-.079a8.935,8.935,0,0,1-1.106-.159v-12.2q.372-.053.841-.106t1.008-.089q.539-.036,1.105-.053t1.132-.018a12.153,12.153,0,0,1,1.8.133,5.455,5.455,0,0,1,1.591.478,3,3,0,0,1,1.141.946A2.569,2.569,0,0,1,404.414,365.637Zm-5.659,2.246c.177,0,.386,0,.628-.009a5.218,5.218,0,0,0,.61-.045,3.919,3.919,0,0,0,1.256-.628,1.448,1.448,0,0,0,.318-1.83,1.321,1.321,0,0,0-.522-.442,2.37,2.37,0,0,0-.734-.212,6.4,6.4,0,0,0-.831-.053q-.513,0-.938.017c-.283.012-.507.03-.672.053v3.148Zm.831,5.271a4.883,4.883,0,0,0,.946-.088,2.508,2.508,0,0,0,.8-.292,1.646,1.646,0,0,0,.548-.513,1.367,1.367,0,0,0,.2-.769,1.487,1.487,0,0,0-.248-.9,1.529,1.529,0,0,0-.645-.5,2.985,2.985,0,0,0-.884-.212q-.487-.043-.982-.044h-1.451v3.219a1.351,1.351,0,0,0,.309.053c.136.012.286.021.452.027l.5.017C399.306,373.151,399.456,373.154,399.586,373.154Z" transform="translate(-395.359 -362.471)" fill="#0f206c"/>
        <path id="Trazado_11" data-name="Trazado 11" d="M419.6,368.8a8.827,8.827,0,0,1,.389-2.724,5.567,5.567,0,0,1,1.123-2.025,4.8,4.8,0,0,1,1.8-1.256,6.313,6.313,0,0,1,2.405-.433,6.2,6.2,0,0,1,2.5.469,4.84,4.84,0,0,1,1.786,1.317,5.686,5.686,0,0,1,1.079,2.035,8.924,8.924,0,0,1,.362,2.617,8.654,8.654,0,0,1-.4,2.724,5.6,5.6,0,0,1-1.141,2.025,4.886,4.886,0,0,1-1.8,1.256,6.274,6.274,0,0,1-2.388.433,6.21,6.21,0,0,1-2.5-.469,4.841,4.841,0,0,1-1.786-1.318,5.582,5.582,0,0,1-1.07-2.034A9.112,9.112,0,0,1,419.6,368.8Zm2.777,0a7.408,7.408,0,0,0,.177,1.68,4.109,4.109,0,0,0,.53,1.309,2.462,2.462,0,0,0,.911.849,2.728,2.728,0,0,0,1.317.3,2.649,2.649,0,0,0,2.175-.955,5.079,5.079,0,0,0,.778-3.183,8.056,8.056,0,0,0-.159-1.645,3.844,3.844,0,0,0-.522-1.318,2.58,2.58,0,0,0-.92-.866,2.753,2.753,0,0,0-1.353-.31,2.59,2.59,0,0,0-2.157.991A5.1,5.1,0,0,0,422.376,368.8Z" transform="translate(-409.815 -362.367)" fill="#0f206c"/>
        <path id="Trazado_12" data-name="Trazado 12" d="M449.39,368.8a8.817,8.817,0,0,1,.389-2.724,5.555,5.555,0,0,1,1.123-2.025A4.8,4.8,0,0,1,452.7,362.8a6.312,6.312,0,0,1,2.405-.433,6.2,6.2,0,0,1,2.5.469,4.837,4.837,0,0,1,1.786,1.317,5.706,5.706,0,0,1,1.079,2.035,8.929,8.929,0,0,1,.363,2.617,8.667,8.667,0,0,1-.4,2.724,5.6,5.6,0,0,1-1.141,2.025,4.891,4.891,0,0,1-1.8,1.256,6.27,6.27,0,0,1-2.387.433,6.208,6.208,0,0,1-2.5-.469,4.838,4.838,0,0,1-1.786-1.318,5.586,5.586,0,0,1-1.071-2.034A9.141,9.141,0,0,1,449.39,368.8Zm2.776,0a7.441,7.441,0,0,0,.177,1.68,4.1,4.1,0,0,0,.531,1.309,2.451,2.451,0,0,0,.911.849,2.726,2.726,0,0,0,1.317.3,2.649,2.649,0,0,0,2.175-.955,5.08,5.08,0,0,0,.778-3.183,8,8,0,0,0-.159-1.645,3.827,3.827,0,0,0-.521-1.318,2.584,2.584,0,0,0-.919-.866,2.757,2.757,0,0,0-1.353-.31,2.591,2.591,0,0,0-2.158.991A5.1,5.1,0,0,0,452.166,368.8Z" transform="translate(-427.582 -362.367)" fill="#0f206c"/>
        <path id="Trazado_13" data-name="Trazado 13" d="M482.9,370.126h-.69v5.235h-2.618V362.98h2.618v5.448l.618-.265,3.715-5.182h2.988l-3.926,5.182-1.026.672,1.062.707,4.492,5.819h-3.236Z" transform="translate(-445.591 -362.733)" fill="#0f206c"/>
      </g>
      <g id="Grupo_13" data-name="Grupo 13" transform="translate(20.686 27.036)">
        <g id="Grupo_11" data-name="Grupo 11" transform="translate(5.475)">
          <path id="Trazado_14" data-name="Trazado 14" d="M469.091,404.566h-.633s0,0,0,0a4.822,4.822,0,0,0-1.473-2.248v2.245h-.71V401.29h.593a6.607,6.607,0,0,1,1.517,1.6v-1.6h.709Zm6.485-3.276h-.707v1.6a6.148,6.148,0,0,0-.736-.908,6.215,6.215,0,0,0-.782-.69h-.595v3.276h.711V402.32a4.806,4.806,0,0,1,1.472,2.248s0,0,0,0h.632Zm2.47,2.5.677.159a1.683,1.683,0,0,1-1.364.747,1.443,1.443,0,0,1-1.136-.394,2.134,2.134,0,0,1,.03-2.687,1.465,1.465,0,0,1,1.06-.425,1.34,1.34,0,0,1,1.151.5,1.812,1.812,0,0,1,.335,1.119,2.671,2.671,0,0,1-.034.383l-2.3,0v0a.926.926,0,0,0,1.581.588m-1.57-1.152h1.652l0-.072a.769.769,0,0,0-.793-.756.885.885,0,0,0-.84.75Zm-5.551-1.457a1.755,1.755,0,1,0,1.658,1.752,1.707,1.707,0,0,0-1.658-1.752m1,1.752a1.006,1.006,0,1,1-1-1.108,1.06,1.06,0,0,1,1,1.108m-8.828-.055a1.869,1.869,0,0,1-2.066,1.809,3.611,3.611,0,0,1-.842-.081c.013-.11.037-.444.037-1.67a9.709,9.709,0,0,0-.053-1.665,5.841,5.841,0,0,1,.974-.079c.619,0,1.977.165,1.951,1.686m-.68.051a1.1,1.1,0,0,0-1.219-1.112c-.1,0-.189,0-.268.008v2.223c.061.006.132.011.209.011a1.129,1.129,0,0,0,1.277-1.131m3.716,1.641h-.742a6.839,6.839,0,0,0-.095-.716h-1.508a6.851,6.851,0,0,0-.093.716h-.72a5.665,5.665,0,0,1,1.237-3.276h.692a5.649,5.649,0,0,1,1.23,3.276m-.98-1.318a4.965,4.965,0,0,0-.614-1.361,4.974,4.974,0,0,0-.613,1.361Z" transform="translate(-460.174 -401.176)" fill="#58595b"/>
        </g>
        <g id="Grupo_12" data-name="Grupo 12" transform="translate(0 0.699)">
          <path id="Trazado_15" data-name="Trazado 15" d="M448.408,403.562a.614.614,0,0,1-.033.2.6.6,0,0,1-.1.184.658.658,0,0,1-.17.151.767.767,0,0,1-.245.1v.015a.98.98,0,0,1,.237.061.666.666,0,0,1,.2.126.606.606,0,0,1,.142.2.631.631,0,0,1,.054.272.656.656,0,0,1-.1.358.778.778,0,0,1-.253.248,1.153,1.153,0,0,1-.354.144,1.741,1.741,0,0,1-.4.046l-.168,0c-.067,0-.136,0-.209-.008s-.146-.008-.218-.015a1.445,1.445,0,0,1-.193-.028v-2.638c.1-.017.227-.032.367-.042s.291-.015.452-.015a2.107,2.107,0,0,1,.339.028,1.068,1.068,0,0,1,.316.1.652.652,0,0,1,.233.2A.538.538,0,0,1,448.408,403.562Zm-1.206.551c.048,0,.1,0,.168-.006s.117-.008.16-.013a1.247,1.247,0,0,0,.181-.067.684.684,0,0,0,.151-.1.419.419,0,0,0,.1-.131.375.375,0,0,0,.038-.172.382.382,0,0,0-.051-.211.349.349,0,0,0-.135-.121.615.615,0,0,0-.191-.058,1.541,1.541,0,0,0-.218-.015q-.133,0-.246.006t-.169.013v.873Zm-.21,1.2a.42.42,0,0,0,.079.012l.116.008.125.006.116,0a1.143,1.143,0,0,0,.249-.027.663.663,0,0,0,.211-.085.452.452,0,0,0,.146-.147.393.393,0,0,0,.055-.212.407.407,0,0,0-.066-.245.429.429,0,0,0-.173-.139.767.767,0,0,0-.239-.062q-.133-.013-.262-.013h-.357Z" transform="translate(-446.609 -402.908)" fill="#58595b"/>
          <path id="Trazado_16" data-name="Trazado 16" d="M452.85,405.924l.119.386h.05l.1-.39.417-1.267h.36l-.658,1.818c-.049.125-.1.246-.148.364a1.951,1.951,0,0,1-.164.312.867.867,0,0,1-.2.218.4.4,0,0,1-.251.082.857.857,0,0,1-.26-.034l.057-.3a.359.359,0,0,0,.115.019.476.476,0,0,0,.14-.019.3.3,0,0,0,.117-.069.482.482,0,0,0,.1-.14,1.353,1.353,0,0,0,.082-.232l-.9-2.021h.417Z" transform="translate(-449.776 -403.949)" fill="#58595b"/>
        </g>
      </g>
      <g id="Grupo_14" data-name="Grupo 14" transform="translate(0.103 0)">
        <path id="Trazado_17" data-name="Trazado 17" d="M402.7,335.822v.437h-.067a3.019,3.019,0,0,0-2.5-.954,3.17,3.17,0,0,0-3.3,3.418c0,2.557,1.537,3.631,3.378,3.631,1.153,0,1.457-.318,1.457-1.232v-.835a7.332,7.332,0,0,0-.066-1.02h.543a.616.616,0,0,1,.636.622v1.537c0,1.272-.821,2.04-2.8,2.04a4.641,4.641,0,0,1,.292-9.274c1.5,0,2.424.822,2.424,1.63" transform="translate(-395.615 -334.192)" fill="#0f206c"/>
        <path id="Trazado_18" data-name="Trazado 18" d="M417.74,346.5c-1.735,0-2.888-1.206-2.888-3.285V339.28h.37c.543,0,.834.318.834.941v2.928c0,1.444.729,2.213,1.763,2.213,1.112,0,1.682-.637,1.682-2.161V339.28h.332c.583,0,.873.3.873.941v3.1c0,2.08-1.072,3.18-2.967,3.18" transform="translate(-407.087 -337.226)" fill="#0f206c"/>
        <path id="Trazado_19" data-name="Trazado 19" d="M433.818,343.178h-1.749a2.136,2.136,0,0,0,2.266,2.014,2.954,2.954,0,0,0,2.146-.729h.067v.53c0,.742-.8,1.312-2.385,1.312a3.316,3.316,0,0,1-3.325-3.537c0-2.292,1.43-3.816,3.312-3.816a2.6,2.6,0,0,1,2.677,2.464c0,1.245-.584,1.762-3.008,1.762m.2-3.14a1.976,1.976,0,0,0-1.948,1.895l-.013.292,1.6-.027c1.71-.027,2-.186,2-.715a1.452,1.452,0,0,0-1.644-1.445" transform="translate(-416.621 -337.031)" fill="#0f206c"/>
        <path id="Trazado_20" data-name="Trazado 20" d="M450.9,340.8a1.66,1.66,0,0,0-1.086-.358c-.942,0-1.3.464-1.3,1.974v3.975H448c-.438,0-.69-.345-.69-.809v-3.259c0-1.96.954-3.007,2.332-3.007.968,0,1.326.424,1.326.9v.583Z" transform="translate(-426.446 -337.247)" fill="#0f206c"/>
        <path id="Trazado_21" data-name="Trazado 21" d="M460.192,340.8a1.658,1.658,0,0,0-1.086-.358c-.94,0-1.3.464-1.3,1.974v3.975h-.517c-.438,0-.689-.345-.689-.809v-3.259c0-1.96.954-3.007,2.333-3.007.966,0,1.325.424,1.325.9v.583Z" transform="translate(-431.986 -337.247)" fill="#0f206c"/>
        <path id="Trazado_22" data-name="Trazado 22" d="M468.217,343.178h-1.749a2.136,2.136,0,0,0,2.266,2.014,2.956,2.956,0,0,0,2.147-.729h.066v.53c0,.742-.795,1.312-2.385,1.312a3.317,3.317,0,0,1-3.325-3.537c0-2.292,1.43-3.816,3.312-3.816a2.6,2.6,0,0,1,2.677,2.464c0,1.245-.584,1.762-3.008,1.762m.2-3.14a1.976,1.976,0,0,0-1.948,1.895l-.013.292,1.6-.027c1.709-.027,2-.186,2-.715a1.451,1.451,0,0,0-1.642-1.445" transform="translate(-437.135 -337.031)" fill="#0f206c"/>
        <path id="Trazado_23" data-name="Trazado 23" d="M485.3,340.8a1.661,1.661,0,0,0-1.086-.358c-.942,0-1.3.464-1.3,1.974v3.975H482.4c-.438,0-.69-.345-.69-.809v-3.259c0-1.96.954-3.007,2.332-3.007.968,0,1.325.424,1.325.9v.583Z" transform="translate(-446.963 -337.247)" fill="#0f206c"/>
        <path id="Trazado_24" data-name="Trazado 24" d="M493.633,346.324a3.3,3.3,0,0,1-3.285-3.55c0-2.345,1.285-3.79,3.285-3.79,1.88,0,3.18,1.418,3.18,3.525,0,2.384-1.259,3.815-3.18,3.815m-.172-6.2c-1.14,0-1.9.927-1.9,2.4,0,1.629.795,2.663,2.187,2.663,1.192,0,1.841-1.008,1.841-2.4,0-1.749-.741-2.663-2.132-2.663" transform="translate(-452.112 -337.05)" fill="#0f206c"/>
      </g>
    </g>
  </g>
</svg>
