<svg xmlns="http://www.w3.org/2000/svg" width="60" height="60" viewBox="0 0 60 60">
  <g id="Grupo_172" data-name="Grupo 172" transform="translate(-2094 6419)">
    <rect id="Rectángulo_158" data-name="Rectángulo 158" width="60" height="60" transform="translate(2094 -6419)" fill="none"/>
    <path id="Trazado_114" data-name="Trazado 114" d="M48.643,21.547H45.934V11.389A3.389,3.389,0,0,0,42.544,8H24.935a3.389,3.389,0,0,0-3.389,3.389v3.389H10.709V22.23H8V42.547H21.547v4.064A3.39,3.39,0,0,0,24.937,50h17.61a3.39,3.39,0,0,0,3.39-3.39V36.45h2.709A1.356,1.356,0,0,0,50,35.1V22.9A1.356,1.356,0,0,0,48.643,21.547Zm0,2.709H29.676V22.9H48.643ZM29.676,25.612H48.643v1.355H29.676ZM24.935,9.355H42.547a2.035,2.035,0,0,1,2.032,2.035v2.032H22.9V11.389a2.035,2.035,0,0,1,2.033-2.035ZM21.545,29.124A2.009,2.009,0,0,0,20.868,29V27.644H19.516V29a2.032,2.032,0,1,0,0,4.064H20.87a.677.677,0,1,1,0,1.355H19.516a.678.678,0,0,1-.677-.677H17.484a2.035,2.035,0,0,0,2.032,2.032v1.355H20.87V35.773a2.009,2.009,0,0,0,.677-.124v2.665a6.1,6.1,0,1,1,0-11.855Zm0,2.709a2.009,2.009,0,0,0-.677-.124H19.516a.677.677,0,0,1,0-1.355H20.87a.678.678,0,0,1,.677.677Zm-9.481-15.7h9.483v6.1H12.064ZM9.355,41.194V23.58H21.547v1.484a7.451,7.451,0,1,0,0,14.646v1.483Zm33.194,7.451H24.935A2.035,2.035,0,0,1,22.9,46.611V44.579H44.579v2.033a2.035,2.035,0,0,1-2.032,2.032Zm2.032-5.419H22.9V14.774H44.579v6.774h-14.9A1.356,1.356,0,0,0,28.322,22.9V35.1a1.356,1.356,0,0,0,1.355,1.355h14.9ZM29.678,35.1V28.322H48.643V35.1Z" transform="translate(2095 -6418)" fill="#5c94ec"/>
  </g>
</svg>
