<svg xmlns="http://www.w3.org/2000/svg" width="78.733" height="89.797" viewBox="0 0 78.733 89.797">
  <g id="Grupo_100" data-name="Grupo 100" transform="translate(-38.552 -8)">
    <path id="Trazado_90" data-name="Trazado 90" d="M114.094,268.639a15.9,15.9,0,0,0-10.677-12.495l-1.487-.5a13.381,13.381,0,0,0,3.265-3.26l.759-1.14-1.093-.821a13.058,13.058,0,0,1-4.126-5.215l-2.656,1.16a15.99,15.99,0,0,0,3.887,5.415,6.907,6.907,0,0,1-4.31,2.436l-6.7-2.233v-1.852h-2.9v2.721L85.9,261.5l-5.85-7.02H75.792l-5.85,7.02-2.161-8.644v-2.721h-2.9v1.852l-6.7,2.232c-1.806-.054-3.405-1.43-4.318-2.432A16.02,16.02,0,0,0,59.091,240h-2.9a13.1,13.1,0,0,1-5.215,10.428l-1.095.821.759,1.14a13.449,13.449,0,0,0,3.263,3.26l-1.486.5a15.9,15.9,0,0,0-10.677,12.495L38.552,287.8h78.733ZM103.412,284.9a14.663,14.663,0,0,0,.578-4.345,12.522,12.522,0,0,0-3.321-8.266l-2.048,2.048a9.57,9.57,0,0,1,2.472,6.218,9.812,9.812,0,0,1-.781,4.345H79.368V260.277h-2.9V284.9H55.532a10.107,10.107,0,0,1,1.69-10.567l-1.028-1.02-1.024-1.024a12.522,12.522,0,0,0-3.321,8.266,14.663,14.663,0,0,0,.578,4.345H41.973L44.6,269.116a13.013,13.013,0,0,1,8.736-10.224l5.294-1.764.083,0V257.1l6.594-2.2,3.21,12.837,8.634-10.36h1.538l8.634,10.36,3.21-12.837,6.583,2.194,0,.036c.041,0,.08,0,.12,0l5.268,1.755a13.013,13.013,0,0,1,8.736,10.224l2.63,15.781Z" transform="translate(0 -189.998)" fill="#2c366e"/>
    <rect id="Rect치ngulo_93" data-name="Rect치ngulo 93" width="2.897" height="2.897" transform="translate(82.264 78.969)" fill="#2c366e"/>
    <rect id="Rect치ngulo_94" data-name="Rect치ngulo 94" width="2.897" height="2.897" transform="translate(82.264 89.107)" fill="#2c366e"/>
    <path id="Trazado_91" data-name="Trazado 91" d="M95.242,47.105h5.005a15.848,15.848,0,0,0,4.006,6.715l5.647,5.647a7.2,7.2,0,0,0,5.121,2.122h6.787a7.2,7.2,0,0,0,5.121-2.122L130.6,55.8h2.3a7.25,7.25,0,0,0,7.242-7.242V47.105h1.448a7.25,7.25,0,0,0,7.242-7.242V34.07a7.25,7.25,0,0,0-7.242-7.242H139.9a21.674,21.674,0,0,0-42.972,0H95.242A7.25,7.25,0,0,0,88,34.07v5.793A7.25,7.25,0,0,0,95.242,47.105Zm4.345-2.9h-2.9V29.725h2.9V44.208Zm25.3,13.21a4.316,4.316,0,0,1-3.073,1.273h-6.787a4.314,4.314,0,0,1-3.073-1.273L106.3,51.772a12.955,12.955,0,0,1-3.818-9.217V41.312a8.7,8.7,0,0,1,8.69-8.69h2.54a11.284,11.284,0,0,0,6.726-2.241l2.048-1.537a11.176,11.176,0,0,0,8.39,3.777h3.469v9.933a12.955,12.955,0,0,1-3.818,9.217L129.4,52.9H114.07v2.9h12.435Zm12.362-27.694h2.9V44.208h-2.9V29.725Zm0,18.828a4.337,4.337,0,0,1-3.779,4.289,15.788,15.788,0,0,0,3.118-5.737h.66Zm8.69-14.483v5.793a4.339,4.339,0,0,1-2.9,4.079V29.993A4.336,4.336,0,0,1,145.934,34.07ZM118.415,10.9a18.876,18.876,0,0,1,18.574,15.932h-2.642v2.9h-3.469a8.289,8.289,0,0,1-6.913-3.7l-.849-1.275L118.7,28.064a8.362,8.362,0,0,1-4.987,1.661h-2.54a11.551,11.551,0,0,0-8.69,3.948V26.828H99.842A18.876,18.876,0,0,1,118.415,10.9ZM90.9,34.07a4.339,4.339,0,0,1,2.9-4.079V43.941a4.339,4.339,0,0,1-2.9-4.079Z" transform="translate(-40.496)" fill="#2c366e"/>
  </g>
</svg>
