<svg xmlns="http://www.w3.org/2000/svg" width="60" height="60" viewBox="0 0 60 60">
  <g id="Grupo_172" data-name="Grupo 172" transform="translate(-1911 -2984)">
    <g id="Grupo_168" data-name="Grupo 168" transform="translate(-2 -0.418)">
      <g id="Grupo_154" data-name="Grupo 154" transform="translate(1848.091 2971.476)">
        <path id="Trazado_75" data-name="Trazado 75" d="M181.3,131.236a3.058,3.058,0,1,0-3.058-3.058A3.058,3.058,0,0,0,181.3,131.236Zm0-4.587a1.525,1.525,0,1,0,0,.008Z" transform="translate(-90.743 -95.126)" fill="#5c94ec"/>
        <path id="Trazado_76" data-name="Trazado 76" d="M272.818,131.236a3.058,3.058,0,1,0-3.058-3.058A3.058,3.058,0,0,0,272.818,131.236Zm0-4.587a1.525,1.525,0,1,0,0,.008Z" transform="translate(-173.516 -95.126)" fill="#5c94ec"/>
        <path id="Trazado_77" data-name="Trazado 77" d="M115.471,38.466c.229,3.356,2.722,4.587,5.069,4.587h10.4a4.676,4.676,0,0,0,5.069-4.587,4.259,4.259,0,0,0-.191-8.41c-.5-1.866-1.957-3.456-4.878-3.456H126.5V24.918a2.546,2.546,0,1,0-1.529,0v1.644h-4.427a4.714,4.714,0,0,0-4.893,3.456,4.259,4.259,0,0,0-.176,8.41Zm22.5-4.2A2.73,2.73,0,0,1,136,36.883v-5.23A2.73,2.73,0,0,1,137.972,34.268Zm-13.25-11.736a1.017,1.017,0,1,1,1.017,1.017h0A1.017,1.017,0,0,1,124.722,22.532Zm-7.745,9.175a3.227,3.227,0,0,1,3.563-3.563h10.4a3.227,3.227,0,0,1,3.563,3.563v6.208a3.231,3.231,0,0,1-3.563,3.563h-10.39a3.231,3.231,0,0,1-3.563-3.563Zm-1.529,0v5.23a2.722,2.722,0,0,1,0-5.23Z" transform="translate(-30.81 0)" fill="#5c94ec"/>
        <path id="Trazado_78" data-name="Trazado 78" d="M211.751,210.88H203a.765.765,0,1,0,0,1.529h8.747a.765.765,0,0,0,0-1.529Z" transform="translate(-112.449 -172.69)" fill="#5c94ec"/>
        <path id="Trazado_79" data-name="Trazado 79" d="M111.94,248.556a2.967,2.967,0,0,0-5.857-.642l-2.041.4H85.815l-2.041-.4a2.967,2.967,0,1,0-3.655,3.5v5.711a2.966,2.966,0,0,0-2.2,2.852v1.353a.765.765,0,1,0,1.529,0v-1.361a1.437,1.437,0,0,1,2.875,0h0v1.361a.765.765,0,1,0,1.529,0v-1.361a2.966,2.966,0,0,0-2.2-2.852v-5.711A2.959,2.959,0,0,0,83.7,249.45l1.277.252v9.435a9.886,9.886,0,0,0,.856,4.014v.069a9.939,9.939,0,0,0,18.12,0l.038-.084a9.878,9.878,0,0,0,.879-4V249.7l1.277-.252a2.959,2.959,0,0,0,2.049,1.957v5.711a2.966,2.966,0,0,0-2.2,2.852v1.361a.765.765,0,1,0,1.529,0v-1.361a1.437,1.437,0,0,1,2.875,0v1.361a.765.765,0,1,0,1.529,0v-1.361a2.966,2.966,0,0,0-2.2-2.852v-5.711a2.967,2.967,0,0,0,2.217-2.852Zm-31.056,1.437a1.437,1.437,0,1,1,1.437-1.437,1.437,1.437,0,0,1-1.437,1.437Zm14.045,17.562a8.41,8.41,0,0,1-7.1-3.907h14.206A8.41,8.41,0,0,1,94.929,267.555Zm8.41-8.41a8.409,8.409,0,0,1-.558,2.982H87.062a8.409,8.409,0,0,1-.558-2.982v-9.3h16.836Zm5.62-9.175a1.016,1.016,0,1,1,.023.023h-.008Z" transform="translate(0 -204.073)" fill="#5c94ec"/>
        <path id="Trazado_80" data-name="Trazado 80" d="M228.313,311.181a.765.765,0,0,0,1.078-.054l4.075-4.511a.765.765,0,0,0-.566-1.277h-2.294l2.814-2.89a.765.765,0,0,0-1.093-1.063l-4.075,4.19a.765.765,0,0,0,.55,1.3h2.355l-2.9,3.226a.765.765,0,0,0,.054,1.078Z" transform="translate(-135.777 -254.373)" fill="#5c94ec"/>
      </g>
    </g>
    <rect id="Rectángulo_151" data-name="Rectángulo 151" width="60" height="60" transform="translate(1911 2984)" fill="none"/>
  </g>
</svg>
