<svg xmlns="http://www.w3.org/2000/svg" width="65" height="65" viewBox="0 0 65 65">
  <g id="Grupo_201" data-name="Grupo 201" transform="translate(-5974 -1429)">
    <g id="Grupo_130" data-name="Grupo 130" transform="translate(5970 1329.803)">
      <path id="Trazado_101" data-name="Trazado 101" d="M85.37,255.467a5.268,5.268,0,1,0,5.269,5.268,5.267,5.267,0,0,0-5.269-5.268Zm0,7.558a2.29,2.29,0,1,1,2.291-2.29,2.29,2.29,0,0,1-2.291,2.29Zm0,0" transform="translate(-59.633 -116.056)" fill="#2c366e"/>
      <path id="Trazado_102" data-name="Trazado 102" d="M236.147,255.467a5.268,5.268,0,1,0,5.269,5.268,5.267,5.267,0,0,0-5.269-5.268Zm0,7.558a2.29,2.29,0,1,1,2.291-2.29,2.29,2.29,0,0,1-2.291,2.29Zm0,0" transform="translate(-182.629 -116.056)" fill="#2c366e"/>
      <path id="Trazado_103" data-name="Trazado 103" d="M46.985,158.11a1.346,1.346,0,0,1-1.342,1.342H27.123a1.346,1.346,0,0,1-1.342-1.342V157.3a1.346,1.346,0,0,1,1.342-1.342h18.52a1.346,1.346,0,0,1,1.342,1.342Zm0,0" transform="translate(-15.321 -34.886)" fill="#2c366e"/>
      <path id="Trazado_104" data-name="Trazado 104" d="M93.61,131.081c-1.932-.5-3.037-.818-3.8-2.282l-2.536-5.135A5.429,5.429,0,0,0,82.9,121H79.43a.447.447,0,0,1-.466-.46v-4.307a2.783,2.783,0,0,0-2.955-3.036H47.736c-2.877,0-4.244,1.366-4.244,3.036v2.7a.779.779,0,0,0,.777.8H60.091a2.687,2.687,0,0,1,2.685,2.684v.805a2.687,2.687,0,0,1-2.685,2.685H44.269a.711.711,0,0,0-.777.774v.928c0,.738,1.012.738,1.012.738H55.155a2.687,2.687,0,0,1,2.684,2.684v.805a2.687,2.687,0,0,1-2.684,2.684H44.672s-1.18-.022-1.18.918v6.522A3.045,3.045,0,0,0,46.528,145H48.2c.38,0,.436-.212.436-.318a6.865,6.865,0,0,1,13.73,0c0,.106-.03.318.261.318H76.164c.268,0,.257-.226.257-.318a6.865,6.865,0,0,1,13.73,0c0,.106,0,.318.166.318h3.412a3.008,3.008,0,0,0,3-3v-5.7c0-4.8-1.515-4.8-3.119-5.217Zm-5.708-.267H79.363a.4.4,0,0,1-.4-.343v-7.112s-.02-.274.432-.274h2.436a4.831,4.831,0,0,1,3.9,2.37l2.257,4.569a3.577,3.577,0,0,0,.305.494c.08.107-.054.3-.389.3Zm0,0" transform="translate(-29.768 0)" fill="#2c366e"/>
      <path id="Trazado_105" data-name="Trazado 105" d="M26.728,204.857a1.346,1.346,0,0,1-1.342,1.342H8.342A1.346,1.346,0,0,1,7,204.857v-.805a1.346,1.346,0,0,1,1.342-1.342H25.386a1.346,1.346,0,0,1,1.342,1.342Zm0,0" transform="translate(0 -73.019)" fill="#2c366e"/>
    </g>
    <rect id="Rectángulo_167" data-name="Rectángulo 167" width="65" height="65" transform="translate(5974 1429)" fill="none"/>
  </g>
</svg>
