<svg xmlns="http://www.w3.org/2000/svg" viewBox="0 0 95.39 40.12"><defs><style>.cls-1{fill:#447ed9;}</style></defs><title>estrella-dash</title><g id="Capa_2" data-name="Capa 2"><g id="Capa_1-2" data-name="Capa 1"><path class="cls-1" d="M12.08,36a8.14,8.14,0,0,1,.65.85c.1.12.06.21-.13.24l-1.09.23c-3.75.81-5.62,1.27-9.32,2.3a.62.62,0,0,1-.74-.2c-.21-.31-.41-.65-.63-1s-.43-.63-.63-1l-.12-.28a.74.74,0,0,1-.06-.3V34.15a.74.74,0,0,1,.06-.39.75.75,0,0,1,.37-.14c1.31-.27,2-.41,3.28-.66.23,0,.36,0,.39,0a.81.81,0,0,1,0,.38c0,.53,0,.79,0,1.32a.8.8,0,0,0,.07.34s.15,0,.36,0l2.61-.54a.7.7,0,0,0,.34-.13A.56.56,0,0,0,7.59,34v-.29c0-6.19.05-9.29.08-15.48a1.65,1.65,0,0,0-.25-.95L7,16.53l-.47-.72h6.59l-.51.75-.51.76a1.41,1.41,0,0,0-.1.28l-.07.28a1.44,1.44,0,0,0,0,.33c0,6.68-.07,10-.12,16.7A1.64,1.64,0,0,0,12.08,36ZM.62,34.89s0,.06.09,0a.08.08,0,0,1,0-.05.08.08,0,0,0,0,0,.12.12,0,0,0,0-.06.74.74,0,0,1,0-.11,1.36,1.36,0,0,1,0,.17A.17.17,0,0,0,.62,34.89Zm0-.51,0,0v0l0,0Zm0,1.53,0,0h0Zm.49-.7c-.06,0-.1-.07-.12-.06a.71.71,0,0,0-.31.13.58.58,0,0,0,0,.26.07.07,0,0,0,0,.06.07.07,0,0,0,.06,0A1.72,1.72,0,0,0,1,35.4Zm-.4,1,.12-.09-.12,0a.07.07,0,0,0-.06.08S.7,36.24.74,36.23Zm0,.61.06-.14s0,0-.09,0a.07.07,0,0,1,0,.05.07.07,0,0,0,0,.05s0,0,0,0Zm.43-.63a1.58,1.58,0,0,0,0-.35,1,1,0,0,0,0-.3s0-.05-.09-.1a.87.87,0,0,1-.12.18c-.14.1-.17.23-.06.32S1.14,36.14,1.2,36.21ZM1,37.12A.33.33,0,0,0,1,37L1,37A.08.08,0,0,1,1,37a.08.08,0,0,0,0,.05Zm.09-.67v0h0v0Zm.09-2.31a.07.07,0,0,0,0,0,.07.07,0,0,1,0,0s0,0,0,0,0,0,0,0,0,0,0,0a.91.91,0,0,0,.15-.16H1.2Zm0,.56c0,.1.05.14.15.12a.24.24,0,0,0,.11-.06l.14-.09-.25-.13C1.26,34.56,1.2,34.62,1.2,34.7Zm.22,1.77.06-.08s0,0,0,0,0,0,0,0,0,0,0,0,0,0,0,0ZM1.54,36l.12,0a.38.38,0,0,0,0-.18s0-.06,0-.07a.11.11,0,0,1-.06-.06.12.12,0,0,1-.06,0,0,0,0,0,0,0,0Zm0,.89a.7.7,0,0,0,.09-.15.32.32,0,0,1-.12-.06.11.11,0,0,0,0,.07,0,0,0,0,1,0,0A.31.31,0,0,0,1.54,36.9Zm.19-1.43a.39.39,0,0,0-.06-.17v0a.07.07,0,0,1,0,.05A.19.19,0,0,0,1.73,35.47Zm0-.84s0,0,0,0,0,0,0,0l-.06,0v0A.06.06,0,0,0,1.76,34.64Zm.09-.57,0,.09,0,.09s0,0,0,0,0,0,0,0,0,0,0,0a.64.64,0,0,0,.09-.14l0,0S1.85,34.11,1.85,34.06Zm.09,2.52a.12.12,0,0,1,0-.07l0-.05,0-.05c0,.05-.05.07,0,.07S1.88,36.54,1.94,36.59Zm0-.51,0,0,0,0a.07.07,0,0,0,0-.05l0,0,0,0Zm.19-1.7a2.9,2.9,0,0,0,.28-.3v0l0-.07s0,0,0,0,0,0,0,0a.07.07,0,0,1-.06,0l-.12.21L2,34.36Zm.06,1.12a0,0,0,0,1,0,0l0,0Zm.18,2.37s0,0,0,0,0,0,0,0,0,0,0,0,0,0,0,0l.06,0Zm0-2.65.12-.09-.09-.07c-.06,0-.09,0-.09.08S2.3,35.18,2.35,35.21Zm.18,1s0,0,0,0,0,0,0,0h.06v-.06Zm.06-.38a.12.12,0,0,0-.06,0l.09.07.16-.07a.14.14,0,0,0-.11,0A.09.09,0,0,1,2.59,35.85Zm0,2.32v0l0,0Zm.09-.63a.25.25,0,0,1-.09.08s0,0,0,0,0,0,0,0a.11.11,0,0,0,0-.07A.11.11,0,0,1,2.65,37.54Zm.09.89v0l0,0Zm0-2.88v0l0,0Zm0,1.69a.17.17,0,0,0,.09-.05v-.06l-.12,0A.1.1,0,0,1,2.78,37.24Zm.41-3.57a.6.6,0,0,0-.15.12l.11,0h.08l0-.07a.24.24,0,0,1,.08-.08Zm.15,1v0h0v0s0,0-.06,0l-.11,0-.11,0a0,0,0,0,0,0,0,.05.05,0,0,1,0,0v0l.11-.05.11-.05a.11.11,0,0,0,0-.07h0v-.06Zm.36,3.86v-.06h0a.11.11,0,0,0,0,.07Zm.19-2.63a0,0,0,0,0,0,0h0Zm1.23.79a.63.63,0,0,0,.06-.16s0-.05-.06,0a.39.39,0,0,0-.09.14s0,0,0,0Zm1.21-.34h0v0ZM8.05,16.81a.16.16,0,0,0,.06-.12,0,0,0,0,0,0,0,0,0,0,0,1,0,0,.62.62,0,0,0-.13.14ZM7.91,36.39s0,0,0,0v0ZM8.3,23.61c.06.09.1.09.13,0s.06-.15.13-.15.1,0,.19-.1.13-.16,0-.23l-.28-.06a.2.2,0,0,1-.13,0,.94.94,0,0,1,0,.29A.23.23,0,0,0,8.3,23.61Zm0-4.63c0,.15.06.27.25.36,0,0,.07,0,.16,0s.07-.11,0-.14a1.36,1.36,0,0,1-.09-.2.31.31,0,0,1,0-.23s0-.08-.11-.14l-.17-.14a.26.26,0,0,0,0,.13,1.07,1.07,0,0,1,0,.16A.82.82,0,0,1,8.32,19Zm.58,2.11a2.14,2.14,0,0,1,.09.22l-.27.13-.24.13c0-.07-.05-.17-.09-.28l-.1.26a.31.31,0,0,0,.09.25c.12.16.25.14.38-.08A.92.92,0,0,1,9,21.45v-.14l-.09-.25a.58.58,0,0,1-.11-.12l-.08-.12c0-.11,0-.19,0-.23s.13-.13.06-.16-.09-.06-.09-.1,0-.23-.19-.22l0,0L8.41,20l0,0a.13.13,0,0,0,.09,0s0,0,0,0-.08.23-.11.35a1.37,1.37,0,0,0,0,.35.28.28,0,0,0,.17.28.47.47,0,0,0,.39,0Zm-.54,1.06a.17.17,0,0,0-.06.12s0,.06,0,.07a.1.1,0,0,1,0,.07l0-.07,0-.07a.07.07,0,0,1,0-.05A.08.08,0,0,0,8.37,22.15Zm0-5.65h0v0l0,0Zm.06.6h0l0,0Zm.25,5.6a.6.6,0,0,0-.28,0,.08.08,0,0,0,0,.06v.11l.23,0,.23,0v0l0-.06S8.75,22.73,8.68,22.69Zm-.07,1.2a.14.14,0,0,0-.06-.11.15.15,0,0,0,.09,0l.09-.09-.06-.05-.1.09a.12.12,0,0,0,0,.09l-.06,0-.06,0a.55.55,0,0,0,0,.23.58.58,0,0,1,.22,0,.46.46,0,0,1,0-.12A.15.15,0,0,0,8.61,23.89ZM8.36,34.44l0,0v0ZM8.46,18h0v0l0,0Zm0,15.79a2.4,2.4,0,0,0,.28-.25l-.12-.09a1.18,1.18,0,0,0-.25.25s0,0,0,0ZM8.82,19.9,9,19.76l.14-.13-.17,0a.32.32,0,0,1-.14,0,.56.56,0,0,0-.22.07v0a.11.11,0,0,0,0-.06.11.11,0,0,1,0-.06l-.06,0,.09.08v0a.6.6,0,0,1,0,.11.44.44,0,0,0,0,.11C8.72,19.93,8.78,19.94,8.82,19.9ZM8.51,25H8.44v0l0,0Zm0-6.84s0,0,0,0l.12.05h0l.06.06-.06-.06h0ZM8.63,36h0v0Zm.14-18a.09.09,0,0,0,0,.06s0,0,.06,0l0-.06A.09.09,0,0,1,8.77,17.94Zm0,6.83a.39.39,0,0,0,.12.16l.09-.18a.52.52,0,0,0,0-.15.28.28,0,0,1,.08-.15.52.52,0,0,0,.1-.12l.06-.12s0-.06,0-.11H9.14s0,0,0,0a1.12,1.12,0,0,1-.25.28A.35.35,0,0,0,8.73,24.77Zm0-7.59h0v0Zm.07,9.54.13-.1a.17.17,0,0,0-.12,0l-.13.07Zm-.05-1.36s0,0,0,0,0,0,0,0v0l-.06.06Zm0,.82h0l0,0Zm.11-8.53s0,0,0,0,0,.06,0,.06l0,0ZM9,25.73l.09-.08.06,0a.12.12,0,0,1-.08-.06s0,0-.08,0l-.16.1Zm-.15,4.5h0v0h0Zm.34-10.18c0-.13-.09-.17-.22,0a.28.28,0,0,0-.06.31.34.34,0,0,0,.22.24.18.18,0,0,0,.13-.09.11.11,0,0,0,0-.06.18.18,0,0,1,0-.08A1.17,1.17,0,0,0,9.22,20.05ZM9,17.17l0,0H9Zm0,5a.08.08,0,0,0,.06,0l.06,0h0L9,22.13A0,0,0,0,1,8.93,22.16Zm0-.46a.07.07,0,0,0,0,.05.14.14,0,0,0,.09,0L9,21.62C9,21.7,9,21.73,9,21.71Zm0,.68,0,0s0,0,0,0l0-.06Zm.17-1.65H9v.06h.09Zm.08,2.6c.08,0,.13-.08.13-.09a.2.2,0,0,0-.06-.16.27.27,0,0,0-.16,0v0h0v.17A.65.65,0,0,1,9.24,23.33ZM9.33,18a.87.87,0,0,0-.16.17s0,0,.06,0,0,0,0,0l.16-.17s0,0,0,0h0S9.33,18,9.33,18Zm-.16,5.69.06-.06,0-.05-.06.06Zm0-6.74h0v0h0Zm0,8.21,0,0,0,0a.16.16,0,0,0-.09,0,.07.07,0,0,1,0-.05,0,0,0,0,0,0,0Zm.1-5.8.13-.09-.09-.14-.06.12a.1.1,0,0,0,0,.06A.11.11,0,0,1,9.32,19.37Zm0,2.15a.82.82,0,0,0,.22-.07l-.12,0H9.34l-.06,0C9.28,21.49,9.29,21.52,9.31,21.52Zm0,12.7,0,0,0,0,0,0s-.06,0-.06,0a.94.94,0,0,1-.09.16h.12Zm.12-13.53a.17.17,0,0,1-.06.07,0,0,0,0,0,0,0,0,0,0,0,0,0,0,0,0,0,0,1,0,0,.12.12,0,0,0,.09-.12S9.49,20.74,9.47,20.69Zm0-3.92h0Zm-.06,5.42v0h0Zm.09-4.66s0,0,0,0h.06v0Zm.08,2.76s0,0,0,0a.15.15,0,0,0,0-.11l-.06,0,.09.08v0h0a.12.12,0,0,0,0,.09.36.36,0,0,0,.09.11v-.11a0,0,0,0,0,0,0A0,0,0,0,1,9.6,20.29Zm0,.76-.1.09,0,.07,0,.07.13-.12Zm.05,1.74a.2.2,0,0,0,.09-.06.6.6,0,0,0-.15-.1v.11Zm.06-4.65a.11.11,0,0,0,0,.09l.06,0,.06,0s0,0,0,0,0,0,0-.06A.18.18,0,0,1,9.68,18.14Zm0-1.69a.18.18,0,0,1,0,.08s0,0,0,.08l.09.08a.08.08,0,0,1,0-.06,0,0,0,0,0,0-.06.41.41,0,0,0-.06-.17Zm0,3.18v0h0Zm0,.25s0,0,.06,0v0Zm0,5.06a.39.39,0,0,0,.22-.15.42.42,0,0,0,.13-.28s0,0-.06-.08h0s0,0,0,0a1.7,1.7,0,0,1-.14.22,1.22,1.22,0,0,0-.14.25ZM9.67,33.4h0l0,0ZM10,18.81c-.08,0-.13,0-.14,0a.2.2,0,0,0,0,.11.27.27,0,0,1,0,.13s0,.06-.11.06v.08c.08,0,.13,0,.16,0a1.47,1.47,0,0,0,.27-.19l.24-.19.19-.1a.62.62,0,0,0,.16-.1l0,0a.43.43,0,0,0,.12.08v0a.19.19,0,0,0-.12-.05l0,0a.45.45,0,0,0,.13-.17,2.51,2.51,0,0,0,.13-.42.69.69,0,0,0-.69.55l-.11.19S10.11,18.83,10,18.81Zm-.29,11h0v0Zm.17-6.43H9.83l0,.06.06,0ZM10.12,17c-.15,0-.21.12-.19.23s0,0,0,0,0,0,0,0a.49.49,0,0,0,.09-.11,1,1,0,0,1,.06-.11s.06-.07.06-.09l.13-.09-.06,0-.06,0h-.06Zm-.05,3.4c-.06,0-.09,0-.1,0l0,0,0,0H10A.16.16,0,0,0,10.07,20.43Zm.14,11c.06-.1.07-.17,0-.2a.17.17,0,0,0-.19-.08s-.08.06-.13.16a.25.25,0,0,0,0,.1.26.26,0,0,1,0,.1.35.35,0,0,1,0,.16l.19-.12C10.17,31.48,10.21,31.44,10.21,31.4ZM10,19.74v0l0,0ZM10,22A.07.07,0,0,0,10,22l0,0s0,0,0-.05Zm.21-3.88A.13.13,0,0,1,10.3,18a.26.26,0,0,0-.16-.08A.19.19,0,0,0,10,18l.06,0Zm-.11,3a.08.08,0,0,0,0-.05l0,0h.06Zm.1,8.34c.1-.07.16-.12.16-.16a.39.39,0,0,0,0-.14.12.12,0,0,0-.15-.06.42.42,0,0,0-.13.1s-.05.07,0,.09a.1.1,0,0,0,.06.09Zm0-7.84H10c.06.05.1.08.12.08l.13,0,.13,0s0,0,0,0l0,0Zm-.11,2-.06,0a.14.14,0,0,0,.06.11l.06,0a.07.07,0,0,1,0-.05A.07.07,0,0,0,10.08,23.6Zm1.08,1.94a.14.14,0,0,0,0-.11.15.15,0,0,0-.09,0,1.12,1.12,0,0,0-.25.28.48.48,0,0,1-.31.2,3.81,3.81,0,0,0,.22-.36l.19-.35s0-.07,0-.14h-.09a.41.41,0,0,1-.21.3.75.75,0,0,0-.27.25c-.09.14,0,.24.18.29l-.19.23a2.08,2.08,0,0,0-.19.26.29.29,0,0,0,0,.13.08.08,0,0,0,.06.09.25.25,0,0,0,.25,0,.53.53,0,0,0,.16-.16l.31-.47Zm-.95-7.86v0l0,0v0S10.19,17.68,10.21,17.68Zm0,.87s0,0,0,0,0,0,0,0v0Zm.19,3.74a.41.41,0,0,1-.12-.08.51.51,0,0,1-.06.14s0,0,.06.08A.67.67,0,0,1,10.4,22.29Zm0-2.66,0,.1,0,.1a.42.42,0,0,0,.25-.15.61.61,0,0,0,.07-.28h0s0-.06,0-.07a.06.06,0,0,0,0,0h-.06a.26.26,0,0,0,0,.14h0l-.16.09A.17.17,0,0,0,10.45,19.63Zm-.06-.36h0v0h0Zm0,16.9.09,0a4.06,4.06,0,0,0,.59-.51.18.18,0,0,0,.08-.13.3.3,0,0,1,.08-.15.12.12,0,0,1-.06-.1.07.07,0,0,0-.06-.07c-.06,0-.14,0-.22.13l-.56.7a.07.07,0,0,0,0,.07.26.26,0,0,1,0,.09Zm0-3.65,0,0v0Zm.23-14.93a.18.18,0,0,0-.09.06l.06.05.06-.06Zm0,13.31v0l0,0h-.06v0l0,0,0,0Zm0-8.76s0,0,0,.05l0,0,.09-.09L10.65,22a.18.18,0,0,1-.06.07A0,0,0,0,0,10.56,22.14Zm.39-1.75a.28.28,0,0,1-.16,0,.29.29,0,0,0-.16,0,.16.16,0,0,0-.06.11v.33a.79.79,0,0,1,.19-.12l0-.06,0-.06Zm-.39,2.22s0,.06,0,.05h.06s0-.06,0-.05Zm0,9.32a.06.06,0,0,1,0-.05v0Zm.14-15.41a.07.07,0,0,0,0,.06h.09l-.06-.06Zm0,7.8a.2.2,0,0,0-.09.06.16.16,0,0,0,.09,0l0,0,0,0A.17.17,0,0,0,10.7,24.33Zm.18-7.39-.19.09v0s0,0,0,0h.13a.2.2,0,0,0,.13,0s0,0,.06-.14,0,0,0,0h0v0Zm-.13,13.67s0,0,0,0,0,0,0,0l0,0-.06,0Zm.15-13.2,0-.06-.06.06.06,0Zm-.12,4.32.06.11a.49.49,0,0,1,.1-.12.16.16,0,0,1-.09,0Zm.07-1.51v0l0,0Zm-.11,11.56v0h0Zm.24,1s-.06,0-.06,0l0,0c-.06,0-.09.09-.09.13l0,0s0,0,0,0a.07.07,0,0,0,0,0A.21.21,0,0,1,11,32.78Zm-.15,4.08v0l0,0Zm.29-19.33a.48.48,0,0,0-.06.14h0v0H11v0l.06,0v0h0a.45.45,0,0,1,.09-.11S11.12,17.55,11.12,17.53Zm0,18.66a.1.1,0,0,1,0-.06l.06-.07-.06-.11-.09-.16-.13.16s-.05.09,0,.12A.49.49,0,0,0,11.11,36.19ZM11,23.2s0,0,.06.08.06-.07.06-.09,0,0-.06-.08S11,23.18,11,23.2Zm0,2.91s0-.06.06-.06v0S11,26.09,11,26.11Zm.14-6.51,0,0,0,0h.06Zm.27-3.11.06-.06s0,0,0,0l-.06.06Zm0,.42.06-.06s0,0,0,0,0,0,0,0l-.06,0a.05.05,0,0,0,0,0A.05.05,0,0,1,11.44,16.91Z"/><path class="cls-1" d="M31.12,34.09c.09.1.06.16-.13.18l-.6.06c-2.11.21-3.16.34-5.26.62a1,1,0,0,1-.25,0s-.06,0-.06-.09,0-.11.13-.19l.37-.56c.12-.18.27-.37.4-.56a.59.59,0,0,0,.1-.48c-.1-.3-.19-.6-.28-.9s-.17-.6-.28-.9a.47.47,0,0,0-.12-.23.59.59,0,0,0-.31,0c-1.6.17-2.39.26-4,.47a.38.38,0,0,0-.44.36q-.16.53-.29,1t-.29,1a.62.62,0,0,0,.09.45c.12.16.28.33.4.5s.26.33.4.5.09.18.08.2-.09.05-.23.08c-2.32.37-3.48.58-5.79,1-.17,0-.26,0-.28,0s0-.11.1-.23.26-.44.4-.65.25-.44.36-.64a2.88,2.88,0,0,0,.29-.66Q16.84,30,18,25.68t2.43-8.45a.65.65,0,0,0-.12-.61,4.22,4.22,0,0,1-.28-.41,4.81,4.81,0,0,0-.28-.41h6.49l-.32.45a5.23,5.23,0,0,1-.32.43.7.7,0,0,0-.13.64c.16.57.33,1.14.5,1.71s.34,1.13.5,1.69l1.74,5.92q.85,2.9,1.74,5.8a2.33,2.33,0,0,0,.43.79c.1.15.21.29.33.43S31,34,31.12,34.09ZM16.6,35.4l.06,0s0-.05,0,0l-.06,0Zm.14-1.55,0,0-.06,0S16.72,33.86,16.74,33.86Zm.49-1.93,0,0v0Zm0,2.5v-.08s0,0,0,0,0,0,0,0,0,0,0,0v0Zm.07-1,.06,0,.06,0-.09,0a.17.17,0,0,0-.06.11Zm.05,1.45,0,0,0,0v.05Zm.13-4.06V31c.08-.08.13-.14.13-.17v-.1Zm0,2.92.06,0v-.05l-.06.06Zm.37,1a.52.52,0,0,1,.19,0s0-.06,0-.06,0,0,0-.06l-.16.1a.16.16,0,0,0-.09,0l-.09,0-.1,0v.08h.09a.14.14,0,0,0,.09,0A.23.23,0,0,0,17.86,34.77Zm-.16-2.65h0l0,0Zm.15-3,0,0,.06,0,0,0Zm0,.29v0l0,0Zm.07,3.08s0,0,.06.07l.06-.06a.16.16,0,0,0-.09,0Zm.1-3.68s0,0,0,0,0,0,0,0l0,0,0,0Zm.12,4a.06.06,0,0,1,0,0l0,0,0,0s0,0,0,0Zm-.1.85s.07,0,.08,0,0,0,0,0a.24.24,0,0,0,.13-.07l0,0,0,0Zm.31.52a1.1,1.1,0,0,0,.22-.16l.22-.19a.67.67,0,0,0-.19-.1c-.06,0-.14,0-.24.13a.39.39,0,0,0-.14.27C18.24,34.16,18.28,34.18,18.3,34.18ZM18.37,30s-.06,0-.06.06l0,0,0,0,0,0A.06.06,0,0,1,18.37,30Zm.23,2.35.32-.22-.16-.06-.13.11-.13.11ZM18.76,29h0l.06,0s0,0,0,0Zm.29-.91a.08.08,0,0,1,0,.05v0l.06,0Zm0,3.26s.05-.06,0-.06L19,31.26l0,0v.05A.17.17,0,0,1,19.08,31.38Zm.1-3.82s0,0,0,0l.06,0v0A.16.16,0,0,0,19.18,27.57Zm0,4v0h0Zm.08-2.37s0,0,0,0h0S19.23,29.23,19.25,29.23Zm.24,1.54a.11.11,0,0,1,0-.05.12.12,0,0,0,0-.05v-.41l0,0a.24.24,0,0,0-.13,0,.2.2,0,0,0,0,.08.08.08,0,0,1,0,.06c0,.08,0,.19.09.32Zm-.07,1.34,0,0s0,0,0,.06h.06Zm.11-4.68a.33.33,0,0,0,.25-.13.22.22,0,0,0,.07-.21L19.75,27l-.16.14a1.22,1.22,0,0,0-.16.17s0,0,0,0Zm.29-4.74-.06,0s0,0,0,.05.06,0,.06,0Zm-.08,8.4a.06.06,0,0,0,0,0l0,0Zm.93-2.66a.29.29,0,0,0,.19-.15s0-.08-.12-.14l-.08,0-.08,0L20.43,28l-.16-.07h-.06a.17.17,0,0,0-.09,0,.37.37,0,0,0-.19.15.14.14,0,0,0,0,.18,1.25,1.25,0,0,0,.33.17A.68.68,0,0,0,20.67,28.44Zm-.74,2.07h0v0h0Zm.14-1.06a.46.46,0,0,0,.06-.13s0-.07-.06,0a.14.14,0,0,0,0,.06l0,.06Zm.13-3.58h0Zm.08-5.52h0v0Zm.19,6.71a.08.08,0,0,1,0,.05h.06l0,0S20.51,27.06,20.47,27.06Zm.14,1.74s0,0,0,0,0,0,0,0,0,0,0,0,0,0,0,0v0h0Zm0-5,0,0v0Zm.13-.34a.35.35,0,0,0,.06.12l.31-.17,0,0,0,0,0,0-.13.08Zm0,6.5,0,0h0Zm.13-10.8v0h0S20.82,19.22,20.82,19.21Zm0,10.31.09,0,.09,0,.16,0L21,29.49l-.11-.06Zm.43-9h0l.06,0Zm0,1.85v0l0,0Zm-.08,8v0l0,0v0S21.1,30.32,21.12,30.31Zm.19-13.6,0,0s0,0,0,0l0,0S21.29,16.71,21.32,16.71Zm.05,7.84v0l0,0Zm.14,5.11h0l0,0h.06Zm.05-5.61.06,0,.09-.08-.06,0Zm2.19,3.76a.94.94,0,0,0,.39-.11s0-.14,0-.32l-.36-1.26c-.12-.42-.25-.84-.36-1.27-.06-.23-.12-.46-.18-.69s-.13-.46-.21-.69a.09.09,0,0,0,0-.07.23.23,0,0,1-.06-.07l-.06.08a.1.1,0,0,0,0,.08q-.06.23-.15.47t-.15.47q-.26.82-.47,1.6t-.47,1.59c0,.19,0,.3,0,.33s.16,0,.39,0l.85-.08Zm-1.47,2.34a.42.42,0,0,0,.07-.21.94.94,0,0,0,0-.2s-.06,0-.11-.05a.26.26,0,0,1-.14,0h0a2.07,2.07,0,0,0-.35.29.4.4,0,0,0-.09.12s0,.07,0,.06a.75.75,0,0,0,.34.09.3.3,0,0,0,.16,0C22.25,30.19,22.29,30.17,22.29,30.16Zm-.39-11.51-.06.05,0,0,.06,0A.06.06,0,0,1,21.89,18.65Zm.2,2.33v0l0,0Zm.11,8.23,0,0,0,0a.06.06,0,0,0,0,0l-.06.06Zm.27-12s-.05.07,0,.11a.25.25,0,0,1,0,.11.91.91,0,0,0,.31-.05.66.66,0,0,0,.22-.18l.29-.34.29-.36s0,0,0-.06a.1.1,0,0,1,0-.06H23a.44.44,0,0,0-.28.1.31.31,0,0,0-.13.2c0,.09,0,.15.22.15l-.19.19C22.57,17.05,22.52,17.13,22.47,17.18Zm.14,11.41a.71.71,0,0,0,.13-.16l-.06,0s0,0-.06,0-.1,0-.1.08S22.53,28.55,22.61,28.6Zm.13-10.17v0ZM23,16.75l-.06.05h0A.16.16,0,0,1,23,16.75Zm-.14,4.53,0,0S22.84,21.26,22.84,21.28Zm0,.9,0,0s0,0,0,0,0,0,0,0Zm0,7.87v0l0,0ZM23,18.95a.17.17,0,0,1,0-.13H23s0,.06,0,.12l0,0Zm0,.57s0,0,0,0H23ZM23,20.9c0,.12,0,.16.16.12s.05,0,.09-.13a.41.41,0,0,1-.16,0H23Zm.05,1.2,0,0v0Zm.2-1.63a0,0,0,0,0,0,0,0,0,0,0,1,0,0,.13.13,0,0,0,0,.1s0,0,.06.07Zm-.12,9.65s0,0,0,0,0,0,0,0l-.06,0v0s0,0,0,0S23.16,30.1,23.16,30.11ZM23.35,17v0h0v0Zm-.08,5.33a.07.07,0,0,1,0,0s0,0,0,0Zm.05-2.22.06,0v0l-.06,0Zm.16-.85,0,0,0,0s-.06.06-.06.08h0l0,0,0,0Zm0,2.14s0,0,0,0,0,0,0,0l-.06.05s0,0,0,0,0,0,0,0Zm.06-3.26h0v0Zm.1-1.15h0s0,0,0,0Zm-.09,13.15,0,0v0Zm.11-11.51,0,0h0Zm.15,1.16h-.1a.12.12,0,0,0,0,.1l.09-.08Zm.27.83c.15,0,.18-.07.1-.09s-.12,0-.09-.08v-.1h0a.14.14,0,0,0,0-.07.14.14,0,0,1,0-.07l-.11,0-.11,0c-.06.05-.09.09-.09.1a.68.68,0,0,0-.07.25h.19A.48.48,0,0,0,24.1,20.66Zm-.39,1.08.06,0,.06,0s0-.06,0-.13l-.06,0s0,0-.06.05A.16.16,0,0,0,23.71,21.74Zm0,8.1v0s0,0,0,0,0,0,0,0h0Zm.14-11.9a.07.07,0,0,1,0,.05l.06-.05H24s0,0,0,0,0,0,0,0a.19.19,0,0,0-.09.05Zm0,4.12v0l0,0Zm.16-.7s.07,0,.16-.06l-.19,0a.19.19,0,0,0-.09.05h.13Zm0-2.5s.06.06.06.07a.2.2,0,0,0,.09-.05L24,18.8s0,0,0,0S23.9,18.84,23.9,18.85ZM24,22.4s0,0,0,0l-.06.05,0,0,.06-.05S24,22.4,24,22.4Zm.13-4.94-.13.05.12.07v-.12h.09l-.06,0a0,0,0,0,1,0,0A0,0,0,0,0,24.1,17.46ZM24,29.86l-.06,0v0Zm.19-10.26-.06.05.06,0h0s0,0,0,0A.07.07,0,0,0,24.14,19.59ZM24,23s0,0,0,0,0,0,0,0l0,0Zm.06-3.67.06,0a.2.2,0,0,0,.09-.05l-.09,0Zm.15-2.53a.14.14,0,0,1-.09,0c.06,0,.08.07.06.07a.14.14,0,0,0,.09,0h0l.09.07a.17.17,0,0,0,.11,0h.11l0,0v0a.62.62,0,0,0-.22,0,.12.12,0,0,0-.13,0h0S24.3,16.82,24.26,16.79Zm.14,5.44c-.17,0-.26.12-.29.24l0,0,.16-.12a.79.79,0,0,0,.16-.14Zm-.21,2.51s0,0,0,.05a.14.14,0,0,0,0,.07c.08.08.16.09.22,0a.2.2,0,0,0,.1-.09.37.37,0,0,1,.09-.12h0l.14-.27a2.92,2.92,0,0,1,.17-.27l-.39.28A3,3,0,0,0,24.19,24.74Zm.12-2.9v0l0,0v0Zm.08-2.06s-.06.06-.06.08h.16Zm0,10.67-.06,0-.06.06s.06,0,.06,0Zm.06-13.19h0l0,0Zm.17,11.84a.86.86,0,0,0,.13-.12l.13-.12-.06,0a.33.33,0,0,0-.28.08.54.54,0,0,0-.19.19.08.08,0,0,0,0,.07s0,0,0,0l.11,0A.25.25,0,0,0,24.65,29.09Zm-.15-10.4s0,0,0,0h.16a.17.17,0,0,1,0-.1l-.08,0-.08,0Zm.12.86a.55.55,0,0,0,0-.14.55.55,0,0,1,0-.14v0c.14,0,.22,0,.22-.13s0,0-.06,0l-.08.08-.08.08v0a.35.35,0,0,0-.08.15s0,.1.08.15Zm0,3.13-.06,0,0,.05h.09Zm0-2.52.06,0,.06,0,.09.07-.09-.07-.06-.1h-.06Zm.12-2.52-.06.05a.13.13,0,0,0,.06.1l.13-.05Zm-.12,12.61.06,0-.06,0-.06,0Zm.11-8.83v0a.07.07,0,0,1,0,0h0l-.06,0v0a.13.13,0,0,1,0-.1h0ZM25,24a.2.2,0,0,0,.09-.08l.1-.13q-.13,0-.16,0a1.45,1.45,0,0,0-.19.11.17.17,0,0,0-.06.15A.69.69,0,0,0,25,24Zm-.07-6-.06.05,0,0,.06,0A.08.08,0,0,1,24.91,17.94ZM25,20.77l0,0,0,0a.14.14,0,0,0-.06.1s0,0,0,0h.06Zm0,4.41.11-.13.11-.11s0,0,0,0l-.08,0-.11.11-.11.11S24.85,25.12,24.94,25.18Zm.67,2.43a.43.43,0,0,1,.06-.13.14.14,0,0,1-.09,0,0,0,0,0,0-.06,0,2.84,2.84,0,0,1-.33.2,1.63,1.63,0,0,0-.33.22.07.07,0,0,0,0,.09.45.45,0,0,1,0,.11H25a.32.32,0,0,0,.16,0l.24-.22ZM25,18.16c-.06.05-.09.08-.09.1a.31.31,0,0,0,.06.15l0,0,0,0a.22.22,0,0,0,0-.09A.3.3,0,0,1,25,18.16Zm-.11,11.32c.06,0,.19,0,.38-.17s.29-.23.29-.31l-.06,0-.35.18-.35.18s0,0,0,.07S24.89,29.49,24.93,29.49Zm.38-10.3c-.1-.08-.19-.1-.25-.07s-.08.09,0,.17.06,0,.06.06,0,.05.06.08l.09.07.06-.1C25.37,19.3,25.35,19.22,25.31,19.19Zm.15.81a.19.19,0,0,0,0-.12l0,0,0,0a.32.32,0,0,0-.12-.09s-.08,0-.13.1l0,0,0,0h.25v.1l.06.1Zm-.29,10.42a4,4,0,0,0,.35-.35.1.1,0,0,0,0-.06.38.38,0,0,1-.06-.1l-.44.39s0,.06,0,.08a.12.12,0,0,1,0,.07h.11A.09.09,0,0,0,25.17,30.42Zm0-5.1-.06.05.06,0,0-.05Zm.21,1.41,0,0,0,0s0,0,0,0Zm.17-4.45-.13.05s0,0,0,.07l.09-.08Zm-.11-2a.06.06,0,0,1,0,0,.06.06,0,0,0,0,0h.22v0h0a.65.65,0,0,0-.16-.09Zm0,.25a.38.38,0,0,0,.09.09s0,0,0,0l.06,0a.16.16,0,0,1-.08,0l0,0s0,0,0,0S25.39,20.55,25.39,20.56Zm0,6.45a.16.16,0,0,1,0,.07.06.06,0,0,0,0,0v0h0l0,0V27ZM26,22.55l-.16,0a1,1,0,0,0-.35.09s0,0,0,.1a.48.48,0,0,0,.25,0,.22.22,0,0,0,.13-.05Zm-.39-1.48v0s.06,0,.06,0l0,0Zm0,7s0,0,0,0,0,0,0,0,0,0,0,0,0,0,0,0,0,0,0,0Zm.33-5,.16-.11s0,0-.12-.12l-.08.08,0,.08Zm0,4.57s0,.12.09.11a.65.65,0,0,0,.22,0v0h0a.22.22,0,0,1,.13,0v0H26.2l0,0a.34.34,0,0,0,0-.17.18.18,0,0,0-.16-.06.09.09,0,0,0-.06,0Zm.54,3.22c0-.05,0-.18-.09-.33h0l-.06,0a.59.59,0,0,0-.27.23c-.07.11-.09.2,0,.26l0,0a.14.14,0,0,0,.08,0l.21-.11A.37.37,0,0,0,26.39,30.84Zm-.09-4.26s0-.06-.12-.09a1.27,1.27,0,0,0-.25.26s0,0,0,.07a.17.17,0,0,0,.09,0A.25.25,0,0,0,26.31,26.58ZM26,24a0,0,0,0,0,0,0,0,0,0,0,1,0,0,.16.16,0,0,1,.1,0l0,0,0,0Zm0,10.3s0,0,0,0,0,0,0,0,0,0,0,0,0,0,0,0Zm.1-8.06s0,0-.06.08a.21.21,0,0,0,.09-.06Zm0-.56h0v0Zm.64,5.52h-.13l-.09.08v0s0,0,0,0l-.06,0-.06,0v0l.06,0,.06,0h.16A.21.21,0,0,0,26.8,31.18Zm-.17-5.94s0,0,0,0l0,0,.06-.05Zm.06,7.55,0-.08a.16.16,0,0,0,0-.07l-.06,0c-.06,0-.09.07-.09.08S26.63,32.74,26.69,32.8Zm-.07.76v0h0v0Zm0-1.8h0l0,0Zm.06-3.19a.05.05,0,0,0,0,0l.06,0H26.7Zm.1-.88a0,0,0,0,0,0,0,0,0,0,0,1,0,0h.06a.05.05,0,0,1,0,0Zm.26,6.11h0a.24.24,0,0,0,0-.13.24.24,0,0,1,0-.12l-.28.18a.07.07,0,0,0,0,.05v.12l.16,0A.23.23,0,0,0,27.06,33.8ZM27,31.67l0,0,0,0s0,0,0,0Zm.5-2.71a.63.63,0,0,0-.28.17q-.19.16-.16.23s0,.05.12.11l.13-.06.13-.19.13-.19S27.52,29,27.48,29Zm-.22,3.36a.15.15,0,0,0-.12-.08.07.07,0,0,0-.08,0s0,0,0,.05l.09.14C27.21,32.35,27.26,32.31,27.26,32.32Zm-.07,1a.55.55,0,0,0,.11-.13.58.58,0,0,1,.11-.13.36.36,0,0,1,.16-.08.37.37,0,0,0,.16-.08s0,0,0-.1l.38-.26.16-.14-.13,0H28a1,1,0,0,0-.38.18l-.3.32-.3.32a.35.35,0,0,0-.06.15h.11A.09.09,0,0,0,27.19,33.32Zm0-7v0s0,0,0,0v0Zm.05,4.74v0h0l0,0Zm0-3.83,0,0s0,0,0,0l0,0Zm.07-.25v0l0,0Zm0,5.08h-.06l0,.05.06,0Zm0-1.21,0,0H27.4Zm.51,3c.17,0,.21-.07.13-.16a.37.37,0,0,0-.09-.09s-.06,0-.06,0a1,1,0,0,0-.22.15,1.68,1.68,0,0,1-.25.17l.19,0,.17,0ZM27.58,28s0,0,0,0,0,0,0,0l0,0,.06,0Zm.26,3a.32.32,0,0,0-.16,0,.27.27,0,0,0,.06.14s0,0,0,0,0,0,0,0l0,0Q28,31.12,27.84,31Zm-.08,1.77v0Zm.33-1.14-.09,0-.1,0-.06.05.08.06.08.06,0,0ZM28,32a.06.06,0,0,0,0,0l-.08.06.09,0,.09,0s.06-.06.06-.08ZM28,29.16l-.08.05s0,0,0,.05a.51.51,0,0,0,.08.13l.11.15,0,0,0,0s0,0,0,0A1.24,1.24,0,0,0,28,29.16Zm.08,2.21s.06-.06.06-.08l-.06,0s-.06,0-.06.05S28.08,31.31,28.12,31.37Zm1.62,2.45H30a.32.32,0,0,0-.16-.17h-.13a.26.26,0,0,1-.13,0,1.65,1.65,0,0,1-.22-.1c-.06,0-.06-.11,0-.22s0-.06,0-.08a.11.11,0,0,1,0-.08l-.11,0-.11,0-.22.09a.19.19,0,0,0,0-.08.18.18,0,0,1,0-.07s0,0,0,0a.15.15,0,0,1,0-.09.11.11,0,0,0-.06-.09s0,0-.13-.06a.35.35,0,0,1,0,.17.7.7,0,0,1-.13.16c-.13.13-.24.15-.35.08s-.11,0-.13,0,0,0,0,.07a2,2,0,0,1,.11.24q0,.13.3.15a1,1,0,0,0-.28.22c0,.05-.05.09,0,.12a.45.45,0,0,0,.27,0,.67.67,0,0,0,.27-.1.24.24,0,0,0,.08-.13.23.23,0,0,1,.08-.13.36.36,0,0,0,.06.21.39.39,0,0,0,.22,0A3.82,3.82,0,0,0,29.74,33.82Zm-1.29-3.66a.46.46,0,0,0-.09.1.48.48,0,0,1-.09.1l.12.13.1-.15.06-.1S28.51,30.2,28.44,30.16Zm.45,2.14c0-.08.05-.13,0-.15s-.11,0-.25,0l0,0s0,0,0,0l-.13.24-.13.24h-.16a.06.06,0,0,1,0,0,.06.06,0,0,0,0,0l0,0,0,0v-.12A.54.54,0,0,0,28.9,32.3Zm-.57.73-.06,0v0s0,0,.06,0Zm.3-2.19a.14.14,0,0,1-.08,0,0,0,0,0,0,0,0l-.19.09.06,0,.06,0ZM28.3,31.9a.18.18,0,0,0,.13,0s0,0,0,0a.07.07,0,0,0,0-.05.32.32,0,0,1-.09-.09.16.16,0,0,1-.06.07S28.3,31.89,28.3,31.9Zm.35-.42a.76.76,0,0,1,.19-.26l-.17,0-.14,0-.06.05a.07.07,0,0,0,0,.05v0A1.34,1.34,0,0,0,28.65,31.49Zm.09.33,0,0s0,0,0,0,0,0,0,0l-.06.05S28.72,31.83,28.74,31.81Zm.4.56c-.09.1-.13.15-.13.13a.12.12,0,0,0,.06.05l.06,0a.15.15,0,0,0,.06-.1Zm.11,1.38,0,0v0Z"/><path class="cls-1" d="M46,26c0,2,0,3,0,5a1,1,0,0,1-.22.61q-.35.41-.66.82l-.67.85a.73.73,0,0,1-.6.26c-4.26.1-6.38.21-10.63.57l-.19,0c-.13,0-.16,0-.09-.13l.18-.25a1.59,1.59,0,0,1,.21-.25,2.18,2.18,0,0,0,.57-.94,4,4,0,0,0,.13-1c0-2.28,0-4.56,0-6.83s0-4.55,0-6.86a1.74,1.74,0,0,0-.06-.48,1,1,0,0,0-.25-.43,5.6,5.6,0,0,1-.45-.54q-.2-.28-.42-.54H44.27l.7.93c.24.32.49.63.74.93a1.06,1.06,0,0,1,.28.77v1.13c0,.14,0,.22-.06.25a.76.76,0,0,1-.35,0l-3.46,0a.65.65,0,0,1-.31,0s-.06-.11-.06-.23,0-.3,0-.5-.09-.2-.28-.2l-2.92,0a.23.23,0,0,0-.25.21,1.48,1.48,0,0,0,0,.28c0,4.29,0,6.43-.05,10.71q0,.37.08.42a1.53,1.53,0,0,0,.58,0l2.4-.09a.9.9,0,0,0,.38-.06s.06-.12.06-.28c0-2.07,0-3.1,0-5.17,0-.15,0-.24-.06-.27a.87.87,0,0,0-.38,0l-.88,0a.64.64,0,0,1-.32,0s-.06-.1-.06-.23c0-.69,0-1,0-1.72v-.78c0-.17,0-.26.06-.29a1.48,1.48,0,0,1,.44,0l3,0h2a1,1,0,0,1,.36,0s0,.12,0,.28C46,23.51,46,24.33,46,26ZM34.52,16.59a.49.49,0,0,1,.16-.16h0a.09.09,0,0,0,0,0,.09.09,0,0,1,0,0c-.1,0-.16.08-.16.09a.06.06,0,0,0,0,.08Zm.28,5.7,0,0,0,0s0,0,.06.07l.06,0A.08.08,0,0,0,34.8,22.3Zm-.12,4.27s0,0,0,0h.06a.37.37,0,0,0,.06-.12s0,0-.09-.07A.31.31,0,0,0,34.67,26.56Zm.09-3.26a.07.07,0,0,0,0,0,.08.08,0,0,1,0,0,.22.22,0,0,0,.13-.05s.06-.06.06-.07a.32.32,0,0,0-.16,0S34.76,23.27,34.76,23.3Zm.09,1.32a.25.25,0,0,1,.13,0l0-.08,0-.08h0v0a.19.19,0,0,0-.09,0l0,0,0,0,0,0h0A.45.45,0,0,0,34.84,24.62Zm0-8.08,0,0,0,0-.06,0Zm-.08,11.64.06,0,.06,0h-.13ZM34.82,33s0,0,0,0l-.06,0a.07.07,0,0,0,0,0ZM35,24.1,35,24l0,0,.09.07v.09a.11.11,0,0,0,.06.09s0,0,0,0a.2.2,0,0,0,0-.11l-.06,0Zm0,.68s-.06.06-.06.07a.12.12,0,0,0,.06.09l0,0,0,0,0-.06Zm0,1.3,0,0,.06.07.06.07a.06.06,0,0,1,0,0,.06.06,0,0,0,0,0L35,26.1Zm.07,4.46v0h0v0Zm.06.48a.07.07,0,0,0,0,0l0,0-.06,0Zm.06-14.65.31.09.13,0a.19.19,0,0,0-.09,0l-.14,0-.17,0Zm0,4.72s-.06,0-.06,0l.06,0,.06,0Zm-.07,1.3s0,0,0,0l0,0h-.06Zm.06.9a.48.48,0,0,1,.09.15.45.45,0,0,0,.09.15l.06,0a0,0,0,0,1,0,0,0,0,0,0,0,0,0l-.06-.17-.06-.15-.06,0-.06,0s0,.05,0,.06A0,0,0,0,0,35.2,23.31Zm.07-.33,0,0v0Zm.12,1.37,0,0s.06,0,.06,0l0,0ZM35.49,27a0,0,0,0,0,0,0s0,0,0-.06l-.06,0s0,0,0,.09Zm.05-7.92,0,0,0,0s0,0,.06,0h.06A.17.17,0,0,0,35.54,19.07Zm-.1,6.09,0,0h0Zm0-6.43h0v0h0Zm.05,1.79.06.14a.86.86,0,0,0,.1-.19l-.06,0Zm0,12.16s0,0,.06-.07l-.06,0-.06.05Zm.07-15.9s0,0,0,0,0,0,0,0l.06,0h-.06Zm.17,7.09s0,0,.1,0c.23-.18.24-.39,0-.65a1.71,1.71,0,0,1-.32.26c.1,0,.15.1.14.18A.28.28,0,0,0,35.82,23.87ZM35.67,23a.22.22,0,0,0,.13,0,.49.49,0,0,0,.13-.21.5.5,0,0,1-.12-.14.3.3,0,0,0-.06.14.16.16,0,0,0,0,.08.17.17,0,0,1,0,.08Zm0,1.37h0v0Zm0,7.56,0,0,0,0,.06-.05Zm.06-9.74,0,0,0,0h-.06Zm0,11.09a1,1,0,0,0,.19-.13l-.06,0-.08.07-.08.08Zm.1-15.56a.06.06,0,0,0,0,0l.06,0a.07.07,0,0,0,0,0Zm0,8.09a0,0,0,0,1,0,0,0,0,0,0,0,0,0l-.06,0a0,0,0,0,1,0,0,0,0,0,0,0,0,0Zm-.07,1.51s0,0,.06-.07h0l0,0h0s-.06,0-.06,0h0S35.71,27.34,35.71,27.35ZM36,16.82l-.13.09L36,17l.14,0a.19.19,0,0,0,.09,0l-.14-.08Zm-.06,4a.06.06,0,0,1,0,0l.06,0a.06.06,0,0,0,0,0h-.06Zm.1,3.73a.08.08,0,0,0,0,.07c.06,0,.09,0,.09,0l.11-.1s0-.06-.08-.09-.06-.05-.06-.07l0,0,0,0,0,0Zm.12,1.13a.16.16,0,0,0-.1,0l-.06,0a.18.18,0,0,0,.09,0Zm-.13.42v0s0,0,0,0Zm0,4.84.06-.1a.05.05,0,0,1,0,0,0,0,0,0,0,0,0,0,0,0,0,1,0,0,0,0,0,0,0,0,0S36,30.9,36.06,30.93ZM36.13,19v0h0v0Zm0,2.41h.06l0,0-.06,0Zm.07,3.91.13,0s.05,0,.1-.07l-.13,0Zm.07-1.28,0,0v0Zm.07-1.25a.06.06,0,0,0,0,0h.06l-.06,0ZM36.45,19s-.06.06-.06.07,0,0,0,0a.14.14,0,0,1,.06.06s0,0,.06-.07Zm0,11a1,1,0,0,0,.19-.13s0,0,0,0l-.08,0-.16.12A.36.36,0,0,0,36.41,30Zm.09-10.34.22,0-.19-.09c-.06,0-.09,0-.09.07S36.46,19.66,36.51,19.66Zm.08-3.1s-.06.05-.06.07l.06,0s0,0,.06,0l0,0Zm0,7s0,0,0,0h-.06l0,0Zm.13-1.07a.06.06,0,0,0,0,0s0,0-.06,0l0,0S36.74,22.51,36.74,22.52Zm0,7.72a.34.34,0,0,0,.13-.08l-.13-.06h-.06l0,0A.31.31,0,0,0,36.73,30.24Zm.17-13.79.09-.07s-.07,0-.08,0a.05.05,0,0,0,0,0,.32.32,0,0,0-.13.07Zm-.17,8s0,0,0,0v0s0,0,0,0Zm.21,8.21v0l0,0Zm.12-9.7v0l0,0Zm.07,3.57s0,0,0,0v0s0,0,0,0Zm.1-1.46v0l0,0Zm0-6.07s0,0,0,0h0Zm0,12.75s0,0,0,0h0v0Zm0-9h0v0h0Zm0,2.89.06.08.13-.05-.09-.08-.06-.08-.06,0A.11.11,0,0,0,37.32,25.66Zm.13,5a.52.52,0,0,0,.19-.12.18.18,0,0,1-.1,0l0,0-.13.1A.11.11,0,0,0,37.45,30.62Zm1.1.91a1,1,0,0,1,.16-.2.74.74,0,0,0,.16-.2l-.24.15-.27.15a.62.62,0,0,0,0-.23s0-.06-.13-.09a.69.69,0,0,1-.18.13.5.5,0,0,0-.17.16c-.11.11-.06.19.13.22l-.11.07a.19.19,0,0,0-.08.07c0,.05-.05.13-.1.2s0,.12,0,.15a.17.17,0,0,0,.2,0,1.59,1.59,0,0,0,.24-.1,1,1,0,0,0,.17-.26C38.43,31.7,38.5,31.61,38.55,31.53Zm-.35.78s0,0,0,0h0l0,0ZM38.91,17l0,0a0,0,0,0,0,0,0,0,0,0,0,1,0,0L39,17l0,0Zm.18,1s0,0,0,0,0,0,0,0a.06.06,0,0,0,0,0l.06,0Zm.5,14.33a.69.69,0,0,1,.13-.18.18.18,0,0,0,.06-.13s-.05-.06-.16-.13a.31.31,0,0,0-.09.12.31.31,0,0,1-.1.12A.9.9,0,0,0,39.59,32.29Zm-.09-.77.09.05.09.05s0,0,0,0,0,0,0,0l-.11,0-.11,0h0Zm0,1.51.09-.07s0,0,0,0,0,0,0,0l-.09.07S39.48,33,39.53,33Zm.54,0,.35-.15-.17-.1-.11-.08a.54.54,0,0,0-.19.21s0,0,0,.07A.19.19,0,0,0,40.06,33.07Zm.1-1.95a1.11,1.11,0,0,0-.22.17l.06,0,0,0,0,0a.7.7,0,0,0,.19-.21s0,0,0,0Zm.44.74v0h0Zm.34-13.73c-.13.06-.2.12-.22.18s0,0,0,.06l.11.06.13-.09.19-.09a.66.66,0,0,1-.16-.09Zm-.25,14.8h0v0Zm.79-9h-.06l0,0Zm.61,7.19a.06.06,0,0,0,0,0h0v0Zm.08-6.85v0l0,0Zm.33,5.91h0s0,0,0,0Zm.07-13.45s0,0,0,0,0,0,0,0h0l0,0Zm.16.75v0h0v0Zm0,14.28v0h-.06v0Zm.07-14.63-.06,0,0,0,.06,0Zm0,5.69h0v0ZM43,30.49v0h0s0,0,0,0Zm0-5.12H43s0,0,0,0A.06.06,0,0,0,42.93,25.37Zm.15,3.45c.06,0,.09,0,.09,0s0,0-.06-.07,0,0-.06,0,0,0,0,0,0,0,0,0Zm0-1.52,0,0a.06.06,0,0,0,0,0h-.06Zm.05-9h0v0Zm0,.71,0,0v0s0,0,0,0Zm.26-2.48h0v0Zm.09,14.29v0l0,0h-.06l.06,0v0Zm0-13.88v0l.06,0Zm.25,1.52c-.17.09-.23.19-.19.3s0,0,.09,0l.06,0,.14-.11.14-.11s-.06-.08-.06-.1a.07.07,0,0,0,0-.06S43.82,18.45,43.74,18.48Zm-.16-.41h0l0,0h-.06Zm.25,1.32,0,0v0Zm0-1.2h0s0,0,0,0Zm0,11.58-.06,0,0,0,0,0Zm0,2.27A.22.22,0,0,0,44,32l-.06,0-.06,0-.06,0,0,0S43.84,32,43.86,32Zm.06-14.9,0,0,0,0,0,0Zm.19.48-.06-.09a.21.21,0,0,0-.13,0l0,.07h.16Zm-.11.23s0,0,0,0l-.06,0s0,0,0,0,0,0,0,0l.06,0S44,17.84,44,17.84Zm.08,8.92.08,0L44,26.65a.33.33,0,0,0-.13.07l.09.07S44.07,26.78,44.08,26.76Zm0,3.63,0,0s0,0,0,0l0,0S44.06,30.38,44.06,30.4Zm.17-7.79-.06,0-.06,0,0,0,0,0Zm0-4.61s0,0,0,0l.06,0s0,0,0,0Zm.13,11.87-.09,0,0,0,0,0s0,0,0,0,0,0,0,0Zm-.07,1.91s0,0,0,0v0s-.06,0-.06,0Zm0-7.06a.08.08,0,0,0,0,.07v.09a.12.12,0,0,0,.06-.09,0,0,0,0,0,0,0A0,0,0,0,1,44.35,24.72Zm0-7,.06,0v0s0,0,0,0Zm.05,5.42,0,0,0,0L44.48,23l-.1.07s0,0,0,0S44.43,23.17,44.45,23.17Zm0,3.88,0,0h-.06l.06,0Zm-.1,3.13.06,0,0,0Zm.15-11.8s0,0,0,0h0a.06.06,0,0,0,0,0Zm.07-1-.06,0,.06,0a0,0,0,0,1,0,0,0,0,0,0,0,0,0Zm0,5.13h0v0Zm.16-3.7-.16.14.08,0,.08,0a.08.08,0,0,1,0-.07.08.08,0,0,0,0-.07s0,0,0,0ZM45,22.49a.2.2,0,0,0,.19-.07.28.28,0,0,0,.1-.2h-.06s0,0,0,0l-.17.1-.17.1A.44.44,0,0,0,45,22.49Zm0,.43a.55.55,0,0,1,0-.11.07.07,0,0,0,0,0s0,0-.06,0l-.09.07S44.86,22.86,44.92,22.92Zm.2-4.88H45l.1,0a.36.36,0,0,1,0,.1.36.36,0,0,0,0,.1.12.12,0,0,0,.06.09.21.21,0,0,1,.08-.07s0,0,0,0l-.06-.09-.09-.09Zm.16.73a.05.05,0,0,1,0-.06.05.05,0,0,0,0-.06.05.05,0,0,0,0-.06.13.13,0,0,1-.06-.06s-.06.06-.06.09Zm-.08,11s0,0,0,0l0,0h0Zm.06.61s0,0,0,0,0,0,0,0l0,0,0,0Zm0-.29v0h0v0Zm0-6.89,0,0v0l0,0Z"/><path class="cls-1" d="M61.17,15.8c.23,0,.35,0,.38,0s0,.12-.12.26l-.31.43a4.63,4.63,0,0,1-.34.43.92.92,0,0,0-.25.65c0,1.19,0,2.38.06,3.56s0,2.37,0,3.56c0,2.64,0,4,0,6.59a.89.89,0,0,1-.25.63,9,9,0,0,0-.64.77c-.2.27-.41.53-.64.79a.66.66,0,0,1-.63.24c-2.57-.17-5.14-.27-7.69-.31a.63.63,0,0,1-.57-.26q-.35-.41-.67-.82t-.67-.82a1.06,1.06,0,0,1-.22-.66c0-2.66,0-4,0-6.64V17.61a1,1,0,0,0-.28-.73c-.1-.15-.22-.3-.33-.44L47.69,16c-.09-.11-.11-.19-.09-.2a1.07,1.07,0,0,1,.31,0h5.67a.71.71,0,0,1,.31,0s0,.1-.09.22-.25.32-.37.47-.25.3-.37.47a.86.86,0,0,0-.19.52c0,5,0,7.52,0,12.54v.09a.37.37,0,0,0,.1.23.67.67,0,0,0,.32.05h.06l1.28.05c.43,0,.86,0,1.28,0a1.3,1.3,0,0,0,.38,0s.06-.12.06-.28V30q0-3.12,0-6.18c0-2,0-4.1,0-6.16a1.34,1.34,0,0,0-.32-.85c-.13-.14-.25-.28-.36-.42L55.31,16c-.08-.11,0-.16.16-.16h5.71Zm-11.82.66.06-.09h-.17l-.17,0h-.22l0,.09s0,0,0,0Zm0,.34,0,0,0,0s0,0,0,0a.06.06,0,0,0,0,0s0,0,.1,0V17h.06s0,0,0,0a.07.07,0,0,0,0,0v0l0,0ZM49.3,27.45s0,0,0,0,0,0,0,0v0l-.06,0Zm.12-2.72c.08-.07.1-.13,0-.17l-.14-.13c.15,0,.22-.08.22-.15a.43.43,0,0,1,.06-.22h0v0l0,0a.19.19,0,0,1,0-.08.19.19,0,0,0,0-.08.33.33,0,0,0-.19,0c-.06,0-.09.08-.09.11a.85.85,0,0,0,0,.23v.23c-.06.06-.07.11,0,.16Zm.09-4.1a.24.24,0,0,1,0-.12c0-.05,0-.09-.14-.1l0,.12a.46.46,0,0,0,0,.12q-.06.27.28.25h0A2.58,2.58,0,0,1,49.51,20.63ZM49.33,22a.39.39,0,0,1,0,.1.39.39,0,0,0,0,.1.31.31,0,0,0,.08.08l.11.08c.08-.06.13-.1.13-.11a1.1,1.1,0,0,0-.22-.25Zm.35.7c0-.09,0-.14,0-.16s-.09,0-.19,0-.18.07-.17.11a.74.74,0,0,1,0,.16.06.06,0,0,0,0,0l.06.07.16-.18.1-.07,0,0,.06.08.06.08.06,0-.09-.06-.1-.06S49.69,22.67,49.67,22.67Zm-.16-1.22a.38.38,0,0,0-.17.17.14.14,0,0,0,0,.17.09.09,0,0,0,.09,0,.24.24,0,0,1,.13,0v-.14a.2.2,0,0,1,0-.11.33.33,0,0,0,0-.14l0,0S49.52,21.43,49.52,21.44Zm-.09-.36q-.06.23.28.18s.07,0,.08,0a.13.13,0,0,1,.08-.06l-.08,0-.08,0h-.28l0,0,0,0,0,0Zm0-1.68v0s0,0,0,0l0,0Zm.67,4.65h.06s0,0,.06-.07a.13.13,0,0,1,0-.07s0,0-.06-.07l-.31-.15-.32-.17h-.09v.09l.22.16a1.2,1.2,0,0,0,.25.1.29.29,0,0,1,.19.17Zm-.69,3.12,0,0v0Zm0,.7v0l0,0Zm0-9.22s0,0,0,0,0,0,0,0,0,0,0,0S49.4,18.66,49.42,18.66Zm0,1.29a.08.08,0,0,0,0-.07v0l.16-.07a.22.22,0,0,0-.13,0,.2.2,0,0,1,0,.11v0a0,0,0,0,1,0,0,0,0,0,0,0,0,0,.12.12,0,0,0,.06.09s0,0,0,0,0,0,0,0S49.47,20,49.45,19.95Zm0,9.16.06,0,0,0s0,0,0,0S49.46,29.07,49.46,29.1Zm.15-10.95a.44.44,0,0,0-.13.11s.05.09.16.09l.11,0,.11,0Zm0,9.47a.14.14,0,0,1,.06-.06.14.14,0,0,0,.06-.06s0-.05-.13-.11-.13.11-.13.14S49.53,27.6,49.62,27.63Zm-.1-9.72h0l0,0ZM49.58,25s0,0,0,0v0l.06,0,.06,0h.09l.09,0,.06,0s0,0,0,0h-.19l-.06,0A.24.24,0,0,0,49.58,25Zm.07,5.58-.06,0s0,0,0,0,0,.05.06,0Zm-.08-13.28v0h0a.31.31,0,0,1,.06-.18v0a1.07,1.07,0,0,0,.25-.25s0,0,0,0l-.11-.07c-.06,0-.09.08-.09.09V17l-.09.18v0Zm0,8.32s0,0,0,0,0,0,0,0l.06,0,0,0Zm0,4.35,0,0h0Zm0,.34,0,0v0Zm.12-3.65-.09,0,0,0s0,0,0,0l.22,0-.13,0Zm.05-10.2-.09,0s0,0,0,0,0,0,0,0,0,0,0,0l.25,0-.13-.09A.16.16,0,0,0,49.76,16.43Zm.18,9a0,0,0,0,1,0,0s-.06,0-.06,0h0s0-.07,0-.07a.22.22,0,0,0-.13,0s0,0,0,0,0,0,0,0a.16.16,0,0,0,.09,0h0s0,0,0,0l.06,0A0,0,0,0,0,49.94,25.4ZM50.3,22l-.13,0-.06-.2a1.38,1.38,0,0,0-.09-.2,1.11,1.11,0,0,0-.06-.23l0,0,0,0-.14.12c-.05,0-.06.09,0,.17l.1.14a.12.12,0,0,0,0,.07s0,0,0,.07a.12.12,0,0,0,.16.14l.11-.06.11-.06v.11l.09.07C50.31,22.07,50.32,22,50.3,22Zm-.4,4h.16c-.06-.08-.11-.11-.13-.11h-.22l.06.09A.23.23,0,0,0,49.9,25.94Zm-.16-2.6h0v0Zm.5-.2a.54.54,0,0,1-.13-.11l-.09.11H50l-.09,0-.09,0v.09a.26.26,0,0,0,.16,0l.09-.07Zm-.44,3.31,0,0v0Zm0-4.08,0,0h0a0,0,0,0,0,0,0,0,0,0,0,1,0,0Zm.1,5.42,0,0s-.06,0-.06,0l0,0Zm0,3.29v0l-.06,0h0s0,0,0,0ZM50,24.37s0,0,0,0l.06,0-.06,0s0,0,0,0a.19.19,0,0,0-.09,0A.19.19,0,0,0,50,24.37Zm-.09.25c0,.06,0,.1,0,.11H50l0-.06ZM50,19.84a.14.14,0,0,0,0,.07A.14.14,0,0,1,50,20L50,20c.06,0,.09-.08.09-.09S50.13,19.87,50,19.84Zm0,7,0,0h.06s0,0,0,0,0,0,0,0Zm.05-7.69s0,0,0,0,0,0,.06.07l0,0,0,0-.09-.07Zm0,11.25a.16.16,0,0,0,0-.09s0,0-.06-.07a.08.08,0,0,0,0,.07Zm0-9.52s.07,0,.08,0,0,0,.08,0l0,0,0,0a.22.22,0,0,0-.13,0,.09.09,0,0,0-.06,0s0,0,0,.06S50.11,20.9,50.18,20.9Zm0,4.74s0,0-.06,0l-.06,0s.06.05.06.07Zm0-.23h0l0,0Zm.13,3.45s.06,0,.06,0l-.09-.07v-.14h0s0,0,0,.06,0,0,0,.06v0A.16.16,0,0,1,50.31,28.86Zm0-11.68v0a.33.33,0,0,1,.16,0h0c0,.14.17.19.31.25s.09,0,.09,0,.05-.07,0-.07l-.38-.16h-.19Zm0,1.41s0,0,0,0v0h0Zm.22,3.18a.94.94,0,0,0-.16-.2s-.06.05-.06.07l.16.18Zm-.22.59.09.11.09-.07a.41.41,0,0,0-.09-.09Zm.13,1.36.09-.07a.55.55,0,0,1-.13-.11s0,0,0,0,0,0,0,0Zm.21-4.29.16,0s0,0,0,0l-.13.07h-.13l-.06,0-.06,0h.13l.13,0v0Zm-.21,8.75s0,0,0,0h0s0,0,0,0Zm0-10v0l.06,0s0,0,0,0ZM50.52,20h-.06l0,0h.06Zm0,6s0,0,0,0h0s0,0,0,0Zm0-7.24s0,0,0,0l.06,0-.06,0Zm.13,1.79,0,0,0,0v0Zm0,.32h0l0,0-.06,0Zm.14,7.26A.36.36,0,0,0,51,28c.07-.06.11-.11.11-.16l-.06,0,0,0-.19.11L50.6,28Zm.05-6.22a.49.49,0,0,0,.08-.16s0-.09-.11-.14,0,0-.09,0v.07l.06.13.06.13h0l0,0h.06Zm-.1-5.51a.13.13,0,0,0,.06.06l.06,0s0,0,0,0l.06,0-.16-.09Zm0,4.83,0,0h0s0,0,0,0,0,0,0,0Zm.13,1s0,0-.06,0l0,0a0,0,0,0,0,0,0,0,0,0,0,1,0,0Zm.09-5.4-.06-.09h-.09a.1.1,0,0,0,0,.09Zm-.12,5.85,0,0v0Zm0,.34,0,0v0S50.79,23,50.81,23ZM51,32.39h0l0,0v0l-.13,0v0Zm0-8.44v0h0s0,0,0,0Zm0,.39-.06,0,.06,0,.09-.07A.15.15,0,0,1,50.94,24.33Zm0-4.11c.13.08.16.15.11.21l-.14.18a.15.15,0,0,0,0,.09c.08,0,.13,0,.13,0l.13-.15a1.25,1.25,0,0,0,.13-.15c0-.08-.08-.21-.25-.23S51,20.18,51,20.22Zm.31,12.68.16-.08-.16-.09-.16.08-.16.08.16.07ZM51,31.39l0,0h0Zm0-13v0l0,0Zm.25,1.43-.06-.07-.09-.07-.06.11s0,.07.09.07Zm-.18,3.43a0,0,0,0,1,0,0,0,0,0,0,0,0,0s0,0,0,0l.06,0v-.09Zm0-1.93s0,0,.06,0,0,0,0,0l-.06,0S51.09,21.3,51.09,21.31Zm.08,7.56a1.45,1.45,0,0,0,.35-.15l-.09-.07s0,0,0,0l-.14.09-.14.09Zm-.06-12.28a.06.06,0,0,0,0,0v0Zm0,10.24s0,0,0,0l.14,0,.14,0-.06-.07A.62.62,0,0,1,51.13,26.83Zm0-9.76h0v0l.06,0Zm0,12.8a0,0,0,0,0,0,0,.08.08,0,0,1,0,.06c.08-.06.13-.1.13-.11s0,0-.06,0l-.06,0S51.2,29.84,51.2,29.87Zm.1-11.46c-.06,0-.07,0,0,0l.06,0,0,0,0,0A.16.16,0,0,0,51.3,18.41Zm.06-1.66s-.06,0-.06.07l0,0s0,0,0,0a.47.47,0,0,0,.25,0l.11-.06c.05,0,.08,0,.08-.06s-.06-.13-.13-.07-.12.08-.16,0Zm.26,5.2v0l-.09-.07-.09-.07h-.06l-.06,0a.93.93,0,0,0,.06.3h.13A.84.84,0,0,0,51.62,22Zm-.19,1.29.16-.09-.13,0,0,0,0,0Zm0,.36v0l0,0v0Zm0-4.59.06.09,0-.06,0-.06s0,0,0,0-.06,0-.06,0S51.4,19,51.4,19Zm.15,13.06a.15.15,0,0,0,0,.09h.06a1.82,1.82,0,0,1,.22-.27l0,0-.06,0a.45.45,0,0,0-.11.11A.44.44,0,0,1,51.55,32.08Zm.07-12.42h0s0,0,0,0,0,0,0,0Zm0,3.22s0,0,.06.07l.09,0-.09-.07S51.59,22.86,51.59,22.89Zm0,5v0h0Zm.13,1.23.13,0A.29.29,0,0,0,52,29l0,0,0,0,0,0-.22.13Zm0,3.93.11,0L52,33s0,0-.06,0a.73.73,0,0,0-.25,0l0,0Zm0-1.36s0,0,0,0v0l0,0Zm0-6.61h.06a.06.06,0,0,1,0,0h0Zm.15-3.91a.06.06,0,0,1,0,0l0,0h.06Zm0,3.59c.08,0,.13.05.13.07a1.88,1.88,0,0,0,.28-.16.49.49,0,0,0-.16-.09Zm0,5.73,0,0s0,0,0,0Zm0-13.27v0l0,0Zm.07,14.27s0,0,0,0v0l0,0Zm0-5.09v0l0,0ZM52,17h0l0,0Zm.13,3h-.09s0,0,0,0v0l0,0,0,0A.08.08,0,0,1,52.15,20.07Zm.19,10.85a.19.19,0,0,1,0-.11h-.06a.2.2,0,0,1,0,.11l0,0v0a1.18,1.18,0,0,1-.13.27h0l.09-.27,0,0Zm.38.78s0,0,0,0h-.09v0Zm.16,1.16,0,0v0Zm1.23-1.26h0Zm.19-.47,0,0v0Zm.7,1.44a.18.18,0,0,0-.1,0l-.06,0,.06,0Zm-.1-1.33v0h0v0Zm.2,1.84s0,0,0,0,0,0,0,0l-.06,0v0s0,0,0,0S55.1,33.07,55.1,33.08Zm.56-1.67s0,0,0,0a.06.06,0,0,1,0,0h0Zm.35,0,0,0h0l0,0Zm.16.95h.1a.06.06,0,0,1,0,0s-.06,0-.06,0Zm.15-.82a.42.42,0,0,0,.27-.1.49.49,0,0,0,.17-.2.08.08,0,0,0,0,0,.08.08,0,0,1,0,0,.43.43,0,0,0-.25,0,.46.46,0,0,0-.25.18.07.07,0,0,1,0,0,.08.08,0,0,0,0,0,.13.13,0,0,0,.06.09S56.32,31.52,56.32,31.51Zm.09-15.23a.19.19,0,0,0,.09,0h0l0,0,0,0s0,0,0,0l-.13,0h0A.2.2,0,0,0,56.41,16.28Zm.2,16.37s0,0,0,0l-.06,0v0s0,0,0,0S56.61,32.63,56.61,32.65Zm.63-.38a.3.3,0,0,0,.14-.12L57.5,32l-.11-.05-.08,0-.19.13-.19.11h-.09a.21.21,0,0,1,.09.05v0Q57.05,32.37,57.24,32.27ZM57,21.61s0,0,0,0,0,0,0,0a.08.08,0,0,0,0,0,.09.09,0,0,1,0,0l0,0,.08,0Zm.19.85-.08,0,0,0s0,0,0,.07l.06-.07.06-.07Zm-.06-4.83-.06,0a.06.06,0,0,0,0,0h.06A.07.07,0,0,0,57.14,17.64Zm.21-1.13-.06.1-.06.1s0,0,0,0l0,0a.39.39,0,0,0,.09-.09.4.4,0,0,1,.09-.09Zm0,11.2s0,0,0,0a.06.06,0,0,1,0,0h0S57.38,27.73,57.38,27.72Zm.08,3.43s0,0,0,0v0l-.06,0S57.44,31.15,57.46,31.15Zm0-10.75.08,0a.05.05,0,0,0,0,0l.13-.09-.16,0Zm.1,12.66v0h0Zm.5-.5c.1,0,.16,0,.16-.06s-.07-.14-.19-.13l-.32.05,0,0,0,0,.13.05h.16l.06,0ZM57.69,21.1l.06-.09h-.06s-.06.05-.06.07Zm.09,10.57s0,0,0,0,0,0,0,0l-.06,0a.08.08,0,0,0,0,.07ZM57.67,17v0l0,0Zm.18,9.79s0,0,0,0v0l.06,0s0,0,0,0S57.85,26.76,57.85,26.75Zm0-1.34s0,0,0,0v0l.06,0s0,0,0,0S57.87,25.43,57.87,25.41Zm0,3.41v0Zm0-12.54-.06,0s0,0,.06.07l.06,0a.06.06,0,0,1,0,0s0,0,0-.06S57.91,16.32,57.91,16.28Zm0,7.68v0H58v0Zm0,9h0l0,0Zm0-14.66,0,0,0,0,0,0ZM58,18a.35.35,0,0,1,.09-.09l-.06,0A.2.2,0,0,0,58,18Zm0,4.57,0,0h0s0,0,0,0,0,0,0,0Zm0,8.37,0,0v0Zm0-1.82s0,0,0,0h.06l-.06,0Zm.25-10.9-.08,0-.08,0,0,0,0,0a.33.33,0,0,1,.16-.09h-.06S58.3,18.24,58.3,18.22Zm0,13.87,0,0v0Zm0-10.43h-.06l.06,0,0,0S58.31,21.68,58.29,21.66Zm.28,10.72-.06,0-.06,0-.06,0s0,0,0,0,0,0,0,0h0v0h0a.06.06,0,0,0,0,0l.08,0,.08,0Zm-.17-1.53c.06,0,.15,0,.25-.15s.14-.18.13-.22l0,0s0,0,0,0l-.22.15-.19.15s0,0,0,.06Zm-.07-12.17.11,0,.11,0-.09-.07-.1,0-.06,0-.06,0A.47.47,0,0,0,58.34,18.69Zm0,3.55a0,0,0,0,0,0,0,0,0,0,0,1,0,0l.13,0-.09,0Zm.14,3.33c-.08,0-.13.06-.13.09l.06.12.09-.08a.21.21,0,0,1,.09-.05.17.17,0,0,1-.08,0A.06.06,0,0,0,58.44,25.57Zm.07-9.28a.15.15,0,0,1-.06.06l-.09.06.1.07.16-.14A.2.2,0,0,0,58.51,16.28Zm0,3.3.06.09a.35.35,0,0,1,.09-.09l-.06,0,0,0Zm.14-2.77h-.06s0,0,0,0h.06Zm0,7.7,0,0h0Zm0,.35s0,0,0,0v0Zm0,7.81.06,0Zm0-10.37.06,0-.06,0,0,0s0,0,0,0S58.7,22.28,58.7,22.29Zm0,.53s0,0,0,0v0l0,0Zm.08,3.54,0,0s0,0,0,0,0,0,0,0v0Zm-.08-8.51h0l0,0Zm0-.39,0,0a0,0,0,0,0,0,0s0,0,0,0l.14,0,.17-.07L59,17.33l0,0Zm.07,12.09s0,0,0,0h0v0Zm.08,2.36s0,0,0,0,0,0,0,0,0,0,0,0a.07.07,0,0,0,0,0Zm-.09-15.47v0h0v0Zm.05,8.88a.06.06,0,0,0,0,0l.06,0,0,0Zm.09-.18s0,0,0,0h0v0Zm.23,1.4c-.1,0-.17,0-.19,0l-.06.14a.08.08,0,0,0,0,.07l.06.07a1.2,1.2,0,0,0,.31-.15C59.24,26.6,59.19,26.54,59.17,26.54Zm-.15,6,.06,0L59,32.41s0,0,0,0,0,0,0,0S59,32.47,59,32.5Zm.09-1.24a.38.38,0,0,0,.27-.08.27.27,0,0,0,.11-.23.28.28,0,0,0-.41,0c-.08.07-.11.14-.09.2S59,31.25,59.1,31.26Zm.4-1.95c-.11-.05-.17-.07-.19-.06a.78.78,0,0,0-.25.1c0,.08.09.12.13.12l.13,0,.13,0a.06.06,0,0,0,0,0S59.48,29.33,59.5,29.31Zm-.37-8.23,0,0H59.1s0,0,0,0,0,0,0,0Zm.08,2.57h-.06l0,0a.07.07,0,0,1,0,0Zm-.08-7.34h.06l0,0-.06,0Zm0,2,.06,0v0s0,0,0,0S59.15,18.29,59.15,18.3Zm.17,7-.06.09.06,0s.06-.05.06-.07S59.36,25.33,59.32,25.3Zm0-1.28.06,0s0,0,0,0,0,0,0,0h-.06Zm0-7.43,0,0,0,0,0,0Zm.07,11.86,0,0s0,0,0,0a.06.06,0,0,0,0,0ZM59.5,30a.13.13,0,0,1,.06-.05.14.14,0,0,0,.06-.05s0,0-.09-.1a.14.14,0,0,1-.06.05l-.09.05Zm-.08-12.38h0l0,0,0,0Zm0,6.68s0,0,0,0,0,0,0,0l0,0Zm.24-7.21-.13,0-.12.07,0,0,.06.06a1.17,1.17,0,0,0,.28-.14A.33.33,0,0,0,59.71,17.1ZM59.57,21a.11.11,0,0,0,0-.09l-.06,0-.06,0v.09C59.54,21.06,59.57,21,59.57,21Zm.6-4.61a0,0,0,0,0,0,0,.15.15,0,0,1,0-.06l-.19,0-.22,0c-.15,0-.22.05-.22.16h0v0s-.06.05-.06.07h0a0,0,0,0,1,0,0,0,0,0,0,0,0,0v0h.57Zm-.23,12.75c-.08,0-.14,0-.16,0s-.06,0-.06,0,0,0-.06,0l.13.05S59.88,29.23,59.94,29.15Zm-.2-11.66v0h-.06l0,0Zm.08,12.69h0v0Zm.07-3.43,0,0h0Z"/><path class="cls-1" d="M79.94,36.33c.1.14.06.2-.12.16l-.59-.11c-2.09-.39-3.14-.57-5.23-.9a1.11,1.11,0,0,1-.25-.06s-.06,0-.06-.11,0-.1.12-.16l.36-.48c.11-.15.27-.31.39-.47a.55.55,0,0,0,.09-.47q-.16-.5-.29-1t-.29-1a.66.66,0,0,0-.13-.27.65.65,0,0,0-.31-.09c-1.59-.19-2.39-.28-4-.45a.6.6,0,0,0-.31,0,.46.46,0,0,0-.12.23q-.15.47-.27.92t-.27.89a.66.66,0,0,0,.1.45c.12.19.29.39.41.58s.26.39.41.59.09.2.08.22-.09,0-.23,0c-2.33-.3-3.5-.43-5.83-.65-.17,0-.26,0-.28-.07s0-.09.09-.18.26-.32.39-.47.25-.33.36-.48a1.75,1.75,0,0,0,.28-.52q1.17-3.73,2.3-7.53T69,17.17a.62.62,0,0,0-.13-.59,4.17,4.17,0,0,1-.29-.39,4.65,4.65,0,0,0-.29-.39h6.49l-.31.47a5,5,0,0,1-.31.44.72.72,0,0,0-.12.66c.17.59.35,1.19.54,1.79s.36,1.2.53,1.8q.94,3.23,1.85,6.5t1.84,6.71a3.82,3.82,0,0,0,.45,1c.11.19.22.39.33.58S79.82,36.14,79.94,36.33ZM65.43,33.56l.06,0s0,0,0-.05l-.06,0Zm.11-1.37,0,0-.06,0S65.52,32.19,65.54,32.19ZM66,30.53l0,0v0Zm.08,2.3v-.07s0,0,0,0,0,0,0,0,0,0,0,0v0Zm.05-.88.06,0,.06,0-.09-.06a.11.11,0,0,0-.06.09Zm.08,1.35,0,0,0,0v0Zm.06-3.7v.17c.08-.06.12-.1.12-.13v-.1Zm0,2.68.06,0v0l-.06,0Zm.39,1a.67.67,0,0,1,.19.07.08.08,0,0,0,0-.06s0,0,0-.06l-.16.06a.23.23,0,0,0-.09-.06H66.4v.07l.1,0a.14.14,0,0,0,.09,0A.17.17,0,0,0,66.68,33.3Zm-.21-2.49h0l0,0Zm.1-2.7,0,0,.06,0,0,0Zm0,.26v0l0,0Zm.12,2.86s0,0,.06.08l.06,0a.23.23,0,0,0-.09-.06Zm0-3.38s0,0,0,0,0,0,0,0h.06Zm.19,3.69a.07.07,0,0,1,0-.05H66.8s0,0,0,0Zm-.09.76s.07,0,.08,0,0,0,0,0a.19.19,0,0,0,.13,0l0-.05,0-.05Zm.32.56a.78.78,0,0,0,.22-.1l.22-.12a1,1,0,0,0-.19-.14.27.27,0,0,0-.24.06.26.26,0,0,0-.14.21A.34.34,0,0,0,67.12,32.87Zm0-3.85s-.06,0-.06,0l0,0h.06A.07.07,0,0,1,67.12,29Zm.27,2.24.31-.14L67.55,31l-.13.07-.12.07Zm.1-3.1h0l.06,0s0,0,0,0Zm.28-.8a.06.06,0,0,1,0,0v0l.06,0Zm.09,3.08s.05,0,0,0l-.09-.08,0,0v0A.22.22,0,0,1,67.86,30.43Zm0-3.58s0,0,0,0l.06,0v0A.15.15,0,0,0,67.89,26.86Zm.07,3.8v0h0Zm0-2.22s0,0,0,0h0S68,28.44,68,28.44Zm.26,1.5a.08.08,0,0,1,0,0,.08.08,0,0,0,0,0c0-.16,0-.23,0-.39l0-.05a.21.21,0,0,0-.13,0,.14.14,0,0,0,0,.07.06.06,0,0,1,0,0c0,.08.05.19.1.32Zm-.05,1.25,0,0s0,0,0,0h.06Zm0-4.41a.29.29,0,0,0,.25-.08.18.18,0,0,0,.06-.19l-.09-.08-.16.11a.92.92,0,0,0-.16.13s0,0,0,0Zm.21-4.45-.06,0s0,0,0,0,.06,0,.06,0Zm.07,8a.08.08,0,0,0,0-.05l0,0Zm.89-2.36a.23.23,0,0,0,.19-.11s0-.08-.13-.16l-.08,0-.08,0-.16-.1L69,27.4l-.06,0a.17.17,0,0,0-.09,0,.29.29,0,0,0-.19.11.13.13,0,0,0,0,.17,1.66,1.66,0,0,0,.33.22A.74.74,0,0,0,69.4,27.95Zm-.71,1.84h0v0h0Zm.12-1a.33.33,0,0,0,.06-.12s0-.07-.06-.05,0,0,0,0l0,0Zm.06-3.4h0Zm0-5.26h0v0Zm.31,6.45a.06.06,0,0,1,0,0h.06l0,0S69.21,26.59,69.17,26.59Zm.17,1.7s0,0,0,0,0,0,0,0,0,0,0,0,0,0,0,0v0l0,0,0,0h0l0,0,0,0Zm-.11-4.77,0,0v0Zm.12-.31a.39.39,0,0,0,.06.13l.31-.13,0-.05,0-.05,0,0-.12.07Zm.09,6.26,0,0h0Zm-.06-10.39v0h0S69.39,19.09,69.39,19.08ZM69.54,29l.09.06.1.06h.16L69.74,29l-.11-.08Zm.27-8.65h0l.06,0Zm0,1.79v0l0,0Zm.07,7.7v0l0,0v0S69.87,29.85,69.89,29.85Zm-.06-13.16,0,0s0,0,0,0l0,0S69.81,16.68,69.83,16.68ZM70,24.3v0l0,0Zm.23,5h0l0,0h.06Zm-.05-5.46.06.05.09-.07-.06-.05Zm2.27,4.05a.82.82,0,0,0,.39,0s0-.14,0-.33l-.39-1.33c-.13-.44-.26-.89-.39-1.32l-.2-.71c-.06-.24-.14-.47-.23-.71a.1.1,0,0,0,0-.08.28.28,0,0,1-.06-.08l-.06.07a.09.09,0,0,0,0,.07q-.06.22-.14.45t-.14.45q-.25.78-.44,1.51t-.44,1.48c0,.18,0,.28,0,.32a.85.85,0,0,0,.39.08l.85.07Zm-1.42,2a.34.34,0,0,0,.06-.19,1,1,0,0,0,0-.2s-.06-.06-.11-.07a.33.33,0,0,1-.14-.08h0a1.53,1.53,0,0,0-.34.21.29.29,0,0,0-.09.1s0,.06,0,.06a1,1,0,0,0,.35.16A.32.32,0,0,0,71,30C71,30,71.06,30,71.06,29.94Zm-.61-11.36-.06,0,0,0,.06,0A.06.06,0,0,1,70.45,18.58Zm.24,2.3v0l0,0ZM71,29H71a.08.08,0,0,0,0-.05l-.06,0Zm0-11.83s-.05.07,0,.11a.25.25,0,0,1,0,.11.9.9,0,0,0,.31,0,.62.62,0,0,0,.22-.17l.28-.33.28-.36s0,0,0-.06a.1.1,0,0,1,0-.06h-.53a.43.43,0,0,0-.28.1.3.3,0,0,0-.12.2c0,.09.05.15.22.15l-.19.18C71.09,17,71,17.11,71,17.16Zm.36,11.3a.52.52,0,0,0,.12-.14l-.06,0a.06.06,0,0,0-.06,0s-.1,0-.09.07S71.27,28.4,71.36,28.46ZM71.29,18.4v0Zm.2-1.66-.06,0h0A.15.15,0,0,1,71.5,16.74Zm-.05,4.49,0,0S71.44,21.22,71.44,21.23Zm0,.89,0,0s0,0,0,0,0,0,0,0Zm.14,7.82v0l0,0Zm-.07-11c0-.07,0-.11,0-.12h-.06a.18.18,0,0,1,0,.13l0,0Zm0,.57s0,0,0,0h-.06Zm.08,1.37c0,.12,0,.16.16.13s.05,0,.09-.12a.43.43,0,0,1-.16,0h-.09Zm.07,1.19,0,0v0Zm.17-1.61a0,0,0,0,0,0,0,0,0,0,0,1,0,0,.12.12,0,0,0,0,.1s0,0,.06.08Zm.06,9.63s0,0,0,0,0,0,0,0l-.06,0v0s0,0,0,0S71.94,30.06,71.94,30.08ZM71.88,17v0h0v0Zm0,5.32a.08.08,0,0,1,0,.05s0,0,0,0Zm0-2.21.06,0v0l-.06,0Zm.15-.84,0,0,0,0s-.06.06-.06.07h0l0,0,0,0Zm.05,2.14s0,0,0,0,0,0,0,0l-.06,0s0,0,0,0,0,0,0,0Zm0-3.26h0v0ZM72.19,17h0s0,0,0,0Zm.16,13.2,0,0v0Zm-.11-11.55,0,0h0Zm.17,1.18h-.09a.13.13,0,0,0,0,.1l.09-.07Zm.29.86c.15,0,.18-.06.09-.08s-.12-.06-.1-.09v-.1h0a.15.15,0,0,0,0-.08.15.15,0,0,1,0-.08l-.11,0-.11,0c-.06,0-.09.08-.09.1a.64.64,0,0,0-.06.25l.19,0A.47.47,0,0,0,72.69,20.71Zm-.37,1.06.06,0,.06,0s0-.06,0-.12l-.06,0s0,0-.06,0A.14.14,0,0,0,72.33,21.77Zm.11,8.14v0s0,0,0,0,0,0,0,0h0Zm-.08-12a.06.06,0,0,1,0,0l.06,0h.13s0,0,0,0,0,0,0,0a.18.18,0,0,0-.09,0Zm0,4.15v0l0,0Zm.15-.69s.07,0,.16,0l-.19,0a.17.17,0,0,0-.09,0l.06,0Zm-.09-2.53s.06.06.06.08a.19.19,0,0,0,.09,0l-.09-.08s0,0,0,0S72.46,18.86,72.46,18.88Zm.14,3.58s0,0,0,0l-.06,0,0,.05.06,0S72.61,22.46,72.6,22.46Zm0-5-.12,0,.13.08v-.13h.09l-.06-.05a0,0,0,0,1,0,0A0,0,0,0,0,72.63,17.48ZM72.72,30l-.06,0v0Zm0-10.36-.06,0,.06,0h0s0,0,0,0A.07.07,0,0,0,72.72,19.63Zm0,3.43s0,0,0,0,0,0,0,0l0,0Zm0-3.7.06.05a.18.18,0,0,0,.09,0l-.09-.05Zm.1-2.55a.15.15,0,0,1-.09,0c.06.05.08.08.06.08a.14.14,0,0,0,.09,0h0L73,17a.17.17,0,0,0,.11,0h.11l0,0v0a.62.62,0,0,0-.22-.05.12.12,0,0,0-.13,0h0S72.82,16.84,72.78,16.8ZM73,22.33c-.17,0-.26.1-.28.21l0,.05.16-.1a.67.67,0,0,0,.15-.13Zm-.17,2.52s0,0,0,0a.17.17,0,0,0,0,.08c.08.09.16.11.22.07a.16.16,0,0,0,.09-.08.3.3,0,0,1,.09-.11h0l.14-.25a2.46,2.46,0,0,1,.17-.25l-.39.24A2.46,2.46,0,0,0,72.86,24.85Zm.07-2.93v0l0,0v.05Zm0-2.08s-.06.06-.06.07h.16Zm.23,10.85-.06-.06-.06,0s.06,0,.06.06ZM73,17.28h0l0,0Zm.4,12.08a.64.64,0,0,0,.12-.1l.12-.1-.06-.06a.29.29,0,0,0-.28,0,.4.4,0,0,0-.19.16.1.1,0,0,0,0,.08s0,0,0,0h.11A.22.22,0,0,0,73.4,29.36Zm-.35-10.62s0,0,0,0h.16a.18.18,0,0,1,0-.1l-.08,0-.08,0Zm.13.88a.59.59,0,0,0,0-.14.61.61,0,0,1,0-.14v0c.14,0,.22,0,.22-.12s0-.05-.06-.05l-.08.07-.08.07v0a.33.33,0,0,0-.08.15s0,.1.08.15Zm0,3.19-.06,0,0,0h.09Zm0-2.56.06,0,.06,0,.1.08-.1-.08-.06-.1h-.06Zm.07-2.56-.06,0a.14.14,0,0,0,.06.1l.12,0Zm.12,12.85.06,0-.06-.06-.06,0Zm-.05-9v0a.08.08,0,0,1,0,.05h0l-.06-.05v0a.12.12,0,0,1,0-.1h0Zm.31,2.63a.17.17,0,0,0,.09-.07l.09-.12c-.08,0-.14-.05-.16,0a1.24,1.24,0,0,0-.19.09s-.06.06-.06.15A.64.64,0,0,0,73.64,24.17ZM73.45,18l-.06,0,0,.05.06,0A.09.09,0,0,1,73.45,18Zm.12,2.9,0,0,0,0a.13.13,0,0,0-.06.1s0,0,0,0h.06Zm0,4.51.11-.12.11-.09s0,0,0-.05l-.08-.06-.11.09-.11.09S73.53,25.33,73.62,25.41ZM74.33,28a.35.35,0,0,1,.06-.12.16.16,0,0,1-.09,0,0,0,0,0,0-.06,0,2.15,2.15,0,0,1-.33.15,1.26,1.26,0,0,0-.33.17.06.06,0,0,0,0,.08.5.5,0,0,1,0,.11l.16,0a.3.3,0,0,0,.16,0l.23-.18Zm-.75-9.8c-.06,0-.09.08-.09.1a.35.35,0,0,0,.06.15l0,0,0,0a.24.24,0,0,0,0-.09A.33.33,0,0,1,73.58,18.22Zm.11,11.6q.1,0,.38-.1t.28-.26l-.06-.06-.34.11-.34.11a.7.7,0,0,0,0,.08S73.65,29.82,73.69,29.82Zm.18-10.53c-.11-.09-.19-.11-.25-.08s-.07.09,0,.18.06,0,.06.07,0,.06.06.09l.09.08.06-.1A.31.31,0,0,0,73.87,19.29Zm.17.84A.21.21,0,0,0,74,20l0,0,0,0a.36.36,0,0,0-.13-.11s-.08,0-.12.1l0,0,0,0h.25V20l.06.1ZM74,30.83a2.71,2.71,0,0,0,.34-.29.13.13,0,0,0,0-.07.55.55,0,0,1-.06-.12l-.44.3s0,.06,0,.07a.15.15,0,0,1,0,.08l.11,0A.08.08,0,0,0,74,30.83Zm-.14-5.26-.06,0,.06,0,0,0ZM74,27.05l0,0,0,0s0,0,0,0Zm.08-4.57-.12,0s0,0,0,.08l.09-.07Zm-.14-2a.07.07,0,0,1,0,.05.07.07,0,0,0,0,.05h.22v0h0a.73.73,0,0,0-.16-.11Zm0,.25a.45.45,0,0,0,.09.1s0,0,0,0l.06,0a.17.17,0,0,1-.08-.05l0-.05s0,0,0,0S74,20.69,74,20.71Zm.09,6.65a.2.2,0,0,1,0,.08.08.08,0,0,0,0,.05v0h0l0,0v-.13Zm.52-4.55-.16-.06a.9.9,0,0,0-.35.06s0,0,0,.1a.48.48,0,0,0,.25,0,.19.19,0,0,0,.13,0Zm-.42-1.57v.05s.06,0,.06,0l0,0Zm.1,7.25s0,0,0,0,0,0,0,0,0,0,0,0,0,0,0,0,0,0,0,0Zm.23-5.18a.62.62,0,0,0,.16-.09s0,0-.13-.13l-.08.07,0,.07Zm.08,4.75s0,.13.1.14a.68.68,0,0,0,.22,0v0h0a.24.24,0,0,1,.13,0v0h-.13l0,0a.41.41,0,0,0,0-.18.22.22,0,0,0-.16-.09.07.07,0,0,0-.06,0Zm.6,3.48s0-.19-.1-.37h0l-.06,0a.43.43,0,0,0-.27.18.23.23,0,0,0,0,.26l0,.06a.2.2,0,0,0,.08.06l.2-.06A.28.28,0,0,0,75.18,31.54ZM75,27.07s0-.07-.13-.11a1,1,0,0,0-.25.23s0,0,0,.08a.21.21,0,0,0,.09.06C74.93,27.34,75,27.25,75,27.07Zm-.31-2.75a0,0,0,0,0,0,0,.05.05,0,0,1,0,0,.14.14,0,0,1,.09,0s0,0,0,0l0,0Zm.23,10.75s0,0,0,0,0,0,0,0,0,0,0,0,0,0,0,0Zm0-8.4s0,0-.06.07a.17.17,0,0,0,.09,0Zm0-.59h0v0ZM75.59,32l-.06,0-.06,0-.09.06v0s0,0,0,0l-.06,0-.06,0v0l.06,0,.06,0h0l.13,0A.16.16,0,0,0,75.59,32Zm-.28-6.29s0,0,0,0l0,0,.06,0Zm.2,8,0-.07a.14.14,0,0,0,0-.07l-.06-.06c-.06,0-.09,0-.09.06A.42.42,0,0,0,75.51,33.68Zm-.06.78v-.05h0v.05Zm0-1.89h0l0,0Zm0-3.35a.08.08,0,0,0,0,.05l.06,0,0,0,0,0Zm.09-.91a.05.05,0,0,0,0,0,.05.05,0,0,1,0,0h.06a.07.07,0,0,1,0-.05Zm.37,6.52,0,0,.08,0-.08,0,0,0a.22.22,0,0,0,0-.12.22.22,0,0,1,0-.12l-.28.11a.05.05,0,0,0,0,0v.13a.4.4,0,0,0,.16,0A.16.16,0,0,0,75.9,34.84Zm-.11-2.27,0,0,0,0s0,0,0,0Zm.44-2.76a.48.48,0,0,0-.28.12q-.19.13-.16.21s0,.07.13.14l.13,0,.12-.18.12-.18C76.29,29.84,76.27,29.81,76.23,29.8Zm-.16,3.52a.22.22,0,0,0-.13-.12.07.07,0,0,0-.08,0s0,0,0,0l.1.17C76,33.34,76.07,33.31,76.07,33.33Zm-.05,1a.38.38,0,0,0,.11-.11.4.4,0,0,1,.11-.11.26.26,0,0,1,.16,0,.27.27,0,0,0,.16,0s0,0,0-.1L77,33.8l.16-.1L77,33.62l-.13,0a.75.75,0,0,0-.37.1l-.29.26-.29.26a.29.29,0,0,0-.06.14l.11,0A.08.08,0,0,0,76,34.37Zm-.1-7.43V27s0,0,0,0v0Zm.14,5v0h0l0,0Zm0-4.06,0,.05s0,0,0,0l0,0Zm.06-.25v0l0,0Zm.14,5.41,0,0,0,0,0,0,.06,0Zm0-1.29,0,0h-.06Zm.56,3.36c.17,0,.21,0,.12-.13a.58.58,0,0,0-.09-.12s-.06-.05-.06,0a.68.68,0,0,0-.22.09,1.1,1.1,0,0,1-.25.11l.19.08h.31Zm-.47-6.35s0,0,0,0,0,0,0,0l0,0,.06,0Zm.31,3.28a.34.34,0,0,0-.16,0,.39.39,0,0,0,.06.16s0,0,0,0,0,0,0,0l0,0C76.69,32.23,76.71,32.18,76.63,32.1Zm0,1.88v0Zm.3-1.14-.09-.07-.1-.07-.06,0,.08.09.08.09,0,0Zm-.09.32a0,0,0,0,0,0,0,.13.13,0,0,1-.08,0l.09.07.09.07s.06-.05.06-.07Zm0-3-.08,0s0,0,0,0a.73.73,0,0,0,.08.15l.11.18,0,0,0,0s0,0,0,0A1.79,1.79,0,0,0,76.79,30.13Zm.12,2.39s.06-.05.06-.07l-.06-.06s-.06,0-.06,0S76.87,32.45,76.91,32.52Zm1.65,3.1.11,0,.11,0a.52.52,0,0,0-.16-.24l-.13,0a.32.32,0,0,1-.13-.07,2.28,2.28,0,0,1-.22-.17.17.17,0,0,1,0-.24.08.08,0,0,0,0-.09.16.16,0,0,1,0-.1H77.9l-.22,0a.16.16,0,0,0,0-.07.16.16,0,0,1,0-.07s0,0,0,0a.22.22,0,0,1,0-.11.18.18,0,0,0-.06-.11s0,0-.13-.1a.35.35,0,0,1,0,.18.48.48,0,0,1-.12.14.23.23,0,0,1-.34,0c-.06,0-.11-.06-.13,0s0,0,0,.08a2.85,2.85,0,0,1,.11.29.45.45,0,0,0,.3.24.69.69,0,0,0-.28.16s-.05.08,0,.13a.47.47,0,0,0,.27.07.51.51,0,0,0,.26,0,.18.18,0,0,0,.08-.12.18.18,0,0,1,.08-.12.46.46,0,0,0,.07.25.43.43,0,0,0,.22.09A3.25,3.25,0,0,0,78.57,35.63ZM77.21,31.3a.34.34,0,0,0-.09.09.35.35,0,0,1-.09.09l.13.17.09-.14.06-.1S77.28,31.36,77.21,31.3Zm.49,2.44c0-.08.05-.13,0-.15s-.1,0-.25,0l0,0s0,0,0,0l-.12.23-.12.23a.46.46,0,0,1-.16-.05.09.09,0,0,1,0,.06.09.09,0,0,0,0,.06l0,0,0,0V34A.39.39,0,0,0,77.7,33.73Zm-.56.64-.06,0v0s0,0,.06,0Zm.26-2.29a.19.19,0,0,1-.08-.06.06.06,0,0,0,0,0l-.19.05.06,0,.06,0Zm-.3,1.07a.23.23,0,0,0,.13.07s0,0,0,0a.06.06,0,0,0,0,0,.49.49,0,0,1-.1-.12.12.12,0,0,1-.06.06S77.1,33.13,77.1,33.15Zm.34-.36a.58.58,0,0,1,.19-.23l-.17-.08-.14-.07-.06,0a.06.06,0,0,0,0,0v0A2.11,2.11,0,0,0,77.44,32.78Zm.1.38,0,0s0,0,0,0,0,0,0,0l-.06,0S77.52,33.18,77.54,33.16Zm.41.72c-.08.09-.12.13-.12.11a.18.18,0,0,0,.06.08l.06,0A.12.12,0,0,0,78,34Zm.14,1.54,0,0v0Z"/><path class="cls-1" d="M95.35,39.88c.09.2,0,.27-.15.24a1.36,1.36,0,0,1-.26-.06L94.68,40c-2-.57-3-.84-5-1.34l-.16,0a.49.49,0,0,1-.16-.05c-.14-.07-.22-.14-.12-.27s.25-.36.37-.54.26-.35.4-.54a1.07,1.07,0,0,0,.18-.66c0-3.51,0-5.26,0-8.77v-.15a.6.6,0,0,0,0-.3s-.13-.08-.3-.1l-2.74-.33c-.17,0-.26,0-.28,0a.78.78,0,0,0,0,.27c0,.23,0,.49,0,.72s0,.48,0,.73q0,1.77,0,3.5c0,1.16,0,2.34,0,3.5a1.82,1.82,0,0,0,.32,1c.1.21.22.42.34.63s.24.44.34.64,0,.23-.15.19L86.84,38l-.76-.18-2-.46-2-.46h-.12a.36.36,0,0,1-.12,0c-.15-.06-.23-.12-.13-.24l.74-1a1,1,0,0,0,.21-.67c-.05-6.82-.08-10.23-.13-17a1.27,1.27,0,0,0-.22-.74l-.37-.53-.33-.5c-.1-.14-.14-.23-.11-.26a.72.72,0,0,1,.33,0h7.84l2.57,0a.82.82,0,0,1,.75.46l.63,1.09.66,1.11a1.33,1.33,0,0,1,.16.66v4.18a1.06,1.06,0,0,1-.19.63l-.84,1.39a.53.53,0,0,0,0,.64q.22.36.42.76c.14.26.28.52.42.76a1.67,1.67,0,0,1,.19.83c0,3.61,0,5.41,0,9a2.57,2.57,0,0,0,.31,1.23q.18.33.35.67C95.14,39.44,95.26,39.67,95.35,39.88Zm-12.6-3.45,0,0,0,0-.06,0Zm.34-.23.06,0a.12.12,0,0,0,.06-.06l0,0,0,0s0,0,0,0-.06,0-.06.07,0,0,0,0A.06.06,0,0,1,83.09,36.19Zm0-19.78s-.06,0-.06.08,0,.06.06.06h.16s0,0,0,0l0,0h-.09Zm0,.52a.07.07,0,0,1,0-.05s0-.05,0-.06l0,.05Zm.12,3a.61.61,0,0,0-.08.19c0,.05,0,.09.17.12a.24.24,0,0,0,0-.12.23.23,0,0,1,0-.12.05.05,0,0,0,0,0,.06.06,0,0,1,0,0h-.13Zm0-2.28a.65.65,0,0,0,.09-.14.75.75,0,0,0-.09-.14.38.38,0,0,0-.06.19S83.14,17.58,83.2,17.62Zm.1,1a0,0,0,0,0,0,0,.16.16,0,0,1-.06-.07.42.42,0,0,0-.06.14s0,.06.06.06Zm.11,2.12-.06,0-.06,0c0,.09,0,.13,0,.22l0,0s0,0,0,0,0,0,0,0a.07.07,0,0,0,0,.05.18.18,0,0,1,0,.08.23.23,0,0,1,.11,0,.06.06,0,0,0,.08,0,.57.57,0,0,0,.11-.12.62.62,0,0,1,.11-.12s0,0,0-.06Zm-.12,13.69v0s0,0,0,0Zm0-13,.16.12.16.12.16-.07a.09.09,0,0,1,0-.07s0,0,0,0a2.21,2.21,0,0,0-.41-.05v0H83.2v0s0,0,0,0v-.05h.09Zm0,.79s0,0,0,0,0,0,0,0a.06.06,0,0,0,0,0,.06.06,0,0,1,0,0l-.06.05S83.22,22.17,83.27,22.21Zm.07,1.49s0,0,0,0h0l0,0ZM84,36a.26.26,0,0,0,.18-.35A1.26,1.26,0,0,0,84,35.3a.33.33,0,0,0-.25-.15l-.19,0a.29.29,0,0,0-.16,0s-.06,0-.06.1a4.37,4.37,0,0,1,.27.37,4.21,4.21,0,0,0,.27.37S84,36,84,36Zm-.46.26s.07,0,.08,0a.12.12,0,0,1,.08,0l-.08-.1,0-.06-.19.07A.6.6,0,0,0,83.56,36.26ZM83.36,18a.07.07,0,0,0,0,.05.07.07,0,0,1,0,.05.39.39,0,0,0,.16,0l0-.07Zm.14,14.12c.08,0,.12,0,.12-.06l-.13-.21-.06.16A.18.18,0,0,0,83.49,32.12Zm0,1.46-.06,0,.06.07s0,0,0,0,0,0,0,0Zm.15-14.19.13-.05,0,0-.09.08s0,0,0,0l-.1-.07-.09-.07c0,.08,0,.12,0,.19v.06l0,.07a.22.22,0,0,1,0,.07l.11,0a.08.08,0,0,0,.08-.05.19.19,0,0,0,0-.08.18.18,0,0,1,0-.08Zm-.07,16.46v0h0v0ZM83.52,19l.1.09s0-.05,0-.05L83.59,19Zm.07,9v0h0Zm0-10.47a.75.75,0,0,0,.16.2h.16a2.93,2.93,0,0,0-.25-.25Zm.21,3.07s0,0-.06-.09l-.09.08s0,0,.09.06,0,0,0,0S83.75,20.6,83.75,20.58Zm-.05,10.2,0,0v0a0,0,0,0,0,0,0Zm.13.46c0,.07-.06.09-.06.07l0,0a1.1,1.1,0,0,0,.16.3l.09-.07A1.11,1.11,0,0,1,83.83,31.24Zm0-11.35,0,0,0,0,0,0,0,0h0Zm0-3h-.06l0,0,0,0Zm0,4s0,0,0,0l0,0,0,0v0Zm.07,1.47.06,0,0,0,0,0s0,0,0,0,0,0,0,0Zm.49,12.59a.24.24,0,0,0,0-.19c0-.09-.1-.15-.16-.14l-.22,0a.23.23,0,0,1,0,.09.11.11,0,0,0,0,.1l.13.15.13.18.06,0,.06,0A.54.54,0,0,1,84.39,34.95Zm-.49-16.49a.08.08,0,0,0,0,.06H84l-.06-.06ZM84,20.21l-.06,0a.07.07,0,0,1,0,.05H84ZM84,19a.09.09,0,0,0,0-.06l-.06,0s0,0,.06,0S84,19,84,19Zm0,.75v0s0,0,0,0,0,0,0,0Zm0,7v0h0Zm0-8.47s0,0,0,0v0A.07.07,0,0,0,84,18.21Zm.27,16,.12-.09.12-.12-.11-.1-.11-.1a.52.52,0,0,0-.11.1.5.5,0,0,1-.11.1s0,0,.06.08ZM84.1,17.11a.07.07,0,0,0,0,.06s0,0,.06,0l0-.06S84.1,17.13,84.1,17.11Zm.15,16.25s0,0,0,.05l0,0,0,0a.16.16,0,0,1,0-.08Zm.27-10.65a.12.12,0,0,0,.08,0l.11-.09-.13-.2-.13-.15a2.74,2.74,0,0,1-.28.29.66.66,0,0,0,.16.11Zm-.31.89h.06l0,0h-.06A.09.09,0,0,1,84.21,23.6ZM84.3,27l0,.05h0l0,0Zm.5-8.53h.06v0h-.09a1.85,1.85,0,0,0-.22-.4.14.14,0,0,0-.09,0h-.13l.09.17.19.17-.06,0-.06,0a.06.06,0,0,0,0,.07.2.2,0,0,1,0,.07l.06,0s0,0,0-.05,0-.06,0-.14l.16.09Zm-.4,1.32h0v0Zm.25-.74a.33.33,0,0,0,.09-.14l.06-.14-.06,0-.17.08-.17.08V19l.14.07C84.59,19.08,84.63,19.08,84.65,19.07Zm-.2-1.31h0v0S84.43,17.75,84.45,17.75Zm0,5.23.06,0,0,0s-.06,0-.06,0Zm.1.65,0,0h0Zm0-1.64v0h0v0Zm.13,9.5.06,0s0,0,0,0a.2.2,0,0,0,0-.09l0-.09-.06.1a.11.11,0,0,0,0,.07A.06.06,0,0,1,84.67,31.49Zm0-14-.06.05.06,0s0,0,0-.06Zm0,2v0l0,0ZM84.78,34a.27.27,0,0,1,0,.12v0s0-.07,0-.11Zm.05,2.85,0,0v0s0,0,0,0Zm.09-.45,0,0h0s0,0,0,0,0,0,0,0Zm-.1-14.35v0l0,0ZM85,35.59l.06,0L85,35.5a.06.06,0,0,1,0,0ZM85,17.93l-.06,0v0l0,0Zm0,5.14S85,23,85,23L85,23a.07.07,0,0,0,0,.05Zm-.07-5.42v0s0,0,0,0ZM85,16.48v0h0Zm.13,5,.06.06,0-.05h-.12v0l0,0s0,0,0,0l.06.06v0Zm0-1.77v0l0,0Zm.18,4.07-.06,0v.06h0Zm.05,12.45h0v0Zm0-13.73s0,0-.06,0l0,0,.06.06A.07.07,0,0,1,85.36,22.46Zm.11,6.94,0,0a.14.14,0,0,1,.08,0l-.06-.05,0,0,0,.06,0,.06ZM85.61,36h0v0h0ZM85.54,16.4l.06.06a.08.08,0,0,1,0-.06h-.06Zm.1,9.82h0v0h0Zm0-3.32s0,0,0,0l0,0Zm.06,4.9h0v0Zm.15,8.41h0v0h0Zm.06-10.87H86a.09.09,0,0,0,0-.06h0s0,0,0,0A.08.08,0,0,0,85.91,25.34Zm4.23-3.84c0-.56,0-.83,0-1.39a.57.57,0,0,0,0-.3s-.13-.06-.3-.07L87,19.63c-.23,0-.35.1-.34.3,0,.45,0,.91,0,1.37s0,.92,0,1.37a.51.51,0,0,0,0,.27.67.67,0,0,0,.3.07c.88.09,1.82.16,2.72.21a.59.59,0,0,0,.3,0s0-.12,0-.28C90.14,22.36,90.14,22.07,90.14,21.51Zm-3-4.59A.67.67,0,0,0,87,17a.47.47,0,0,0,.06.14l.09-.1.06-.1,0,0S87.17,16.94,87.17,16.92Zm.63.21-.06,0-.06,0-.28.13-.28.15a.15.15,0,0,0,0,.11.26.26,0,0,0,0,.14.34.34,0,0,0,.16.09c.06,0,.1,0,.13,0a1.3,1.3,0,0,0,.25-.23,2.18,2.18,0,0,1,.22-.23Zm.32,1.28a.82.82,0,0,0-.22.14l.13.18a.68.68,0,0,0,.19-.23Zm.79,7.51,0,0,0,0h0s0,0,0,0S88.91,25.9,88.91,25.92Zm.34-7.48-.06,0,0,.06a.09.09,0,0,0,.06,0S89.27,18.44,89.25,18.44Zm.75-.69a.08.08,0,0,0,0,.06s0,0,.06,0l0-.06S90,17.77,90,17.75Zm.07,8.88s0,0,0,0,0,0,0,0H90s0,0,0,0S90.06,26.62,90.06,26.63Zm.49-10a.36.36,0,0,0,.09.18.64.64,0,0,0,.09-.27.06.06,0,0,0,0,0,.06.06,0,0,1,0,0A.86.86,0,0,0,90.56,16.67Zm.19,8.24h0v0Zm0-5.56s0,0,0,0l0,0s0,0,0,0Zm.09,8,.09-.15.06-.1V27l-.11.08a.29.29,0,0,0-.08.08S90.8,27.26,90.85,27.38Zm0-10.21s0,0,0,0,0,0,0,0l.06-.06s0,0,0,0l0,0Zm1.38,11.2a.11.11,0,0,0,0-.09l-.16,0a3,3,0,0,1-.34.31s0,0-.06,0v-.09l.12-.28.12-.28s0,0,0,0a0,0,0,0,0,0,0,.17.17,0,0,0-.12,0l-.23.19-.23.22a.18.18,0,0,0-.06.23.32.32,0,0,1-.06.38l-.14.19c-.05.07,0,.17.08.25a.2.2,0,0,0,.26,0,1,1,0,0,0,.17-.17l0,0s0,0,0,0a4,4,0,0,0,.28-.38Zm-1-6.45A.13.13,0,0,0,91,22a.09.09,0,0,0,0,.06l.09-.05Zm0-4.54v.09l.06.11.06.11v0h0l0,.06.13,0v0s-.07-.06-.09-.06h-.06l0,0a.24.24,0,0,1,0-.12.27.27,0,0,0,0-.12Zm.31-.83a.08.08,0,0,1,0,.06.48.48,0,0,0,.13.09l0-.06ZM91.68,27a.12.12,0,0,0-.09,0v.06a.12.12,0,0,0,.09,0Zm-.08-6.61,0,0v0Zm.19,13.39s0,0,.06-.08l0,0,0,0a0,0,0,0,1,0,0,.05.05,0,0,0,0,0Zm0,1.27h-.06a0,0,0,0,1,0,0ZM92,17.35a.33.33,0,0,0-.12.15l.1.09.09-.18,0,0A0,0,0,0,1,92,17.35Zm0,.45-.09.12L92,18a.47.47,0,0,0,.13-.09L92,17.83S92,17.82,92,17.8Zm.16.67a.07.07,0,0,0,0,0,.06.06,0,0,1,0,0l0,0,0,0,0,.06h.09Zm-.07-1.36h0l0,0h0Zm.29,1.22.06,0v-.06h-.06Zm.19,3a.08.08,0,0,0-.06,0l-.09.05a2,2,0,0,1,.25.23l.09-.08a.32.32,0,0,0,.06-.09l-.13-.07Zm0,8.76a.07.07,0,0,1,.06,0,.1.1,0,0,1,0-.07s0,0-.06,0a.07.07,0,0,0,0,0A.07.07,0,0,1,92.53,30.06Zm.11-5.87a0,0,0,0,0,0,0v0Zm.08-5.28-.09.18a.12.12,0,0,0,0,.09l.06.09.09-.09A2,2,0,0,0,92.72,18.91Zm.93,19.17a.66.66,0,0,1,0-.13.66.66,0,0,0,0-.13h-.12l-.09,0c0,.09,0,.14,0,.16l.17.07-.45.3-.42.27s-.06,0-.06,0a.06.06,0,0,1,0,.05q.12.09.15.07a2.4,2.4,0,0,0,.65-.44.2.2,0,0,0,.08-.13A.35.35,0,0,1,93.66,38.08ZM92.82,18h0l0,0Zm.29,3.55a.31.31,0,0,0-.09.15.35.35,0,0,1-.09.15,2,2,0,0,0,.1.25A2.24,2.24,0,0,1,93.2,22s0-.06.06-.07a.15.15,0,0,0,.06-.07,1,1,0,0,0,.06-.15,1.16,1.16,0,0,1,.06-.15A.62.62,0,0,0,93.11,21.58ZM93,29h0s0,0,0,0,0,0,0,0l0,0Zm.2-9.47v0Zm0,7.79v0h0l0,0Zm0,8.93,0,0v0Zm.18-4.95h0v0Zm.06,2.06h0v0h0Zm.14-12.81v0a0,0,0,0,0,0,0v0Z"/><path class="cls-1" d="M17.34,12.3V3h5.73v1.7H19.18v2h3v1.7h-3v2.26h3.89v1.7Z"/><path class="cls-1" d="M24.05,11.25l1-1.35a3.16,3.16,0,0,0,1.92.77,1.12,1.12,0,0,0,.77-.24A.79.79,0,0,0,28,9.82a.89.89,0,0,0-.2-.56,2,2,0,0,0-.53-.46q-.32-.2-.71-.41a9.12,9.12,0,0,1-.78-.47,5.07,5.07,0,0,1-.72-.58,2.39,2.39,0,0,1-.53-.79,2.68,2.68,0,0,1-.2-1.06,2.53,2.53,0,0,1,.4-1.41,2.63,2.63,0,0,1,1-.94,2.91,2.91,0,0,1,1.34-.32,3.47,3.47,0,0,1,2.58,1L28.61,5.22a2.33,2.33,0,0,0-.77-.48,2.14,2.14,0,0,0-.72-.15.82.82,0,0,0-.64.25.81.81,0,0,0-.23.56.78.78,0,0,0,.2.51,2.16,2.16,0,0,0,.53.44q.32.2.71.4a7.84,7.84,0,0,1,.78.47,5.08,5.08,0,0,1,.71.59,2.46,2.46,0,0,1,.53.8,2.73,2.73,0,0,1,.2,1.07,2.53,2.53,0,0,1-.87,2,3.27,3.27,0,0,1-2.24.76,3.88,3.88,0,0,1-1.58-.35A3.22,3.22,0,0,1,24.05,11.25Z"/><path class="cls-1" d="M30.44,4.67V3h6.22v1.7H34.47V12.3H32.62V4.67Z"/><path class="cls-1" d="M37.79,12.3V3h3.72a3,3,0,0,1,1.5.39,2.93,2.93,0,0,1,1.5,2.58,2.9,2.9,0,0,1-.41,1.52A2.94,2.94,0,0,1,43,8.53l.93.95a3.86,3.86,0,0,0,.74.59,4.24,4.24,0,0,0,.74.37,4.11,4.11,0,0,0,.73.19,5.47,5.47,0,0,0,.61.08h.49v1.73q-.74,0-1.27-.05a7.05,7.05,0,0,1-1.14-.22,4.25,4.25,0,0,1-1.17-.52,5.92,5.92,0,0,1-1.09-.9L40.8,8.91H39.63v3.4Zm1.84-5.09h1.71a1.31,1.31,0,0,0,.94-.37,1.24,1.24,0,0,0,0-1.81,1.31,1.31,0,0,0-.94-.37H39.63Z"/><path class="cls-1" d="M48.3,12.3V3H54v1.7H50.13v2h3v1.7h-3v2.26H54v1.7Z"/><path class="cls-1" d="M55.51,12.3V3h1.84v7.64h3.89v1.7Z"/><path class="cls-1" d="M62.36,12.3V3H64.2v7.64h3.89v1.7Z"/><polygon class="cls-1" points="74.53 0 76.54 4.06 81.02 4.71 77.77 7.87 78.54 12.33 74.53 10.22 70.53 12.33 71.29 7.87 68.05 4.71 72.53 4.06 74.53 0"/></g></g></svg>