<svg xmlns="http://www.w3.org/2000/svg" viewBox="0 0 239.19 239.2"><defs><style>.cls-1{fill:#447ed9;}.cls-2{fill:#fff;}</style></defs><title>Recurso 3</title><g id="Capa_2" data-name="Capa 2"><g id="Capa_1-2" data-name="Capa 1"><circle class="cls-1" cx="119.6" cy="119.6" r="119.6"/><path class="cls-2" d="M116,128.21v31.68a8.19,8.19,0,0,1-1,3.91q-1.59,2.59-3,5.21c-1,1.73-2,3.52-3,5.35a2.91,2.91,0,0,1-2.75,1.59H56.67c-.59,0-.73-.29-.44-.87s.55-1,.79-1.44a8.11,8.11,0,0,1,.94-1.45,13.16,13.16,0,0,0,2.61-5.57,33.27,33.27,0,0,0,.58-6.29Q61,139.06,61,118V75.54a13.82,13.82,0,0,0-.29-3,7.75,7.75,0,0,0-1.15-2.68,28.78,28.78,0,0,1-2.11-3.33q-.93-1.72-2-3.33H108c1.07,1.93,2.15,3.91,3.26,5.94s2.24,4,3.4,5.93A8.22,8.22,0,0,1,116,80v7.23c0,.87-.09,1.4-.29,1.59s-.72.29-1.59.29H98.18c-.77,0-1.25-.09-1.44-.29s-.29-.67-.29-1.44V84.22a1.15,1.15,0,0,0-1.3-1.3H81.69c-.77,0-1.16.43-1.16,1.3A8.26,8.26,0,0,0,80.39,86v67.42c0,1.54.12,2.44.36,2.68s1.13.36,2.68.36h11a3,3,0,0,0,1.73-.29,3,3,0,0,0,.29-1.74V121.55a3.08,3.08,0,0,0-.29-1.74,3,3,0,0,0-1.73-.28H90.37a2.23,2.23,0,0,1-1.45-.3,2.3,2.3,0,0,1-.28-1.44V102c0-1.06.09-1.67.28-1.81a4.91,4.91,0,0,1,2-.22H114.1a3.3,3.3,0,0,1,1.67.22A4,4,0,0,1,116,102ZM63,68.16a3,3,0,0,1,.73-1h-.14a.63.63,0,0,0-.08-.29.73.73,0,0,1-.07-.29c-.48.29-.72.48-.72.58a.47.47,0,0,0,0,.51A4.47,4.47,0,0,1,63,68.16Zm1.45,35.45c-.09.1-.16.14-.22.14a.4.4,0,0,0-.21.15c0,.1.09.24.29.43l.29-.29A.58.58,0,0,0,64.47,103.61ZM64,130.09c0,.09,0,.14.15.14s.14,0,.14.07,0,.08.14.08a2.66,2.66,0,0,0,.29-.73c0-.09-.14-.24-.43-.43A2.1,2.1,0,0,0,64,130.09Zm.29-20.26a.53.53,0,0,0,.08.29.75.75,0,0,1,.06.29.85.85,0,0,0,.58-.29c.2-.19.29-.34.29-.43s-.33-.15-.72-.15A.26.26,0,0,0,64.33,109.83Zm.43,8.25a.82.82,0,0,1,.58-.15,3.64,3.64,0,0,1-.21-.5c-.06-.15-.12-.31-.22-.51h-.15v-.29c-.19-.19-.33-.29-.43-.29.1.1.14.17.14.22s0,.12.15.21l.14.15h.15A3.63,3.63,0,0,0,64.76,118.08Zm-.29-50.21.15.15.14-.15-.29-.28Zm0,72.34.29.29.29-.14c-.09,0-.14,0-.14-.07s0-.08-.15-.08Zm.44,30.1c0-.19,0-.29.14-.29l-.29-.29a.41.41,0,0,0-.14.29Zm.72-55.42-.29-.57-.15.14.44.43v.58a.83.83,0,0,0,.29.58q0,.15.15,0a1.67,1.67,0,0,0-.15-.72l-.29-.29Zm-.14,4.2c-.2.2-.3.34-.3.44a.81.81,0,0,0,.3.57.43.43,0,0,1,.21-.14s.12,0,.22-.15a1.83,1.83,0,0,0-.22-.36A1.66,1.66,0,0,1,65.49,119.09Zm0,8.1.14.29a1.44,1.44,0,0,0,.29.43,2.23,2.23,0,0,1,.29.44.46.46,0,0,1,.15.29.46.46,0,0,0-.15-.29,11,11,0,0,0-.58-1ZM65.92,155v.15h.15V155Zm.29,3a.43.43,0,0,0,.15-.29l-.15-.14a.38.38,0,0,0-.29.14Zm-.14-91.15a10.68,10.68,0,0,0,1.44.58l.58-.29c-.19-.19-.34-.29-.43-.29a1.58,1.58,0,0,0-.65-.14,2.49,2.49,0,0,1-.8-.15Zm.29,29.37a.25.25,0,0,0-.29.29l.29.15.28-.29A.39.39,0,0,1,66.36,96.23Zm-.29,8.1c0,.1,0,.15.14.15l.15-.29h-.29Zm.29,5.65a3.35,3.35,0,0,1,.43.94,3.63,3.63,0,0,0,.43.94l.29.29a.26.26,0,0,1,.08-.22.34.34,0,0,0,.07-.22l-.29-1.08c-.1-.34-.19-.65-.29-.94a.41.41,0,0,0-.29-.15.44.44,0,0,1-.29-.14c0,.19,0,.31-.08.36A.34.34,0,0,0,66.36,110Zm.28-2,.15.14V108Zm.58,8.54.15.14a.25.25,0,0,0,.29-.29l-.15-.14ZM67.81,133a.36.36,0,0,0-.08-.22s-.07-.16-.07-.36l-.29.29c-.1.1-.05.29.14.58Zm0-49.34c-.1.2-.18.29-.22.29s-.13,0-.22.15a.25.25,0,0,0,.29.29c.09,0,.15,0,.15-.07s0-.08.14-.08A1.41,1.41,0,0,0,67.81,83.64Zm-.3,37.91-.14.15h.14Zm0-40.08h.15v-.14h-.15Zm.3,11.14.28.87a6.36,6.36,0,0,0,.44-1.16l-.29-.14Zm.57,75.82c0-.1.09-.24.29-.44a.42.42,0,0,1-.29-.14l-.29.29Zm-.14-99.11c0,.1,0,.14.07.14s.07.05.07.15l.29-.29c-.1,0-.14,0-.14-.07s-.06-.07-.15-.07Zm1,44.27c0,.29.14.29.43,0q1.59-1.59.15-4a8.57,8.57,0,0,1-1.45,1.59,1.16,1.16,0,0,1,.65,1.16A2.32,2.32,0,0,0,69.25,113.59Zm-.72-5.2a.81.81,0,0,0,.57-.3,3,3,0,0,0,.58-1.3,3.26,3.26,0,0,1-.58-.87,2.32,2.32,0,0,0-.29.87,1.27,1.27,0,0,0-.14.51,1.31,1.31,0,0,1-.14.51Zm.14,8.53h-.14v.14Zm0,47.17-.14.28.14.15.29-.29Zm0-60.77.14.14.15-.14h-.29Zm.14,69.16a4.38,4.38,0,0,0,.87-.73l-.29-.28a2,2,0,0,0-.36.43,2,2,0,0,1-.36.43Zm0-97.08a.43.43,0,0,0,.15.29.41.41,0,0,0,.29-.15.43.43,0,0,0-.15-.29Zm.29,50.49a.29.29,0,0,1,.08-.22.31.31,0,0,0,.07-.21l-.29-.29a.27.27,0,0,1-.07.21.31.31,0,0,0-.08.22Zm-.29,9.4c0-.09.1-.23.29-.43h.15l.14-.15h.15c-.19,0-.29.06-.29.15H69.1C68.91,135.06,68.81,135.2,68.81,135.29Zm1-65.68-.58.58a4.21,4.21,0,0,0,.79.43l.66.29c.09,0,.23-.09.43-.29a3.51,3.51,0,0,0-.65-.5A3,3,0,0,1,69.83,69.61Zm-.15,24.88a.43.43,0,0,1,.15.29.41.41,0,0,0,.29-.14.44.44,0,0,0-.14-.29c-.1,0-.15,0-.15.07S69.78,94.49,69.68,94.49Zm.58,23.3a.62.62,0,0,0-.14.43c.29,0,.43,0,.43-.14a6.62,6.62,0,0,0,.51-.58c.14-.19,0-.38-.36-.58-.2-.19-.29-.33-.29-.43l-.15.14c.1.1.17.14.22.14s.12,0,.22.15Zm.58,7.09a.58.58,0,0,0-.43-.15.4.4,0,0,0-.29.15c.19.19.33.29.43.29Zm-.58,2.6v-.14c0,.09,0,.14.15.14Zm.29,30.24.29-.58a.24.24,0,0,1-.22-.14.22.22,0,0,0-.21-.15.29.29,0,0,1-.08.22.34.34,0,0,0-.07.22C70.26,157.39,70.36,157.53,70.55,157.72Zm0-74.22v-.29h-.14v.29Zm0,15c.09,0,.15,0,.15-.08s0-.07.14-.07l-.14-.15-.29.15ZM71,123l.58.29c.1,0,.24-.15.43-.44l-.57-.29Zm.29-8,.15.15V115Zm.29-7.81a.43.43,0,0,0,.15.29H72l-.28-.29ZM72,83.35c-.19.2-.28.34-.28.44a.22.22,0,0,0,.14.21.85.85,0,0,1,.3.37c0-.1.09-.24.28-.44A2.17,2.17,0,0,0,72,83.35Zm.16,68.73a4.64,4.64,0,0,0,.86-.72c0-.1-.07-.2-.22-.3a2.82,2.82,0,0,1-.36-.28l-.72.72A2,2,0,0,0,72.15,152.08Zm.14-64.67a6.11,6.11,0,0,0,1-.3l-.87-.57A.39.39,0,0,0,72,87C72,87.26,72.09,87.41,72.29,87.41ZM72.58,68c-.2.19-.29.34-.29.43l.29.29a.25.25,0,0,1,.29-.29.38.38,0,0,1-.15-.22S72.67,68.12,72.58,68Zm.29,44c-.1,0-.15,0-.15-.14s-.14,0-.14.07,0,.07-.15.07l.15.15A.43.43,0,0,0,72.87,112Zm.57-6.65a.43.43,0,0,0,.15-.29c0-.1-.1-.15-.29-.15l-.14.29C73.34,105.2,73.44,105.25,73.44,105.35Zm.15,48.32c.1,0,.29-.14.57-.44a2.08,2.08,0,0,1-.57-.43c-.1,0-.15,0-.15.07s0,.08-.14.08l-.14.14A2.17,2.17,0,0,0,73.59,153.67ZM74,67.29l.44-.43c-.2,0-.32,0-.36-.14a.25.25,0,0,0-.22-.15c-.09,0-.29.15-.58.43A2.43,2.43,0,0,0,74,67.29Zm-.58,49.92c0,.1,0,.15-.14.15v.14a.12.12,0,0,0,.14-.14Zm1.16,51.51v-.15l-.14.15ZM74.89,108v-.14l-.14.14Zm.44,22.43c.09,0,.14,0,.14-.15v-.14a.13.13,0,0,1-.14.14Zm.43-9.12v-.14l-.15.14Zm0-38.05a.12.12,0,0,0,.14-.14h-.14Zm.43,80c0-.1,0-.15-.14-.15H75.9v.15Zm-.14-56.28h.14v-.15h-.14Zm.14,18.16a4.4,4.4,0,0,1,.3.5l.57-.29a2.9,2.9,0,0,1-.43-.51,4.4,4.4,0,0,1-.3-.5l-.28.29A1,1,0,0,0,76.19,125.1Zm.73,31.17a2.14,2.14,0,0,0,.86-.72c-.09,0-.24-.1-.43-.29l-.14-.14-.58.58A.79.79,0,0,0,76.92,156.27ZM82,162.35a4.34,4.34,0,0,1,.72-1.23,4.45,4.45,0,0,0,.73-1.23q-.59.44-1.08.87a10.91,10.91,0,0,1-1.23.87,5.38,5.38,0,0,0,.14-1.45c0-.19-.2-.39-.58-.58a3.15,3.15,0,0,1-.79.8,2.36,2.36,0,0,0-.8.94c-.49.67-.29,1.16.58,1.44a4.09,4.09,0,0,1-.51.44,1,1,0,0,0-.36.43,7.05,7.05,0,0,1-.44,1.23c-.19.44-.19.75,0,.94.3.39.61.49.94.29l1.09-.58a11.78,11.78,0,0,0,.79-1.59A13.09,13.09,0,0,1,82,162.35Zm-1.59,4.78c.1,0,.14,0,.14-.15h-.14l-.15.15Zm2.9-96.51-.15.29a.29.29,0,0,0,.07.22.29.29,0,0,1,.08.22l.43-.44a.49.49,0,0,0-.22-.14S83.38,70.72,83.29,70.62Zm.86,6.22c0,.1,0,.15-.07.15S84,77,84,77.13a.38.38,0,0,0,.14.29l.29-.29Zm2.6,90.57a4.72,4.72,0,0,1,.58-1.08,1.23,1.23,0,0,0,.3-.8c0-.09-.25-.38-.73-.86a1.73,1.73,0,0,0-.43.72,1.86,1.86,0,0,1-.44.72A6.43,6.43,0,0,0,86.75,167.41Zm-.43-4.91a2.32,2.32,0,0,0,.43.36,2,2,0,0,1,.44.36c0-.1,0-.15.07-.15s.07,0,.07-.14a3.85,3.85,0,0,0-.5-.22c-.14-.05-.32-.12-.51-.21h0Zm.15,9.54.43-.43a.24.24,0,0,0-.15-.22.24.24,0,0,1-.14-.21l-.43.43C86.18,171.71,86.27,171.85,86.47,172Zm2.45.44,1.6-.87a8,8,0,0,1-.8-.65l-.51-.51a3,3,0,0,0-.86,1.3c-.1.1-.06.25.14.44S88.83,172.48,88.92,172.48Zm.44-12.3a5.09,5.09,0,0,0-1,1,.43.43,0,0,1,.29.15,1.48,1.48,0,0,1,.22.29.88.88,0,0,0,.21.29,3.9,3.9,0,0,0,.87-1.31c.09,0,0-.07-.14-.21A.87.87,0,0,0,89.36,160.18Zm2,4.77v-.14h-.14ZM92.69,78a2.22,2.22,0,0,0-1,1.16c-.09.1-.07.21.08.36a1.57,1.57,0,0,0,.51.36l.57-.58a3.26,3.26,0,0,1,.87-.57,3.61,3.61,0,0,1-.72-.58A.43.43,0,0,0,92.69,78Zm-.87,93.75h-.15v.15Zm3.47-57.15H95l.15.15Zm2.89,45.73A.42.42,0,0,0,98,160h-.15v.3Zm.3-43.56v-.14l-.15.14Zm1.58,37.62h-.14c0,.1,0,.15.14.15Zm.15-85.5c0,.09,0,.14-.07.14s-.08,0-.08.15h.15l.14-.15Zm.73,4.77v.14h.14v-.14Zm.29,90.86v-.15h-.29v.15Zm.14-93a.42.42,0,0,0-.29.14l.15.15.28-.29Zm.29,36.17h.14v-.14Zm.43,49.05v-.29H102a.41.41,0,0,0-.15.29ZM102,124.15c.1,0,.14,0,.14-.07s0-.07.14-.07a.13.13,0,0,1-.14-.14A.38.38,0,0,0,102,124.15Zm.72,22c.29,0,.44-.1.44-.29s-.1-.24-.3-.44c-.09.2-.19.29-.29.29s-.14,0-.14.15a.13.13,0,0,0,.14.14Zm0-9.7.14.15a.41.41,0,0,0,.15-.29h-.29Zm.14-57.15H103v-.14Zm0,4.49.15.14v-.14a.13.13,0,0,0-.15-.15ZM104,68h.15v-.15Zm.58,91v-.14l-.14.14h-.29l.29.29V159Zm-.14-88.4v.15a.39.39,0,0,0,.28-.15Zm1.16,9.7c-.78.58-1.07,1.2-.88,1.88,0,.19.15.29.44.29a.42.42,0,0,0,.29.14c.19-.19.41-.43.65-.72s.46-.53.65-.73a1.37,1.37,0,0,1-.29-.65.48.48,0,0,0-.14-.36C106.19,80.08,106,80.12,105.57,80.32Zm-.73-2.61H105l.15-.14h-.29ZM106,86.1l-.15-.14v.14Zm0-7.67h.14a.13.13,0,0,0-.14-.14Zm.29,73.79-.29.15.14.14.15-.14Zm0,14.47a.83.83,0,0,0,.57-.29l-.28-.29a.41.41,0,0,1-.29.15.42.42,0,0,0-.29.14l.14.14A.13.13,0,0,0,106.29,166.69Zm.14-94.91c-.1.1-.14.17-.14.22s-.06.12-.15.21c.09-.09.15-.16.15-.21S106.33,71.88,106.43,71.78Zm.87,3-.29-.58a.85.85,0,0,0-.58.29l.15.43a.57.57,0,0,0,.36-.07A.57.57,0,0,1,107.3,74.82Zm-.5,1.44c-.06,0-.08,0-.08-.14l-.29.29c0,.1,0,.15.08.15s.07,0,.07.14l.28-.29C106.86,76.32,106.84,76.26,106.8,76.26Zm.43,56.86a.74.74,0,0,1,.36-.28l-.58-.44c-.09,0-.29.15-.58.44l.43.43C107.06,133.27,107.17,133.22,107.23,133.12Zm-.08,23.15.15-.14a.13.13,0,0,1-.15-.14l-.14.14A.12.12,0,0,1,107.15,156.27Zm.73-49.62-.29-.29-.29.14c.1.1.15.17.15.22s0,.12.14.22Zm0-29.37a.13.13,0,0,1-.14.14l.28.29c0-.09,0-.14.15-.14ZM108.6,153a.58.58,0,0,0-.43.14c.09.1.14.17.14.22s0,.12.15.22c0-.1,0-.15.07-.15s.07,0,.07-.15Zm-.29,12.15a.13.13,0,0,1,.15-.15v-.14c-.2,0-.29.05-.29.14Zm.15-45a.6.6,0,0,0-.15.44v.58a.87.87,0,0,0,.29-.58.29.29,0,0,0-.07-.22A.29.29,0,0,1,108.46,120.1Zm.14-44.41.29.28v-.14a.13.13,0,0,0-.14-.14Zm.29,34.57c.1-.09.17-.14.22-.14s.12-.05.21-.14l-.29-.58-.43.43a.13.13,0,0,1,.15.15C108.75,110.17,108.79,110.26,108.89,110.26ZM109,135l-.14-.15c-.1,0-.14,0-.14.07s0,.08-.15.08l.29.28Zm-.43,20a.41.41,0,0,1,.29.15l-.14-.15Zm.58-75.23a.14.14,0,0,1-.15-.15h-.14a.42.42,0,0,0,.14.29Zm.29-6.08-.29.29.29.29a.31.31,0,0,1,.07-.22.28.28,0,0,0,.08-.22Zm.15,32.7h-.15v.14Zm.72-23.59a5.62,5.62,0,0,1-.72.87,1.83,1.83,0,0,1,.36.22,1.34,1.34,0,0,0,.36.22.6.6,0,0,1,.14-.44.6.6,0,0,0,.15-.43c-.1,0-.15,0-.15-.14Zm.86,23.15c.29.1.59,0,.88-.43a2.09,2.09,0,0,0,.43-1.3h-.29c-.1,0-.14,0-.14-.15a5.67,5.67,0,0,0-.8.65,5.11,5.11,0,0,1-.8.66Q111.07,105.92,111.2,105.92Zm-.14,2.75a5.12,5.12,0,0,1,.22-.72.62.62,0,0,0,.07-.29.25.25,0,0,0-.29-.29l-.43.44A1.71,1.71,0,0,0,111.06,108.67Zm.87-31.1a.29.29,0,0,1-.22-.07.29.29,0,0,0-.22-.08c.1,0,.25.1.44.29a4,4,0,0,1-.07.65,3.21,3.21,0,0,0-.07.65.79.79,0,0,0,.29.58,1.09,1.09,0,0,1,.35-.43c.15-.1.22-.2.22-.29s-.19-.38-.28-.58a2.69,2.69,0,0,0-.44-.58Zm.72,4.63c0-.2,0-.31.15-.37s.14-.16.14-.36,0-.31-.14-.36a.7.7,0,0,1-.29-.36.81.81,0,0,0-.29.58Zm-.28,70.17a.41.41,0,0,0,.14.29l-.14-.29h0Zm.28,3.9c0-.09,0-.14.07-.14s.08,0,.08-.14l-.15-.15-.14.15Zm.15-1.88v-.14h-.15v.14Zm.14-44-.14.15v.14l.14-.14Z"/><path class="cls-2" d="M179.79,169.58a51.24,51.24,0,0,1,3,5.21c.47.77.28,1.16-.58,1.16H133.64a3.82,3.82,0,0,1-3.48-1.88q-1.44-2.74-3-5.28t-3-5.28c-.19-.48-.39-1-.58-1.45a3.91,3.91,0,0,1-.29-1.45V147.88a3,3,0,0,1,.29-1.73c.19-.2.77-.29,1.74-.29h15.33c1.07,0,1.67.09,1.81.29a4.47,4.47,0,0,1,.22,1.88v6.36a4.42,4.42,0,0,0,.36,1.74c.15.19.7.29,1.67.29h12.15a1.42,1.42,0,0,0,1.88-1.88V75.25a9,9,0,0,0-1.16-4.77c-.77-1.26-1.5-2.46-2.17-3.62s-1.4-2.36-2.17-3.62h30.38c-.77,1.36-1.54,2.68-2.31,4s-1.54,2.63-2.32,4a8.85,8.85,0,0,0-.43,1.45c-.1.48-.2,1-.29,1.44a7.63,7.63,0,0,0-.14,1.74v87.68A11.4,11.4,0,0,0,179.79,169.58Zm-53.54-17.65c0,.2.15.29.44.29a.31.31,0,0,1,.07-.22.26.26,0,0,0,.08-.21.63.63,0,0,0-.08-.29,5,5,0,0,1-.22-.58,4.74,4.74,0,0,1-.21.72A.67.67,0,0,0,126.25,151.93Zm.15-2.31.14.14v-.14l-.14-.15Zm0,7.09.14-.15h-.14Zm2.31-2.75c-.29-.29-.48-.43-.58-.43a2.74,2.74,0,0,0-1.44.28,2.36,2.36,0,0,0-.15,1.16.4.4,0,0,0,.15.29.38.38,0,0,0,.29.14,5.52,5.52,0,0,0,.87-.72A5.05,5.05,0,0,1,128.71,154Zm-1.87,4.34.57-.29-.57-.29a.29.29,0,1,0,0,.58Zm.14,2.89.29-.58c0,.1-.14,0-.43-.28a.25.25,0,0,1-.15.21.23.23,0,0,0-.15.22c0,.1,0,.14.15.14Zm2-2.46a7.21,7.21,0,0,0,.14-1.59,5.35,5.35,0,0,0-.14-1.44c0-.1-.15-.3-.44-.58a3,3,0,0,1-.58.72c-.67.29-.77.77-.29,1.45A17.14,17.14,0,0,1,129,158.73Zm-.88,4.05a1.22,1.22,0,0,0,.15-.58l-.29-.14a.29.29,0,0,1-.07.22.29.29,0,0,0-.07.22Zm.44-3v-.15h-.15v.15ZM129,149a.22.22,0,0,0-.22.15.25.25,0,0,1-.22.14c0,.09,0,.14.07.14s.07.05.07.15,0,.14.15.14a3,3,0,0,0,.72-.57.55.55,0,0,1-.36-.08A.28.28,0,0,0,129,149Zm0,2.6a.64.64,0,0,0,.72.73.9.9,0,0,0,.51-.15,3.06,3.06,0,0,1,.64-.29l-1.15-.87C129.24,151.06,129,151.26,129,151.64Zm1,8.54.29-.29c-.1,0-.15,0-.15-.07s0-.07-.14-.07-.15,0-.15.07-.05.07-.14.07Zm.57-2h.59a2.09,2.09,0,0,0-.15-.87c0-.2-.05-.31-.15-.36a.85.85,0,0,1-.29-.37.41.41,0,0,1-.28.15c-.1,0-.15,0-.15.14Zm0,4.19a2.07,2.07,0,0,0,.44-.58,2.34,2.34,0,0,1-.58-.43.38.38,0,0,0-.14.29c0,.1-.05.14-.15.14A2.23,2.23,0,0,0,130.59,162.35Zm.88-6.51a2.32,2.32,0,0,0-.29-.87v.15a.42.42,0,0,1,.14.28A1.07,1.07,0,0,0,131.47,155.84Zm.14-3.91c0-.09,0-.14.07-.14s.07,0,.07-.15l-.28-.14v.14A.38.38,0,0,0,131.61,151.93Zm.43-2.6a1.44,1.44,0,0,1-.22.36,2,2,0,0,0-.21.36c0,.1,0,.15.14.15s.15,0,.15.07,0,.07.14.07a2.28,2.28,0,0,0,.44-.58l-.15-.14A.25.25,0,0,1,132,149.33Zm.44,12a.4.4,0,0,1,.14-.29.88.88,0,0,1-.21-.29,1.17,1.17,0,0,0-.22-.29c-.2.19-.25.29-.15.29S132.19,161.05,132.48,161.34Zm-.15-2.46c.1-.1.17-.15.22-.15s.12,0,.21-.14a.4.4,0,0,0-.14-.29c-.1.1-.17.14-.21.14s-.12.05-.22.15Zm.87-7.82a9.64,9.64,0,0,0,1.3-1.15v-.15l.15-.29c-.1,0-.15,0-.15-.07s0-.07-.14-.07a.42.42,0,0,1-.29-.14c-.2.28-.39.57-.58.86s-.38.58-.58.87Zm.29,5.36a.13.13,0,0,1,.15-.15l-.15-.14Zm.87,11.43c0-.09,0-.15-.08-.15s-.07,0-.07-.14-.14,0-.14.07,0,.07-.15.07l.29.29Zm0-12.59.57-.29-.43-.43c-.29,0-.43.09-.43.29S134.16,155.07,134.36,155.26Zm.86,5.07c0,.09,0,.14-.07.14s-.07.05-.07.14h.29v-.28Zm.3-1.74a.46.46,0,0,0-.3.14l.44.44.72-.15a.8.8,0,0,0-.5-.29A.45.45,0,0,1,135.52,158.59Zm-.15,11v-.14l-.15.14Zm.44-2.89c-.2.2-.34.29-.44.29s0,.15.07.15.08,0,.08.14a.44.44,0,0,0,.14-.29A.43.43,0,0,1,135.81,166.69Zm.43,4.34v-.14l-.14.14Zm0-13.74v.14l.14-.14Zm.14,8.1a.6.6,0,0,0,.44-.15V165h-.58A.64.64,0,0,1,136.38,165.39Zm1.89-16.64a1.92,1.92,0,0,0-.73.44c.19.09.36.19.51.28a.66.66,0,0,0,.36.15,1.23,1.23,0,0,0,.21-.29A.92.92,0,0,1,139,149,2.79,2.79,0,0,0,138.27,148.75Zm.72,4.92v.14h-.15V154c0-.1-.1-.15-.29-.15a1.5,1.5,0,0,0-.5.08,1.61,1.61,0,0,1-.51.07.29.29,0,0,0,.07.22.27.27,0,0,1,.08.21v.15a1.12,1.12,0,0,1,.5-.15,1.16,1.16,0,0,0,.51-.14.44.44,0,0,0,.14-.29H139v-.29Zm1.73,19v-.29h-.14a.41.41,0,0,0-.14.29Zm.87-12.44c.1,0,.14-.05.14-.15h-.14Zm5.79,5.21a2.79,2.79,0,0,0,.29-.72.26.26,0,0,0-.29-.3c-.29.3-.43.49-.43.58s-.1.05,0,.15A1.44,1.44,0,0,0,147.38,165.39Zm5.64-.29h-.15v.14Zm7.53-96.79a.83.83,0,0,0,.28-.58.24.24,0,0,0-.14-.22.22.22,0,0,1-.14-.22A3,3,0,0,0,160,68Zm-.15,98.82c0-.1-.05-.15-.14-.15v.15Zm1.44-64.39c.3.49.49.49.59,0s.29-.72.57-.72.48,0,.87-.44c.58-.38.58-.77,0-1.15l-1.3-.44a.81.81,0,0,1-.57.15,4.81,4.81,0,0,1-.23,1.44A1.37,1.37,0,0,0,161.84,102.74Zm0-23.44A1.86,1.86,0,0,0,163,81.18a1.13,1.13,0,0,0,.73.15c.28-.29.34-.53.14-.73a8.4,8.4,0,0,1-.43-1,1.74,1.74,0,0,1,.14-1.16c0-.19-.17-.43-.5-.72s-.61-.53-.8-.72a1.38,1.38,0,0,0-.14.65,2.64,2.64,0,0,1-.14.79A1.92,1.92,0,0,1,161.84,79.3Zm2.76,10.85c.09.2.23.58.43,1.16a9.59,9.59,0,0,0-1.23.58c-.34.2-.7.39-1.08.58-.1-.38-.25-.87-.44-1.45l-.44,1.3a1.83,1.83,0,0,0,.44,1.31c.58.86,1.16.77,1.73-.29a4.24,4.24,0,0,1,1-1.3v-.73L164.6,90a2.93,2.93,0,0,1-.51-.65c-.14-.24-.27-.46-.36-.65-.19-.58-.19-1,0-1.16.48-.39.58-.65.28-.8s-.43-.31-.43-.5c.1-.77-.19-1.16-.86-1.16l-.15-.15-.29-.28-.14.14a.54.54,0,0,0,.43.14.13.13,0,0,0,.15.15q-.3.87-.51,1.74a6.83,6.83,0,0,0-.21,1.73,1.51,1.51,0,0,0,.78,1.45,2,2,0,0,0,1.82,0Zm-2.46,5.21a.84.84,0,0,0-.3.58c0,.2,0,.32.08.36a.64.64,0,0,1,.08.37,1.44,1.44,0,0,1,.21-.37,1.68,1.68,0,0,0,.22-.36.4.4,0,0,1-.15-.29A.46.46,0,0,0,162.14,95.36ZM162,66.72h.14v-.15l-.14-.15Zm.28,3h-.14l.14.14Zm1.3,28.49a5,5,0,0,0-1.3-.28.39.39,0,0,0-.14.28v.59l1.08.28c.34.1.7.2,1.09.29v-.14l.14-.29A4.38,4.38,0,0,1,163.58,98.25Zm-.29,6.08a.87.87,0,0,0-.29-.58.6.6,0,0,0,.44-.14l.43-.43-.29-.29-.43.43a.58.58,0,0,0-.15.43,1.08,1.08,0,0,1-.28.22,1,1,0,0,0-.29.22,2.91,2.91,0,0,0-.15,1.16,2.6,2.6,0,0,1,1,.14,2.38,2.38,0,0,1,.08-.58A.86.86,0,0,0,163.29,104.33Zm-.86,53.39-.15-.14v.14Zm0-83.34h.14v-.14l-.14-.15Zm.57,80.16a10.71,10.71,0,0,0,1.31-1l-.58-.58a4.1,4.1,0,0,0-1.16,1c-.1,0-.07.07.07.22Zm1.17-70.46.64-.65.65-.66a2.69,2.69,0,0,0-.79-.14,1.56,1.56,0,0,1-.66-.14,2.38,2.38,0,0,0-1,.28v-.14a.65.65,0,0,0-.07-.29.59.59,0,0,1-.07-.29l-.29.15.43.43v.14a3,3,0,0,1,.22.58,2.56,2.56,0,0,0,.22.58C163.73,84.22,164,84.27,164.17,84.08ZM162.86,110c-.1,0-.14,0-.14-.08s-.06-.07-.15-.07V110l.15.14Zm0-34.73c0,.1-.05.15-.14.15l.57.29h.15l.29.28-.29-.28h-.15Zm.87,90.43h-.15v.14Zm.14-91.59a.46.46,0,0,0-.14.29c0,.1.09.15.28.15l.16-.29A.43.43,0,0,1,163.87,74.09Zm0,34.73a3.72,3.72,0,0,0,.58.87l.44-.87a2.9,2.9,0,0,0,.21-.73,1.37,1.37,0,0,1,.36-.72,2.28,2.28,0,0,0,.44-.58l.28-.57c.1-.1.06-.3-.14-.59h-.29c-.1,0-.14.05-.14.15a4.89,4.89,0,0,1-1.16,1.3A1.81,1.81,0,0,0,163.87,108.82Zm0-38.63H164V70Zm.58,48.61a2.34,2.34,0,0,0,.58-.43.83.83,0,0,0-.58-.29l-.58.29A2,2,0,0,1,164.45,118.8Zm-.28-6.94c0-.1,0-.15.06-.15s.08,0,.08-.14v-.15l-.3.29Zm.14,4.19h-.14l.14.15Zm.29-43.4c0,.1-.06.14-.15.14,0,.2.05.29.15.29l.14-.14Zm.72,41.23a2,2,0,0,1,.43-.36,1,1,0,0,0,.29-.22.63.63,0,0,1-.36-.36.34.34,0,0,0-.36-.21l-.72.43Zm-.58,22.86h-.14v.14h.14Zm1.3-51.8c-.09-.77-.43-.86-1-.28a1.48,1.48,0,0,0-.29,1.59,1.79,1.79,0,0,0,1,1.3c.2,0,.39-.14.59-.44a.63.63,0,0,0-.08-.28,1,1,0,0,1-.08-.44A5.08,5.08,0,0,0,166,84.94Zm-1.3-14.75.15-.15h-.15Zm0,25.46a.4.4,0,0,0,.29.15.46.46,0,0,1,.29.14h0l-.43-.43C164.89,95.61,164.83,95.65,164.74,95.65Zm.15-2.31a.4.4,0,0,0,.14.29.58.58,0,0,0,.43-.15l-.29-.58C165,93.29,164.89,93.44,164.89,93.34Zm.14,3.47-.14.14c0,.1,0,.15.14.15l.14-.29Zm.72-8.39a1,1,0,0,1-.43-.08.82.82,0,0,0-.29-.07v.29a.31.31,0,0,1,.22.08.27.27,0,0,0,.21.07Zm.43,13.31c.39-.19.59-.34.59-.44a1.18,1.18,0,0,0-.29-.86,1.13,1.13,0,0,0-.73-.15v-.14h0V101A2.85,2.85,0,0,1,166.18,101.73Zm.3-27.2a4.11,4.11,0,0,0-.73.87c0,.09.1.14.29.14s.14,0,.14.15c.1-.1.35-.39.73-.87-.1,0-.14,0-.14-.07s-.05-.08-.15-.08A.13.13,0,0,1,166.48,74.53Zm-.58,29.08.28-.29L166,103l-.29.29Zm0-34.43H166V69h-.14Zm.28,41.95c.1.1.17.15.22.15a.4.4,0,0,1,.22.14c-.19-.19-.34-.29-.44-.29a.42.42,0,0,1-.14-.29c-.09,0-.14,0-.14.15Zm.3-29.66a2.34,2.34,0,0,0,.58-.43l-.44-.72-.28.58a.57.57,0,0,0,.06.28A.67.67,0,0,1,166.48,81.47Zm0,11a3.49,3.49,0,0,0,1-.29,3.61,3.61,0,0,1-.58-.22.62.62,0,0,0-.29-.07.39.39,0,0,0-.28.15C166.34,92.32,166.38,92.47,166.48,92.47Zm.58,65.11c.09-.1.14-.17.14-.22s.05-.12.15-.22l-.15-.14a.25.25,0,0,1-.29-.29,3.48,3.48,0,0,1-.43.72.65.65,0,0,1,.36.07A.28.28,0,0,0,167.06,157.58Zm.14-69.31a.85.85,0,0,1-.29.37.22.22,0,0,0-.14.21.22.22,0,0,0,.14.22.25.25,0,0,1,.15.22.57.57,0,0,0,.43-.58C167.39,88.71,167.29,88.56,167.2,88.27Zm0-20.11c-.1,0-.14,0-.14.07s-.06.08-.15.08h.15Zm-.14,27.78V95.8h-.15Zm.29-23.87c-.1,0-.15.05-.15.14h.29v-.14Zm.43,14.18a.13.13,0,0,1-.15-.15.83.83,0,0,0-.14-.58l-.29.15.43.43v.15h.15a.56.56,0,0,0-.15.43,2.28,2.28,0,0,0,.44.58v-.58a.23.23,0,0,0-.15-.21A.23.23,0,0,1,167.78,86.25Zm-.15,3.9-.43.44a2,2,0,0,0,.21.36,1.44,1.44,0,0,1,.22.36l.58-.58Zm.29,9c.1,0,.24-.09.43-.28a3.15,3.15,0,0,0-.72-.59v.59Zm.15-23.87a.59.59,0,0,0-.15.44.46.46,0,0,0,.29.14.42.42,0,0,1,.29.14c0-.09,0-.14.07-.14s.08-.09.08-.29A.79.79,0,0,1,168.07,75.25Zm0-8.68A1.08,1.08,0,0,1,168,67c-.06.1,0,.25.07.44l.43.43a.39.39,0,0,1,.15-.28.2.2,0,0,0,0-.3,2.21,2.21,0,0,0-.3-.87A.39.39,0,0,1,168.07,66.57Zm.14,16.35v-.15h-.14Zm0,1.3c0,.1.1.15.29.15v-.15Zm.29,26a1.56,1.56,0,0,0,1-.64,2.09,2.09,0,0,0,.57-1.38c0-.1-.1-.24-.29-.43h-.14c-.1,0-.14,0-.14.14a7.23,7.23,0,0,1-.66,1.08,6.71,6.71,0,0,0-.65,1.23Zm0,43.41h-.15l.15.14Zm1.16-74.94c-.39-.1-.61-.08-.65.07a1.09,1.09,0,0,0,0,.57,1.82,1.82,0,0,1,0,.66c0,.19-.22.29-.51.29v.43c.39.2.63.24.73.15a7.26,7.26,0,0,0,1.23-1,9.84,9.84,0,0,1,1.08-.94,7.75,7.75,0,0,1,.87-.5,3.37,3.37,0,0,0,.73-.51l.14.15a2,2,0,0,0,.58.43v-.15a.85.85,0,0,0-.58-.28l-.14-.15a2.41,2.41,0,0,0,.57-.87,14.05,14.05,0,0,0,.58-2.17c-1.64,0-2.7.92-3.18,2.75-.2.39-.37.7-.51.94S170.14,78.92,169.66,78.73Zm-1,56.56h-.15v.15Zm.58-33c-.1,0-.15,0-.15-.07s-.05-.08-.14-.08l-.15.29.29.15Zm.86-32.7c-.67.2-1,.58-.86,1.16,0,.09,0,.14.07.14s.07,0,.07.15a2.34,2.34,0,0,0,.43-.58l.29-.58c.2-.19.29-.34.29-.44A2,2,0,0,0,171,69a1,1,0,0,1-.29.22,1.61,1.61,0,0,0-.29.21c-.09,0-.14,0-.14.08S170.19,69.61,170.09,69.61ZM170,87.11c-.29,0-.43,0-.43.15s-.15.17-.15.22-.05.12-.14.22h.57A.84.84,0,0,0,170,87.11Zm1,56.72c.29-.48.34-.82.15-1a1,1,0,0,0-.87-.58c-.19,0-.39.24-.58.72a1.12,1.12,0,0,0-.14.51,1.3,1.3,0,0,1-.15.51,2.09,2.09,0,0,1,.15.87l.86-.44C170.77,144.22,171,144,171,143.83Zm-1.3-60.33v-.15l-.14.15Zm-.14,11.43a.4.4,0,0,0,.14.29l.14-.15c-.09,0-.14-.09-.14-.29Zm.86-20a.57.57,0,0,1,.58-.43,1.2,1.2,0,0,0-.72-.44.85.85,0,0,0-.58.29,1.11,1.11,0,0,0,.29.22A2,2,0,0,1,170.38,75ZM170,90.59a.41.41,0,0,0-.15-.29l-.14.14c.1,0,.14,0,.14.07S169.85,90.59,170,90.59Zm.72,43.12c.48-.3.73-.54.73-.73a2.64,2.64,0,0,0-.15-.72.68.68,0,0,0-.73-.44,2.43,2.43,0,0,0-.57.44c-.19.19-.24.34-.15.43a.64.64,0,0,0,.29.51A3.85,3.85,0,0,1,170.67,133.71Zm-.15-40.52h-.72c.29.29.49.44.58.44a3,3,0,0,1,.58-.22,3,3,0,0,0,.58-.22.13.13,0,0,0,.15-.14l-.15.14Zm-.43,10.27a.41.41,0,0,0-.29.15.85.85,0,0,0,.29.58.43.43,0,0,1,.29-.15.42.42,0,0,1-.14-.29A.43.43,0,0,0,170.09,103.46ZM175.16,114a.82.82,0,0,0-.15-.58.62.62,0,0,0-.43.14,4.87,4.87,0,0,0-1.16,1.3,1.83,1.83,0,0,1-1.45.87,17.35,17.35,0,0,0,1-1.73l.87-1.74c.09-.09,0-.34-.15-.72h-.43a1.85,1.85,0,0,1-.94,1.44,3.2,3.2,0,0,0-1.23,1.16c-.39.68-.1,1.21.86,1.59-.28.39-.57.75-.86,1.09a8,8,0,0,0-.87,1.23,1.38,1.38,0,0,0-.15.65.51.51,0,0,0,.29.5c.2.2.58.2,1.16,0a2.47,2.47,0,0,0,.72-.72c.49-.77,1-1.52,1.45-2.24S174.68,114.8,175.16,114Zm-4.64-41.09v-.15l-.14-.14v.14C170.38,72.89,170.43,72.94,170.52,72.94Zm0,4.48c0-.09,0-.14-.06-.14s-.08,0-.08-.15v.15Zm1,19.39a2.23,2.23,0,0,1-.58-.43,2.43,2.43,0,0,1-.29.72c0,.1.1.24.29.43A3.27,3.27,0,0,1,171.54,96.81Zm.15-13.74a3.85,3.85,0,0,0-.22.5,4.9,4.9,0,0,1-.22.51c.68-.19,1.06-.44,1.16-.73a2.71,2.71,0,0,0,.28-1.44h.15c0-.19,0-.32.08-.37a.29.29,0,0,0,.07-.21c-.1,0-.15,0-.15-.07s-.05-.08-.15-.08a1.72,1.72,0,0,0,.15.73h-.15a3.2,3.2,0,0,1-.72.43A1,1,0,0,0,171.69,83.07Zm-.29-1.89h.14V81h-.14Zm.43,87.54h.43a13.62,13.62,0,0,0,2.75-2,.7.7,0,0,0,.36-.58,1.25,1.25,0,0,1,.37-.72.81.81,0,0,1-.29-.58.48.48,0,0,0-.29-.44c-.29-.09-.63.06-1,.44l-2.6,3a.31.31,0,0,0-.07.36,1.57,1.57,0,0,1,.07.51Zm-.29-19,.15.15v-.15Zm.58-77.26c-.1,0-.24.1-.43.29l.28.29.29-.29Zm.29,69v-.15l-.15.15H172v.14c.1,0,.15,0,.15-.07s0-.07.14-.07Zm-.15-45.44c-.1.1,0,.2.15.3l.14.14.44-.44-.3-.57a.74.74,0,0,1-.28.36A.23.23,0,0,0,172.26,96.08Zm1.74-9a1.12,1.12,0,0,1-.72.08,1.16,1.16,0,0,0-.73.07.87.87,0,0,0-.29.58v1.74a3.26,3.26,0,0,1,.88-.58,1.61,1.61,0,0,0,.21-.29.83.83,0,0,1,.22-.29Zm-1.74,11.44c0,.19.05.29.15.29h.28c0-.2,0-.29-.14-.29Zm.15,48.32a.41.41,0,0,1-.15-.29v.14ZM172.55,67a.42.42,0,0,0,.14.29.33.33,0,0,0,.23-.07.32.32,0,0,1,.22-.07l-.3-.29A.46.46,0,0,0,172.55,67Zm.44,40.52c-.1,0-.24.09-.44.29.2.19.34.28.44.28a.43.43,0,0,1,.21-.14c.05,0,.12,0,.22-.14C173.23,107.61,173.08,107.52,173,107.52Zm.58-38.34-.88.43v.15a.13.13,0,0,0,.15.14,2.25,2.25,0,0,1,.58.07.85.85,0,0,0,.58-.07c-.1,0,0-.24.29-.72,0-.1,0-.15.14-.15h-.14v.15Zm-.15,71c0-.09,0-.14.07-.14s.08,0,.08-.15l-.15-.14a.4.4,0,0,0-.28.14Zm.29-68.58-.14-.28-.29.28.29.15Zm-.43,22.43.29.58a2.11,2.11,0,0,1,.43-.58c-.1,0-.24-.09-.43-.29Zm.29-7.81V86.1l-.15.15Zm-.15,60v.14h.15Zm1.16,5.35c-.19,0-.29-.09-.29-.28l-.15-.15c-.28.2-.43.39-.43.58l.15.14c0,.1,0,.15.14.15a.24.24,0,0,0,.22-.15A.87.87,0,0,1,174.58,151.64ZM174,172.77v-.15l-.14.15Zm.72-100.56a2.66,2.66,0,0,0-.29.73h-.14v.14H174v.15l.29-.15v-.14h.14a2.47,2.47,0,0,1,.44-.58A.13.13,0,0,1,174.72,72.21Zm.59,97.37a.38.38,0,0,1,.14-.28l.29-.29a5.91,5.91,0,0,1-.29-.66c-.1-.23-.24-.55-.44-.94a4.54,4.54,0,0,1-.58.73.47.47,0,0,0-.14.58A3.24,3.24,0,0,0,175.31,169.58Zm-1-67.85c0,.1.1.24.29.43.19-.19.29-.33.29-.43s-.1-.24-.29-.44C174.39,101.49,174.29,101.64,174.29,101.73Zm.14,15.19a.26.26,0,0,1,.29-.29v-.14C174.53,116.68,174.43,116.82,174.43,116.92Zm.44-33.85-.15-.15-.14.15c.1,0,.14,0,.14.07s.05.07.15.07ZM176,66.86l.28-.29c-.09,0-.14,0-.14-.15l-.29.3Zm.14,2.17.29-.29c0-.09,0-.15-.07-.15s-.08,0-.08-.14a.42.42,0,0,0-.28.14.32.32,0,0,0,.06.22A.27.27,0,0,1,176.17,69Z"/></g></g></svg>