<svg xmlns="http://www.w3.org/2000/svg" viewBox="0 0 239.19 239.2"><defs><style>.cls-1{fill:#2C366E;}.cls-2{fill:#fff;}.cls-3{fill:none;}</style></defs><title>Recurso 1</title><g id="Capa_2" data-name="Capa 2"><g id="Capa_1-2" data-name="Capa 1"><circle class="cls-1" cx="119.6" cy="119.6" r="119.6"/><path class="cls-2" d="M119.59,117.86c17.67,0,32-17.4,32-38.86s-4.7-38.86-32-38.86-32,17.4-32,38.86,14.33,38.86,32,38.86Z"/><path d="M59.16,177.19c0-1.3,0-.36,0,0Z"/><rect class="cls-3" x="59.15" y="40.14" width="120.89" height="158.92"/><path class="cls-2" d="M180,175.63c-.59-37.39-5.48-48-42.84-54.79,0,0-5.26,6.7-17.52,6.7s-17.52-6.7-17.52-6.7c-37,6.67-42.14,17.17-42.82,53.57-.06,3-.08,3.13-.09,2.78v3.93s8.9,17.94,60.43,17.94S180,181.12,180,181.12v-2.9c0,.21,0-.2-.06-2.59Z"/></g></g></svg>