<svg xmlns="http://www.w3.org/2000/svg" xmlns:xlink="http://www.w3.org/1999/xlink" viewBox="0 0 121.9 36.53"><defs><style>.cls-1{fill:none;}.cls-2{fill:#fff;}.cls-3,.cls-5{fill:#3760b9;}.cls-4{clip-path:url(#clip-path);}.cls-5{stroke:#3760b9;stroke-linejoin:round;stroke-width:0.15px;}</style><clipPath id="clip-path"><circle class="cls-1" cx="26.02" cy="18.13" r="18.13"/></clipPath></defs><title>logo</title><g id="Capa_2" data-name="Capa 2"><g id="Capa_1-2" data-name="Capa 1"><path class="cls-2" d="M63.12,25.75a5,5,0,0,1,2.79,5.41c-.5,3.18-2.65,5.1-7,5.1H50.83V16.52h7.92c3.76,0,6.52,2.26,6.41,6A4,4,0,0,1,63.12,25.75Zm-4.38-1.51a1.76,1.76,0,1,0,0-3.51h-2.9v3.51Zm0,7.64a2,2,0,1,0,0-4h-2.9v4Z"/><path class="cls-2" d="M67.75,23c0-4.54,4.07-6.77,8.17-6.77s8.2,2.26,8.2,6.77v6.75c0,4.52-4.07,6.77-8.17,6.77s-8.2-2.26-8.2-6.77Zm5,6.75c0,1.45,1.62,2.15,3.21,2.15s3.18-.73,3.18-2.15V23c0-1.53-1.64-2.23-3.26-2.23s-3.12.78-3.12,2.23Z"/><path class="cls-2" d="M86.3,23c0-4.54,4.07-6.77,8.17-6.77s8.2,2.26,8.2,6.77v6.75c0,4.52-4.07,6.77-8.17,6.77s-8.2-2.26-8.2-6.77Zm5,6.75c0,1.45,1.62,2.15,3.21,2.15s3.18-.73,3.18-2.15V23c0-1.53-1.64-2.23-3.26-2.23s-3.12.78-3.12,2.23Z"/><path class="cls-2" d="M115.68,16.52h6.22l-7.81,9.53,7.78,10.2h-6.33l-5-7.05-.17.22v6.83h-5V16.52h5v7.3Z"/><path class="cls-2" d="M56.83,6.23h5.62V6.9c0,4.66-1.67,6.66-5.62,6.66-4.2,0-6-2-6-6.66s1.8-6.66,6-6.66c3.2,0,4.84,1.3,5.44,4.32H60.75c-.49-2.09-1.64-3-3.92-3-3.08,0-4.34,1.55-4.34,5.29s1.28,5.29,4.34,5.29c2.9,0,4.11-1.39,4.11-4.75H56.83Z"/><path class="cls-2" d="M67.61,13.38c-2.36,0-3.37-1.3-3.37-4.32V4.2h1.44V9.06c0,2.21.67,3.11,2.27,3.11s2.5-.94,2.5-3.11V4.2h1.44v9H70.72l-.2-1.06A3.24,3.24,0,0,1,67.61,13.38Z"/><path class="cls-2" d="M78.25,12.32a2.17,2.17,0,0,0,2.45-1.8h1.37c-.43,2-1.58,2.86-3.82,2.86-2.93,0-4.19-1.4-4.19-4.68S75.29,4,78.25,4s4.18,1.46,4.18,4.88v.59H75.51C75.67,11.44,76.46,12.32,78.25,12.32Zm0-7.24c-1.91,0-2.75,1-2.75,3.44H81C81,6.05,80.15,5.08,78.23,5.08Z"/><path class="cls-2" d="M85.84,8.7v4.5H84.4v-9h1.17l.22,1.08A2.45,2.45,0,0,1,88.11,4h1V5.39h-1C86.36,5.39,85.84,6.25,85.84,8.7Z"/><path class="cls-2" d="M92.34,8.7v4.5H90.9v-9h1.17l.22,1.08A2.45,2.45,0,0,1,94.61,4h1V5.39h-1C92.86,5.39,92.34,6.25,92.34,8.7Z"/><path class="cls-2" d="M101.05,12.32a2.17,2.17,0,0,0,2.45-1.8h1.37c-.43,2-1.58,2.86-3.82,2.86-2.93,0-4.19-1.4-4.19-4.68S98.1,4,101.05,4s4.18,1.46,4.18,4.88v.59H98.32C98.48,11.44,99.27,12.32,101.05,12.32Zm0-7.24c-1.91,0-2.75,1-2.75,3.44h5.51C103.79,6.05,103,5.08,101,5.08Z"/><path class="cls-2" d="M108.65,8.7v4.5h-1.44v-9h1.17l.22,1.08A2.45,2.45,0,0,1,110.92,4h1V5.39h-1C109.17,5.39,108.65,6.25,108.65,8.7Z"/><path class="cls-2" d="M121.9,8.7c0,3.28-1.31,4.68-4.36,4.68s-4.38-1.4-4.38-4.68S114.48,4,117.54,4,121.9,5.42,121.9,8.7Zm-4.36,3.47c2.05,0,2.92-1,2.92-3.47s-.85-3.48-2.92-3.48-2.94,1-2.94,3.48S115.47,12.18,117.54,12.18Z"/><path class="cls-2" d="M63.12,25.75a5,5,0,0,1,2.79,5.41c-.5,3.18-2.65,5.1-7,5.1H50.83V16.52h7.92c3.76,0,6.52,2.26,6.41,6A4,4,0,0,1,63.12,25.75Zm-4.38-1.51a1.76,1.76,0,1,0,0-3.51h-2.9v3.51Zm0,7.64a2,2,0,1,0,0-4h-2.9v4Z"/><path class="cls-2" d="M67.75,23c0-4.54,4.07-6.77,8.17-6.77s8.2,2.26,8.2,6.77v6.75c0,4.52-4.07,6.77-8.17,6.77s-8.2-2.26-8.2-6.77Zm5,6.75c0,1.45,1.62,2.15,3.21,2.15s3.18-.73,3.18-2.15V23c0-1.53-1.64-2.23-3.26-2.23s-3.12.78-3.12,2.23Z"/><path class="cls-2" d="M86.3,23c0-4.54,4.07-6.77,8.17-6.77s8.2,2.26,8.2,6.77v6.75c0,4.52-4.07,6.77-8.17,6.77s-8.2-2.26-8.2-6.77Zm5,6.75c0,1.45,1.62,2.15,3.21,2.15s3.18-.73,3.18-2.15V23c0-1.53-1.64-2.23-3.26-2.23s-3.12.78-3.12,2.23Z"/><path class="cls-2" d="M115.68,16.52h6.22l-7.81,9.53,7.78,10.2h-6.33l-5-7.05-.17.22v6.83h-5V16.52h5v7.3Z"/><circle class="cls-3" cx="26.02" cy="18.13" r="18.13"/><polygon class="cls-2" points="36.32 10.8 36.59 13.33 34.83 13.93 36.5 14.75 36.15 17.76 37.94 15.22 39.66 16.46 38.41 13.92 39.32 12.09 37.84 12.81 36.32 10.8"/><g class="cls-4"><path class="cls-2" d="M22.4,34.78c-2.75,0-9.81-.78-16-8l4.43-3.57.06-.54a.07.07,0,0,0,0-.07h-.08c-.31.2-7.52,4.95-7.65,7.61a.08.08,0,0,0,0,.06l0,0h0a1.73,1.73,0,0,1,.45-.06,1.41,1.41,0,0,1,1.43,1.27A1.45,1.45,0,0,1,5,32.66a2.42,2.42,0,0,1-1.43.85H3.36a1.52,1.52,0,0,1-1.1-.45A2.77,2.77,0,0,1,1.69,31s-.25-3.29,3.79-6.63a.07.07,0,0,0,0-.13h0l-2.56,1.8a.78.78,0,0,1-.42.15.63.63,0,0,1-.55-.43A15.21,15.21,0,0,1,.09,19.62s-.16-.71.77-1L4.4,17.1a.07.07,0,0,0,0-.14S2,15.84,2.11,11.73c0,0-.06-.09-.08-.09H2a1.17,1.17,0,0,1-.91-.39A1.58,1.58,0,0,1,1,9.85h.13c.28,0,1,0,1.86,0a16.1,16.1,0,0,1,6.34,1.05h0a2.78,2.78,0,0,0,.71,1.62l.05,0h0a.08.08,0,0,0,0-.09,4.31,4.31,0,0,1-.28-1.8h0a4.8,4.8,0,0,1,4-2.09,5.75,5.75,0,0,1,.7,0s.71.08,1.56,1.53h.06c.14,0,.2-.16.22-.68.25-.37,1-1.44,1.47-1.54A.07.07,0,0,0,18,7.82a.08.08,0,0,0,0-.08,3.48,3.48,0,0,1-1.33-2.4,2.63,2.63,0,0,1,1.41-2h0a2.79,2.79,0,0,1,1.12-.26,1.72,1.72,0,0,1,1.69,1.41,1.32,1.32,0,0,1-.06.91.7.7,0,0,1-.5.32,2.91,2.91,0,0,1-.54.06A1.15,1.15,0,0,1,19,5.6l0,0h0a.08.08,0,0,0,0,.07,1,1,0,0,0,1.08.8,4.11,4.11,0,0,0,1.77-.55A6.78,6.78,0,0,1,26,4.32a6.29,6.29,0,0,1,4.49,2.31c1,1.39,1.12,3.29.46,5.65a2.33,2.33,0,0,0-.55-1.37,2.08,2.08,0,0,0-1.6-.6l-.42,0c-.07,0-1.74.19-2.55,2.8-.31,1-.81,1.57-1.43,1.57a1.53,1.53,0,0,1-.85-.31l-1.33-1.25h0a5.4,5.4,0,0,1,4.13-3.9,8.15,8.15,0,0,1,1.3-.11c2.16,0,2.74,1.1,2.75,1.11a.07.07,0,0,0,.07,0h0a.07.07,0,0,0,0-.09A2.67,2.67,0,0,0,28.33,8.6a4.9,4.9,0,0,0-.71,0,5.86,5.86,0,0,0-5.84,4.53c0,.06-1.71,6.19-5.57,7.37v-.19h0a3.66,3.66,0,0,0-1.4-5h0a.07.07,0,0,0,0,.13c.11.09,2.66,2.15,1,4.81l.35.86h0c.29,0,3.73-.75,6.1-7.3a19.68,19.68,0,0,1,2.07,2,7.6,7.6,0,0,0,1.4,1.36h0a2.07,2.07,0,0,1,.5,1.66c-.11,1.14.08,1.44.1,1.48a17.8,17.8,0,0,1,1.43,1.59A5.35,5.35,0,0,0,29,23a1.29,1.29,0,0,1,.63,1.43c-.19.69-.6.8-.83.8h0c-.05,0-.14,0-.15,0a1.51,1.51,0,0,0,.26,1.58.82.82,0,0,1,.17.87,1,1,0,0,1-.26.36.82.82,0,0,1-.7.35s-.11,0-.11.07,0,.07,0,.08c.21,0,.9.23,1.09.64a.67.67,0,0,1-.06.61s-.32.48.54,1.27a1.27,1.27,0,0,1,.49.93,1.64,1.64,0,0,1-.86,1.21h0a15,15,0,0,1-4.56.78h-.42a18.57,18.57,0,0,1-5.91-1.81h-.07a.08.08,0,0,0,0,.05.71.71,0,0,0,.22.63,16.62,16.62,0,0,0,5.43,1.55h.18s0,0,0,.07,0,.14-.64.27h0A9.69,9.69,0,0,1,22.4,34.78Z"/><path class="cls-3" d="M19.13,3.15a1.65,1.65,0,0,1,1.62,1.36,1.21,1.21,0,0,1-.05.85.62.62,0,0,1-.45.28,2.84,2.84,0,0,1-.53.05,1.11,1.11,0,0,1-.66-.16h0a.15.15,0,0,0-.1,0l-.07,0a.15.15,0,0,0-.08.15A1.06,1.06,0,0,0,20,6.54,4.18,4.18,0,0,0,21.76,6l0,0A6.67,6.67,0,0,1,26,4.39h.08a6.22,6.22,0,0,1,4.34,2.27c.9,1.3,1.08,3.06.54,5.24a2.21,2.21,0,0,0-.52-1.06,2.15,2.15,0,0,0-1.65-.63l-.43,0c-.07,0-1.8.2-2.61,2.85-.3,1-.77,1.51-1.36,1.51a1.47,1.47,0,0,1-.8-.28h0L22.3,13.13a5.15,5.15,0,0,1,4-3.83,8.09,8.09,0,0,1,1.29-.11c2.11,0,2.67,1.06,2.68,1.07a.15.15,0,0,0,.13.08h.06a.15.15,0,0,0,.08-.19,2.69,2.69,0,0,0-2.22-1.61,4.94,4.94,0,0,0-.73,0,5.93,5.93,0,0,0-5.91,4.59c0,.06-1.67,6-5.4,7.28l0,0a3.8,3.8,0,0,0-1.46-5.14l-.08,0a.15.15,0,0,0-.09.27s2.61,2.1,1,4.71a.15.15,0,0,0,0,.14L16,21a.15.15,0,0,0,.14.09h0c.15,0,3.61-.61,6.06-7.28a18.68,18.68,0,0,1,2,2,7.43,7.43,0,0,0,1.41,1.36,2,2,0,0,1,.48,1.61c-.11,1.14.07,1.47.13,1.54a17.55,17.55,0,0,1,1.41,1.57A5.42,5.42,0,0,0,29,23.06a1.22,1.22,0,0,1,.59,1.35c-.18.65-.55.74-.76.74h-.11a.15.15,0,0,0-.13.08,1.59,1.59,0,0,0,.27,1.66A.75.75,0,0,1,28.77,28l0,0a.73.73,0,0,1-.62.29h0l-.25,0a.16.16,0,0,0-.15.14c0,.14.12.16.24.18H28c.2,0,.87.22,1,.6a.58.58,0,0,1,0,.53c0,.05-.34.55.56,1.39A1.18,1.18,0,0,1,30,32a1.55,1.55,0,0,1-.8,1.13,14.78,14.78,0,0,1-4.55.78h-.41a18.5,18.5,0,0,1-5.89-1.8l-.08,0h-.06a.15.15,0,0,0-.09.1.78.78,0,0,0,.24.7l0,0a16.48,16.48,0,0,0,5.44,1.54H24a1.5,1.5,0,0,1-.55.19,9.47,9.47,0,0,1-1,0c-2.74,0-9.74-.78-15.85-7.93l4.37-3.52a.15.15,0,0,0,.06-.11l0-.48a.15.15,0,0,0-.07-.14l-.07,0-.08,0c-.31.2-7.55,5-7.69,7.67a.15.15,0,0,0,.15.16h0a1.64,1.64,0,0,1,.43-.05,1.34,1.34,0,0,1,1.36,1.21,1.37,1.37,0,0,1-.16,1.11,2.34,2.34,0,0,1-1.38.82H3.36a1.45,1.45,0,0,1-1-.42,2.73,2.73,0,0,1-.55-2s-.24-3.24,3.77-6.56a.15.15,0,0,0-.18-.24L2.78,26a.7.7,0,0,1-.37.13c-.19,0-.36-.13-.49-.39A15.2,15.2,0,0,1,.16,19.59c0-.06-.12-.63.74-.88l3.52-1.54a.15.15,0,0,0,0-.27S2,15.79,2.18,11.73a.18.18,0,0,0,0-.12.21.21,0,0,0-.13,0,1.09,1.09,0,0,1-.83-.36A1.44,1.44,0,0,1,1.07,10c.26,0,1-.07,1.95-.07a16.22,16.22,0,0,1,6.23,1A3.33,3.33,0,0,0,10,12.54a.15.15,0,0,0,.11,0l.08,0a.15.15,0,0,0,.06-.18A4.28,4.28,0,0,1,10,10.65a4.68,4.68,0,0,1,3.91-2.06,5.75,5.75,0,0,1,.7,0s.68.09,1.5,1.49l0,0a.2.2,0,0,0,.12,0c.2,0,.26-.27.27-.75C16.87,8.9,17.56,8,17.92,8A.15.15,0,0,0,18,7.69a3.4,3.4,0,0,1-1.3-2.34A2.55,2.55,0,0,1,18,3.41a2.7,2.7,0,0,1,1.09-.26m0-.15A2.83,2.83,0,0,0,18,3.28c-3.2,2.11-.08,4.53-.08,4.53-.56.12-1.53,1.61-1.53,1.61,0,.58-.09.64-.12.64h0c-.88-1.51-1.61-1.56-1.61-1.56a5.83,5.83,0,0,0-.71,0A4.8,4.8,0,0,0,9.83,10.6a4.36,4.36,0,0,0,.29,1.84,3.25,3.25,0,0,1-.73-1.63A16.21,16.21,0,0,0,3,9.75C1.8,9.75,1,9.83,1,9.83c-.51,1.82.84,1.89,1.05,1.89H2s0,0,0,0C1.88,15.95,4.37,17,4.37,17L.84,18.57c-1,.29-.83,1.05-.83,1.05A15.18,15.18,0,0,0,1.8,25.81a.69.69,0,0,0,.62.47.85.85,0,0,0,.46-.16l2.56-1.8C1.31,27.74,1.61,31,1.61,31c-.07,2.36,1.23,2.59,1.74,2.59h.2s2.07-.36,1.66-2.11a1.48,1.48,0,0,0-1.5-1.33,1.77,1.77,0,0,0-.47.06c.13-2.66,7.62-7.55,7.62-7.55l0,.48L6.34,26.76c6.21,7.35,13.4,8.1,16.06,8.1a9.46,9.46,0,0,0,1.07,0c1.08-.24.59-.49.59-.49h-.18A16.59,16.59,0,0,1,18.5,32.8a.63.63,0,0,1-.2-.56,18.53,18.53,0,0,0,5.95,1.82h.43a14.8,14.8,0,0,0,4.6-.79c1.76-1.22.39-2.25.39-2.25-.82-.76-.53-1.18-.53-1.18.46-.89-.6-1.25-1.09-1.36h-.11l-.11,0,.22,0h.08a.88.88,0,0,0,.75-.37.91.91,0,0,0,.1-1.33,1.45,1.45,0,0,1-.25-1.5h.11c.22,0,.7-.09.9-.85a1.37,1.37,0,0,0-.66-1.52,5.33,5.33,0,0,1-1.32-1.13,17.59,17.59,0,0,0-1.43-1.59s-.2-.28-.08-1.42A2.12,2.12,0,0,0,25.71,17a7.45,7.45,0,0,1-1.39-1.34,20.89,20.89,0,0,0-2.17-2.12c-2.45,6.86-6,7.39-6,7.39l-.35-.79c1.69-2.75-1-4.9-1-4.9a3.65,3.65,0,0,1,1.37,5l.1.23c3.94-1.21,5.62-7.42,5.62-7.42a5.77,5.77,0,0,1,5.77-4.48,4.83,4.83,0,0,1,.71,0,2.57,2.57,0,0,1,2.1,1.52S29.85,9,27.61,9a8.19,8.19,0,0,0-1.31.11,5.3,5.3,0,0,0-4.17,4l1.34,1.25a1.6,1.6,0,0,0,.9.32c.5,0,1.1-.32,1.5-1.62.8-2.59,2.48-2.75,2.48-2.75l.42,0a2,2,0,0,1,2.08,2.37h0c2.53-8.1-4.8-8.49-4.8-8.49H26a6.76,6.76,0,0,0-4.27,1.6A4,4,0,0,1,20,6.39a.9.9,0,0,1-1-.73,1.19,1.19,0,0,0,.76.19,3,3,0,0,0,.56-.06c1-.18.61-1.33.61-1.33A1.79,1.79,0,0,0,19.13,3Z"/><path class="cls-5" d="M25.11,20.87a.35.35,0,0,0-.32,0l-.11.12S25,22.48,24,22.51c0,0-1.77-.08-2.45,0C21.55,22.47,23.55,19.62,25.11,20.87Z"/><path class="cls-5" d="M22.35,7.79s-3.46-.13-2.41,1.52c0,0,.38.18.57-.4A2.6,2.6,0,0,1,22.35,7.79Z"/><path class="cls-5" d="M15.58,10.16l-1,.77A1.16,1.16,0,0,1,14,12.44a1.12,1.12,0,0,1-1.3-.07l-1.57.78,0-.2Z"/></g><path class="cls-2" d="M56.83,6.23h5.62V6.9c0,4.66-1.67,6.66-5.62,6.66-4.2,0-6-2-6-6.66s1.8-6.66,6-6.66c3.2,0,4.84,1.3,5.44,4.32H60.75c-.49-2.09-1.64-3-3.92-3-3.08,0-4.34,1.55-4.34,5.29s1.28,5.29,4.34,5.29c2.9,0,4.11-1.39,4.11-4.75H56.83Z"/><path class="cls-2" d="M67.61,13.38c-2.36,0-3.37-1.3-3.37-4.32V4.2h1.44V9.06c0,2.21.67,3.11,2.27,3.11s2.5-.94,2.5-3.11V4.2h1.44v9H70.72l-.2-1.06A3.24,3.24,0,0,1,67.61,13.38Z"/><path class="cls-2" d="M78.25,12.32a2.17,2.17,0,0,0,2.45-1.8h1.37c-.43,2-1.58,2.86-3.82,2.86-2.93,0-4.19-1.4-4.19-4.68S75.29,4,78.25,4s4.18,1.46,4.18,4.88v.59H75.51C75.67,11.44,76.46,12.32,78.25,12.32Zm0-7.24c-1.91,0-2.75,1-2.75,3.44H81C81,6.05,80.15,5.08,78.23,5.08Z"/><path class="cls-2" d="M85.84,8.7v4.5H84.4v-9h1.17l.22,1.08A2.45,2.45,0,0,1,88.11,4h1V5.39h-1C86.36,5.39,85.84,6.25,85.84,8.7Z"/><path class="cls-2" d="M92.34,8.7v4.5H90.9v-9h1.17l.22,1.08A2.45,2.45,0,0,1,94.61,4h1V5.39h-1C92.86,5.39,92.34,6.25,92.34,8.7Z"/><path class="cls-2" d="M101.05,12.32a2.17,2.17,0,0,0,2.45-1.8h1.37c-.43,2-1.58,2.86-3.82,2.86-2.93,0-4.19-1.4-4.19-4.68S98.1,4,101.05,4s4.18,1.46,4.18,4.88v.59H98.32C98.48,11.44,99.27,12.32,101.05,12.32Zm0-7.24c-1.91,0-2.75,1-2.75,3.44h5.51C103.79,6.05,103,5.08,101,5.08Z"/><path class="cls-2" d="M108.65,8.7v4.5h-1.44v-9h1.17l.22,1.08A2.45,2.45,0,0,1,110.92,4h1V5.39h-1C109.17,5.39,108.65,6.25,108.65,8.7Z"/><path class="cls-2" d="M121.9,8.7c0,3.28-1.31,4.68-4.36,4.68s-4.38-1.4-4.38-4.68S114.48,4,117.54,4,121.9,5.42,121.9,8.7Zm-4.36,3.47c2.05,0,2.92-1,2.92-3.47s-.85-3.48-2.92-3.48-2.94,1-2.94,3.48S115.47,12.18,117.54,12.18Z"/></g></g></svg>