<?xml version="1.0" encoding="utf-8"?>
<!-- Generator: Adobe Illustrator 19.2.1, SVG Export Plug-In . SVG Version: 6.00 Build 0)  -->
<svg version="1.1" id="Capa_1" xmlns="http://www.w3.org/2000/svg" xmlns:xlink="http://www.w3.org/1999/xlink" x="0px" y="0px"
	 viewBox="0 0 1224 792" style="enable-background:new 0 0 1224 792;" xml:space="preserve">
<style type="text/css">
	.st0{clip-path:url(#SVGID_2_);}
	.st1{fill:none;stroke:#E96B3C;stroke-linejoin:round;stroke-miterlimit:10;}
	.st2{clip-path:url(#XMLID_10_);}
	.st3{fill:#EE8C6C;}
	.st4{fill:#FFFFFF;}
	.st5{fill:#282B26;}
</style>
<g>
	<defs>
		<rect id="SVGID_1_" x="126.9" y="60.3" width="955.2" height="646"/>
	</defs>
	<clipPath id="SVGID_2_">
		<use xlink:href="#SVGID_1_"  style="overflow:visible;"/>
	</clipPath>
	<g class="st0">
		<g>
			<g>
				<polygon class="st1" points="156.7,257.6 150,265.2 161.5,264 				"/>
				<polygon class="st1" points="177.5,251.3 174.7,257 184,255.7 				"/>
				<polygon class="st1" points="190.7,243.8 214.8,264.5 231.3,250.8 				"/>
				<polygon class="st1" points="194.6,261.4 200.5,266.8 165.6,272.6 				"/>
				<polygon class="st1" points="166.9,280.8 146.7,276.9 138.5,287.3 				"/>
				<polygon class="st1" points="165.5,324 143,332.4 177.1,331.6 				"/>
				<polygon class="st1" points="194,218 183,226.6 221.2,236.8 				"/>
				<polygon class="st1" points="205.4,176.6 231.2,168.1 253.8,181 				"/>
				<polygon class="st1" points="221.2,198.6 216.3,202.1 226,206.3 				"/>
				<polygon class="st1" points="274.6,200 293.7,191.9 305.3,196.3 				"/>
				<polygon class="st1" points="298.6,225.7 307.1,234.8 283,229.7 				"/>
				<polygon class="st1" points="265,228.2 252,234.1 263.6,236.8 				"/>
				<polygon class="st1" points="341.3,210.3 358.8,208.6 347.5,229.5 				"/>
				<polygon class="st1" points="348.1,190.3 344.5,185.2 359.7,185.7 				"/>
				<polygon class="st1" points="356.3,196.3 387.9,202.5 426,195.8 				"/>
				<polygon class="st1" points="427.8,187.4 460.3,204.4 472.6,202.6 				"/>
				<polygon class="st1" points="595.1,199.6 610.5,195.1 609.4,202 				"/>
				<polygon class="st1" points="639.6,177.1 654.5,187.8 674.9,185.1 				"/>
				<polygon class="st1" points="707.4,182.3 719.6,188.1 728.2,182.8 				"/>
				<polygon class="st1" points="633.7,214.7 640.6,222.6 666,223.5 				"/>
				<polygon class="st1" points="677.5,203.6 719.2,202.4 696.3,194.4 				"/>
				<polygon class="st1" points="937.3,397.9 957.7,392.8 955.4,402.5 				"/>
				<polygon class="st1" points="921.3,386 909,390.4 926,393.8 				"/>
				<polygon class="st1" points="984.8,393.5 975,389 969.2,396 				"/>
				<polygon class="st1" points="935.8,388.3 948,384 931,382 				"/>
				<polygon class="st1" points="942.7,372.4 911.8,368.7 903.9,375.3 				"/>
			</g>
			<g>
				<defs>
					<path id="XMLID_89_" d="M1032.6,436.1l-144.8-79.7l-99.9-54.7l-52.1,25c0,0-112.7-75-120.3-72.1
						c-18.9,0.3-128.5,82.3-128.5,82.3l-54.1-23.7l-69.2,52.4L331,342.8l-197.6,95.8l-3.6-334.3h902.8V436.1z"/>
				</defs>
				<clipPath id="XMLID_10_">
					<use xlink:href="#XMLID_89_"  style="overflow:visible;"/>
				</clipPath>
				<g class="st2">
					<g>
						<polygon class="st1" points="687,348.5 687,348.5 687,348.5 						"/>
						<polygon class="st1" points="687,348.5 687,348.5 687,348.5 						"/>
						<polygon class="st1" points="948.5,174.5 948.5,174.5 936.9,165.3 924.6,173 924.6,173 						"/>
						<polygon class="st1" points="932.9,192.4 952.7,193.5 934.9,190.1 						"/>
						<polygon class="st1" points="929.4,196.4 930,199.4 952.7,193.5 932.9,192.4 						"/>
						<polygon class="st1" points="936.4,188.4 952.7,193.5 940.1,184.2 						"/>
						<polygon class="st1" points="931,204.1 952.7,193.5 930,199.4 						"/>
						<polygon class="st1" points="952.7,193.5 948.5,174.6 940.1,184.2 						"/>
						<polygon class="st1" points="948.5,174.6 948.5,174.6 948.5,174.5 						"/>
						<polygon class="st1" points="948.5,174.6 948.5,174.5 948.5,174.5 						"/>
						<polygon class="st1" points="924.6,173 940.1,184.2 948.5,174.6 948.5,174.5 						"/>
						<polygon class="st1" points="934.9,190.1 952.7,193.5 936.4,188.4 						"/>
						<polygon class="st1" points="951.1,228.9 951.3,229 951.3,228.7 						"/>
						<polygon class="st1" points="933.4,215.9 952.7,193.5 931,204.1 						"/>
						<polygon class="st1" points="962.5,238.4 966.5,216.5 959,222.5 						"/>
						<polygon class="st1" points="805.8,214.2 794.7,206.9 794.2,239 						"/>
						<polygon class="st1" points="959,222.5 957.7,216.3 951.8,216.2 951.3,228.7 						"/>
						<polygon class="st1" points="951.3,228.7 951.3,229 962.5,238.4 959,222.5 						"/>
						<polygon class="st1" points="951.8,216.2 952.7,193.5 933.4,215.9 						"/>
						<polygon class="st1" points="957.7,216.3 952.7,193.5 951.8,216.2 						"/>
						<polygon class="st1" points="959,222.5 966.5,216.5 957.7,216.3 						"/>
						<polygon class="st1" points="966.5,216.5 952.7,193.5 957.7,216.3 						"/>
						<polygon class="st1" points="894.6,182.4 902.9,184 911.8,180.9 911.8,180.9 896.3,176.2 893.1,180.4 						"/>
						<polygon class="st1" points="876,205.4 860,188.4 870,215.1 						"/>
						<polygon class="st1" points="860,188.4 833.7,191 845.7,221.7 						"/>
						<polygon class="st1" points="870,215.3 870,215.1 860,188.4 845.7,221.7 						"/>
						<polygon class="st1" points="885.9,189.7 887.1,181 877.6,179.2 860,188.4 885.8,189.8 						"/>
						<polygon class="st1" points="885.8,189.8 860,188.4 876,205.4 						"/>
						<polygon class="st1" points="827,228.1 827,228.1 826.2,202.8 815.9,192.8 805.8,214.2 						"/>
						<polygon class="st1" points="888.1,173.7 877.6,179.2 887.1,181 						"/>
						<polygon class="st1" points="815.9,192.8 794.7,206.9 805.8,214.2 						"/>
						<polygon class="st1" points="845.7,221.7 833.7,191 825.9,191.8 826.2,202.8 						"/>
						<polygon class="st1" points="924.6,173 924.6,173 924.6,173 924.6,173 						"/>
						<polygon class="st1" points="825.9,191.8 815.9,192.8 826.2,202.8 						"/>
						<polygon class="st1" points="924.6,173 924.6,173 924.6,173 924.6,173 						"/>
						<polygon class="st1" points="924.6,173 924.6,173 924.6,173 						"/>
						<polygon class="st1" points="924.6,173 924.6,173 911.8,180.9 927.2,185.6 						"/>
						<polygon class="st1" points="924.6,173 924.6,173 924.6,173 						"/>
						<polygon class="st1" points="937,227.5 951.1,228.9 933.4,215.9 						"/>
						<polygon class="st1" points="896.3,176.2 888.1,173.7 893.1,180.4 						"/>
						<polygon class="st1" points="891.9,181.9 893.1,180.4 888.1,173.7 887.1,181 						"/>
						<polygon class="st1" points="915.1,186.3 927.8,188.7 927.2,185.6 911.8,180.9 911.8,180.9 						"/>
						<polygon class="st1" points="911.8,180.9 911.8,180.9 911.8,180.9 						"/>
						<polygon class="st1" points="951.8,216.2 933.4,215.9 951.1,228.9 951.3,228.7 						"/>
						<polygon class="st1" points="774.3,293.7 777.4,286.6 747.3,278.3 						"/>
						<polygon class="st1" points="777.4,286.6 784.4,270.7 747.3,278.3 						"/>
						<polygon class="st1" points="747.3,278.3 784.4,270.7 776.3,254.3 						"/>
						<polygon class="st1" points="752.1,305.4 754.6,304.5 751.5,302.3 						"/>
						<polygon class="st1" points="751.5,302.3 754.6,304.5 772.3,298.1 774.3,293.7 747.3,278.3 						"/>
						<polygon class="st1" points="794,239.6 793.9,239.8 794,239.6 776.3,254.3 784.4,270.7 794.2,239.3 						"/>
						<polygon class="st1" points="743.9,296.6 741.5,309.3 752.1,305.4 751.5,302.3 						"/>
						<polygon class="st1" points="807,263 784.4,270.7 807.1,276.6 811.9,271.9 						"/>
						<polygon class="st1" points="807.1,276.6 815.6,278.8 811.9,271.9 						"/>
						<polygon class="st1" points="794.2,239.3 784.4,270.7 807,263 						"/>
						<polygon class="st1" points="751.5,302.3 747.3,278.3 743.9,296.6 						"/>
						<polygon class="st1" points="776.3,254.3 771,243.6 747.3,278.3 						"/>
						<polygon class="st1" points="771,243.6 741.9,243.4 747.3,278.3 						"/>
						<polygon class="st1" points="794,239.6 794.1,239.4 771,243.6 776.3,254.3 						"/>
						<polygon class="st1" points="794.1,239.2 770.4,215.8 759,220 771,243.6 794.1,239.4 						"/>
						<polygon class="st1" points="747.3,278.3 719.8,278.6 743.9,296.6 						"/>
						<polygon class="st1" points="828.7,255.5 811.9,271.9 815.6,278.8 828.7,277.6 						"/>
						<polygon class="st1" points="741.9,243.4 733.2,243.3 728.1,256.8 747.3,278.3 						"/>
						<polygon class="st1" points="719.8,278.6 728.8,313.9 741.5,309.3 743.9,296.6 						"/>
						<polygon class="st1" points="728.1,256.8 719.8,278.6 747.3,278.3 						"/>
						<polygon class="st1" points="881.6,238 892.5,223 873.7,231.5 						"/>
						<polygon class="st1" points="882.8,219.6 892.5,223 885.7,215.8 						"/>
						<polygon class="st1" points="873.7,231.5 892.5,223 882.8,219.6 						"/>
						<polygon class="st1" points="885.7,215.8 892.5,223 890,210.1 						"/>
						<polygon class="st1" points="930.7,226.8 937,227.5 933.4,215.9 						"/>
						<polygon class="st1" points="916.4,211.3 890,210.1 890,210.1 892.5,223 916.4,211.3 						"/>
						<polygon class="st1" points="916.4,211.3 916.4,211.3 919.3,225.7 930.7,226.8 933.4,215.9 						"/>
						<polygon class="st1" points="916.4,211.3 912.9,225.1 919.3,225.7 916.4,211.3 						"/>
						<polygon class="st1" points="878.3,242.6 881.6,238 873.7,231.5 						"/>
						<polygon class="st1" points="892.5,223 912.9,225.1 916.4,211.3 						"/>
						<polygon class="st1" points="840.4,276.5 854.6,275.1 847.5,253.1 						"/>
						<polygon class="st1" points="832.3,303.4 852.4,298.4 853,292.7 837.3,286.8 						"/>
						<polygon class="st1" points="837.3,286.8 853,292.7 854.6,275.1 840.4,276.5 						"/>
						<polygon class="st1" points="828.6,283.6 828.5,304.3 832.3,303.4 837.3,286.8 						"/>
						<polygon class="st1" points="840.4,276.5 828.7,277.6 828.6,283.6 837.3,286.8 						"/>
						<polygon class="st1" points="854.6,275.1 864.8,261.2 860.4,250.1 						"/>
						<polygon class="st1" points="860.4,250.1 869.5,254.7 878.3,242.6 873.7,231.5 						"/>
						<polygon class="st1" points="864.8,261.2 869.5,254.7 860.4,250.1 						"/>
						<polygon class="st1" points="847.5,253.1 854.6,275.1 860.4,250.1 						"/>
						<polygon class="st1" points="815.6,278.8 828.6,283.6 828.7,277.6 						"/>
						<polygon class="st1" points="642.4,278 645.6,278.7 663.6,261.7 640.4,266.2 						"/>
						<polygon class="st1" points="696.5,250.1 679.7,256 683.5,267.6 683.9,267.8 						"/>
						<polygon class="st1" points="683.5,267.6 683.6,268.1 683.9,267.8 						"/>
						<polygon class="st1" points="699.6,272.5 683.9,267.8 683.6,268.1 690.3,288.9 						"/>
						<polygon class="st1" points="701.7,242.7 696.5,250.1 704.1,247.4 						"/>
						<polygon class="st1" points="699.6,272.5 708.6,256.3 704.1,247.4 696.5,250.1 683.9,267.8 						"/>
						<polygon class="st1" points="660.2,282 655.9,307.1 671.9,284.7 						"/>
						<polygon class="st1" points="683.6,268.1 677.9,276.2 690.3,288.9 						"/>
						<polygon class="st1" points="655.9,307.1 675.8,313.1 689.6,302.3 690.3,288.9 						"/>
						<polygon class="st1" points="671.9,284.7 655.9,307.1 690.3,288.9 						"/>
						<polygon class="st1" points="677.9,276.2 671.9,284.7 690.3,288.9 						"/>
						<polygon class="st1" points="618.1,304.7 636.4,320 641.6,316.6 634.9,305.8 						"/>
						<polygon class="st1" points="600.7,298.5 598.1,304.1 604.7,307.6 618.1,304.7 						"/>
						<polygon class="st1" points="604.7,307.6 615.5,313.3 618.1,304.7 						"/>
						<polygon class="st1" points="595.5,309.5 595.5,309.5 604.7,307.6 598.1,304.1 						"/>
						<polygon class="st1" points="615.5,313.3 632.7,322.5 636.4,320 618.1,304.7 						"/>
						<polygon class="st1" points="645.6,278.7 642.9,281.3 645.7,298.5 655.9,307.1 660.2,282 						"/>
						<polygon class="st1" points="689.6,302.3 694.7,298.3 690.3,288.9 						"/>
						<polygon class="st1" points="648,312.3 655.9,307.1 647.1,306.5 						"/>
						<polygon class="st1" points="647.1,306.5 655.9,307.1 645.7,298.5 						"/>
						<polygon class="st1" points="634.9,305.8 641.6,316.6 648,312.3 647.1,306.5 						"/>
						<polygon class="st1" points="690.3,288.9 719.8,278.6 699.6,272.5 						"/>
						<polygon class="st1" points="640.4,266.2 663.6,261.7 638.6,254.7 						"/>
						<polygon class="st1" points="794.2,239.3 794.1,239.2 794.1,239.4 						"/>
						<polygon class="st1" points="694.7,298.3 719.8,278.6 690.3,288.9 						"/>
						<polygon class="st1" points="671.9,284.7 677.9,276.2 663.6,261.7 660.2,282 						"/>
						<polygon class="st1" points="663.6,261.7 646.4,243.9 638,251 638.6,254.7 						"/>
						<polygon class="st1" points="638,251 634.8,253.7 638.6,254.7 						"/>
						<polygon class="st1" points="634.8,253.7 624.7,250.9 613.7,271.4 						"/>
						<polygon class="st1" points="624.7,250.9 600.1,244.1 613.7,271.4 						"/>
						<polygon class="st1" points="640.4,266.2 638.6,254.7 634.8,253.7 613.7,271.4 						"/>
						<polygon class="st1" points="683.6,268.1 683.5,267.6 663.6,261.7 677.9,276.2 						"/>
						<polygon class="st1" points="660.2,282 663.6,261.7 645.6,278.7 						"/>
						<polygon class="st1" points="708.6,256.3 716,243.2 704.1,247.4 						"/>
						<polygon class="st1" points="719.8,278.6 716,243.2 708.6,256.3 						"/>
						<polygon class="st1" points="699.6,272.5 719.8,278.6 708.6,256.3 						"/>
						<polygon class="st1" points="588.9,299.2 595.5,309.5 598.1,304.1 						"/>
						<polygon class="st1" points="696.5,250.1 701.7,242.7 696.6,232.4 677.6,249.3 679.7,256 						"/>
						<polygon class="st1" points="704.1,247.4 716,243.2 707.2,235 701.7,242.7 						"/>
						<polygon class="st1" points="679.7,256 663.6,261.7 683.5,267.6 						"/>
						<polygon class="st1" points="677.6,249.3 663.6,261.7 679.7,256 						"/>
						<polygon class="st1" points="707.2,235 700.6,228.9 696.6,232.4 701.7,242.7 						"/>
						<polygon class="st1" points="645.7,298.5 642.9,281.3 634.6,289.1 						"/>
						<polygon class="st1" points="553.1,300.2 553.1,300.2 550.9,289.1 544.1,293.3 						"/>
						<polygon class="st1" points="527.1,272.2 525.4,278.7 544.1,293.3 550.9,289.1 549.1,279.9 						"/>
						<polygon class="st1" points="524.3,282.7 537.7,297.2 544.1,293.3 525.4,278.7 						"/>
						<polygon class="st1" points="688.8,317.1 689.6,302.3 675.8,313.1 						"/>
						<polygon class="st1" points="579.3,306.1 595.5,309.5 559.7,283.7 						"/>
						<polygon class="st1" points="558,301.5 579.3,306.1 559.7,283.7 						"/>
						<polygon class="st1" points="640.4,266.2 613.7,271.4 642.4,278 						"/>
						<polygon class="st1" points="252.7,251.5 227.3,265.2 247.7,262.1 						"/>
						<polygon class="st1" points="550.9,289.1 559.7,283.7 549.1,279.9 						"/>
						<polygon class="st1" points="592.7,250.9 583.2,260.3 613.7,271.4 						"/>
						<polygon class="st1" points="739.4,227.1 716,243.2 733.2,243.3 						"/>
						<polygon class="st1" points="559.7,283.7 595.5,309.5 595.5,309.5 588.9,299.2 						"/>
						<polygon class="st1" points="755,212.1 739.4,227.1 759,220 						"/>
						<polygon class="st1" points="728.1,256.8 716,243.2 719.8,278.6 						"/>
						<polygon class="st1" points="794.7,206.9 769.5,198.2 760.9,206.5 770.4,215.8 						"/>
						<polygon class="st1" points="759,220 739.4,227.1 771,243.6 						"/>
						<polygon class="st1" points="733.2,243.3 716,243.2 728.1,256.8 						"/>
						<polygon class="st1" points="618.1,304.7 634.9,305.8 628.3,295.1 						"/>
						<polygon class="st1" points="741.9,243.4 739.4,227.1 733.2,243.3 						"/>
						<polygon class="st1" points="771,243.6 739.4,227.1 741.9,243.4 						"/>
						<polygon class="st1" points="770.4,215.8 760.9,206.5 755,212.1 759,220 						"/>
						<polygon class="st1" points="576.3,267.2 574.2,269.3 578.9,269.5 						"/>
						<polygon class="st1" points="576.6,279.8 587.6,277.3 578.9,269.5 574.2,269.3 571.6,271.9 						"/>
						<polygon class="st1" points="587.6,277.3 613.7,271.4 578.9,269.5 						"/>
						<polygon class="st1" points="613.7,271.4 583.2,260.3 576.3,267.2 578.9,269.5 						"/>
						<polygon class="st1" points="574.2,269.3 569.8,269.1 571.6,271.9 						"/>
						<polygon class="st1" points="584.8,292.7 559.7,283.7 588.9,299.2 						"/>
						<polygon class="st1" points="576.6,279.8 559.7,283.7 584.8,292.7 						"/>
						<polygon class="st1" points="571.6,271.9 559.7,283.7 576.6,279.8 						"/>
						<polygon class="st1" points="569.8,269.1 559.1,268.5 559.7,283.7 571.6,271.9 						"/>
						<polygon class="st1" points="642.9,281.3 642.4,278 613.7,271.4 634.6,289.1 						"/>
						<polygon class="st1" points="628.3,295.1 613.7,271.4 618.1,304.7 						"/>
						<polygon class="st1" points="634.6,289.1 613.7,271.4 628.3,295.1 						"/>
						<polygon class="st1" points="628.3,295.1 634.9,305.8 647.1,306.5 645.7,298.5 634.6,289.1 						"/>
						<polygon class="st1" points="794.1,239.2 794.2,239 794.7,206.9 770.4,215.8 						"/>
						<polygon class="st1" points="588.9,299.2 598.1,304.1 600.7,298.5 584.8,292.7 						"/>
						<polygon class="st1" points="618.1,304.7 613.7,271.4 603.9,292 						"/>
						<polygon class="st1" points="600.7,298.5 618.1,304.7 603.9,292 						"/>
						<polygon class="st1" points="603.9,292 613.7,271.4 587.6,277.3 						"/>
						<polygon class="st1" points="587.6,277.3 576.6,279.8 584.8,292.7 600.7,298.5 603.9,292 						"/>
						<polygon class="st1" points="645.6,278.7 642.4,278 642.9,281.3 						"/>
						<polygon class="st1" points="300.1,319.8 300.1,319.8 300.1,319.8 						"/>
						<polygon class="st1" points="300.1,319.8 300.1,319.8 304.1,326 308.4,323.9 300.1,319.8 						"/>
						<polygon class="st1" points="300.1,319.8 308.4,323.9 313.5,321.6 						"/>
						<polygon class="st1" points="300.1,319.8 313.5,321.6 316,320.4 310,314.9 300.1,319.7 300.1,319.8 						"/>
						<polygon class="st1" points="770.7,316.6 772.8,314.1 768.1,314.7 						"/>
						<polygon class="st1" points="300.1,319.8 300.1,319.7 300.1,319.8 300.1,319.8 						"/>
						<polygon class="st1" points="592.7,250.9 613.7,271.4 600.1,244.1 599.6,243.9 						"/>
						<polygon class="st1" points="323.5,322.9 333.3,336.4 333.9,324.3 						"/>
						<polygon class="st1" points="313.5,321.6 308.4,323.9 333.3,336.4 317.9,322.2 						"/>
						<polygon class="st1" points="317.9,322.2 333.3,336.4 323.5,322.9 						"/>
						<polygon class="st1" points="367.2,345.4 387.6,342.5 360.1,340.1 						"/>
						<polygon class="st1" points="274.1,316.3 267.6,319.5 275.1,323.1 280.4,317.1 						"/>
						<polygon class="st1" points="475.2,310.9 490,296.6 466.5,307.2 						"/>
						<polygon class="st1" points="280.4,317.1 275.1,323.1 281,325.9 290.3,322.9 289,318.3 						"/>
						<polygon class="st1" points="300.1,319.8 300.1,319.8 300.1,319.8 						"/>
						<polygon class="st1" points="323.5,322.9 320.3,318.4 316,320.4 317.9,322.2 						"/>
						<polygon class="st1" points="317.9,322.2 316,320.4 313.5,321.6 						"/>
						<polygon class="st1" points="290.3,322.9 300.1,319.8 289,318.3 						"/>
						<polygon class="st1" points="300.1,319.8 300.1,319.8 300.1,319.7 						"/>
						<polygon class="st1" points="300.1,319.7 300.1,319.7 300.1,319.8 						"/>
						<polygon class="st1" points="445.8,231.1 440.5,225.2 437.3,224.5 438.9,232.4 						"/>
						<polygon class="st1" points="442.6,250.5 451.7,237.6 445.8,231.1 438.9,232.4 						"/>
						<polygon class="st1" points="423.3,261.1 423.2,262.7 430.6,267.6 435.1,261.2 						"/>
						<polygon class="st1" points="333.9,324.3 333.3,336.4 339.3,325 						"/>
						<polygon class="st1" points="435.5,260.6 435.7,252.4 423.9,249.5 423.3,261.1 435.1,261.2 						"/>
						<polygon class="st1" points="440.5,253.5 435.7,252.4 435.5,260.6 						"/>
						<polygon class="st1" points="440.5,253.5 442.6,250.5 438.9,232.4 436.2,233 435.7,252.4 						"/>
						<polygon class="st1" points="423.2,262.7 422.2,279.5 430.6,267.6 						"/>
						<polygon class="st1" points="448.7,279.7 473.2,261.5 450.6,269.5 						"/>
						<polygon class="st1" points="435.7,252.4 436.2,233 424.7,235.1 423.9,249.5 						"/>
						<polygon class="st1" points="437.3,224.5 436.4,224.3 436.2,233 438.9,232.4 						"/>
						<polygon class="st1" points="342.5,320.6 339.3,325 345.2,323.7 						"/>
						<polygon class="st1" points="389.8,329.1 387.6,342.5 395.6,336.1 						"/>
						<polygon class="st1" points="397.7,338.7 406.6,327.3 395.6,336.1 						"/>
						<polygon class="st1" points="333.3,336.4 347.7,338.4 339.3,325 						"/>
						<polygon class="st1" points="483.8,228.2 457.9,228.8 478.8,243.9 						"/>
						<polygon class="st1" points="508.8,265.8 500.9,247 490.4,252.4 						"/>
						<polygon class="st1" points="490.4,252.4 500.9,247 492.9,228.1 483.8,228.2 478.8,243.9 						"/>
						<polygon class="st1" points="483,281.9 490,271.2 473.2,261.5 						"/>
						<polygon class="st1" points="444.8,216.4 436.5,220.7 448.2,219.6 						"/>
						<polygon class="st1" points="379.6,210.6 382.3,227.5 398.4,215.5 						"/>
						<polygon class="st1" points="219.5,280.5 225,285.4 231.4,284.2 229.6,275.6 						"/>
						<polygon class="st1" points="170.5,285.1 200.7,289.8 190.1,278.3 						"/>
						<polygon class="st1" points="836.4,326.4 840.9,324.4 828.5,316.1 						"/>
						<polygon class="st1" points="267.3,277.6 260.9,260.2 242.3,282.2 						"/>
						<polygon class="st1" points="215.1,276.5 200.7,289.8 219.5,280.5 						"/>
						<polygon class="st1" points="190.1,278.3 200.7,289.8 199.2,275.1 						"/>
						<polygon class="st1" points="219.5,280.5 200.7,289.8 225,285.4 						"/>
						<polygon class="st1" points="242.3,282.2 233.3,292.9 269.6,284.7 269.9,284.6 267.3,277.6 						"/>
						<polygon class="st1" points="225,285.4 233.3,292.9 231.4,284.2 						"/>
						<polygon class="st1" points="271.8,283.8 303.5,271 279.9,275.3 						"/>
						<polygon class="st1" points="200.7,289.8 233.3,292.9 225,285.4 						"/>
						<polygon class="st1" points="219.5,280.5 229.6,275.6 227.3,265.2 215.1,276.5 						"/>
						<polygon class="st1" points="260.9,260.2 252.7,251.5 247.7,262.1 						"/>
						<polygon class="st1" points="450.6,269.5 473.2,261.5 452,261.3 						"/>
						<polygon class="st1" points="407.6,208.5 379.6,210.6 398.4,215.5 						"/>
						<polygon class="st1" points="279.9,275.3 303.5,271 287.9,267 						"/>
						<polygon class="st1" points="382.3,227.5 399.3,226.9 417.4,220.4 398.4,215.5 						"/>
						<polygon class="st1" points="407.6,208.5 417.4,220.4 426.8,199.5 						"/>
						<polygon class="st1" points="892.3,324.3 870.6,311.2 872.7,332.1 						"/>
						<polygon class="st1" points="860,337.1 872.7,332.1 870.6,311.2 854.4,333.4 						"/>
						<polygon class="st1" points="398.4,215.5 417.4,220.4 407.6,208.5 						"/>
						<polygon class="st1" points="349.8,236.7 350.8,243.2 379.6,210.6 						"/>
						<polygon class="st1" points="350.8,243.2 382.3,227.5 379.6,210.6 						"/>
						<polygon class="st1" points="344.4,240.7 350.8,243.2 349.8,236.7 						"/>
						<polygon class="st1" points="326.5,233.7 307.1,247 319,246 						"/>
						<polygon class="st1" points="307.1,247 260.9,260.2 287.9,267 						"/>
						<polygon class="st1" points="319,246 339.8,244.1 344.4,240.7 326.5,233.7 						"/>
						<polygon class="st1" points="344.4,240.7 349.8,236.7 309.7,230 307.1,247 326.5,233.7 						"/>
						<polygon class="st1" points="339.8,244.1 350.8,243.2 344.4,240.7 						"/>
						<polygon class="st1" points="303.5,271 335,254.5 350.8,243.2 339.8,244.1 						"/>
						<polygon class="st1" points="307.1,247 303.5,271 319,246 						"/>
						<polygon class="st1" points="794,239.6 794.2,239.3 794.1,239.4 						"/>
						<polygon class="st1" points="319,246 303.5,271 339.8,244.1 						"/>
						<polygon class="st1" points="930,199.4 929.4,196.4 925.8,200.6 						"/>
						<polygon class="st1" points="924.7,201.8 927.3,205.9 931,204.1 930,199.4 925.8,200.6 						"/>
						<polygon class="st1" points="916.4,211.3 933.4,215.9 927.3,205.9 						"/>
						<polygon class="st1" points="933.4,215.9 931,204.1 927.3,205.9 						"/>
						<polygon class="st1" points="918.4,191.6 924.2,201 925.8,200.6 929.4,196.4 928.5,192.1 						"/>
						<polygon class="st1" points="900.8,190.6 918.4,191.6 915.1,186.3 902.9,184 897.3,185.9 						"/>
						<polygon class="st1" points="928.5,192.1 927.8,188.7 915.1,186.3 918.4,191.6 						"/>
						<polygon class="st1" points="924.7,201.8 916.4,211.3 916.4,211.3 927.3,205.9 						"/>
						<polygon class="st1" points="929.4,196.4 932.9,192.4 928.5,192.1 						"/>
						<polygon class="st1" points="932.9,192.4 934.9,190.1 927.8,188.7 928.5,192.1 						"/>
						<polygon class="st1" points="870.3,215.2 882.8,219.6 885.7,215.8 882.2,212 						"/>
						<polygon class="st1" points="882.2,212 885.7,215.8 890,210.1 889.9,210 						"/>
						<polygon class="st1" points="924.2,201 911.2,204.4 916.4,211.3 924.7,201.8 						"/>
						<polygon class="st1" points="894.6,182.4 891.9,181.9 885.9,189.7 897.3,185.9 						"/>
						<polygon class="st1" points="924.2,201 918.4,191.6 900.8,190.6 911.2,204.4 						"/>
						<polygon class="st1" points="925.8,200.6 924.2,201 924.7,201.8 						"/>
						<polygon class="st1" points="907.8,205.3 916.4,211.3 911.2,204.4 						"/>
						<polygon class="st1" points="889.9,210 890,210.1 890,210.1 916.4,211.3 907.8,205.3 						"/>
						<polygon class="st1" points="911.2,204.4 900.8,190.6 886,189.8 907.8,205.3 						"/>
						<polygon class="st1" points="452,261.3 473.2,261.5 452.9,256.5 						"/>
						<polygon class="st1" points="900.8,190.6 897.3,185.9 885.9,189.7 886,189.8 						"/>
						<polygon class="st1" points="916.4,211.3 916.4,211.3 916.4,211.3 						"/>
						<polygon class="st1" points="847.5,253.1 860.4,250.1 846.8,241.1 						"/>
						<polygon class="st1" points="811.9,271.9 828.7,255.5 807,263 						"/>
						<polygon class="st1" points="807,263 828.7,255.5 794.2,239.3 						"/>
						<polygon class="st1" points="846.8,241.1 845.7,221.7 838.7,235.8 						"/>
						<polygon class="st1" points="838.7,235.8 828.7,255.5 847.5,253.1 846.8,241.1 						"/>
						<polygon class="st1" points="794.2,239 794.1,239.2 794.2,239.3 						"/>
						<polygon class="st1" points="827,228.1 805.8,214.2 794.2,239 794.2,239.3 						"/>
						<polygon class="st1" points="828.7,255.5 838.7,235.8 827,228.1 794.2,239.3 						"/>
						<polygon class="st1" points="845.7,221.7 827,228.1 827,228.1 827,228.1 827,228.1 838.7,235.8 						"/>
						<polygon class="st1" points="860.4,250.1 845.7,221.7 846.8,241.1 						"/>
						<polygon class="st1" points="885.9,189.7 885.8,189.8 885.9,189.8 						"/>
						<polygon class="st1" points="889.9,210 885.9,189.8 885.8,189.8 876,205.4 882.2,212 						"/>
						<polygon class="st1" points="886,189.8 885.9,189.7 885.9,189.8 						"/>
						<polygon class="st1" points="882.2,212 876,205.4 870,215.1 870.3,215.2 						"/>
						<polygon class="st1" points="870,215.3 845.7,221.7 873.7,231.5 						"/>
						<polygon class="st1" points="870,215.1 870,215.3 870.3,215.2 						"/>
						<polygon class="st1" points="873.7,231.5 845.7,221.7 860.4,250.1 						"/>
						<polygon class="st1" points="828.7,277.6 840.4,276.5 847.5,253.1 828.7,255.5 						"/>
						<polygon class="st1" points="882.8,219.6 870.3,215.2 870,215.3 873.7,231.5 						"/>
						<polygon class="st1" points="886,189.8 885.9,189.8 889.9,210 907.8,205.3 						"/>
						<polygon class="st1" points="422.2,279.5 434.3,309.6 435,279.6 						"/>
						<polygon class="st1" points="435,279.6 434.3,309.6 448.7,279.7 						"/>
						<polygon class="st1" points="448.7,279.7 434.3,309.6 455.1,308 						"/>
						<polygon class="st1" points="412.7,275.5 416.5,281.5 422.2,279.5 						"/>
						<polygon class="st1" points="416.5,281.5 406.2,285 412.4,290.5 418.2,284.1 						"/>
						<polygon class="st1" points="422.2,279.5 416.5,281.5 418.2,284.1 						"/>
						<polygon class="st1" points="434.3,309.6 450.6,320.4 456.8,315.3 455.1,308 						"/>
						<polygon class="st1" points="473.2,261.5 466.5,307.2 483,281.9 						"/>
						<polygon class="st1" points="466.5,307.2 490,296.6 483,281.9 						"/>
						<polygon class="st1" points="448.7,279.7 466.5,307.2 473.2,261.5 						"/>
						<polygon class="st1" points="440.5,225.2 436.5,220.7 437.3,224.5 						"/>
						<polygon class="st1" points="473.2,261.5 457.9,228.8 455.5,241.9 						"/>
						<polygon class="st1" points="436.2,233 436.4,224.3 432.4,223.5 425.1,228.5 424.7,235.1 						"/>
						<polygon class="st1" points="452.9,256.5 473.2,261.5 455.5,241.9 						"/>
						<polygon class="st1" points="445.8,231.1 457.9,228.8 440.5,225.2 						"/>
						<polygon class="st1" points="451.7,237.6 457.9,228.8 445.8,231.1 						"/>
						<polygon class="st1" points="437.3,224.5 436.5,220.7 436.4,224.3 						"/>
						<polygon class="st1" points="457.9,228.8 448.2,219.6 436.5,220.7 440.5,225.2 						"/>
						<polygon class="st1" points="436.4,224.3 436.5,220.7 432.4,223.5 						"/>
						<polygon class="st1" points="483,281.9 490,296.6 490,271.2 						"/>
						<polygon class="st1" points="930.4,160.4 921.5,160.6 924.6,173 924.6,173 						"/>
						<polygon class="st1" points="826.2,202.8 827,228.1 845.7,221.7 						"/>
						<polygon class="st1" points="765.8,313 772.3,298.1 754.6,304.5 						"/>
						<polygon class="st1" points="887.1,181 885.9,189.7 891.9,181.9 						"/>
						<polygon class="st1" points="778.2,296 774.3,293.7 772.3,298.1 						"/>
						<polygon class="st1" points="490,271.2 490,296.6 508.8,265.8 						"/>
						<polygon class="st1" points="893.1,180.4 891.9,181.9 894.6,182.4 						"/>
						<polygon class="st1" points="940.1,184.2 924.6,173 924.6,173 927.2,185.6 936.4,188.4 						"/>
						<polygon class="st1" points="936.4,188.4 927.2,185.6 927.8,188.7 934.9,190.1 						"/>
						<polygon class="st1" points="798.4,285.1 807.1,276.6 784.4,270.7 						"/>
						<polygon class="st1" points="911.8,180.9 902.9,184 915.1,186.3 						"/>
						<polygon class="st1" points="916.4,211.3 916.4,211.3 916.4,211.3 						"/>
						<polygon class="st1" points="967,188.6 952.7,193.5 966.8,196.9 						"/>
						<polygon class="st1" points="860.7,176 860,188.4 877.6,179.2 						"/>
						<polygon class="st1" points="490,296.6 514.8,296.9 508.8,265.8 						"/>
						<polygon class="st1" points="980.6,227.6 980.2,218.7 966.5,216.5 976.3,232.9 						"/>
						<polygon class="st1" points="970.1,240.4 976.3,232.9 966.5,216.5 962.5,238.4 						"/>
						<polygon class="st1" points="940.2,238.1 951.1,228.9 937,227.5 						"/>
						<polygon class="st1" points="966.8,196.9 952.7,193.5 966.5,216.5 						"/>
						<polygon class="st1" points="909.6,238.1 912.9,225.1 892.5,223 						"/>
						<polygon class="st1" points="902.9,184 894.6,182.4 897.3,185.9 						"/>
						<polygon class="st1" points="213,339.1 230.9,338.2 221.2,334.2 						"/>
						<polygon class="st1" points="204.7,327.5 213,339.1 215.1,331.8 						"/>
						<polygon class="st1" points="197.1,326.2 183.8,332.5 199.7,328.3 						"/>
						<polygon class="st1" points="183.8,332.5 198.6,337.4 213,339.1 199.7,328.3 						"/>
						<polygon class="st1" points="204,327.2 199.7,328.3 213,339.1 204.7,327.5 						"/>
						<polygon class="st1" points="215.1,331.8 213,339.1 221.2,334.2 						"/>
						<polygon class="st1" points="230.9,338.2 249.4,335.4 269.2,329.7 255.4,325.7 						"/>
						<polygon class="st1" points="221.2,334.2 230.9,338.2 227.2,330.6 						"/>
						<polygon class="st1" points="246.1,323 230.9,338.2 255.4,325.7 						"/>
						<polygon class="st1" points="241.8,321.8 227.2,330.6 230.9,338.2 246.1,323 						"/>
						<polygon class="st1" points="255.4,325.7 269.2,329.7 262.6,322.1 						"/>
						<polygon class="st1" points="223.1,322.2 219.8,315.5 217.5,323.7 						"/>
						<polygon class="st1" points="255.4,313.7 237.9,312.3 219.8,315.5 233.5,319.5 						"/>
						<polygon class="st1" points="233.5,319.5 219.8,315.5 223.1,322.2 						"/>
						<polygon class="st1" points="241.8,321.8 255.4,313.7 233.5,319.5 						"/>
						<polygon class="st1" points="199.1,325.3 192.6,322.6 197.1,326.2 						"/>
						<polygon class="st1" points="202.1,323.9 196.1,315.6 192.6,322.6 199.1,325.3 						"/>
						<polygon class="st1" points="192.6,322.6 183.8,332.5 197.1,326.2 						"/>
						<polygon class="st1" points="204.4,327.1 217.5,323.7 219.8,315.5 202.1,323.9 						"/>
						<polygon class="st1" points="219.8,315.5 196.1,315.6 202.1,323.9 						"/>
						<polygon class="st1" points="600.1,244.1 599.9,243.7 599.6,243.9 						"/>
						<polygon class="st1" points="450.6,320.4 459.2,326.1 456.8,315.3 						"/>
						<polygon class="st1" points="383,357.3 410.3,354 392.7,345.1 						"/>
						<polygon class="st1" points="360.1,340.1 350.1,357.7 367.2,345.4 						"/>
						<polygon class="st1" points="350.1,357.7 383,357.3 367.2,345.4 						"/>
						<polygon class="st1" points="367.2,345.4 383,357.3 387.6,342.5 						"/>
						<polygon class="st1" points="434.3,309.6 410.3,354 450.6,320.4 						"/>
						<polygon class="st1" points="223.1,322.2 227.2,330.6 241.8,321.8 233.5,319.5 						"/>
						<polygon class="st1" points="397.7,338.7 410.3,354 406.6,327.3 						"/>
						<polygon class="st1" points="406.6,327.3 410.3,354 434.3,309.6 						"/>
						<polygon class="st1" points="292.5,331.4 329.3,346.1 304.1,326 						"/>
						<polygon class="st1" points="269.2,329.7 292.5,331.4 281,325.9 						"/>
						<polygon class="st1" points="281,325.9 292.5,331.4 290.3,322.9 						"/>
						<polygon class="st1" points="275.1,323.1 269.2,329.7 281,325.9 						"/>
						<polygon class="st1" points="300.1,319.8 300.1,319.8 290.3,322.9 292.5,331.4 300.1,319.8 						"/>
						<polygon class="st1" points="329.3,346.1 350.1,357.7 333.3,336.4 						"/>
						<polygon class="st1" points="300.1,319.8 292.5,331.4 304.1,326 						"/>
						<polygon class="st1" points="333.3,336.4 350.1,357.7 347.7,338.4 						"/>
						<polygon class="st1" points="308.4,323.9 304.1,326 329.3,346.1 333.3,336.4 						"/>
						<polygon class="st1" points="267.6,319.5 262.6,322.1 269.2,329.7 275.1,323.1 						"/>
						<polygon class="st1" points="387.6,342.5 383,357.3 392.7,345.1 						"/>
						<polygon class="st1" points="378.5,260.9 370.4,280.3 365.3,299.1 406.2,285 						"/>
						<polygon class="st1" points="416.5,281.5 412.7,275.5 378.5,260.9 406.2,285 						"/>
						<polygon class="st1" points="391.3,241.6 378.5,260.9 395.9,248.8 						"/>
						<polygon class="st1" points="399,246.7 391.3,241.6 395.9,248.8 						"/>
						<polygon class="st1" points="412.4,290.5 406.2,285 365.3,299.1 400.1,304.4 						"/>
						<polygon class="st1" points="400.1,304.4 365.3,299.1 392.5,312.9 						"/>
						<polygon class="st1" points="374.5,317 365.3,299.1 362.7,319.7 						"/>
						<polygon class="st1" points="362.7,319.7 365.3,299.1 351.7,307.8 355.2,321.4 						"/>
						<polygon class="st1" points="379.1,316 365.3,299.1 374.5,317 						"/>
						<polygon class="st1" points="418.4,233.2 417.4,220.4 391.3,241.6 412.1,237.6 						"/>
						<polygon class="st1" points="455.4,211 426.8,199.5 444.8,216.4 						"/>
						<polygon class="st1" points="426.8,199.5 417.4,220.4 425.6,220.5 						"/>
						<polygon class="st1" points="487.8,215.9 455.4,211 456.5,218.8 						"/>
						<polygon class="st1" points="457.9,228.8 487.8,215.9 456.5,218.8 						"/>
						<polygon class="st1" points="425.1,228.5 425.5,222.1 417.4,220.4 418.4,233.2 						"/>
						<polygon class="st1" points="412.1,237.6 391.3,241.6 402.4,244.3 						"/>
						<polygon class="st1" points="345.2,323.7 355.2,321.4 351.7,307.8 342.5,320.6 						"/>
						<polygon class="st1" points="402.4,244.3 391.3,241.6 399,246.7 						"/>
						<polygon class="st1" points="425.6,220.5 417.4,220.4 425.5,222.1 						"/>
						<polygon class="st1" points="267.6,319.5 255.4,313.7 262.6,322.1 						"/>
						<polygon class="st1" points="255.4,325.7 262.6,322.1 255.4,313.7 246.1,323 						"/>
						<polygon class="st1" points="217.5,323.7 215.1,331.8 221.2,334.2 227.2,330.6 223.1,322.2 						"/>
						<polygon class="st1" points="274.1,316.3 255.4,313.7 267.6,319.5 						"/>
						<polygon class="st1" points="246.1,323 255.4,313.7 241.8,321.8 						"/>
						<polygon class="st1" points="286.8,309.8 255.4,313.7 274.1,316.3 						"/>
						<polygon class="st1" points="204.4,327.1 204.7,327.5 215.1,331.8 217.5,323.7 						"/>
						<polygon class="st1" points="204,327.2 204.7,327.5 204.4,327.1 						"/>
						<polygon class="st1" points="339.3,325 334.5,311.8 333.9,324.3 						"/>
						<polygon class="st1" points="197.1,326.2 199.7,328.3 204,327.2 199.1,325.3 						"/>
						<polygon class="st1" points="202.1,323.9 199.1,325.3 204,327.2 204.4,327.1 						"/>
						<polygon class="st1" points="315.7,312.1 305.8,311 310,314.9 						"/>
						<polygon class="st1" points="334.5,311.8 315.7,312.1 320.3,318.4 						"/>
						<polygon class="st1" points="316,320.4 320.3,318.4 315.7,312.1 310,314.9 						"/>
						<polygon class="st1" points="323.5,322.9 333.9,324.3 334.5,311.8 320.3,318.4 						"/>
						<polygon class="st1" points="289,318.3 286.8,309.8 280.4,317.1 						"/>
						<polygon class="st1" points="300.1,319.8 300.1,319.7 286.8,309.8 289,318.3 						"/>
						<polygon class="st1" points="310,314.9 305.8,311 300.1,319.7 						"/>
						<polygon class="st1" points="280.4,317.1 286.8,309.8 274.1,316.3 						"/>
						<polygon class="st1" points="300.1,319.7 305.8,311 286.8,309.8 300.1,319.7 						"/>
						<polygon class="st1" points="800.1,286.8 792.5,290.8 803.6,310.4 809.1,296.1 						"/>
						<polygon class="st1" points="874.1,346.6 890.4,355 891,345.8 						"/>
						<polygon class="st1" points="909.1,344.8 921.9,360.5 922.1,337.7 						"/>
						<polygon class="st1" points="909.1,344.8 908.8,345 891,345.8 890.4,355 909.1,344.8 						"/>
						<polygon class="st1" points="890.4,355 921.9,360.5 909.1,344.8 						"/>
						<polygon class="st1" points="1010.6,363.7 1003.2,369.6 1011.6,371.8 1016.4,362.9 						"/>
						<polygon class="st1" points="921.9,360.5 944.4,369 922.1,337.7 						"/>
						<polygon class="st1" points="1016.4,362.9 1020.3,355.8 1010.6,363.7 						"/>
						<polygon class="st1" points="1020.3,355.8 990.3,366.1 1010.6,363.7 						"/>
						<polygon class="st1" points="840.9,324.4 836.4,326.4 848.3,341.8 849.4,330.1 						"/>
						<polygon class="st1" points="466.5,307.2 459.2,326.1 475.2,310.9 						"/>
						<polygon class="st1" points="909.1,344.8 922.1,337.7 909.1,344.8 						"/>
						<polygon class="st1" points="854.4,333.4 848.3,341.8 860,337.1 						"/>
						<polygon class="st1" points="848.3,341.8 874.1,346.6 860,337.1 						"/>
						<polygon class="st1" points="860,337.1 874.1,346.6 872.7,332.1 						"/>
						<polygon class="st1" points="849.4,330.1 848.3,341.8 854.4,333.4 						"/>
						<polygon class="st1" points="922.1,337.7 892.3,324.3 909.1,344.8 						"/>
						<polygon class="st1" points="908.8,345 909.1,344.8 892.3,324.3 891,345.8 						"/>
						<polygon class="st1" points="872.7,332.1 874.1,346.6 892.3,324.3 						"/>
						<polygon class="st1" points="892.3,324.3 874.1,346.6 891,345.8 						"/>
						<polygon class="st1" points="1010.6,363.7 990.3,366.1 1003.2,369.6 						"/>
						<polygon class="st1" points="1011.6,371.8 1015.9,373 1025.2,363.6 1025.5,361.8 1016.4,362.9 						"/>
						<polygon class="st1" points="985.8,383.6 1005,383.8 993.9,377.1 						"/>
						<polygon class="st1" points="982.8,370.3 977.2,373.4 985.8,383.6 988.3,373.7 						"/>
						<polygon class="st1" points="988.3,373.7 985.8,383.6 993.9,377.1 						"/>
						<polygon class="st1" points="959.8,383.1 967.6,380.7 985.8,383.6 974.1,375.1 						"/>
						<polygon class="st1" points="974.1,375.1 985.8,383.6 977.2,373.4 						"/>
						<polygon class="st1" points="1015.9,373 1023.7,375 1025.2,363.6 						"/>
						<polygon class="st1" points="1003.2,369.6 993.9,377.1 1005,383.8 1011.6,371.8 						"/>
						<polygon class="st1" points="1005,383.8 1023.7,375 1015.9,373 						"/>
						<polygon class="st1" points="1011.6,371.8 1005,383.8 1015.9,373 						"/>
						<polygon class="st1" points="988.3,373.7 990.3,366.1 982.8,370.3 						"/>
						<polygon class="st1" points="977.2,373.4 982.8,370.3 967.2,360.8 966.4,360.8 						"/>
						<polygon class="st1" points="965.6,360.8 965.4,360.6 963.6,367.6 974.1,375.1 977.2,373.4 966.4,360.8 						"/>
						<polygon class="st1" points="990.3,366.1 977.2,360.7 967.2,360.8 982.8,370.3 						"/>
						<polygon class="st1" points="963.6,367.6 959.8,383.1 974.1,375.1 						"/>
						<polygon class="st1" points="993.9,377.1 1003.2,369.6 990.3,366.1 988.3,373.7 						"/>
						<polygon class="st1" points="957.6,363.3 944.4,369 959.8,383.1 963.6,367.6 						"/>
						<polygon class="st1" points="922.1,337.7 944.4,369 957.6,363.3 						"/>
						<polygon class="st1" points="963.6,367.6 965.4,360.6 964.6,360.2 957.6,363.3 						"/>
						<polygon class="st1" points="964.6,360.2 952,353.2 922.1,337.7 957.6,363.3 						"/>
						<polygon class="st1" points="1025.5,361.8 1025.5,361.5 1020.3,355.8 1016.4,362.9 						"/>
						<polygon class="st1" points="573,314.2 607.9,338.8 584.4,311.8 						"/>
						<polygon class="st1" points="557.8,303.6 556.5,317.7 573,314.2 						"/>
						<polygon class="st1" points="556.5,317.7 607.9,338.8 573,314.2 						"/>
						<polygon class="st1" points="595.5,309.5 607.9,338.8 612.9,322.1 						"/>
						<polygon class="st1" points="595.5,309.5 584.4,311.8 607.9,338.8 595.5,309.5 						"/>
						<polygon class="st1" points="631.3,335.3 649.2,348.3 651.3,332.4 						"/>
						<polygon class="st1" points="607.9,338.8 649.2,348.3 631.3,335.3 						"/>
						<polygon class="st1" points="622.6,329.1 607.9,338.8 631.3,335.3 						"/>
						<polygon class="st1" points="612.9,322.1 607.9,338.8 622.6,329.1 						"/>
						<polygon class="st1" points="553.6,300.6 553.1,300.5 556.5,317.7 557.8,303.6 						"/>
						<polygon class="st1" points="475.2,310.9 487,336.8 490,296.6 						"/>
						<polygon class="st1" points="487,336.8 517.7,316 490,296.6 						"/>
						<polygon class="st1" points="490,296.6 517.7,316 514.8,296.9 						"/>
						<polygon class="st1" points="459.2,326.1 487,336.8 475.2,310.9 						"/>
						<polygon class="st1" points="537.7,297.2 556.5,317.7 553.1,300.5 						"/>
						<polygon class="st1" points="514.8,296.9 517.7,316 520.6,297 						"/>
						<polygon class="st1" points="537.7,297.2 537.7,297.2 517.7,316 556.5,317.7 537.7,297.2 						"/>
						<polygon class="st1" points="649.2,348.3 687,348.5 651.3,332.4 						"/>
						<polygon class="st1" points="520.6,297 517.7,316 537.7,297.2 						"/>
						<polygon class="st1" points="695.3,336.9 687,348.5 687.1,348.5 708.1,346.9 735.6,341 706.3,338 						"/>
						<polygon class="st1" points="787.6,301.3 803.6,310.4 792.5,290.8 						"/>
						<polygon class="st1" points="777.8,321.9 803.6,310.4 782,313 						"/>
						<polygon class="st1" points="782,313 803.6,310.4 787.6,301.3 						"/>
						<polygon class="st1" points="772.8,314.1 770.7,316.6 777.8,321.9 782,313 						"/>
						<polygon class="st1" points="819.3,306.6 803.6,310.4 826.6,330.7 828.5,316.1 						"/>
						<polygon class="st1" points="757,332.9 777.8,321.9 770.7,316.6 						"/>
						<polygon class="st1" points="828.5,316.1 826.6,330.7 836.4,326.4 						"/>
						<polygon class="st1" points="809.1,296.1 803.6,310.4 819.3,306.6 						"/>
						<polygon class="st1" points="483.8,228.2 487.8,215.9 457.9,228.8 						"/>
						<polygon class="st1" points="826.6,330.7 848.3,341.8 836.4,326.4 						"/>
						<polygon class="st1" points="695.3,336.9 706.3,338 735.6,341 705.8,322.2 						"/>
						<polygon class="st1" points="687.7,336.1 651.3,332.4 687,348.5 687,348.5 						"/>
						<polygon class="st1" points="687.7,336.1 687,348.5 687,348.5 695.3,336.9 						"/>
						<polygon class="st1" points="705.8,322.2 735.6,341 732.3,327.8 						"/>
						<polygon class="st1" points="768.1,314.7 764.8,315.1 757,332.9 770.7,316.6 						"/>
						<polygon class="st1" points="739.9,318.1 737.9,328.9 757,332.9 754,316.4 						"/>
						<polygon class="st1" points="754,316.4 757,332.9 764.8,315.1 						"/>
						<polygon class="st1" points="732.3,327.8 735.6,341 737.9,328.9 						"/>
						<polygon class="st1" points="735.6,341 757,332.9 737.9,328.9 						"/>
						<polygon class="st1" points="410.3,354 431.3,344.2 459.2,326.1 450.6,320.4 						"/>
						<polygon class="st1" points="894.5,248.8 907.5,246.5 892.5,223 						"/>
						<polygon class="st1" points="892.5,223 907.5,246.5 909.6,238.1 						"/>
						<polygon class="st1" points="889.5,244.6 894.5,248.8 892.5,223 						"/>
						<polygon class="st1" points="595.5,309.5 595.5,309.5 595.5,309.5 						"/>
						<polygon class="st1" points="615.5,313.3 612.9,322.1 622.6,329.1 632.7,322.5 						"/>
						<polygon class="st1" points="604.7,307.6 595.5,309.5 595.5,309.5 612.9,322.1 615.5,313.3 						"/>
						<polygon class="st1" points="919.3,225.7 924.6,251.3 930.7,226.8 						"/>
						<polygon class="st1" points="907.5,246.5 924.6,251.3 909.6,238.1 						"/>
						<polygon class="st1" points="912.9,225.1 909.6,238.1 924.6,251.3 919.3,225.7 						"/>
						<polygon class="st1" points="687.7,336.1 695.3,336.9 705.8,322.2 688.3,325.5 						"/>
						<polygon class="st1" points="648,312.3 651.3,332.4 655.9,307.1 						"/>
						<polygon class="st1" points="688.8,317.1 675.8,313.1 651.3,332.4 688.3,325.5 						"/>
						<polygon class="st1" points="655.9,307.1 651.3,332.4 675.8,313.1 						"/>
						<polygon class="st1" points="886.8,263.5 894.5,248.8 889.5,244.6 						"/>
						<polygon class="st1" points="651.3,332.4 687.7,336.1 688.3,325.5 						"/>
						<polygon class="st1" points="641.6,316.6 651.3,332.4 648,312.3 						"/>
						<polygon class="st1" points="632.7,322.5 651.3,332.4 636.4,320 						"/>
						<polygon class="st1" points="636.4,320 651.3,332.4 641.6,316.6 						"/>
						<polygon class="st1" points="622.6,329.1 631.3,335.3 651.3,332.4 632.7,322.5 						"/>
						<polygon class="st1" points="525.4,278.7 508.8,265.8 524.3,282.7 						"/>
						<polygon class="st1" points="524.3,282.7 520.6,297 537.7,297.2 537.7,297.2 						"/>
						<polygon class="st1" points="508.8,265.8 514.8,296.9 520.6,297 524.3,282.7 						"/>
						<polygon class="st1" points="940.2,238.1 945.1,254 951.1,228.9 						"/>
						<polygon class="st1" points="924.6,251.3 945.1,254 940.2,238.1 						"/>
						<polygon class="st1" points="951.3,229 950.4,251.1 962.5,238.4 						"/>
						<polygon class="st1" points="950.4,251.1 965.9,255 962.5,238.4 						"/>
						<polygon class="st1" points="527.1,272.2 508.8,265.8 525.4,278.7 						"/>
						<polygon class="st1" points="951.1,228.9 945.1,254 950.4,251.1 951.3,229 						"/>
						<polygon class="st1" points="579.3,306.1 584.4,311.8 595.5,309.5 595.5,309.5 						"/>
						<polygon class="st1" points="553.6,300.6 557.8,303.6 558,301.5 						"/>
						<polygon class="st1" points="537.7,297.2 537.7,297.2 537.7,297.2 537.7,297.2 						"/>
						<polygon class="st1" points="937,227.5 930.7,226.8 924.6,251.3 940.2,238.1 						"/>
						<polygon class="st1" points="595.5,309.5 595.5,309.5 595.5,309.5 595.5,309.5 						"/>
						<polygon class="st1" points="558,301.5 557.8,303.6 573,314.2 584.4,311.8 579.3,306.1 						"/>
						<polygon class="st1" points="553.1,300.2 544.1,293.3 537.7,297.2 537.7,297.2 553.1,300.5 553.1,300.2 						"/>
						<polygon class="st1" points="559.7,283.7 550.9,289.1 553.1,300.2 553.6,300.6 558,301.5 						"/>
						<polygon class="st1" points="553.1,300.5 553.6,300.6 553.1,300.2 						"/>
						<polygon class="st1" points="819.3,306.6 828.5,316.1 828.5,304.3 						"/>
						<polygon class="st1" points="774.3,293.7 778.2,296 792.5,290.8 777.4,286.6 						"/>
						<polygon class="st1" points="849.4,330.1 854.4,333.4 870.6,311.2 850.4,320.2 						"/>
						<polygon class="st1" points="840.9,324.4 849.4,330.1 850.4,320.2 						"/>
						<polygon class="st1" points="784.4,270.7 792.5,290.8 798.4,285.1 						"/>
						<polygon class="st1" points="777.4,286.6 792.5,290.8 784.4,270.7 						"/>
						<polygon class="st1" points="778.2,296 772.3,298.1 765.8,313 768.1,314.7 772.8,314.1 784.9,299.8 						"/>
						<polygon class="st1" points="772.8,314.1 782,313 787.6,301.3 784.9,299.8 						"/>
						<polygon class="st1" points="787.6,301.3 792.5,290.8 784.9,299.8 						"/>
						<polygon class="st1" points="784.9,299.8 792.5,290.8 778.2,296 						"/>
						<polygon class="st1" points="852.1,302 828.5,316.1 851,313.5 						"/>
						<polygon class="st1" points="800.1,286.8 809.1,296.1 815.6,278.8 						"/>
						<polygon class="st1" points="792.5,290.8 800.1,286.8 798.4,285.1 						"/>
						<polygon class="st1" points="828.6,283.6 815.6,278.8 809.1,296.1 819.3,306.6 828.5,304.3 						"/>
						<polygon class="st1" points="828.5,304.3 828.5,316.1 832.3,303.4 						"/>
						<polygon class="st1" points="970.1,240.4 962.5,238.4 965.9,255 970.1,240.4 						"/>
						<polygon class="st1" points="851,313.5 828.5,316.1 840.9,324.4 850.4,320.2 						"/>
						<polygon class="st1" points="807.1,276.6 798.4,285.1 800.1,286.8 815.6,278.8 						"/>
						<polygon class="st1" points="764.8,315.1 768.1,314.7 765.8,313 						"/>
						<polygon class="st1" points="852.4,298.4 862.1,296.1 853,292.7 						"/>
						<polygon class="st1" points="688.3,325.5 705.8,322.2 688.8,317.1 						"/>
						<polygon class="st1" points="862.1,296.1 873.3,282.9 854.6,275.1 						"/>
						<polygon class="st1" points="854.6,275.1 873.3,282.9 868.3,270.2 						"/>
						<polygon class="st1" points="853,292.7 862.1,296.1 854.6,275.1 						"/>
						<polygon class="st1" points="873.3,282.9 886.8,263.5 868.3,270.2 						"/>
						<polygon class="st1" points="754.6,304.5 752.1,305.4 754,316.4 764.8,315.1 765.8,313 						"/>
						<polygon class="st1" points="719.8,278.6 705.8,322.2 728.8,313.9 						"/>
						<polygon class="st1" points="492.9,228.1 487.8,215.9 483.8,228.2 						"/>
						<polygon class="st1" points="694.7,298.3 705.8,322.2 719.8,278.6 						"/>
						<polygon class="st1" points="689.6,302.3 688.8,317.1 705.8,322.2 694.7,298.3 						"/>
						<polygon class="st1" points="851,313.5 870.6,311.2 862.1,296.1 852.1,302 						"/>
						<polygon class="st1" points="852.1,302 862.1,296.1 852.4,298.4 						"/>
						<polygon class="st1" points="741.5,309.3 739.9,318.1 754,316.4 752.1,305.4 						"/>
						<polygon class="st1" points="850.4,320.2 870.6,311.2 851,313.5 						"/>
						<polygon class="st1" points="705.8,322.2 732.3,327.8 730.1,319.3 						"/>
						<polygon class="st1" points="728.8,313.9 730.1,319.3 739.9,318.1 741.5,309.3 						"/>
						<polygon class="st1" points="728.8,313.9 705.8,322.2 730.1,319.3 						"/>
						<polygon class="st1" points="732.3,327.8 737.9,328.9 739.9,318.1 730.1,319.3 						"/>
						<polygon class="st1" points="599.2,243.8 599.9,243.7 605.7,228.4 583,239.3 						"/>
						<polygon class="st1" points="700.6,228.9 689.7,218.8 696.6,232.4 						"/>
						<polygon class="st1" points="677.6,249.3 669.5,224.4 663.6,261.7 						"/>
						<polygon class="st1" points="583.2,260.3 558.5,251.2 576.3,267.2 						"/>
						<polygon class="st1" points="634.8,253.7 638,251 634.8,232 624.7,250.9 						"/>
						<polygon class="st1" points="808.9,171.9 791,177.5 794.7,206.9 						"/>
						<polygon class="st1" points="581.6,240 558.5,251.2 587.6,245.9 						"/>
						<polygon class="st1" points="646.4,243.9 634.8,232 638,251 						"/>
						<polygon class="st1" points="669.5,224.4 634.8,232 646.4,243.9 						"/>
						<polygon class="st1" points="663.6,261.7 669.5,224.4 646.4,243.9 						"/>
						<polygon class="st1" points="696.6,232.4 689.7,218.8 669.5,224.4 677.6,249.3 						"/>
						<polygon class="st1" points="791,177.5 743.5,189.3 769.5,198.2 						"/>
						<polygon class="st1" points="769.5,198.2 743.5,189.3 760.9,206.5 						"/>
						<polygon class="st1" points="760.9,206.5 743.5,189.3 755,212.1 						"/>
						<polygon class="st1" points="794.7,206.9 791,177.5 769.5,198.2 						"/>
						<polygon class="st1" points="730.2,202.6 689.7,218.8 700.6,228.9 						"/>
						<polygon class="st1" points="707.2,235 730.2,202.6 700.6,228.9 						"/>
						<polygon class="st1" points="739.4,227.1 730.2,202.6 716,243.2 						"/>
						<polygon class="st1" points="755,212.1 743.5,189.3 739.4,227.1 						"/>
						<polygon class="st1" points="743.5,189.3 730.2,202.6 739.4,227.1 						"/>
						<polygon class="st1" points="592.7,250.9 587.6,245.9 558.5,251.2 583.2,260.3 						"/>
						<polygon class="st1" points="548.8,254.1 538.9,227.1 544.4,255.4 						"/>
						<polygon class="st1" points="600.1,244.1 624.7,250.9 634.8,232 599.9,243.7 						"/>
						<polygon class="st1" points="530.4,259.4 538.9,227.1 508.8,265.8 						"/>
						<polygon class="st1" points="544.4,255.4 538.9,227.1 530.4,259.4 						"/>
						<polygon class="st1" points="587.6,245.9 599.2,243.8 583,239.3 581.6,240 						"/>
						<polygon class="st1" points="508.8,265.8 538.9,227.1 500.9,247 						"/>
						<polygon class="st1" points="538.9,227.1 487.8,215.9 492.9,228.1 						"/>
						<polygon class="st1" points="500.9,247 538.9,227.1 492.9,228.1 						"/>
						<polygon class="st1" points="599.9,243.7 599.2,243.8 599.6,243.9 						"/>
						<polygon class="st1" points="592.7,250.9 599.6,243.9 599.2,243.8 587.6,245.9 						"/>
						<polygon class="st1" points="583,239.3 580,238.5 581.6,240 						"/>
						<polygon class="st1" points="852.4,298.4 832.3,303.4 828.5,316.1 852.1,302 						"/>
						<polygon class="st1" points="580,238.5 566.4,234.7 558.5,251.2 581.6,240 						"/>
						<polygon class="st1" points="634.8,232 605.7,228.4 599.9,243.7 						"/>
						<polygon class="st1" points="566.4,234.7 538.9,227.1 558.5,251.2 						"/>
						<polygon class="st1" points="558.5,251.2 538.9,227.1 548.8,254.1 						"/>
						<polygon class="st1" points="569.5,228.2 538.9,227.1 566.4,234.7 						"/>
						<polygon class="st1" points="583,239.3 605.7,228.4 569.5,228.2 580,238.5 						"/>
						<polygon class="st1" points="580,238.5 569.5,228.2 566.4,234.7 						"/>
						<polygon class="st1" points="716,243.2 730.2,202.6 707.2,235 						"/>
						<polygon class="st1" points="978.4,184.7 967.4,169 967,188.6 						"/>
						<polygon class="st1" points="976.3,232.9 982.8,243.7 986.8,242.5 991.9,234.1 980.6,227.6 						"/>
						<polygon class="st1" points="948.5,174.6 967.4,169 945.3,160.1 948.5,174.5 						"/>
						<polygon class="st1" points="967,188.6 967.4,169 952.7,193.5 						"/>
						<polygon class="st1" points="948.5,174.6 952.7,193.5 967.4,169 948.5,174.6 						"/>
						<polygon class="st1" points="930.4,160.4 945.3,160.1 933.3,154.4 						"/>
						<polygon class="st1" points="574.2,269.3 576.3,267.2 558.5,251.2 569.8,269.1 						"/>
						<polygon class="st1" points="569.8,269.1 558.5,251.2 559.1,268.5 						"/>
						<polygon class="st1" points="924.6,173 924.6,173 936.9,165.3 930.7,160.4 936.9,165.3 945.3,160.1 930.4,160.4 						"/>
						<polygon class="st1" points="991.9,234.1 994.8,221.1 980.6,227.6 						"/>
						<polygon class="st1" points="980.6,227.6 994.8,221.1 980.2,218.7 						"/>
						<polygon class="st1" points="970.1,240.4 965.9,255 976.3,252.7 982.8,243.7 970.1,240.4 						"/>
						<polygon class="st1" points="970.1,240.4 982.8,243.7 976.3,232.9 						"/>
						<polygon class="st1" points="994.8,221.1 979.3,199.9 980.2,218.7 						"/>
						<polygon class="st1" points="966.8,196.9 979.3,199.9 978.4,184.7 967,188.6 						"/>
						<polygon class="st1" points="966.5,216.5 979.3,199.9 966.8,196.9 						"/>
						<polygon class="st1" points="980.2,218.7 979.3,199.9 966.5,216.5 						"/>
						<polygon class="st1" points="948.5,174.5 945.3,160.1 936.9,165.3 						"/>
						<polygon class="st1" points="860.7,176 825.3,169.7 860,188.4 						"/>
						<polygon class="st1" points="873.1,162.2 825.3,169.7 860.7,176 						"/>
						<polygon class="st1" points="815.9,192.8 808.9,171.9 794.7,206.9 						"/>
						<polygon class="st1" points="936.3,147.8 933.3,154.4 945.3,160.1 936.2,147.3 918,147.2 933.3,154.4 						"/>
						<polygon class="st1" points="833.7,191 825.3,169.7 825.9,191.8 						"/>
						<polygon class="st1" points="825.3,169.7 808.9,171.9 815.9,192.8 						"/>
						<polygon class="st1" points="877.6,179.2 888.1,173.7 873.1,162.2 860.7,176 						"/>
						<polygon class="st1" points="825.9,191.8 825.3,169.7 815.9,192.8 						"/>
						<polygon class="st1" points="860,188.4 825.3,169.7 833.7,191 						"/>
						<polygon class="st1" points="918,147.2 908,161 921.5,160.6 						"/>
						<polygon class="st1" points="908,161 873.1,162.2 888.1,173.7 						"/>
						<polygon class="st1" points="921.5,160.6 908,161 924.6,173 						"/>
						<polygon class="st1" points="930.4,160.4 933.3,154.4 918,147.2 921.5,160.6 						"/>
						<polygon class="st1" points="911.8,180.9 908,161 896.3,176.2 						"/>
						<polygon class="st1" points="896.3,176.2 908,161 888.1,173.7 						"/>
						<polygon class="st1" points="911.8,180.9 924.6,173 924.6,173 908,161 911.8,180.9 						"/>
						<polygon class="st1" points="559.1,268.5 558.5,251.2 548.8,254.1 554,268.2 						"/>
						<polygon class="st1" points="554,268.2 548.8,254.1 544.4,255.4 546.8,267.8 						"/>
						<polygon class="st1" points="528.5,266.8 508.8,265.8 527.1,272.2 						"/>
						<polygon class="st1" points="530.4,259.4 508.8,265.8 528.5,266.8 						"/>
						<polygon class="st1" points="546.8,267.8 544.4,255.4 530.4,259.4 528.5,266.8 						"/>
						<polygon class="st1" points="420.7,261.1 420.7,261.1 420.8,261.1 						"/>
						<polygon class="st1" points="424.7,235.1 425.1,228.5 418.4,233.2 418.7,236.3 						"/>
						<polygon class="st1" points="418.4,233.2 412.1,237.6 418.7,236.3 						"/>
						<polygon class="st1" points="425.5,222.1 425.1,228.5 432.4,223.5 						"/>
						<polygon class="st1" points="420.7,261.1 403.6,261 412.7,275.5 422.2,279.5 						"/>
						<polygon class="st1" points="436.5,220.7 425.6,220.5 425.5,222.1 432.4,223.5 						"/>
						<polygon class="st1" points="419.7,248.5 402.4,244.3 399,246.7 420.7,261.1 						"/>
						<polygon class="st1" points="419.9,286.8 422.2,279.5 418.2,284.1 						"/>
						<polygon class="st1" points="420.7,261.1 399,246.7 395.9,248.8 403.6,261 420.7,261.1 						"/>
						<polygon class="st1" points="392.7,345.1 410.3,354 397.7,338.7 						"/>
						<polygon class="st1" points="439.3,273.4 448.7,279.7 446.9,270.8 						"/>
						<polygon class="st1" points="422.2,279.5 435,279.6 435.1,274.9 						"/>
						<polygon class="st1" points="435.1,274.9 435,279.6 448.7,279.7 439.3,273.4 						"/>
						<polygon class="st1" points="435.2,270.7 430.6,267.6 422.2,279.5 435.1,274.9 						"/>
						<polygon class="st1" points="456.8,315.3 459.2,326.1 466.5,307.2 						"/>
						<polygon class="st1" points="446.9,270.8 448.7,279.7 450.6,269.5 						"/>
						<polygon class="st1" points="455.5,241.9 457.9,228.8 451.7,237.6 						"/>
						<polygon class="st1" points="403.6,261 378.5,260.9 412.7,275.5 						"/>
						<polygon class="st1" points="395.9,248.8 378.5,260.9 403.6,261 						"/>
						<polygon class="st1" points="419.9,286.8 418.2,284.1 412.4,290.5 417.2,294.7 						"/>
						<polygon class="st1" points="436.5,220.7 426.8,199.5 425.6,220.5 						"/>
						<polygon class="st1" points="448.2,219.6 456.5,218.8 455.4,211 444.8,216.4 						"/>
						<polygon class="st1" points="444.8,216.4 426.8,199.5 436.5,220.7 						"/>
						<polygon class="st1" points="455.1,308 466.5,307.2 448.7,279.7 						"/>
						<polygon class="st1" points="392.5,312.9 365.3,299.1 379.1,316 						"/>
						<polygon class="st1" points="456.8,315.3 466.5,307.2 455.1,308 						"/>
						<polygon class="st1" points="400.1,304.4 392.5,312.9 406.6,327.3 413.4,306.5 						"/>
						<polygon class="st1" points="417.2,294.7 412.4,290.5 400.1,304.4 413.4,306.5 						"/>
						<polygon class="st1" points="406.6,327.3 434.3,309.6 413.4,306.5 						"/>
						<polygon class="st1" points="419.9,286.8 434.3,309.6 422.2,279.5 						"/>
						<polygon class="st1" points="417.2,294.7 434.3,309.6 419.9,286.8 						"/>
						<polygon class="st1" points="413.4,306.5 434.3,309.6 417.2,294.7 						"/>
						<polygon class="st1" points="418.7,236.3 412.1,237.6 402.4,244.3 419.7,248.5 						"/>
						<polygon class="st1" points="546.8,267.8 528.5,266.8 527.1,272.2 549.1,279.9 						"/>
						<polygon class="st1" points="478.8,243.9 473.2,261.5 490.4,252.4 						"/>
						<polygon class="st1" points="478.8,243.9 457.9,228.8 473.2,261.5 						"/>
						<polygon class="st1" points="473.2,261.5 508.8,265.8 490.4,252.4 						"/>
						<polygon class="st1" points="435.1,274.9 439.3,273.4 435.2,270.7 						"/>
						<polygon class="st1" points="420.8,261.1 423.2,262.7 423.3,261.1 						"/>
						<polygon class="st1" points="389.8,329.1 395.6,336.1 406.6,327.3 392.5,312.9 						"/>
						<polygon class="st1" points="387.6,342.5 392.7,345.1 397.7,338.7 395.6,336.1 						"/>
						<polygon class="st1" points="546.8,267.8 549.1,279.9 559.7,283.7 554,268.2 						"/>
						<polygon class="st1" points="442.6,250.5 440.5,253.5 443.4,254.2 						"/>
						<polygon class="st1" points="456.5,218.8 448.2,219.6 457.9,228.8 						"/>
						<polygon class="st1" points="490,271.2 508.8,265.8 473.2,261.5 						"/>
						<polygon class="st1" points="554,268.2 559.7,283.7 559.1,268.5 						"/>
						<polygon class="st1" points="420.8,261.1 420.7,261.1 422.2,279.5 423.2,262.7 						"/>
						<polygon class="st1" points="444.9,261.3 452,261.3 452.9,256.5 443.4,254.2 						"/>
						<polygon class="st1" points="423.3,261.1 423.9,249.5 419.7,248.5 420.7,261.1 420.8,261.1 						"/>
						<polygon class="st1" points="443.4,254.2 452.9,256.5 455.5,241.9 451.7,237.6 442.6,250.5 						"/>
						<polygon class="st1" points="446.9,270.8 450.6,269.5 452,261.3 444.9,261.3 						"/>
						<polygon class="st1" points="424.7,235.1 418.7,236.3 419.7,248.5 423.9,249.5 						"/>
						<polygon class="st1" points="435.1,261.2 430.6,267.6 435.2,270.7 435.5,261.2 						"/>
						<polygon class="st1" points="435.1,261.2 435.5,261.2 435.5,260.6 						"/>
						<polygon class="st1" points="435.5,261.2 435.2,270.7 439.3,273.4 446.9,270.8 444.9,261.3 						"/>
						<polygon class="st1" points="435.5,261.2 444.9,261.3 443.4,254.2 440.5,253.5 435.5,260.6 						"/>
						<polygon class="st1" points="339.3,325 347.7,338.4 360.1,340.1 345.2,323.7 						"/>
						<polygon class="st1" points="355.2,321.4 360.1,340.1 362.7,319.7 						"/>
						<polygon class="st1" points="345.2,323.7 360.1,340.1 355.2,321.4 						"/>
						<polygon class="st1" points="374.5,317 362.7,319.7 360.1,340.1 378.5,324.7 						"/>
						<polygon class="st1" points="351.7,307.8 334.5,311.8 342.5,320.6 						"/>
						<polygon class="st1" points="383.1,320.8 378.5,324.7 387.6,342.5 389.8,329.1 						"/>
						<polygon class="st1" points="342.5,320.6 334.5,311.8 339.3,325 						"/>
						<polygon class="st1" points="383.1,320.8 379.1,316 374.5,317 378.5,324.7 						"/>
						<polygon class="st1" points="347.7,338.4 350.1,357.7 360.1,340.1 						"/>
						<polygon class="st1" points="360.1,340.1 387.6,342.5 378.5,324.7 						"/>
						<polygon class="st1" points="389.8,329.1 392.5,312.9 383.1,320.8 						"/>
						<polygon class="st1" points="392.5,312.9 379.1,316 383.1,320.8 						"/>
						<polygon class="st1" points="868.3,270.2 864.8,261.2 854.6,275.1 						"/>
						<polygon class="st1" points="881.6,238 878.3,242.6 886.8,263.5 889.5,244.6 						"/>
						<polygon class="st1" points="889.5,244.6 892.5,223 881.6,238 						"/>
						<polygon class="st1" points="864.8,261.2 868.3,270.2 886.8,263.5 869.5,254.7 						"/>
						<polygon class="st1" points="869.5,254.7 886.8,263.5 878.3,242.6 						"/>
						<polygon class="st1" points="267.3,277.6 269.9,284.6 271.8,283.8 279.9,275.3 						"/>
						<polygon class="st1" points="244.9,268 260.9,260.2 247.7,262.1 						"/>
						<polygon class="st1" points="237.9,283 242.3,282.2 260.9,260.2 244.9,268 						"/>
						<polygon class="st1" points="287.9,267 303.5,271 307.1,247 						"/>
						<polygon class="st1" points="229.6,275.6 231.4,284.2 237.9,283 244.9,268 						"/>
						<polygon class="st1" points="279.9,275.3 287.9,267 260.9,260.2 267.3,277.6 						"/>
						<polygon class="st1" points="244.9,268 247.7,262.1 227.3,265.2 229.6,275.6 						"/>
						<polygon class="st1" points="209.4,271.5 199.2,275.1 200.7,289.8 215.1,276.5 						"/>
						<polygon class="st1" points="231.4,284.2 233.3,292.9 237.9,283 						"/>
						<polygon class="st1" points="237.9,283 233.3,292.9 242.3,282.2 						"/>
					</g>
					<polygon class="st1" points="181.2,314.3 174.5,319.4 183.3,330.3 					"/>
				</g>
			</g>
		</g>
		<g id="XMLID_2_">
			<g id="XMLID_3_">
				<g id="XMLID_4_">
					<g id="XMLID_5_">
						<g id="XMLID_63_">
							<g id="XMLID_71_">
								<g id="XMLID_72_">
									<path id="XMLID_86_" class="st3" d="M478.5,435.4c-1.9-4.7-4.7-8.6-8.1-11.9c-3.5-3.2-7.6-5.7-12.5-7.4
										c-4.8-1.7-10.1-2.5-15.8-2.5c-5.6,0-10.9,0.8-15.7,2.5c-4.8,1.7-9,4.2-12.5,7.4c-3.5,3.2-6.2,7.2-8.1,11.9
										c-1.9,4.6-2.9,9.9-2.9,15.8c0,5.9,1,11.2,2.9,15.8c1.9,4.6,4.6,8.6,8.1,11.8c3.5,3.2,7.7,5.7,12.5,7.2
										c4.8,1.5,10,2.3,15.6,2.3c5.7,0,11-0.8,15.7-2.3c4.8-1.6,9-4,12.5-7.2c3.5-3.2,6.2-7.2,8.1-11.9c1.9-4.6,2.9-9.9,2.9-15.8
										C481.4,445.3,480.5,440,478.5,435.4z M442.2,481.6c-3.6,0-7.1-0.6-10.3-1.8c-3.1-1.2-5.9-3-8.2-5.4
										c-2.3-2.4-4.2-5.6-5.5-9.4c-1.3-3.8-2-8.5-2-13.8c0-5.3,0.7-10,2-13.8c1.3-3.8,3.2-6.9,5.5-9.4c2.3-2.4,5.1-4.3,8.2-5.4
										c3.2-1.2,6.6-1.8,10.3-1.8c3.7,0,7.2,0.6,10.4,1.8c3.1,1.2,5.9,3,8.2,5.4c2.3,2.5,4.2,5.6,5.5,9.4c1.3,3.8,2,8.5,2,13.8
										c0,5.3-0.7,10-2,13.8c-1.3,3.8-3.2,6.9-5.5,9.4c-2.3,2.4-5.1,4.3-8.2,5.4C449.4,481,445.9,481.6,442.2,481.6z"/>
									<path id="XMLID_83_" class="st3" d="M618.5,484.6c-0.9-1.6-1.9-3.8-3.3-6.9c-1.4-3.1-2.9-6.5-4.6-10.4
										c-1.7-3.9-3.5-8.1-5.4-12.6c-1.9-4.5-3.9-9.1-5.8-13.7c-1.9-4.6-3.8-9.1-5.7-13.6l-5.6-13.6h-3.3l-1,0.2l-0.4,0.8
										c-5.2,11.9-10.4,23.7-15.5,35.2c-5.1,11.4-10.4,23.1-15.8,34.8l-1.3,2.8c0,0,3.3,0.7,6,0.7c3.2,0,5.4-0.9,5.4-0.9l0.4-1.4
										c0.9-3,2.2-6.9,3.9-11.5c1.6-4.5,3.4-9.1,5.4-13.8c1.7,0,3.3-0.1,5-0.1c2,0,4.1,0,6.2,0c2.2,0,4.3,0,6.5,0
										c1.8,0,3.6,0.1,5.4,0.1c0.7,1.9,1.5,3.9,2.4,5.9l2.9,7.2c1,2.5,1.9,4.7,2.6,6.7c0.8,2.2,1.4,4,1.9,5.5l0.4,1.4
										c0,0,3.2,0.9,6.7,0.9c3.3,0,8.2-0.6,8.2-0.6L618.5,484.6z M583.5,452.8c-1.8,0-3.6,0-5.3-0.1c-1,0-2-0.1-2.9-0.1l8.3-19.4
										l8.5,19.5c-1,0-2,0-3.1,0.1C587.2,452.8,585.4,452.8,583.5,452.8z"/>
									<path id="XMLID_82_" class="st3" d="M663.1,449.1c0-2.5-1-4.9-1-4.9l-2.4,0.2c-4.2,0.4-8.5,0.7-12.7,0.8
										c-3.7,0.1-7.5,0.2-11.3,0.2c0-1.5,0-3,0-4.5c0-2-0.1-4.1-0.1-6.4c0-2.1,0-4.3,0.1-6.4c0-1.6,0.1-3.3,0.1-5
										c1.3,0,2.8,0,4.4,0.1c2.4,0.1,5,0.2,7.6,0.2c2.6,0.1,5.2,0.2,7.7,0.4c2.6,0.2,4.7,0.3,6.4,0.6l2.3,0.3c0,0,1.3-1.3,1.3-5
										c0-2.7-1.3-4.8-1.3-4.8L662,415c-3.6,0.1-6.9,0.3-10,0.3c-3,0.1-6,0.1-9.1,0.1c-3,0-6,0-8.9-0.1c-3-0.1-5.9-0.2-8.9-0.3
										l-1.9-0.1l0.1,1.9c0.2,4.4,0.4,8.7,0.5,12.9c0.2,4.3,0.2,8.6,0.2,12.9v17.2c0,4.3-0.1,8.6-0.2,12.9
										c-0.2,4.3-0.4,8.5-0.5,12.6l-0.1,1.9c0,0,2,1.7,6.7,1.7c4,0,6.7-1.7,6.7-1.7l-0.1-1.9c-0.2-4.3-0.4-8.6-0.6-12.6
										c-0.2-4.3-0.2-8.7-0.2-13V453h5c2.3,0,4.6,0,6.9,0.1c2.3,0.1,4.4,0.1,6.5,0.2c2,0.1,3.9,0.2,5.5,0.4l2.5,0.3
										C662.1,454.1,663.1,452,663.1,449.1z"/>
									<path id="XMLID_79_" class="st3" d="M744.4,435.4c-1.9-4.7-4.7-8.6-8.1-11.9c-3.5-3.2-7.7-5.7-12.5-7.4
										c-4.8-1.7-10.1-2.5-15.8-2.5c-5.6,0-10.9,0.8-15.7,2.5c-4.8,1.7-9,4.2-12.5,7.4c-3.5,3.2-6.2,7.2-8.1,11.9
										c-1.9,4.6-2.9,9.9-2.9,15.8c0,5.9,1,11.2,2.9,15.8c1.9,4.6,4.6,8.6,8.1,11.9c3.5,3.2,7.7,5.7,12.5,7.2
										c4.8,1.5,10,2.3,15.6,2.3c5.7,0,11-0.8,15.7-2.3c4.8-1.6,9-4,12.5-7.2c3.5-3.2,6.2-7.2,8.1-11.8c1.9-4.6,2.9-9.9,2.9-15.8
										C747.3,445.3,746.4,440,744.4,435.4z M708.1,481.6c-3.7,0-7.1-0.6-10.3-1.8c-3.1-1.2-5.9-3-8.2-5.4
										c-2.3-2.4-4.2-5.6-5.5-9.4c-1.3-3.8-2-8.5-2-13.8c0-5.3,0.7-10,2-13.8c1.3-3.8,3.2-6.9,5.5-9.4c2.3-2.4,5.1-4.3,8.2-5.4
										c3.2-1.2,6.6-1.8,10.3-1.8c3.7,0,7.2,0.6,10.3,1.8c3.1,1.2,5.9,3,8.2,5.4c2.3,2.4,4.2,5.6,5.5,9.4c1.3,3.8,2,8.5,2,13.8
										c0,5.3-0.7,10-2,13.8c-1.3,3.8-3.2,7-5.5,9.4c-2.3,2.4-5.1,4.3-8.2,5.4C715.3,481,711.8,481.6,708.1,481.6z"/>
									<path id="XMLID_75_" class="st3" d="M390.7,442.2c-3.9-3-9.1-4.9-15.4-5.7c5.2-1.6,9.5-4,12.9-7.2
										c4.3-3.9,6.5-9.4,6.5-16.3c0-3.9-0.8-7.2-2.4-9.9c-1.6-2.6-3.8-4.8-6.5-6.3c-2.7-1.5-5.8-2.6-9.3-3.2
										c-3.4-0.6-7.1-0.9-11-0.9l-3.8,0c-4.3,0-11.4,0.1-16.9,0.1c-5.6,0-7.3,0-7.7-0.1l-0.9-0.1l0,0.9c0.3,5.8,0.5,11.5,0.7,17.3
										c0.2,5.8,0.3,11.7,0.3,17.5v23.3c0,5.8-0.1,11.7-0.3,17.5c-0.2,5.7-0.5,11.5-0.7,17.2l0,0.9l0.9-0.1
										c2.1-0.2,4.3-0.3,6.4-0.3h6.5c2.1,0,4.3,0,6.5,0.1c2.2,0.1,4.4,0.1,6.5,0.1c4,0,8-0.4,12-1.3c4.1-0.9,7.8-2.4,11.2-4.6
										c3.4-2.2,6.2-5.1,8.3-8.6c2.1-3.5,3.2-8,3.2-13.1C398,451.8,395.5,445.9,390.7,442.2z M382.3,468.6
										c-1.1,2.7-2.6,5.1-4.5,6.9c-1.9,1.9-4.1,3.3-6.6,4.2c-2.5,1-5.2,1.4-8,1.4c-2.4,0-4.8-0.1-7.1-0.2c-2-0.1-3.8-0.3-5.3-0.4
										l-0.5-13c-0.2-4.4-0.3-9-0.3-13.6v-13h5.2c4.4,0,8.4,0.3,12,0.8c3.5,0.5,6.6,1.5,9.1,2.8c2.4,1.3,4.4,3.2,5.7,5.5
										c1.3,2.3,2,5.4,2,9.1C384,462.7,383.5,465.8,382.3,468.6z M381.3,415.7c0,3.6-0.7,6.6-2.1,9c-1.4,2.4-3.3,4.3-5.6,5.7
										c-2.3,1.4-5,2.5-8,3.1c-3,0.6-6.1,0.9-9.2,0.9h-6.4V425c0-4.4,0.1-8.7,0.3-12.8l0.5-12.2c1.1-0.1,2.3-0.3,3.6-0.4
										c1.6-0.1,3.6-0.2,5.8-0.2c2.5,0,5.1,0.2,7.7,0.6c2.5,0.4,4.7,1.2,6.7,2.3c1.9,1.1,3.6,2.8,4.8,4.9
										C380.7,409.3,381.3,412.1,381.3,415.7z"/>
									<path id="XMLID_74_" class="st3" d="M875,400.4c0-3.1-0.6-5-0.6-5l-1.1,0c-5.7,0.2-11.3,0.3-16.8,0.5
										c-5.4,0.1-11,0.2-16.7,0.2c-5.7,0-11.3-0.1-16.7-0.2c-5.4-0.1-11-0.3-16.8-0.5l-1,0c0,0-1.1,1.7-1.1,4.9
										c0,2.9,1.1,5.1,1.1,5.1l1.2-0.2c1.8-0.3,3.8-0.5,6.1-0.6c2.3-0.2,4.7-0.3,7.1-0.5c2.5-0.1,4.9-0.2,7.4-0.3
										c2.2,0,4.3-0.1,6.3-0.1c0.2,8.6,0.4,17.4,0.4,26.1v22.3c0,5.7-0.1,12.6-0.3,18.1c-0.2,5.5-0.5,11-0.7,16.4l0,0.9l0.9-0.1
										c2-0.2,4.1-0.3,6.3-0.3c2.2,0,4.3,0.1,6.3,0.3l0.9,0.1l0-0.9c-0.3-5.4-0.5-10.8-0.7-16.4c-0.2-5.5-0.3-12.4-0.3-18.1v-22.3
										c0-8.6,0.1-17.4,0.4-26.1c2,0,4.1,0,6.3,0.1c2.5,0,4.9,0.1,7.4,0.3c2.5,0.1,4.8,0.3,7.1,0.5c2.3,0.2,4.3,0.4,6.1,0.6
										l1.2,0.2C874.4,405.4,875,403.6,875,400.4z"/>
									<path id="XMLID_73_" class="st3" d="M810.7,413.6c-3,0-5.1,0.9-5.1,0.9l0.1,2.3c0.3,5.8,0.5,12.1,0.7,18.7
										c0.1,6.6,0.1,13.5,0.1,20.4v9.4c-2.4-2.4-5-5.1-7.8-8.2c-4.1-4.4-8.4-9-13-13.9c-4.4-4.7-9-9.7-13.8-14.9l-13.6-14.7h-4.2
										l0.1,1.8c0.1,2.2,0.2,5.5,0.3,10.2c0,4.6,0,10.1,0,16.5c0,2.3,0,4.8-0.1,7.5c-0.1,2.8-0.2,5.7-0.3,8.6
										c-0.1,2.8-0.2,5.6-0.4,8.9l-0.4,8.1c-0.1,2.5-0.3,4.6-0.5,6.4c-0.2,1.7-0.3,2.9-0.4,3.5l-0.4,2.3c0,0,1.3,1.5,5.8,1.5
										c3.7,0,5.5-1.5,5.5-1.5l-0.3-2.2c-0.1-0.5-0.1-1.5-0.2-2.9c-0.1-1.5-0.1-3.2-0.2-5.2c-0.1-2-0.1-4.2-0.2-6.5
										c-0.1-2.3-0.1-4.6-0.2-6.9l-0.1-6.5c0-2.1,0-3.8,0-5.2c0-5.5,0-9.7,0.1-12.8c0-1.2,0-2.3,0.1-3.4
										c7.9,8.4,15.7,16.7,23.2,24.8c8.4,9,16.4,17.9,23.9,26.6h3.5c0.8,0,1.4-0.6,1.4-1.4v-2.4c0-1.6,0-3.5-0.1-5.7l-0.2-14.5
										c0-2.5-0.1-4.8-0.1-7.1v-6c0-1.9,0.1-4.4,0.2-7.6c0.1-3.2,0.3-6.5,0.5-9.8c0.2-3.3,0.3-6.5,0.5-9.4c0.2-2.8,0.3-5,0.4-6.5
										l0.2-2.4C816,414.5,813.3,413.6,810.7,413.6z"/>
								</g>
							</g>
							<path id="XMLID_64_" class="st3" d="M544.3,413.6c-3,0-5.1,0.9-5.1,0.9l0.1,2.3c0.3,5.8,0.5,12.1,0.7,18.7
								c0.1,6.6,0.1,13.5,0.1,20.4v9.4c-2.4-2.4-5-5.1-7.8-8.2c-4.1-4.4-8.4-9-13-13.9c-4.4-4.7-9-9.7-13.8-14.9L492,413.7h-4.2
								l0.1,1.8c0.1,2.2,0.2,5.5,0.3,10.2c0,4.6,0,10.1,0,16.5c0,2.3,0,4.8-0.1,7.5c-0.1,2.8-0.2,5.7-0.3,8.6
								c-0.1,2.8-0.2,5.6-0.4,8.9l-0.4,8.1c-0.1,2.5-0.3,4.6-0.4,6.4c-0.2,1.7-0.3,2.9-0.4,3.5l-0.4,2.3c0,0,1.3,1.5,5.8,1.5
								c3.7,0,5.5-1.5,5.5-1.5l-0.3-2.2c-0.1-0.5-0.1-1.5-0.2-2.9c-0.1-1.5-0.1-3.2-0.2-5.2c-0.1-2-0.1-4.2-0.2-6.5
								c-0.1-2.3-0.1-4.6-0.2-6.9l-0.1-6.5c0-2.1,0-3.8,0-5.2c0-5.5,0-9.7,0.1-12.8c0-1.2,0-2.3,0.1-3.4
								c7.9,8.4,15.7,16.7,23.2,24.8c8.4,9,16.4,17.9,23.9,26.6h3.5c0.8,0,1.4-0.6,1.4-1.4v-2.4c0-1.6,0-3.5,0-5.7l-0.2-14.5
								c0-2.5-0.1-4.8-0.1-7.1v-6c0-1.9,0.1-4.4,0.2-7.6c0.1-3.2,0.3-6.5,0.5-9.8c0.2-3.3,0.3-6.5,0.5-9.4c0.2-2.8,0.3-5,0.4-6.5
								l0.2-2.4C549.6,414.5,546.9,413.6,544.3,413.6z"/>
						</g>
						<g id="XMLID_6_">
							<g id="XMLID_7_">
								<g id="XMLID_8_">
									<g>
										<path id="XMLID_42_" class="st4" d="M869.9,475.1c3.7,0,6.6,2.8,6.6,6.5c0,3.6-2.9,6.5-6.6,6.5c-3.7,0-6.7-2.9-6.7-6.5
											C863.2,478,866.2,475.1,869.9,475.1L869.9,475.1z M869.9,476.4c-2.8,0-5,2.3-5,5.2c0,2.9,2.2,5.2,5,5.2
											c2.8,0,4.9-2.3,4.9-5.1C874.9,478.8,872.7,476.4,869.9,476.4L869.9,476.4z M868.9,484.9h-1.5v-6.5
											c0.6-0.1,1.4-0.2,2.5-0.2c1.2,0,1.8,0.2,2.2,0.5c0.4,0.3,0.7,0.8,0.7,1.4c0,0.8-0.6,1.3-1.3,1.5v0.1
											c0.6,0.2,0.9,0.7,1.1,1.6c0.2,1,0.4,1.3,0.5,1.6h-1.6c-0.2-0.2-0.3-0.8-0.5-1.6c-0.1-0.7-0.5-1-1.3-1h-0.7V484.9z
											 M868.9,481.3h0.7c0.8,0,1.5-0.3,1.5-0.9c0-0.6-0.4-1-1.4-1c-0.4,0-0.7,0-0.8,0.1V481.3z"/>
									</g>
									<g>
										<path id="XMLID_32_" class="st3" d="M869.9,475.1c3.7,0,6.6,2.8,6.6,6.5c0,3.6-2.9,6.5-6.6,6.5c-3.7,0-6.7-2.9-6.7-6.5
											C863.2,478,866.2,475.1,869.9,475.1L869.9,475.1z M869.9,476.4c-2.8,0-5,2.3-5,5.2c0,2.9,2.2,5.2,5,5.2
											c2.8,0,4.9-2.3,4.9-5.1C874.9,478.8,872.7,476.4,869.9,476.4L869.9,476.4z M868.9,484.9h-1.5v-6.5
											c0.6-0.1,1.4-0.2,2.5-0.2c1.2,0,1.8,0.2,2.2,0.5c0.4,0.3,0.7,0.8,0.7,1.4c0,0.8-0.6,1.3-1.3,1.5v0.1
											c0.6,0.2,0.9,0.7,1.1,1.6c0.2,1,0.4,1.3,0.5,1.6h-1.6c-0.2-0.2-0.3-0.8-0.5-1.6c-0.1-0.7-0.5-1-1.3-1h-0.7V484.9z
											 M868.9,481.3h0.7c0.8,0,1.5-0.3,1.5-0.9c0-0.6-0.4-1-1.4-1c-0.4,0-0.7,0-0.8,0.1V481.3z"/>
									</g>
								</g>
							</g>
						</g>
					</g>
				</g>
			</g>
		</g>
		<path id="XMLID_1_" class="st3" d="M288.8,369.6c-1,0-1.9-0.5-2.4-1.4c-0.7-1.3-0.3-3,1.1-3.8c19.8-10.9,29.5-16.5,34.1-19.1
			c5.4-3.1,5.4-3.1,6.8-3.1c2.6,0,5.9,1.2,15.3,7.2c4.5,2.9,9.4,6.2,13,8.6c1.7,1.1,3,2.1,4,2.7c0,0,0.2,0.2,0.3,0.2l0.8,0.7
			c0.7,0.5,1.2,1,1.6,1.3c0.4-0.2,0.9-0.6,1.5-1.1c2-1.6,5.3-4.2,9.3-7.5l0.2-0.2c3.8-3.1,8.2-6.6,12.8-10.4
			c35.1-28.1,41.6-30.4,45.7-30.4c4.3,0,11.4,3.4,22.5,8.9l1.3,0.6c9.7,4.8,22.9,11.4,28.6,11.9c4.3-1,30.1-19.8,45.5-31.1l0.6-0.4
			c42.5-31,71.2-51.3,83.5-51.3c10.6,0,34.6,15.7,72.8,41.5c16.4,11.1,43.8,29.7,48.3,30c2.1-0.1,11.8-5.1,17.6-8.1
			c12.8-6.6,26-13.4,34.3-13.4c4.3,0,12.2,1.9,35.9,16.5c11,6.8,52.7,31.9,77.3,45.9c1.3,0.8,1.8,2.5,1,3.8c-0.8,1.3-2.5,1.8-3.8,1
			c-24.6-14.1-66.4-39.2-77.4-46c-17.1-10.5-27.8-15.6-33-15.6c-7,0-20.1,6.8-31.8,12.8c-10.5,5.4-17.2,8.7-20.2,8.7
			c-4.9,0-19.8-9.6-51.4-31c-35.1-23.8-60.6-40.6-69.6-40.6c-11.4,0-48,26.7-80.2,50.2l-0.5,0.4c-30.8,22.5-44.4,31.9-48.6,32.2
			c-0.1,0-0.2,0-0.3,0c-6.7-0.3-19.6-6.8-31-12.4L453,327c-7.8-3.9-16.7-8.3-20-8.3c-3.9,0-17.7,9.6-42.2,29.2
			c-4.6,3.7-9,7.3-12.8,10.3l-0.2,0.2c-4.1,3.3-7.4,6-9.4,7.6c-1.7,1.3-3.1,2.2-4.2,2.5c-0.6,0.2-1.3,0.2-1.9,0
			c-0.9-0.4-2.1-1.2-3.9-2.6l-0.8-0.7c-1-0.7-2.4-1.6-4.1-2.7c-3.6-2.4-8.4-5.7-12.8-8.5c-6.3-4-10.4-6.1-12.1-6.3
			c-0.6,0.3-2,1.1-4.2,2.4c-4.7,2.7-14.4,8.2-34.2,19.1C289.7,369.5,289.3,369.6,288.8,369.6z"/>
	</g>
	<g class="st0">
		<g>
			<rect x="185.9" y="566.7" class="st3" width="126.5" height="5.8"/>
		</g>
		<g>
			<rect x="896.7" y="566.7" class="st3" width="126.5" height="5.8"/>
		</g>
	</g>
	<g class="st0">
		<g>
			<path class="st5" d="M369.4,552.4h-23.6v-6.6h53.9v6.6h-23.6v37.6h-6.7V552.4z"/>
			<path class="st5" d="M460.2,545.8v33.5c0,6-4.8,10.7-10.7,10.7h-32.5c-5.9,0-10.7-4.8-10.7-10.7v-33.5h6.7v33.5c0,2.2,1.8,4,4,4
				h32.5c2.2,0,4-1.8,4-4v-33.5H460.2z M424.9,541.2l9.4-14.1h8l-7.3,11c-1.3,1.9-3.5,3.1-5.8,3.1H424.9z"/>
		</g>
		<path class="st5" d="M543.8,552.5C543.8,552.5,543.8,552.5,543.8,552.5l-20.3,21.8c-0.9,1-2.1,1.6-3.3,1.6c-1.2,0-2.5-0.6-3.3-1.6
			l-20.3-21.8c-0.1,0-0.1,0-0.1,0v37.6h-6.7v-44.3h6.8c1.8,0,3.8,0.9,5,2.3l18.7,19.9l18.7-19.9c1.2-1.4,3.2-2.3,5-2.3h6.7v44.3
			h-6.6V552.5z"/>
		<path class="st5" d="M669.3,575.3c0-2.2-1.8-4-4-4h-29.8v-6.7h29.8c2.2,0,4-1.8,4-4v-4c0-2.2-1.8-4.1-4-4.1h-36.5v37.6h-6.7v-44.3
			h43.2c5.9,0,10.7,4.8,10.7,10.7v4c0,2.8-1.1,5.4-2.9,7.4c1.9,2,2.9,4.6,2.9,7.4v14.8h-6.6V575.3z"/>
		<path class="st5" d="M685,579.3v-22.8c0-6,4.8-10.7,10.7-10.7h43.1v6.6h-43.1c-2.2,0-4,1.9-4,4.1v22.8c0,2.2,1.8,4,4,4h43.1v6.7
			h-43.1C689.8,590.1,685,585.3,685,579.3z"/>
		<path class="st5" d="M810.9,583.4h41.7c2.2,0,4-1.8,4-4v-4c0-2.2-1.8-4-4-4h-32.5c-6,0-10.7-4.8-10.7-10.7v-4
			c0-6,4.8-10.7,10.7-10.7h41.7v6.6h-41.7c-2.2,0-4,1.9-4,4.1v4c0,2.2,1.8,4,4,4h32.5c5.9,0,10.7,4.8,10.7,10.7v4
			c0,6-4.8,10.7-10.7,10.7h-41.7V583.4z"/>
		<g>
			<path class="st5" d="M614.2,590.1l-23.8-44.3h-4.5c-2.4,0-4.9,1.5-6,3.6l-21.8,40.7h7.6l20-37.3c0.1-0.1,0.4-0.3,0.6-0.3h0.2
				l20.2,37.6H614.2z"/>
		</g>
		<g>
			<path class="st5" d="M802.8,590.1L779,545.8h-4.5c-2.4,0-4.9,1.5-6,3.6l-21.8,40.7h7.6l20-37.3c0.1-0.1,0.4-0.3,0.6-0.3h0.2
				l20.2,37.6H802.8z"/>
		</g>
	</g>
	<g class="st0">
		<g>
			<path class="st5" d="M677.2,644.4c0-2.7-2.2-4.9-4.9-4.9h-36.1v-8.1h36.1c2.7,0,4.9-2.2,4.9-4.9v-4.9c0-2.7-2.2-5-4.9-5H628v45.7
				h-8.1v-53.8h52.5c7.1,0,12.9,5.8,12.9,13v4.9c0,3.4-1.3,6.6-3.5,9c2.3,2.4,3.5,5.6,3.5,9v17.9h-8.1V644.4z"/>
			<g>
				<path class="st5" d="M1023.2,662.4l-28.9-53.8h-5.4c-2.9,0-5.9,1.9-7.3,4.4l-26.5,49.4h9.2l24.3-45.2c0.1-0.2,0.5-0.4,0.7-0.4
					h0.2l24.5,45.6H1023.2z"/>
			</g>
			<path class="st5" d="M359.6,608.6h52.5c7.1,0,12.9,5.8,12.9,13v27.7c0,7.2-5.8,13-12.9,13h-52.5V608.6z M416.9,649.3v-27.7
				c0-2.7-2.2-5-4.9-5h-44.3v37.6h44.3C414.8,654.2,416.9,652,416.9,649.3z"/>
			<path class="st5" d="M439,608.6h8.1v53.8H439V608.6z"/>
			<path class="st5" d="M828.6,659.6l-40.6-42.8c-0.1,0-0.1,0-0.1-0.1h-1.1v45.7h-8.1v-48c0-3.2,2.6-5.8,5.9-5.8h3.5
				c2.2,0,4.6,1.1,6,2.8l40.7,42.8h0.1h1.2v-45.6h8.1v47.9c0,3.2-2.6,5.9-5.8,5.9h-3.6C832.5,662.4,830.1,661.2,828.6,659.6z"/>
			<path class="st5" d="M461.1,621.6c0-7.2,5.8-13,13-13h52.4v8.1h-52.4c-2.7,0-4.9,2.3-4.9,5v9.8h57.3v8.1h-57.3v22.8h-8.1V621.6z"
				/>
			<path class="st5" d="M699.2,649.3v-27.7c0-7.2,5.8-13,13-13h52.4v8.1h-52.4c-2.7,0-4.9,2.3-4.9,5v9.8h57.3v8.1h-57.3v9.8
				c0,2.7,2.2,4.9,4.9,4.9h52.4v8.1h-52.4C705,662.4,699.2,656.6,699.2,649.3z"/>
			<path class="st5" d="M540.5,649.3v-27.7c0-7.2,5.8-13,13-13h52.4v8.1h-52.4c-2.7,0-4.9,2.3-4.9,5v9.8h57.3v8.1h-57.3v9.8
				c0,2.7,2.2,4.9,4.9,4.9h52.4v8.1h-52.4C546.3,662.4,540.5,656.6,540.5,649.3z"/>
			<path class="st5" d="M858,649.3v-27.7c0-7.2,5.8-13,13-13h52.4v8.1h-52.4c-2.7,0-4.9,2.3-4.9,5v27.7c0,2.7,2.2,4.9,4.9,4.9h52.4
				v8.1h-52.4C863.8,662.4,858,656.6,858,649.3z"/>
			<path class="st5" d="M937.4,608.6h8.1v53.8h-8.1V608.6z"/>
		</g>
		<g>
			<g>
				<path class="st5" d="M323.7,662.4l-28.9-53.8h-5.4c-2.9,0-5.9,1.9-7.3,4.4l-26.5,49.4h9.2l24.3-45.2c0.1-0.2,0.5-0.4,0.7-0.4
					h0.2l24.5,45.6H323.7z"/>
			</g>
			<g>
				<path class="st5" d="M185.9,649.3v-40.7h8.1v40.7c0,2.7,2.2,4.9,4.9,4.9H246v8.1h-47.1C191.7,662.4,185.9,656.6,185.9,649.3z"/>
			</g>
		</g>
	</g>
</g>
</svg>
