<?xml version="1.0" encoding="utf-8"?>
<!-- Generator: Adobe Illustrator 16.0.0, SVG Export Plug-In . SVG Version: 6.00 Build 0)  -->
<!DOCTYPE svg PUBLIC "-//W3C//DTD SVG 1.1//EN" "http://www.w3.org/Graphics/SVG/1.1/DTD/svg11.dtd">
<svg version="1.1" id="Layer_1" xmlns="http://www.w3.org/2000/svg" xmlns:xlink="http://www.w3.org/1999/xlink" x="0px" y="0px"
	 width="319.565px" height="65.942px" viewBox="0 0 319.565 65.942" enable-background="new 0 0 319.565 65.942"
	 xml:space="preserve">
<path fill="#FFFFFF" d="M35.501,6.565c0,6.994,11.73,14.762,11.73,22.75c0,0,0,0.773-0.325,1.595
	c10.968,2.315,18.736,7.771,18.736,14.162c0,8.594-13.85,15.702-31.012,15.702c-17.529,0-31.115-6.991-31.115-15.373
	c0-6.387,8.417-11.571,18.575-14.322c0,3.525,11.558,14.71,11.835,19.224c0.033,0.519,0.134,0.956,0,1.488
	c2.5-1.32,2.5-5.455,2.5-5.455c0-9.805-11.241-14.156-11.241-23.797c0-3.748,1.741-6.5,3.312-7.27v2.698
	c0,6.996,12.163,14.818,12.163,21.211v2.094c2.827-1.101,2.827-6.338,2.827-6.338c0-8.814-11.296-13.718-11.296-23.799
	c0-3.743,1.736-6.497,3.312-7.272V6.565z"/>
<path fill="#FFFFFF" d="M90.292,58.065c-5.916,0-10.203-1.705-10.203-1.705V45.952h1.465c0.758,5.506,4.883,9.688,9.604,9.688
	c4.723,0,8.034-2.641,8.034-6.824c0-4.461-4.397-6.496-7.328-7.98l-4.233-2.149c-4.016-2.036-7.27-5.343-7.27-9.964
	c0-5.782,4.233-10.735,12.316-10.735c5.536,0,10.094,1.873,10.094,1.873v9.3h-1.465c-0.868-4.954-3.581-8.862-9.117-8.862
	c-4.125,0-6.566,2.864-6.566,5.781c0,3.8,2.604,5.506,5.643,7.047l4.235,2.143c3.851,1.986,8.628,5.289,8.628,10.905
	C104.131,53.329,99.245,58.065,90.292,58.065"/>
<path fill="#FFFFFF" d="M117.643,46.72c-1.141,0.499-3.149,1.435-3.149,4.075c0,1.431,0.816,3.746,3.639,3.746
	c1.358,0,3.255-0.772,4.613-1.873v-8.15L117.643,46.72z M115.418,57.842c-3.69,0-6.079-2.479-6.079-6.162
	c0-2.645,1.9-4.683,6.079-6.225l7.327-2.695v-2.318c0-3.463-1.574-5.611-3.962-5.611c-1.63,0-3.256,0.827-4.072,2.148
	c-0.323,0.492-0.377,1.213-0.377,1.76c0,0.936,0.594,2.035,0.594,2.035l-3.58,1.654c-0.434-0.769-0.976-1.926-0.976-3.084
	c0-0.217,0.052-0.438,0.052-0.605c0.273-1.98,1.956-3.303,4.234-4.676c2.226-1.376,4.125-1.765,5.48-1.765
	c6.84,0,8.032,5.503,8.032,7.322v11.397c0,1.813,0.165,2.974,1.628,2.974c0.434,0,0.705,0,1.304-0.222l1.304-0.44v1.65l-7.601,2.863
	c-1.139-0.822-1.683-2.312-1.897-3.576C121.117,55.809,118.024,57.842,115.418,57.842"/>
<path fill="#FFFFFF" d="M134.086,57.291v-1.313l1.792-0.338c1.083-0.222,1.843-1.043,1.843-2.148V38.793
	c0-1.264-0.594-1.927-1.683-1.927c-0.377,0-0.813,0.059-1.248,0.221l-0.704,0.275v-1.651l7.812-3.414h1.142v4.076
	c2.385-2.703,5.208-4.076,7.707-4.076c5.534,0,8.193,4.021,8.193,8.699v12.494c0,1.105,0.815,1.985,1.901,2.148l1.844,0.338v1.313
	h-12.917v-1.313l1.792-0.338c1.084-0.222,1.954-1.043,1.954-2.148V41.055c0-1.656-0.437-5.344-4.777-5.344
	c-2.388,0-4.396,1.489-5.588,2.589v15.19c0,1.105,0.867,1.927,1.953,2.148l1.789,0.338v1.313H134.086z"/>
<path fill="#FFFFFF" d="M181.407,35.658h-7.599v13.656c0,3.025,1.575,4.677,3.853,4.677c0.924,0,2.388-0.275,3.746-1.047
	l0.599,1.322l-4.889,3.137c0,0-0.975,0.164-1.46,0.164c-4.724,0-7.274-2.805-7.274-8.752V35.658h-3.961v-1.373
	c0,0,5.969-2.316,8.303-7.988h1.084v6.99h8.576L181.407,35.658z"/>
<path fill="#FFFFFF" d="M192.791,46.72c-1.14,0.499-3.147,1.435-3.147,4.075c0,1.431,0.81,3.746,3.636,3.746
	c1.355,0,3.257-0.772,4.611-1.873v-8.15L192.791,46.72z M190.562,57.842c-3.689,0-6.074-2.479-6.074-6.162
	c0-2.645,1.898-4.683,6.074-6.225l7.328-2.695v-2.318c0-3.463-1.573-5.611-3.961-5.611c-1.628,0-3.26,0.827-4.069,2.148
	c-0.325,0.492-0.382,1.213-0.382,1.76c0,0.936,0.601,2.035,0.601,2.035l-3.584,1.654c-0.437-0.769-0.976-1.926-0.976-3.084
	c0-0.217,0.056-0.438,0.056-0.605c0.267-1.98,1.95-3.303,4.229-4.676c2.228-1.376,4.126-1.765,5.479-1.765
	c6.845,0,8.039,5.503,8.039,7.322v11.397c0,1.813,0.161,2.974,1.625,2.974c0.433,0,0.707,0,1.302-0.222l1.304-0.44v1.65
	l-7.596,2.863c-1.14-0.822-1.682-2.312-1.9-3.576C196.264,55.809,193.17,57.842,190.562,57.842"/>
<path fill="#FFFFFF" d="M209.231,57.291v-1.313l1.793-0.338c1.083-0.222,1.845-1.043,1.845-2.148V38.793
	c0-1.264-0.6-1.927-1.684-1.927c-0.378,0-0.812,0.059-1.248,0.221l-0.706,0.275v-1.651l7.816-3.414h1.14v4.076
	c2.389-2.703,5.209-4.076,7.704-4.076c5.532,0,8.196,4.021,8.196,8.699v12.494c0,1.105,0.813,1.985,1.897,2.148l1.844,0.338v1.313
	h-12.913v-1.313l1.793-0.338c1.084-0.222,1.95-1.043,1.95-2.148V41.055c0-1.656-0.434-5.344-4.774-5.344
	c-2.389,0-4.396,1.489-5.591,2.589v15.19c0,1.105,0.872,1.927,1.954,2.148l1.791,0.338v1.313H209.231z"/>
<path fill="#FFFFFF" d="M254.055,34.614c-3.905,0-7.923,2.528-7.923,9.904c0,6.169,3.041,9.91,7.815,9.91
	c2.877,0,4.67-1.706,5.103-2.586V37.53C258.345,35.711,256.338,34.614,254.055,34.614 M251.614,57.842
	c-5.101,0-11.235-3.852-11.235-12.219c0-7.323,5.591-13.326,13.083-13.326c2.496,0,4.29,0.498,5.589,1.049V20.739
	c0-1.323-0.705-1.707-1.574-1.707c-0.488,0-1.029,0.111-1.519,0.273l-1.086,0.387v-1.654l8.469-3.63h1.138v36.279
	c0,2.095,0.322,3.304,1.791,3.304c0.433,0,0.703,0,1.3-0.222l1.303-0.44v1.65l-7.596,2.863c-1.192-0.822-1.791-2.366-2.062-3.631
	C257.802,55.751,255.251,57.842,251.614,57.842"/>
<path fill="#FFFFFF" d="M287.918,40.834v-0.109c0-4.129-2.276-6.115-4.992-6.115c-3.039,0-5.318,2.039-5.969,6.225H287.918z
	 M276.794,43.09v0.275c-0.054,7.321,4.071,11.008,9.226,11.008c2.603,0,4.993-0.992,6.893-2.473v2.198
	c-2.172,2.04-5.479,3.743-9.55,3.743c-8.466,0-12.21-6.438-12.21-12.549c0-7.162,5.372-12.996,12.315-12.996
	c5.7,0,10.149,4.076,10.149,10.076v0.717H276.794z"/>
<path fill="#FFFFFF" d="M296.818,57.291v-1.313l1.79-0.338c1.036-0.222,1.848-1.043,1.848-2.148V38.793
	c0-1.264-0.597-1.927-1.681-1.927c-0.381,0-0.816,0.059-1.247,0.221l-0.71,0.275v-1.651l7.704-3.414h1.145v5.34
	c1.953-3.853,4.286-5.449,6.946-5.449c2.172,0,2.713,0.551,2.713,0.551v5.836h-1.083c-0.273-1.543-1.305-2.311-2.932-2.311
	c-1.736,0-3.906,0.492-5.428,3.684v13.541c0,1.105,1.086,1.985,2.117,2.148l2.606,0.338v1.313H296.818z"/>
</svg>
