<?xml version="1.0" encoding="utf-8"?>
<!-- Generator: Adobe Illustrator 16.0.0, SVG Export Plug-In . SVG Version: 6.00 Build 0)  -->
<!DOCTYPE svg PUBLIC "-//W3C//DTD SVG 1.1//EN" "http://www.w3.org/Graphics/SVG/1.1/DTD/svg11.dtd">
<svg version="1.1" id="Layer_1" xmlns="http://www.w3.org/2000/svg" xmlns:xlink="http://www.w3.org/1999/xlink" x="0px" y="0px"
	 width="319.565px" height="65.942px" viewBox="0 0 319.565 65.942" enable-background="new 0 0 319.565 65.942"
	 xml:space="preserve">
<path fill="#EE2C42" d="M35.719,6.602c0,6.994,11.73,14.764,11.73,22.75c0,0,0,0.773-0.325,1.595
	c10.968,2.315,18.736,7.771,18.736,14.162c0,8.594-13.85,15.703-31.012,15.703c-17.529,0-31.115-6.992-31.115-15.373
	c0-6.387,8.417-11.572,18.576-14.322c0,3.525,11.557,14.711,11.835,19.225c0.033,0.518,0.134,0.955,0,1.488
	c2.5-1.321,2.5-5.455,2.5-5.455c0-9.805-11.242-14.156-11.242-23.798c0-3.748,1.741-6.5,3.312-7.27v2.697
	c0,6.997,12.163,14.819,12.163,21.21v2.095c2.827-1.101,2.827-6.337,2.827-6.337c0-8.814-11.296-13.718-11.296-23.8
	c0-3.743,1.736-6.497,3.312-7.272V6.602z"/>
<path fill="#EE2C42" d="M90.51,58.102c-5.916,0-10.203-1.705-10.203-1.705V45.989h1.465c0.758,5.504,4.884,9.688,9.604,9.688
	c4.723,0,8.034-2.642,8.034-6.825c0-4.46-4.397-6.495-7.328-7.98l-4.233-2.149c-4.016-2.035-7.27-5.343-7.27-9.964
	c0-5.781,4.233-10.735,12.316-10.735c5.536,0,10.094,1.873,10.094,1.873v9.3h-1.465c-0.868-4.954-3.581-8.862-9.117-8.862
	c-4.125,0-6.565,2.865-6.565,5.781c0,3.8,2.603,5.504,5.642,7.047l4.236,2.144c3.85,1.986,8.627,5.289,8.627,10.904
	C104.349,53.365,99.463,58.102,90.51,58.102"/>
<path fill="#EE2C42" d="M117.861,46.756c-1.141,0.5-3.149,1.436-3.149,4.076c0,1.43,0.816,3.746,3.639,3.746
	c1.358,0,3.255-0.773,4.613-1.873v-8.15L117.861,46.756z M115.636,57.878c-3.69,0-6.079-2.478-6.079-6.162
	c0-2.644,1.9-4.681,6.079-6.225l7.328-2.694v-2.318c0-3.463-1.574-5.611-3.962-5.611c-1.63,0-3.257,0.826-4.073,2.148
	c-0.322,0.492-0.376,1.213-0.376,1.76c0,0.935,0.594,2.035,0.594,2.035l-3.579,1.653c-0.435-0.769-0.977-1.925-0.977-3.083
	c0-0.217,0.052-0.439,0.052-0.605c0.273-1.981,1.956-3.303,4.234-4.676c2.226-1.376,4.125-1.766,5.479-1.766
	c6.84,0,8.033,5.504,8.033,7.322v11.396c0,1.814,0.165,2.975,1.628,2.975c0.434,0,0.705,0,1.304-0.223l1.304-0.44v1.651
	l-7.602,2.862c-1.139-0.821-1.683-2.312-1.897-3.575C121.335,55.846,118.242,57.878,115.636,57.878"/>
<path fill="#EE2C42" d="M134.304,57.327v-1.313l1.792-0.337c1.084-0.223,1.843-1.044,1.843-2.149V38.831
	c0-1.264-0.594-1.928-1.683-1.928c-0.376,0-0.813,0.059-1.247,0.221l-0.705,0.275v-1.65l7.813-3.414h1.142v4.076
	c2.384-2.703,5.208-4.076,7.706-4.076c5.534,0,8.192,4.021,8.192,8.698v12.494c0,1.105,0.815,1.985,1.903,2.149l1.842,0.337v1.313
	h-12.916v-1.313l1.791-0.337c1.084-0.223,1.954-1.044,1.954-2.149V41.091c0-1.656-0.436-5.343-4.777-5.343
	c-2.388,0-4.396,1.488-5.588,2.588v15.19c0,1.105,0.867,1.927,1.953,2.149l1.79,0.337v1.313H134.304z"/>
<path fill="#EE2C42" d="M181.625,35.694h-7.6V49.35c0,3.025,1.576,4.678,3.854,4.678c0.924,0,2.389-0.275,3.746-1.047l0.596,1.322
	l-4.885,3.137c0,0-0.977,0.163-1.461,0.163c-4.723,0-7.275-2.804-7.275-8.752V35.694h-3.959v-1.373c0,0,5.967-2.315,8.301-7.988
	h1.084v6.991h8.576L181.625,35.694z"/>
<path fill="#EE2C42" d="M193.007,46.756c-1.139,0.5-3.146,1.436-3.146,4.076c0,1.43,0.809,3.746,3.635,3.746
	c1.357,0,3.258-0.773,4.611-1.873v-8.15L193.007,46.756z M190.781,57.878c-3.691,0-6.076-2.478-6.076-6.162
	c0-2.644,1.898-4.681,6.076-6.225l7.326-2.694v-2.318c0-3.463-1.572-5.611-3.961-5.611c-1.627,0-3.26,0.826-4.068,2.148
	c-0.326,0.492-0.383,1.213-0.383,1.76c0,0.935,0.602,2.035,0.602,2.035l-3.584,1.653c-0.436-0.769-0.977-1.925-0.977-3.083
	c0-0.217,0.057-0.439,0.057-0.605c0.268-1.981,1.949-3.303,4.229-4.676c2.229-1.376,4.125-1.766,5.479-1.766
	c6.844,0,8.037,5.504,8.037,7.322v11.396c0,1.814,0.162,2.975,1.627,2.975c0.432,0,0.707,0,1.301-0.223l1.305-0.44v1.651
	l-7.596,2.862c-1.141-0.821-1.682-2.312-1.9-3.575C196.482,55.846,193.388,57.878,190.781,57.878"/>
<path fill="#EE2C42" d="M209.447,57.327v-1.313l1.795-0.337c1.082-0.223,1.846-1.044,1.846-2.149V38.831
	c0-1.264-0.602-1.928-1.686-1.928c-0.377,0-0.812,0.059-1.248,0.221l-0.707,0.275v-1.65l7.818-3.414h1.141v4.076
	c2.387-2.703,5.207-4.076,7.703-4.076c5.533,0,8.195,4.021,8.195,8.698v12.494c0,1.105,0.814,1.985,1.898,2.149l1.844,0.337v1.313
	h-12.912v-1.313l1.791-0.337c1.084-0.223,1.951-1.044,1.951-2.149V41.091c0-1.656-0.434-5.343-4.775-5.343
	c-2.391,0-4.395,1.488-5.59,2.588v15.19c0,1.105,0.873,1.927,1.953,2.149l1.793,0.337v1.313H209.447z"/>
<path fill="#EE2C42" d="M254.273,34.651c-3.904,0-7.922,2.527-7.922,9.904c0,6.168,3.041,9.91,7.814,9.91
	c2.877,0,4.67-1.707,5.104-2.587V37.567C258.564,35.749,256.556,34.651,254.273,34.651 M251.832,57.878
	c-5.1,0-11.234-3.851-11.234-12.219c0-7.323,5.588-13.325,13.082-13.325c2.496,0,4.289,0.498,5.59,1.049V20.775
	c0-1.323-0.705-1.707-1.576-1.707c-0.488,0-1.029,0.111-1.518,0.273l-1.088,0.387v-1.654l8.471-3.629h1.139v36.279
	c0,2.096,0.322,3.305,1.789,3.305c0.434,0,0.703,0,1.301-0.223l1.303-0.44v1.651l-7.596,2.862c-1.193-0.821-1.791-2.366-2.061-3.63
	C258.019,55.788,255.468,57.878,251.832,57.878"/>
<path fill="#EE2C42" d="M288.136,40.871v-0.108c0-4.13-2.275-6.117-4.992-6.117c-3.039,0-5.318,2.041-5.969,6.226H288.136z
	 M277.013,43.127v0.275c-0.055,7.32,4.07,11.008,9.225,11.008c2.604,0,4.992-0.992,6.893-2.474v2.198
	c-2.172,2.04-5.48,3.743-9.551,3.743c-8.465,0-12.209-6.438-12.209-12.55c0-7.161,5.373-12.994,12.314-12.994
	c5.701,0,10.15,4.076,10.15,10.076v0.717H277.013z"/>
<path fill="#EE2C42" d="M297.037,57.327v-1.313l1.789-0.337c1.035-0.223,1.848-1.044,1.848-2.149V38.831
	c0-1.264-0.598-1.928-1.682-1.928c-0.379,0-0.814,0.059-1.246,0.221l-0.709,0.275v-1.65l7.705-3.414h1.143v5.34
	c1.953-3.852,4.287-5.448,6.945-5.448c2.172,0,2.713,0.551,2.713,0.551v5.836h-1.082c-0.273-1.543-1.305-2.312-2.932-2.312
	c-1.736,0-3.906,0.492-5.428,3.684v13.541c0,1.105,1.086,1.985,2.117,2.149l2.607,0.337v1.313H297.037z"/>
</svg>
