<svg width="100" height="100" xmlns="http://www.w3.org/2000/svg">
 <title>Download s7.3</title>

 <desc>Created with Sketch.</desc>
 <g>
  <title>background</title>
  <rect fill="none" id="canvas_background" height="102" width="102" y="-1" x="-1"/>
 </g>
 <g>
  <title>Layer 1</title>
  <g id="svg_1" transform="matrix(0,-1.435349333797916,1.435349333797916,0,-2.0019697493758795,141.02055750789563) " fill-rule="evenodd" fill="none">
   <g id="svg_2">
    <path stroke="#c0c0c0" id="svg_3" transform="rotate(-180 63.51458740234375,35.49538421630859) " fill="#c0c0c0" d="m65.232343,20.457168c-0.96861,-0.98099 -2.53868,-0.97704 -3.51192,0.01398l-11.58497,11.79663c-1.88223,1.88615 0.94011,4.71438 2.82235,2.82823l7.86027,-7.8834c0.38692,-0.38806 0.70057,-0.25181 0.70057,0.2985l0,21.75009c0,1.10729 0.88596,2.00493 1.99601,2.00493l0,0c1.10236,0 1.996,-0.89571 1.996,-2.00493l0,-21.75009c0,-0.55291 0.31484,-0.68537 0.70057,-0.2985l7.86028,7.8834c1.88123,1.88615 4.70458,-0.94208 2.82234,-2.82823l-11.6615,-11.81061z"/>
    <circle id="svg_4" r="30" cy="35.724638" cx="63.514493" transform="rotate(-180 63.51449203491211,35.72463989257812) " stroke-width="4" stroke="#c0c0c0"/>
   </g>
  </g>
 </g>
</svg>