<svg width="612" height="656.5" xmlns="http://www.w3.org/2000/svg">
 <g>
  <title>background</title>
  <rect x="-1" y="-1" width="614" height="658.5" id="canvas_background" fill="none"/>
 </g>

 <g>
  <title>Layer 1</title>
  <path fill="#c0c0c0" d="m544.037,81.462c-90.618,-90.619 -237.529,-90.619 -328.148,0c-90.619,90.613 -90.619,237.53 0,328.149c90.619,90.618 237.53,90.618 328.148,0c90.619,-90.619 90.619,-237.529 0,-328.149zm-25.905,302.249c-76.311,76.305 -200.026,76.305 -276.337,0c-76.304,-76.31 -76.304,-200.032 0,-276.336c76.311,-76.304 200.032,-76.31 276.337,0c76.304,76.31 76.304,200.02 0,276.336z" id="svg_1"/>
  <rect x="75.616" y="391.1" transform="matrix(-0.7071,-0.7071,0.7071,-0.7071,-171.2758,955.5025) " fill="#c0c0c0" width="73.274" height="244.247" id="svg_2"/>
 </g>
</svg>