<svg xmlns="http://www.w3.org/2000/svg" width="30" height="30" viewBox="0 0 30 30">
  <g id="Grupo_187" data-name="Grupo 187" transform="translate(-955 -6)">
    <rect id="Rectángulo_162" data-name="Rectángulo 162" width="30" height="30" transform="translate(955 6)" fill="none"/>
    <path id="Trazado_113" data-name="Trazado 113" d="M461.561,984.983h15.265a1.271,1.271,0,0,0,1.272-1.272V968.36a1.271,1.271,0,0,0-1.272-1.272H473.01v-1.272a3.816,3.816,0,1,0-7.633,0v1.272h-3.816a1.272,1.272,0,0,0-1.272,1.272v15.35a1.272,1.272,0,0,0,1.272,1.272Zm6.361-19.166a1.272,1.272,0,1,1,2.544,0v1.272h-2.544Zm0,0" transform="translate(500.711 -952)" fill="#fff"/>
  </g>
</svg>
