<svg xmlns="http://www.w3.org/2000/svg" viewBox="0 0 23.25 21.12"><defs><style>.cls-1{fill:#fff;}</style></defs><title>bag</title><g id="Capa_2" data-name="Capa 2"><g id="Capa_1-2" data-name="Capa 1"><path class="cls-1" d="M22,20.68h-9.8a.79.79,0,0,1-.79-.79V10.46H22.82v9.44a.79.79,0,0,1-.78.79Zm0,0"/><path class="cls-1" d="M3,21.11H9.56a.43.43,0,1,0,0-.86H3A2.13,2.13,0,0,1,.86,18.12V4.5H3.8V6.31a.43.43,0,1,0,.86,0V4.5h5.76V6.31a.43.43,0,1,0,.86,0V4.5h2.94v1a.43.43,0,1,0,.86,0V4.06a.43.43,0,0,0-.43-.43H11.29a3.74,3.74,0,0,0-7.48,0H.43A.43.43,0,0,0,0,4.06V18.12a3,3,0,0,0,3,3ZM7.54.86a2.89,2.89,0,0,1,2.88,2.77H4.67A2.88,2.88,0,0,1,7.54.86Zm0,0"/><path class="cls-1" d="M14.08,9.45V10H11.44a.43.43,0,0,0-.43.43V19.1a2,2,0,0,0,2,2h8.21a2,2,0,0,0,2-2V10.46a.43.43,0,0,0-.43-.43H20.18V9.45a3.05,3.05,0,1,0-6.11,0Zm8.31,1.44V19.1a1.16,1.16,0,0,1-1.15,1.15H13a1.16,1.16,0,0,1-1.15-1.15V10.89h2.2V12.1a.43.43,0,0,0,.86,0V10.89h4.38V12.1a.43.43,0,0,0,.86,0V10.89ZM17.13,7.26a2.19,2.19,0,0,1,2.19,2.19V10H14.94V9.45a2.19,2.19,0,0,1,2.19-2.19Zm0,0"/></g></g></svg>