<svg xmlns="http://www.w3.org/2000/svg" viewBox="588 366 85 85">
  <defs>
    <style>
      .cls-1 {
        fill: #c63a95;
      }

      .cls-2 {
        fill: none;
        stroke: #fff;
        stroke-miterlimit: 10;
      }
    </style>
  </defs>
  <g id="Group_238" data-name="Group 238" transform="translate(232 -211)">
    <circle id="Ellipse_19" data-name="Ellipse 19" class="cls-1" cx="42.5" cy="42.5" r="42.5" transform="translate(356 577)"/>
    <g id="Group_50" data-name="Group 50" transform="translate(383.5 596.059)">
      <g id="Group_49" data-name="Group 49" transform="translate(0.5 0.5)">
        <path id="Path_62" data-name="Path 62" class="cls-2" d="M23.181,39.755a2.329,2.329,0,0,1-1.341.915l-2.683.732a2.286,2.286,0,0,1-.671.061,2.078,2.078,0,0,1-1.341-.427,2.349,2.349,0,0,1-1.036-1.768l-.244-2.744a2.406,2.406,0,0,1,.427-1.585l.122-.122H6.9a1.4,1.4,0,1,1,0-2.8H18.425l2.561-3.658H6.9a1.4,1.4,0,1,1,0-2.8l16.035-.061,6.036-8.658V10.49a1.861,1.861,0,0,0-1.89-1.89H22.449a3.123,3.123,0,0,1-3.109,3.109H10.133A3.084,3.084,0,0,1,7.024,8.6H2.39A1.9,1.9,0,0,0,.5,10.49V43.109A1.953,1.953,0,0,0,2.39,45.06H27.144a1.953,1.953,0,0,0,1.89-1.951V31.464ZM6.9,19.087H22.571a1.4,1.4,0,0,1,0,2.8H6.9a1.38,1.38,0,0,1-1.4-1.4A1.46,1.46,0,0,1,6.9,19.087Z" transform="translate(-0.5 -3.661)"/>
        <path id="Path_63" data-name="Path 63" class="cls-2" d="M15.616,6.841h9.267a1.288,1.288,0,0,0,1.28-1.28V5.012a1.25,1.25,0,0,0-1.28-1.28h-1.4a3.231,3.231,0,1,0-6.463,0H15.677a1.25,1.25,0,0,0-1.28,1.28V5.56A1.2,1.2,0,0,0,15.616,6.841Z" transform="translate(-5.922 -0.5)"/>
        <path id="Path_64" data-name="Path 64" class="cls-2" d="M53.464,10.839a1.265,1.265,0,0,0-.366-.61L50.781,8.583a.973.973,0,0,0-.488-.183.869.869,0,0,0-.732.366L33.1,32.422l3.78,2.622,16.4-23.534A1.229,1.229,0,0,0,53.464,10.839Z" transform="translate(-13.224 -3.583)"/>
        <path id="Path_65" data-name="Path 65" class="cls-2" d="M28.8,52.968l.244,2.744a.412.412,0,0,0,.244.366c.122.061.183.122.3.122h.122l2.683-.732a1.333,1.333,0,0,0,.3-.183l.976-1.463L29.9,51.2l-.976,1.463C28.8,52.724,28.8,52.846,28.8,52.968Z" transform="translate(-11.546 -20.289)"/>
      </g>
    </g>
  </g>
</svg>
