<svg xmlns="http://www.w3.org/2000/svg" viewBox="759 366 85 85">
  <defs>
    <style>
      .cls-1 {
        fill: #16cded;
      }

      .cls-2 {
        fill: #fff;
      }
    </style>
  </defs>
  <g id="Group_239" data-name="Group 239" transform="translate(232 -211)">
    <circle id="Ellipse_20" data-name="Ellipse 20" class="cls-1" cx="42.5" cy="42.5" r="42.5" transform="translate(527 577)"/>
    <g id="Group_48" data-name="Group 48" transform="translate(543.9 595.032)">
      <path id="Path_61" data-name="Path 61" class="cls-2" d="M42.487,19.99H40.419V10.528a4.132,4.132,0,0,0-4.136-4.136H33.526L30.643,1.253A2.376,2.376,0,0,0,28.512,0a2.592,2.592,0,0,0-1.191.313L16.355,6.392H4.136A4.132,4.132,0,0,0,0,10.528V38.789a4.132,4.132,0,0,0,4.136,4.136h32.21a4.132,4.132,0,0,0,4.136-4.136V30.518h2.068V19.99Zm-6.2-11.969a2.448,2.448,0,0,1,2.444,2.193H35.656L34.466,8.021h1.817ZM28.074,1.755a.9.9,0,0,1,1.128.313l4.575,8.146H12.846ZM38.789,38.789a2.447,2.447,0,0,1-2.444,2.444H4.136a2.447,2.447,0,0,1-2.444-2.444V10.528A2.447,2.447,0,0,1,4.136,8.084H13.41L9.462,10.277H4.637a.815.815,0,0,0,0,1.629h34.09V19.99H32.711a5.055,5.055,0,0,0-5.076,5.076v.376a5.055,5.055,0,0,0,5.076,5.076h6.016l.063,8.272Zm2.068-9.964H32.774a3.477,3.477,0,0,1-3.447-3.447v-.313a3.477,3.477,0,0,1,3.447-3.447h8.084ZM35.28,25.317A1.817,1.817,0,1,1,33.463,23.5,1.819,1.819,0,0,1,35.28,25.317Z" transform="translate(4)"/>
    </g>
  </g>
</svg>
