<svg xmlns="http://www.w3.org/2000/svg" viewBox="0 0 49.98 74.98"><defs><style>.cls-1{fill:#fff;fill-rule:evenodd;}</style></defs><title>calc</title><g id="Capa_2" data-name="Capa 2"><g id="Capa_1-2" data-name="Capa 1"><path class="cls-1" d="M47.49,0H2.5A2.5,2.5,0,0,0,0,2.5v70A2.5,2.5,0,0,0,2.5,75h45a2.5,2.5,0,0,0,2.5-2.5V2.5A2.5,2.5,0,0,0,47.49,0Zm0,71.23a1.26,1.26,0,0,1-1.25,1.25H3.75A1.25,1.25,0,0,1,2.5,71.23V3.75A1.25,1.25,0,0,1,3.75,2.5H46.24a1.26,1.26,0,0,1,1.25,1.25Zm-28.75-15h-5v-5a1.25,1.25,0,1,0-2.5,0v5h-5a1.25,1.25,0,0,0,0,2.5h5v5a1.25,1.25,0,0,0,2.5,0v-5h5a1.25,1.25,0,1,0,0-2.5ZM7.5,45h35a2.5,2.5,0,0,0,2.5-2.5V7.5A2.5,2.5,0,0,0,42.49,5H7.5A2.5,2.5,0,0,0,5,7.5v35A2.5,2.5,0,0,0,7.5,45Zm0-36.24A1.25,1.25,0,0,1,8.75,7.5H41.24a1.25,1.25,0,0,1,1.25,1.25V41.24a1.25,1.25,0,0,1-1.25,1.25H8.75A1.25,1.25,0,0,1,7.5,41.24ZM30,58.73a3.75,3.75,0,1,0,3.75,3.75A3.75,3.75,0,0,0,30,58.73ZM30,65a2.49,2.49,0,1,1,2.5-2.5A2.49,2.49,0,0,1,30,65Zm11.25-3.74A3.75,3.75,0,1,0,45,65a3.75,3.75,0,0,0-3.75-3.75Zm0,6.34A2.6,2.6,0,1,1,43.84,65a2.59,2.59,0,0,1-2.61,2.59Zm0-16.34A3.75,3.75,0,1,0,45,55a3.75,3.75,0,0,0-3.75-3.75Zm0,6.25a2.5,2.5,0,1,1,2.5-2.5,2.49,2.49,0,0,1-2.5,2.5ZM30,48.74a3.75,3.75,0,1,0,3.75,3.75A3.75,3.75,0,0,0,30,48.74ZM30,55a2.5,2.5,0,1,1,2.5-2.49A2.49,2.49,0,0,1,30,55Zm0-1.25"/></g></g></svg>