<svg xmlns="http://www.w3.org/2000/svg" viewBox="0 0 62.94 50.35"><defs><style>.cls-1{fill:#d8d9de;}</style></defs><title>camera</title><g id="Capa_2" data-name="Capa 2"><g id="Capa_1-2" data-name="Capa 1"><path class="cls-1" d="M31.47,18.88a9.44,9.44,0,1,0,9.44,9.44,9.44,9.44,0,0,0-9.44-9.44ZM56.64,9.44H49.09a2.8,2.8,0,0,1-2.48-1.79l-2-5.86A2.8,2.8,0,0,0,42.17,0H20.77a2.8,2.8,0,0,0-2.48,1.79l-2,5.86a2.8,2.8,0,0,1-2.48,1.79H6.29A6.31,6.31,0,0,0,0,15.73V44.06a6.31,6.31,0,0,0,6.29,6.29H56.64a6.31,6.31,0,0,0,6.29-6.29V15.73a6.31,6.31,0,0,0-6.29-6.29ZM31.47,44.06A15.73,15.73,0,1,1,47.2,28.32,15.73,15.73,0,0,1,31.47,44.06Zm23-23.92a2.2,2.2,0,1,1,2.2-2.2,2.21,2.21,0,0,1-2.2,2.2Zm0,0"/></g></g></svg>