<svg xmlns="http://www.w3.org/2000/svg" width="65" height="65" viewBox="0 0 65 65">
  <g id="Grupo_203" data-name="Grupo 203" transform="translate(-5889 -1508)">
    <g id="Grupo_197" data-name="Grupo 197" transform="translate(59.85 5.795)">
      <path id="Trazado_118" data-name="Trazado 118" d="M-4346.662,5830.772a3.486,3.486,0,0,0,1.057,2.554,3.482,3.482,0,0,0,2.555,1.058,3.484,3.484,0,0,0,2.554-1.058,3.479,3.479,0,0,0,1.056-2.554,3.483,3.483,0,0,0-1.056-2.553,3.486,3.486,0,0,0-2.554-1.059,3.485,3.485,0,0,0-2.555,1.059,3.489,3.489,0,0,0-1.057,2.553Zm0,0" transform="translate(10220.929 -4280.452)" fill="gray"/>
      <path id="Trazado_117" data-name="Trazado 117" d="M-4548.082,5608.261a1.731,1.731,0,0,0-1.271-.536h-33.885c-.021-.132-.063-.372-.129-.721s-.116-.625-.153-.832a5.12,5.12,0,0,0-.212-.747,2.3,2.3,0,0,0-.367-.692,1.836,1.836,0,0,0-.564-.438,1.717,1.717,0,0,0-.8-.183h-7.224a1.738,1.738,0,0,0-1.27.537,1.739,1.739,0,0,0-.536,1.27,1.743,1.743,0,0,0,.536,1.27,1.742,1.742,0,0,0,1.27.536h5.756l4.993,23.221q-.056.114-.578,1.072t-.832,1.679a3.093,3.093,0,0,0-.312,1.115,1.739,1.739,0,0,0,.536,1.271,1.745,1.745,0,0,0,1.271.537h28.891a1.747,1.747,0,0,0,1.271-.537,1.739,1.739,0,0,0,.536-1.271,1.733,1.733,0,0,0-.536-1.268,1.737,1.737,0,0,0-1.271-.539h-25.958a5.433,5.433,0,0,0,.678-1.8,3.067,3.067,0,0,0-.071-.621c-.047-.226-.1-.475-.169-.749s-.108-.473-.126-.605l29.457-3.442a1.753,1.753,0,0,0,1.157-.605,1.783,1.783,0,0,0,.452-1.2v-14.446a1.741,1.741,0,0,0-.536-1.271Zm0,0" transform="translate(10432.646 -4089.908)" fill="gray"/>
      <path id="Trazado_119" data-name="Trazado 119" d="M-4520.152,5830.772a3.48,3.48,0,0,0,1.059,2.554,3.48,3.48,0,0,0,2.553,1.058,3.483,3.483,0,0,0,2.554-1.058,3.479,3.479,0,0,0,1.059-2.554,3.483,3.483,0,0,0-1.059-2.553,3.485,3.485,0,0,0-2.554-1.059,3.482,3.482,0,0,0-2.553,1.059,3.484,3.484,0,0,0-1.059,2.553Zm0,0" transform="translate(10369.137 -4280.452)" fill="gray"/>
    </g>
    <rect id="Rectángulo_170" data-name="Rectángulo 170" width="65" height="65" transform="translate(5889 1508)" fill="none"/>
  </g>
</svg>
