<svg xmlns="http://www.w3.org/2000/svg" viewBox="0 0 21.27 18"><defs><style>.cls-1{fill:#447ed9;}</style></defs><title>cart</title><g id="Capa_2" data-name="Capa 2"><g id="Capa_1-2" data-name="Capa 1"><path class="cls-1" d="M16.36,16.36a1.64,1.64,0,1,0,.48-1.16,1.58,1.58,0,0,0-.48,1.16Zm0,0"/><path class="cls-1" d="M21,1.88a.78.78,0,0,0-.58-.24H5.1L5,1.31,5,.93a2.31,2.31,0,0,0-.1-.34A1,1,0,0,0,4.71.28a.84.84,0,0,0-.26-.2A.78.78,0,0,0,4.09,0H.82A.79.79,0,0,0,.24.24.79.79,0,0,0,0,.82a.79.79,0,0,0,.24.58.79.79,0,0,0,.58.24H3.43L5.69,12.16l-.26.49q-.24.44-.38.76a1.4,1.4,0,0,0-.14.5.83.83,0,0,0,.82.82H18.82a.82.82,0,0,0,0-1.64H7.06a2.47,2.47,0,0,0,.31-.82,1.37,1.37,0,0,0,0-.28l-.08-.34c0-.12,0-.21-.06-.27L20.54,9.82a.8.8,0,0,0,.52-.27.81.81,0,0,0,.2-.54V2.45A.79.79,0,0,0,21,1.88Zm0,0"/><path class="cls-1" d="M4.91,16.36A1.64,1.64,0,0,0,6.55,18a1.64,1.64,0,1,0-1.16-2.79,1.58,1.58,0,0,0-.48,1.16Zm0,0"/></g></g></svg>