<svg xmlns="http://www.w3.org/2000/svg" viewBox="1015.152 1620.31 51.426 37.976">
  <defs>
    <style>
      .cls-1 {
        fill: none;
        stroke: #3a8dde;
        stroke-miterlimit: 10;
      }
    </style>
  </defs>
  <g id="Group_56" data-name="Group 56" transform="translate(1015.152 1620.31)">
    <path id="Path_63" data-name="Path 63" class="cls-1" d="M48.768,21.147A9.615,9.615,0,0,0,43.177,17.6a6.415,6.415,0,0,0,1.052-3.653,6.438,6.438,0,0,0-1.993-4.76A6.438,6.438,0,0,0,37.476,7.2,6.663,6.663,0,0,0,33.1,8.8a13.648,13.648,0,0,0-4.926-6.089A13.73,13.73,0,0,0,20.7.5a13.128,13.128,0,0,0-9.521,3.93,13.038,13.038,0,0,0-3.93,9.521,9.533,9.533,0,0,0,.055,1.107A11.763,11.763,0,0,0,.5,25.741a11.322,11.322,0,0,0,3.432,8.3,11.285,11.285,0,0,0,8.3,3.432H40.852a9.912,9.912,0,0,0,7.14-2.934A9.693,9.693,0,0,0,50.926,27.4,9.869,9.869,0,0,0,48.768,21.147Zm-14.89-.72a.889.889,0,0,1-.609.277H27.4v9.244a.952.952,0,0,1-.886.886H21.479a.705.705,0,0,1-.609-.277.889.889,0,0,1-.277-.609V20.7H14.781a.832.832,0,0,1-.609-.221.756.756,0,0,1-.221-.609.889.889,0,0,1,.277-.609l9.244-9.244A.756.756,0,0,1,24.08,9.8a.832.832,0,0,1,.609.221l9.244,9.244a.756.756,0,0,1,.221.609A.769.769,0,0,1,33.878,20.427Z"/>
  </g>
</svg>
