<svg xmlns="http://www.w3.org/2000/svg" viewBox="0 0 463.29 536.39"><defs><style>.cls-1{fill:#f19171;}</style></defs><title>Recurso 2</title><g id="Capa_2" data-name="Capa 2"><g id="Capa_1-2" data-name="Capa 1"><path class="cls-1" d="M451.32,70.64H383.88V12a12,12,0,0,0-12-12H91.32a12,12,0,0,0-12,12V70.64H12a12,12,0,0,0-12,12A136.33,136.33,0,0,0,83.29,207.92a152.82,152.82,0,0,0,110.36,113A57.25,57.25,0,0,1,149.35,381a3.37,3.37,0,0,1-.34.09c-.24.07-.49.13-.73.21l-.47.17-.62.24c-.19.08-.37.18-.55.27s-.32.15-.47.24l-.61.37-.36.23c-.21.14-.41.3-.61.46l-.3.24c-.2.16-.38.33-.57.51l-.28.27c-.17.17-.33.36-.49.54l-.29.33c-.13.18-.27.36-.4.55s-.19.26-.28.4a4.86,4.86,0,0,0-.33.54c-.09.15-.18.3-.26.45s-.18.38-.27.57a5,5,0,0,0-.21.48c-.09.21-.16.42-.23.63s-.11.3-.16.45-.13.5-.19.75-.06.24-.08.37c-.06.29-.1.59-.14.9a2.13,2.13,0,0,0,0,.25,8.6,8.6,0,0,0-.05,1c0,.05,0,.1,0,.15v35.91H106.49a12,12,0,0,0-12,12v83.81a12,12,0,0,0,12,12H357.93a12,12,0,0,0,12-12V440.61a12,12,0,0,0-12-12H324.4V392.71a11.92,11.92,0,0,0-3.25-8.18l0,0c-.23-.24-.48-.48-.73-.71l-.12-.11c-.25-.21-.5-.4-.76-.59a1.26,1.26,0,0,0-.17-.13,9.1,9.1,0,0,0-.8-.51l-.18-.12c-.29-.16-.58-.31-.88-.45l-.16-.08c-.32-.14-.65-.26-1-.38l-.13,0c-.34-.1-.68-.2-1-.28l-.12,0a57.2,57.2,0,0,1-44.28-60.48A152.82,152.82,0,0,0,379.92,208,136.31,136.31,0,0,0,463.29,82.61a12,12,0,0,0-12-12Zm-426.71,24H79.35V174c0,1.79.05,3.57.12,5.35A112.48,112.48,0,0,1,24.61,94.59ZM346,452.59v59.86H118.46V452.59Zm-45.49-47.9v23.94H164V404.69ZM196,380.74A82.5,82.5,0,0,0,205,369.07a80.49,80.49,0,0,0,12.77-44c4.55.41,9.15.63,13.8.63,5.06,0,10.07-.25,15-.74a81.31,81.31,0,0,0,22,55.81Zm164-207.34a128.32,128.32,0,0,1-256.64,0V24H359.93Zm23.82,5.94c.07-1.79.11-3.58.12-5.39,0,0,0-.09,0-.14V94.59h54.8a112.46,112.46,0,0,1-54.93,84.75Z"/><path class="cls-1" d="M265.4,187c-12.87-16.12-13.51-35.75-13.51-35.75-.84-.65-1.61-1.56-2.78-2.34-.31-.17-.47-.35-.79-.51a16.05,16.05,0,0,0-3.25-1.75,30,30,0,0,0-10.73-2.12c-5.77-.22-9.93,2.12-13.71,5a19.33,19.33,0,0,0-1.86,1.69c-1.34,1.34-1.86,2-3,3.25a4.25,4.25,0,0,0-.44.47s-4.9,16.69-13.86,28.69-20.71,16.64-20.71,19.76c0,4.82.25,7.11,2.07,11.45a18.79,18.79,0,0,0,2,3.46,26.67,26.67,0,0,0,2.46,3,14.08,14.08,0,0,0,2.82,2.46,15.6,15.6,0,0,0,2.47,1.61,1.86,1.86,0,0,1,.39.21,16.5,16.5,0,0,0,4.55,1.65l5,.52H204c5.21-.22,13.31-2.6,17.91-3.86,1.21-.34,2.46-.64,3.76-.91l8.36-1c4.08-.26,11.75,1.39,15.91,2.61,4.68,1.38,10.35,2.94,15.26,3.2h2.55a21.64,21.64,0,0,0,12.79-4.95A22.23,22.23,0,0,0,289,208.29c1.18-8.23-10.69-5.16-23.57-21.28Z"/><path class="cls-1" d="M299.47,138.57a9.94,9.94,0,0,0,1.47-2.78,9.61,9.61,0,0,0,0-5.29,7.93,7.93,0,0,0-2.89-4.46,24.2,24.2,0,0,0-2.3,4.34c-.56,1.3-.91,2.42-1.26,3.46-.21.78-.39,1.52-.6,2.3-6.59,0-14.26,7.71-17.47,15.07-3.69,8.5-.91,17.91,6.2,20.94s15.82-1.3,19.5-9.84c3.21-7.33,2.25-18.81-2.68-23.74Z"/><path class="cls-1" d="M254.23,139.09c9.3,2,18.84-5.46,21.23-16.69,2-9.36-1.61-22.41-8.28-27.64.21-.48.51-1,.69-1.43A9.57,9.57,0,0,0,268,88,8.15,8.15,0,0,0,265,83.57a22.66,22.66,0,0,0-2.25,4.33,28.83,28.83,0,0,0-1.3,3.47c-.09.39-.18.74-.26,1.09-8.79-.22-17.34,12.17-19.59,22.7-2.38,11.22,3.25,21.93,12.62,23.93Z"/><path class="cls-1" d="M212.7,139.64c10.14-.82,17.6-11.3,16.6-23.48-.91-11.57-10.74-25.87-20.45-26.52-.09-.35-.17-.7-.26-1-.35-1-.69-2.16-1.26-3.47A21.76,21.76,0,0,0,205,80.8a8.08,8.08,0,0,0-2.91,4.46,9.43,9.43,0,0,0,.05,5.29c.08.26.31.52.38.82-7.05,4.64-10.78,17.64-10,27.74.95,12.13,10,21.32,20.14,20.53Z"/><path class="cls-1" d="M191.74,149.91c-2.52-9.79-12.92-20.62-21.37-20-.09-.35-.18-.65-.3-1a24.71,24.71,0,0,0-1.22-3.47,25.74,25.74,0,0,0-2.3-4.37,8.11,8.11,0,0,0-2.89,4.5,9.29,9.29,0,0,0,0,5.3,7.69,7.69,0,0,0,.88,1.77c-5.21,5.24-6.43,16.81-4.3,25.22,2.64,10.45,11.79,17.07,20.51,14.91s13.55-12.44,11-22.85Z"/></g></g></svg>