<svg xmlns="http://www.w3.org/2000/svg" viewBox="1600.658 1852 17.07 21">
  <defs>
    <style>
      .cls-1 {
        fill: #447ed9;
      }
    </style>
  </defs>
  <g id="Group_140" data-name="Group 140" transform="translate(1600.658 1852)">
    <path id="Path_99" data-name="Path 99" class="cls-1" d="M27.66,31.45a.347.347,0,0,0,.36-.36V19.36a.36.36,0,0,0-.72,0V31.12A.34.34,0,0,0,27.66,31.45Z" transform="translate(-19.11 -13.3)"/>
    <path id="Path_100" data-name="Path 100" class="cls-1" d="M15.76,31.45a.347.347,0,0,0,.36-.36V19.36a.36.36,0,0,0-.72,0V31.12A.36.36,0,0,0,15.76,31.45Z" transform="translate(-10.78 -13.3)"/>
    <path id="Path_101" data-name="Path 101" class="cls-1" d="M39.46,31.45a.347.347,0,0,0,.36-.36V19.36a.36.36,0,1,0-.72,0V31.12A.383.383,0,0,0,39.46,31.45Z" transform="translate(-27.37 -13.3)"/>
    <path id="Path_102" data-name="Path 102" class="cls-1" d="M16.74,2.13H11.73A2.723,2.723,0,0,0,11.07.45,1.492,1.492,0,0,0,9.96,0H6.42A1.492,1.492,0,0,0,5.31.45a2.914,2.914,0,0,0-.66,1.68H.36A.347.347,0,0,0,0,2.49a.347.347,0,0,0,.36.36h.72l.69,16.38A1.718,1.718,0,0,0,3.51,21H13.56a1.718,1.718,0,0,0,1.74-1.77l.69-16.38h.72a.347.347,0,0,0,.36-.36A.34.34,0,0,0,16.74,2.13ZM5.79.96a.838.838,0,0,1,.6-.24H9.96a.838.838,0,0,1,.6.24,2.179,2.179,0,0,1,.45,1.17H5.37A2.138,2.138,0,0,1,5.79.96ZM14.61,19.2a1.041,1.041,0,0,1-1.05,1.08H3.51c-.96,0-1.02-.96-1.05-1.08L1.8,2.85H15.3Z"/>
  </g>
</svg>
