<svg xmlns="http://www.w3.org/2000/svg" xmlns:xlink="http://www.w3.org/1999/xlink" viewBox="0 0 30 30">
  <defs>
    <style>
      .cls-1 {
        clip-path: url(#clip-favorito2);
      }

      .cls-2 {
        fill: #d88734;
      }
    </style>
    <clipPath id="clip-favorito2">
      <rect width="30" height="30"/>
    </clipPath>
  </defs>
  <g id="favorito2" class="cls-1">
    <path id="Path_78" data-name="Path 78" class="cls-2" d="M156.115,10.121a.939.939,0,0,0-.761-.643l-8.6-1.22-3.839-7.6a.978.978,0,0,0-1.676,0l-3.839,7.6-8.6,1.22a.939.939,0,0,0-.514,1.61L134.5,17l-1.463,8.335a.939.939,0,0,0,1.349,1l7.7-3.949,7.7,3.949a.939.939,0,0,0,1.353-1l-1.463-8.335,6.206-5.907A.939.939,0,0,0,156.115,10.121ZM148,15.981a.938.938,0,0,0-.282.845l1.22,6.971L142.5,20.49a.938.938,0,0,0-.858,0L135.2,23.8l1.22-6.971a.938.938,0,0,0-.282-.845l-5.163-4.917,7.161-1.016a.939.939,0,0,0,.706-.506l3.236-6.377L145.3,9.543a.939.939,0,0,0,.706.506l7.161,1.016Z" transform="translate(-126.998 1.813)"/>
    <path id="Path_80" data-name="Path 80" class="cls-2" d="M2494,357.375l-3.756,6.779-8.262,1.321,5.988,6.067-1.823,8.425,7.853-3.785,7.476,3.785v-3.785l-.953-4.641,5.951-5.678-6.609-1.309-1.942-1.026Z" transform="translate(-2479 -353)"/>
  </g>
</svg>
