<svg xmlns="http://www.w3.org/2000/svg" xmlns:xlink="http://www.w3.org/1999/xlink" viewBox="0 0 19.75 18.36"><defs><style>.cls-1{fill:none;}.cls-2{clip-path:url(#clip-path);}.cls-3{fill:#fff;}</style><clipPath id="clip-path" transform="translate(0 -0.1)"><rect class="cls-1" width="19.94" height="18.92"/></clipPath></defs><title>heart</title><g id="Capa_2" data-name="Capa 2"><g id="Capa_1-2" data-name="Capa 1"><g class="cls-2"><path class="cls-3" d="M19.72,5.57C19.43,2.4,17.19.1,14.37.1A5.32,5.32,0,0,0,9.82,2.72,5.12,5.12,0,0,0,5.38.1C2.57.1.32,2.4,0,5.57A5.62,5.62,0,0,0,.2,7.65a8.91,8.91,0,0,0,2.74,4.56l6.88,6.25,7-6.24a8.93,8.93,0,0,0,2.74-4.56,5.66,5.66,0,0,0,.17-2.08Zm0,0" transform="translate(0 -0.1)"/></g></g></g></svg>