<svg xmlns="http://www.w3.org/2000/svg" viewBox="0 0 20.6 19.18"><defs><style>.cls-1{fill:#fff;}</style></defs><title>home</title><g id="Capa_2" data-name="Capa 2"><g id="Capa_1-2" data-name="Capa 1"><path class="cls-1" d="M20.26,8.67,17.13,5.55V1.94a1.18,1.18,0,0,0-2.36,0V3.19L12.45.86a3.11,3.11,0,0,0-4.29,0L.35,8.67A1.18,1.18,0,0,0,2,10.34L9.82,2.53a.7.7,0,0,1,1,0l7.81,7.81a1.18,1.18,0,1,0,1.67-1.67Zm0,0"/><path class="cls-1" d="M10.71,4.77a.58.58,0,0,0-.82,0L3,11.64a.58.58,0,0,0-.17.41v5A2.13,2.13,0,0,0,5,19.18h3.4V13.92h3.84v5.27h3.4a2.13,2.13,0,0,0,2.13-2.13V12a.58.58,0,0,0-.17-.41Zm0,0"/></g></g></svg>