<svg xmlns="http://www.w3.org/2000/svg" viewBox="521.206 1420.495 37.787 40.698">
  <defs>
    <style>
      .cls-1 {
        fill: #fff;
      }
    </style>
  </defs>
  <path id="Path_55" data-name="Path 55" class="cls-1" d="M23.13,12.526H4.574v1.04H23.13Zm0,5.458H4.574v1.04H23.13ZM14.969,7.173H4.782v1.04H14.969Zm8.16,16.477H4.574v1.04H23.13ZM36.8,33.473a4.481,4.481,0,0,0-1.767-1.351,3.351,3.351,0,0,0,.156-1.04,3.195,3.195,0,0,0-3.171-3.171,2.883,2.883,0,0,0-1.455.364,4.97,4.97,0,0,0-1.819-1.923c-.208-.156-.468-.26-.676-.416V7.433L20.895.208h-.26C19.855.208.832,0,.572,0H0V37.631H17.724a5.294,5.294,0,0,0,1.092,1.559A4.909,4.909,0,0,0,22.4,40.7H33.317a4.437,4.437,0,0,0,4.47-4.47A4.466,4.466,0,0,0,36.8,33.473ZM21.155,2.131l5.094,5.094H21.155ZM17.984,32.849a5.493,5.493,0,0,0-.728,3.586H1.143V1.2c3.015,0,16.217.156,18.972.208V8.316h6.809v17.2a5.665,5.665,0,0,0-1.351-.156h-.1a5.613,5.613,0,0,0-4.054,1.663,6.293,6.293,0,0,0-1.351,2.027H4.574v1.04H19.855a5.757,5.757,0,0,0-.1.988v.1a5.413,5.413,0,0,0-1.767,1.663Zm17.672,5.717a3.173,3.173,0,0,1-2.339.936H22.4a3.9,3.9,0,0,1-3.9-3.9,3.627,3.627,0,0,1,.624-2.079,3.782,3.782,0,0,1,1.663-1.455l.364-.156L21.1,31.5v-.416a4.244,4.244,0,0,1,1.351-3.223,4.532,4.532,0,0,1,3.171-1.351h.416a3.728,3.728,0,0,1,1.3.364l.624.26c.052.052.156.1.208.156a4.384,4.384,0,0,1,1.663,2.079l.312.78.624-.52a1.9,1.9,0,0,1,1.3-.468,2.008,2.008,0,0,1,1.4.572,1.807,1.807,0,0,1,.572,1.4,1.756,1.756,0,0,1-.312,1.04l-.468.676.832.208a3.3,3.3,0,0,1,2.547,3.171A3.54,3.54,0,0,1,35.656,38.567Zm-8.108-9.408a.91.91,0,0,0-1.3,0l-3.534,3.534-.052.052a.994.994,0,0,0-.26.624.861.861,0,0,0,.26.624.959.959,0,0,0,.624.26h1.663v2.963a.861.861,0,0,0,.26.624.959.959,0,0,0,.624.26h1.923a.861.861,0,0,0,.624-.26.959.959,0,0,0,.26-.624V34.253H30.3a.861.861,0,0,0,.624-.26h0a.959.959,0,0,0,.26-.624.861.861,0,0,0-.26-.624Zm.052,3.95v3.846H26.2V33.109H24.013L26.924,30.2l2.911,2.911H27.6Z" transform="translate(521.206 1420.495)"/>
</svg>
