<svg xmlns="http://www.w3.org/2000/svg" viewBox="0 0 72.03 72.03"><defs><style>.cls-1{fill:#fff;}</style></defs><title>pencil</title><g id="Capa_2" data-name="Capa 2"><g id="Capa_1-2" data-name="Capa 1"><path class="cls-1" d="M68.6,3.43a11.75,11.75,0,0,0-16.6,0l-47,47-.06.08-.08.1a1.33,1.33,0,0,0-.16.31.66.66,0,0,0,0,.1l0,0L0,70.43a1.22,1.22,0,0,0,0,.26s0,0,0,.05a1.26,1.26,0,0,0,.08.43l0,.1a1.2,1.2,0,0,0,.26.38,1.21,1.21,0,0,0,.43.29A1.32,1.32,0,0,0,1.3,72a1.21,1.21,0,0,0,.3,0L21,67.39l.1,0,.13-.05a1.39,1.39,0,0,0,.26-.16l.1-.07,0,0,47-47a11.75,11.75,0,0,0,0-16.6ZM66.76,5.27a9.14,9.14,0,0,1,.85,11.92L54.84,4.43a9.14,9.14,0,0,1,11.92.85ZM60.31,24.64,47.4,11.73l1.85-1.84,12.9,12.9ZM6.47,65.57a1.31,1.31,0,0,0-1.85,0l-1,1L7,52.57l5.77-.64L12,58.6a.8.8,0,0,1,0,.29A.65.65,0,0,0,12,59a1.19,1.19,0,0,0,.07.22,1.15,1.15,0,0,0,.12.24,1.22,1.22,0,0,0,.13.16,1.48,1.48,0,0,0,.21.18l.18.11A1.39,1.39,0,0,0,13,60l.14,0h.29l6.68-.74-.64,5.77-14,3.33,1-1a1.31,1.31,0,0,0,0-1.84Zm16.36-7.14L52,29.25a1.3,1.3,0,0,0-1.84-1.85L21,56.58l-6.23.69L15.46,51,44.63,21.87A1.3,1.3,0,1,0,42.79,20L13.61,49.21l-4.15.46L45.56,13.57l12.9,12.9L22.37,62.57ZM64,21,51.08,8,52.93,6.2,65.84,19.11Zm0,0"/></g></g></svg>