<svg xmlns="http://www.w3.org/2000/svg" width="30" height="30" viewBox="0 0 30 30">
  <g id="Grupo_194" data-name="Grupo 194" transform="translate(-1457 168)">
    <rect id="Rectángulo_166" data-name="Rectángulo 166" width="30" height="30" transform="translate(1457 -168)" fill="none"/>
    <g id="pencil" transform="translate(1461.007 -163.997)">
      <g id="Capa_1" data-name="Capa 1" transform="translate(-0.007 -0.003)">
        <path id="Trazado_114" data-name="Trazado 114" d="M21.321,1.064a3.653,3.653,0,0,0-5.16,0L1.55,15.675l-.019.025-.025.031a.413.413,0,0,0-.05.1.205.205,0,0,0,0,.031h0L0,21.892a.379.379,0,0,0,0,.081v.016a.392.392,0,0,0,.025.134v.031a.373.373,0,0,0,.081.118.376.376,0,0,0,.134.09A.41.41,0,0,0,.4,22.38a.376.376,0,0,0,.093,0l6.031-1.433h.031l.04-.016a.432.432,0,0,0,.081-.05l.031-.022h0L21.318,6.249a3.653,3.653,0,0,0,0-5.16Zm-.572.572a2.841,2.841,0,0,1,.264,3.706l-3.97-3.967a2.841,2.841,0,0,1,3.706.264ZM18.744,7.658,14.73,3.644l.575-.572,4.01,4.01ZM2.007,20.381a.407.407,0,0,0-.575,0l-.311.311L2.171,16.34l1.794-.2-.239,2.073a.249.249,0,0,1,0,.09.2.2,0,0,0,0,.034.37.37,0,0,0,.022.068.357.357,0,0,0,.037.075.379.379,0,0,0,.04.05.46.46,0,0,0,.065.056l.056.034a.432.432,0,0,0,.09.028H4.17l2.077-.23-.2,1.794L1.7,21.249l.311-.311a.407.407,0,0,0,0-.572Zm5.086-2.22L16.16,9.091a.406.406,0,0,0-.572-.575L6.523,17.587,4.587,17.8,4.8,15.852,13.869,6.8a.408.408,0,0,0-.572-.581L4.226,15.3l-1.29.143L14.158,4.216l4.01,4.01L6.949,19.449Zm12.8-11.636L15.874,2.485l.575-.56,4.013,4.013Zm0,0" transform="translate(0.007 0.003)" fill="#fff"/>
      </g>
    </g>
  </g>
</svg>
