<svg xmlns="http://www.w3.org/2000/svg" viewBox="0 0 105.64 69.51"><defs><style>.cls-1{fill:#fff;}</style></defs><title>rank</title><g id="Capa_2" data-name="Capa 2"><g id="Capa_1-2" data-name="Capa 1"><path class="cls-1" d="M37.43,69.43H0V34.74a14.62,14.62,0,0,1,14.6-14.6H37.43ZM3.39,66H34V23.52H14.6A11.23,11.23,0,0,0,3.39,34.74Z"/><path class="cls-1" d="M105.64,69.43H68.2V29.56H94.48a11.17,11.17,0,0,1,11.16,11.16ZM71.59,66h30.66V40.72a7.78,7.78,0,0,0-7.77-7.77H71.59Z"/><path class="cls-1" d="M71.61,69.51H34V9.92A9.93,9.93,0,0,1,43.95,0H61.69a9.93,9.93,0,0,1,9.92,9.92ZM37.56,66H68.08V9.92a6.39,6.39,0,0,0-6.39-6.39H43.95a6.39,6.39,0,0,0-6.39,6.39Z"/><path class="cls-1" d="M54.87,41.64H52.15V31.11l-3.25,1V29.9l5.68-2h.29Z"/><path class="cls-1" d="M22.67,55.79h-9.4V53.92l4.44-4.74a11,11,0,0,0,1.35-1.75A2.82,2.82,0,0,0,19.5,46,2.11,2.11,0,0,0,19,44.57,1.66,1.66,0,0,0,17.72,44a1.79,1.79,0,0,0-1.46.64,2.53,2.53,0,0,0-.53,1.68H13a4.52,4.52,0,0,1,.6-2.3,4.22,4.22,0,0,1,1.69-1.63,5.13,5.13,0,0,1,2.48-.59,4.86,4.86,0,0,1,3.29,1,3.62,3.62,0,0,1,1.17,2.88,4.64,4.64,0,0,1-.53,2.08,11.56,11.56,0,0,1-1.81,2.47l-3.12,3.3h5.9Z"/><path class="cls-1" d="M84.5,50.38H86a2,2,0,0,0,1.54-.52,1.91,1.91,0,0,0,.5-1.38,1.69,1.69,0,0,0-.49-1.29,1.91,1.91,0,0,0-1.36-.46,2,2,0,0,0-1.31.43,1.38,1.38,0,0,0-.53,1.12H81.57a3.37,3.37,0,0,1,.58-1.93A3.86,3.86,0,0,1,83.77,45a5.4,5.4,0,0,1,2.29-.48,5.12,5.12,0,0,1,3.41,1,3.57,3.57,0,0,1,1.23,2.88,2.9,2.9,0,0,1-.57,1.74,3.73,3.73,0,0,1-1.51,1.22,3.21,3.21,0,0,1,2.3,3.21,3.63,3.63,0,0,1-1.33,2.94,5.35,5.35,0,0,1-3.53,1.11,5.07,5.07,0,0,1-3.36-1.09,3.55,3.55,0,0,1-1.3-2.87h2.72A1.59,1.59,0,0,0,84.71,56a2.41,2.41,0,0,0,2.95,0,1.78,1.78,0,0,0,.55-1.37q0-2.06-2.26-2.06H84.5Z"/></g></g></svg>