<svg xmlns="http://www.w3.org/2000/svg" viewBox="0 0 86.72 31.7"><defs><style>.cls-1{fill:#fff;}</style></defs><title>supply</title><g id="Capa_2" data-name="Capa 2"><g id="Capa_1-2" data-name="Capa 1"><path class="cls-1" d="M6.82,7.51a8.67,8.67,0,0,1-2.59.44,4.31,4.31,0,0,1-3.15-1A3.74,3.74,0,0,1,0,4.09C0,1.52,1.88,0,4.42,0A5.34,5.34,0,0,1,6.57.43L6.2,1.83a4.29,4.29,0,0,0-1.8-.33A2.34,2.34,0,0,0,1.84,4,2.33,2.33,0,0,0,4.27,6.54a2.35,2.35,0,0,0,.86-.11V4.8H3.94V3.43H6.82Z"/><path class="cls-1" d="M9.94.13V4.58c0,1.33.51,2,1.4,2s1.42-.64,1.42-2V.13h1.75V4.47C14.51,6.86,13.31,8,11.29,8s-3.1-1.08-3.1-3.55V.13Z"/><path class="cls-1" d="M20.64,4.6H17.79V6.43H21V7.87H16V.13h4.78V1.56h-3V3.17h2.85Z"/><path class="cls-1" d="M22.17.23A15.37,15.37,0,0,1,24.5.07,4,4,0,0,1,27,.68a2,2,0,0,1,.71,1.62A2.05,2.05,0,0,1,26.35,4.2v0a2,2,0,0,1,1,1.45c.24.87.48,1.88.63,2.18H26.23a9.68,9.68,0,0,1-.54-1.8c-.21-1-.54-1.23-1.25-1.24h-.53v3H22.17Zm1.73,3.33h.69c.87,0,1.39-.44,1.39-1.11S25.5,1.38,24.7,1.37a4.36,4.36,0,0,0-.79.06Z"/><path class="cls-1" d="M29,.23A15.37,15.37,0,0,1,31.32.07a4,4,0,0,1,2.5.61,2,2,0,0,1,.71,1.62A2.05,2.05,0,0,1,33.17,4.2v0a2,2,0,0,1,1,1.45c.24.87.48,1.88.63,2.18H33a9.69,9.69,0,0,1-.54-1.8c-.21-1-.54-1.23-1.25-1.24h-.53v3H29Zm1.73,3.33h.69c.87,0,1.39-.44,1.39-1.11s-.48-1.07-1.29-1.08a4.36,4.36,0,0,0-.79.06Z"/><path class="cls-1" d="M40.41,4.6H37.56V6.43h3.18V7.87H35.8V.13h4.78V1.56h-3V3.17h2.85Z"/><path class="cls-1" d="M41.94.23A15.38,15.38,0,0,1,44.27.07a4,4,0,0,1,2.5.61,2,2,0,0,1,.71,1.62A2.05,2.05,0,0,1,46.12,4.2v0a2,2,0,0,1,1,1.45c.24.87.48,1.88.63,2.18H46a9.71,9.71,0,0,1-.54-1.8c-.21-1-.54-1.23-1.25-1.24h-.53v3H41.94Zm1.73,3.33h.69c.87,0,1.39-.44,1.39-1.11s-.48-1.07-1.29-1.08a4.36,4.36,0,0,0-.79.06Z"/><path class="cls-1" d="M55.8,3.92C55.8,6.46,54.26,8,52,8s-3.64-1.73-3.64-3.94A3.75,3.75,0,0,1,52.12,0,3.61,3.61,0,0,1,55.8,3.92ZM50.2,4c0,1.52.71,2.59,1.88,2.59S53.95,5.48,53.95,4s-.67-2.59-1.87-2.59S50.2,2.52,50.2,4Z"/><path class="cls-1" d="M57,.23A13.94,13.94,0,0,1,59.22.07,4.27,4.27,0,0,1,61.5.51,1.68,1.68,0,0,1,62.43,2a1.75,1.75,0,0,1-1.28,1.65v0A1.94,1.94,0,0,1,62.7,5.61a2.06,2.06,0,0,1-.8,1.64,4.89,4.89,0,0,1-3,.7A13.53,13.53,0,0,1,57,7.83Zm1.73,3h.57c.92,0,1.41-.38,1.41-1s-.45-.9-1.24-.9a4.87,4.87,0,0,0-.75,0Zm0,3.44a5.65,5.65,0,0,0,.68,0c.79,0,1.49-.3,1.49-1.11s-.7-1.09-1.57-1.09h-.6Z"/><path class="cls-1" d="M71,3.92C71,6.46,69.44,8,67.18,8s-3.64-1.73-3.64-3.94A3.75,3.75,0,0,1,67.31,0,3.61,3.61,0,0,1,71,3.92ZM65.39,4c0,1.52.71,2.59,1.88,2.59S69.13,5.48,69.13,4s-.67-2.59-1.87-2.59S65.39,2.52,65.39,4Z"/><path class="cls-1" d="M79.22,3.92c0,2.54-1.54,4.08-3.8,4.08s-3.64-1.73-3.64-3.94A3.75,3.75,0,0,1,75.55,0,3.61,3.61,0,0,1,79.22,3.92ZM73.63,4c0,1.52.71,2.59,1.88,2.59S77.37,5.48,77.37,4s-.67-2.59-1.87-2.59S73.63,2.52,73.63,4Z"/><path class="cls-1" d="M80.38.13h1.73V3.55h0c.17-.3.36-.57.53-.85L84.43.13h2.15L84,3.42l2.7,4.45h-2l-1.9-3.34-.67.82V7.87H80.38Z"/><path class="cls-1" d="M3.25,27.6a9.48,9.48,0,0,0,4.13,1c1.71,0,2.61-.71,2.61-1.78s-.78-1.61-2.76-2.32c-2.74-1-4.52-2.47-4.52-4.86,0-2.81,2.34-5,6.23-5a10.08,10.08,0,0,1,4.2.83l-.83,3a7.82,7.82,0,0,0-3.44-.78c-1.61,0-2.39.73-2.39,1.59,0,1.05.93,1.51,3.05,2.32,2.91,1.07,4.27,2.59,4.27,4.91,0,2.76-2.12,5.1-6.64,5.1a10.77,10.77,0,0,1-4.66-1Z"/><path class="cls-1" d="M20,15v9.48c0,2.83,1.07,4.27,3,4.27s3-1.37,3-4.27V15h3.71V24.2c0,5.08-2.56,7.5-6.86,7.5s-6.59-2.3-6.59-7.55V15Z"/><path class="cls-1" d="M33,15.19a30.4,30.4,0,0,1,5-.34,7.9,7.9,0,0,1,5,1.32A4.81,4.81,0,0,1,44.8,20a5.26,5.26,0,0,1-1.51,3.91,7.63,7.63,0,0,1-5.35,1.73,9.33,9.33,0,0,1-1.27-.07v5.89H33Zm3.69,7.47a5.66,5.66,0,0,0,1.25.1c2,0,3.2-1,3.2-2.69,0-1.51-1.05-2.42-2.91-2.42a6.32,6.32,0,0,0-1.54.15Z"/><path class="cls-1" d="M47.17,15.19a30.4,30.4,0,0,1,5-.34,7.9,7.9,0,0,1,5,1.32A4.81,4.81,0,0,1,59,20a5.26,5.26,0,0,1-1.51,3.91,7.63,7.63,0,0,1-5.35,1.73,9.33,9.33,0,0,1-1.27-.07v5.89H47.17Zm3.69,7.47a5.66,5.66,0,0,0,1.25.1c2,0,3.2-1,3.2-2.69,0-1.51-1.05-2.42-2.91-2.42a6.32,6.32,0,0,0-1.54.15Z"/><path class="cls-1" d="M61.36,15h3.74V28.31h6.55v3.13H61.36Z"/><path class="cls-1" d="M75.45,31.43V24.69L70.25,15H74.5l1.69,4c.51,1.2.85,2.08,1.27,3.15h0c.37-1,.76-2,1.25-3.15l1.66-4h4.18l-5.42,9.6v6.86Z"/></g></g></svg>