<svg xmlns="http://www.w3.org/2000/svg" viewBox="956.185 1137.273 22.582 24.322">
  <defs>
    <style>
      .cls-1 {
        fill: #447ed9;
      }
    </style>
  </defs>
  <path id="Path_62" data-name="Path 62" class="cls-1" d="M13.823,7.486H2.733v.621H13.823Zm0,3.262H2.733v.621H13.823ZM8.946,4.287H2.858v.621H8.946Zm4.877,9.847H2.733v.621H13.823ZM21.992,20a2.678,2.678,0,0,0-1.056-.808,2,2,0,0,0,.093-.621,1.909,1.909,0,0,0-1.895-1.895,1.723,1.723,0,0,0-.87.217,2.97,2.97,0,0,0-1.087-1.149c-.124-.093-.28-.155-.4-.248V4.442L12.487.124h-.155C11.866.124.5,0,.342,0H0V22.489H10.592a3.164,3.164,0,0,0,.652.932,2.934,2.934,0,0,0,2.143.9h6.523a2.652,2.652,0,0,0,2.671-2.671A2.669,2.669,0,0,0,21.992,20ZM12.642,1.274l3.044,3.044H12.642ZM10.748,19.631a3.283,3.283,0,0,0-.435,2.143H.683V.714c1.8,0,9.691.093,11.338.124V4.97H16.09V15.252a3.386,3.386,0,0,0-.808-.093H15.22a3.355,3.355,0,0,0-2.423.994,3.761,3.761,0,0,0-.808,1.211H2.733v.621h9.132a3.441,3.441,0,0,0-.062.59v.062a3.235,3.235,0,0,0-1.056.994Zm10.561,3.417a1.9,1.9,0,0,1-1.4.559H13.388a2.333,2.333,0,0,1-2.33-2.33,2.168,2.168,0,0,1,.373-1.242,2.26,2.26,0,0,1,.994-.87l.217-.093-.031-.248v-.248a2.536,2.536,0,0,1,.808-1.926,2.709,2.709,0,0,1,1.895-.808h.248a2.228,2.228,0,0,1,.777.217l.373.155c.031.031.093.062.124.093a2.62,2.62,0,0,1,.994,1.242l.186.466.373-.311a1.136,1.136,0,0,1,.777-.28,1.2,1.2,0,0,1,.839.342,1.08,1.08,0,0,1,.342.839,1.05,1.05,0,0,1-.186.621l-.28.4.5.124A1.969,1.969,0,0,1,21.9,21.65,2.116,2.116,0,0,1,21.309,23.048Zm-4.846-5.622a.544.544,0,0,0-.777,0l-2.112,2.112-.031.031a.594.594,0,0,0-.155.373.514.514,0,0,0,.155.373.573.573,0,0,0,.373.155h.994v1.771a.514.514,0,0,0,.155.373.573.573,0,0,0,.373.155h1.149a.514.514,0,0,0,.373-.155.573.573,0,0,0,.155-.373V20.47h.994a.514.514,0,0,0,.373-.155h0a.573.573,0,0,0,.155-.373.514.514,0,0,0-.155-.373Zm.031,2.361v2.3h-.839v-2.3h-1.3l1.739-1.739,1.739,1.739Z" transform="translate(956.185 1137.273)"/>
</svg>
