<svg xmlns="http://www.w3.org/2000/svg" viewBox="0 0 14.9 19.59"><defs><style>.cls-1{fill:#fff;}.cls-2{fill:none;}</style></defs><title>user</title><g id="Capa_2" data-name="Capa 2"><g id="Capa_1-2" data-name="Capa 1"><path class="cls-1" d="M7.45,9.58c2.18,0,3.94-2.14,3.94-4.79S10.82,0,7.45,0,3.51,2.15,3.51,4.79,5.27,9.58,7.45,9.58Zm0,0"/><path d="M0,16.9c0-.16,0,0,0,0Zm0,0"/><rect class="cls-2" width="14.9" height="19.59"/><path class="cls-1" d="M14.89,16.7c-.07-4.61-.68-5.92-5.28-6.75a2.76,2.76,0,0,1-2.16.83,2.76,2.76,0,0,1-2.16-.83C.73,10.77.1,12.07,0,16.55c0,.37,0,.39,0,.34s0,.23,0,.48c0,0,1.1,2.21,7.45,2.21s7.45-2.21,7.45-2.21c0-.16,0-.28,0-.36a3.19,3.19,0,0,1,0-.32Zm0,0"/></g></g></svg>