<svg xmlns="http://www.w3.org/2000/svg" viewBox="0 0 55 55"><defs><style>.cls-1{fill:#536185;}.cls-2{fill:none;}</style></defs><title>editar</title><g id="Capa_2" data-name="Capa 2"><g id="Capa_1-2" data-name="Capa 1"><path class="cls-1" d="M26.14,50.78c5.87,0,11.73.05,17.6,0,4.62-.06,6.81-2.27,6.94-6.94.08-2.87.05-5.75,0-8.62,0-1.29.35-3.3-1.49-3.21-1.66.08-1.42,2-1.42,3.4,0,2.62-.06,5.25,0,7.87.08,3.27-1.43,4.89-4.7,4.89H9.37c-3.44,0-4.9-1.69-4.88-5.13.08-10.25,0-20.5,0-30.74,0-3.93,1.21-5.06,5.19-5.13,2.74-.05,5.49,0,8.24,0,1.11,0,2.55.1,2.53-1.44,0-1.1-1.2-1.49-2.28-1.48-3.49,0-7-.14-10.47.17-4,.37-6,2.7-6,6.73q-.07,16.5,0,33c0,4.39,2.25,6.57,6.78,6.63C14.41,50.84,20.27,50.78,26.14,50.78Z"/><path class="cls-1" d="M53.27,12.22C53.06,8.86,51.05,6.7,48.2,5.4,45.69,4.26,43.36,5,41.4,7,34.27,14.13,27,21.15,20,28.49c-3.19,3.37-3.22,8.23-4.29,12.53-.38,1.54,1.14,1.81,2.29,1.49,5.07-1.42,10.32-2,14.29-6.45,5.82-6.5,12.23-12.46,18.44-18.61C52.25,16,53.37,14.43,53.27,12.22Zm-33.83,27,0-.78a11.56,11.56,0,0,1,1.35-4.73,11.54,11.54,0,0,1,3.84,4M46.29,17.61c-.79.88-1.33,1.54-1.92,2.13Q38,26.12,31.67,32.48c-4,4-3.86,3.85-7.84,0-1.78-1.72-1.44-2.6.14-4.12,4.68-4.5,9.18-9.2,13.83-13.72.88-.85,1.63-2.91,3.12-2C42.88,13.93,44.41,15.83,46.29,17.61Zm0-9.77c2.18.61,3.9,1.92,4.14,4.47.14,1.46-.93,3.33-2.13,2.8a9.66,9.66,0,0,1-5.09-5.18C42.71,8.59,44.66,8,46.29,7.84Z"/><rect class="cls-2" width="55" height="55"/></g></g></svg>