<svg xmlns="http://www.w3.org/2000/svg" viewBox="0 0 55 55"><defs><style>.cls-1{fill:#536185;}.cls-2{fill:none;}</style></defs><title>cerrar</title><g id="Capa_2" data-name="Capa 2"><g id="Capa_1-2" data-name="Capa 1"><path class="cls-1" d="M27.12,1.28A26,26,0,0,0,1.31,27.71,26.19,26.19,0,1,0,53.68,27,26,26,0,0,0,27.12,1.28Zm23,26A22.91,22.91,0,0,1,27.74,50.19,23,23,0,0,1,4.81,27.4,23,23,0,0,1,27.42,4.64,22.89,22.89,0,0,1,50.13,27.26Z"/><path class="cls-1" d="M24.72,27.42c-.6.69-1.13,1.38-1.74,2-2.46,2.49-4.94,5-7.41,7.43-.87.87-1.47,2-.62,3,1.11,1.27,2.25.39,3.19-.53,2.39-2.37,4.87-4.68,7.12-7.18,1.57-1.76,2.69-2,4.36-.08,2,2.36,4.37,4.46,6.58,6.66,1,1,2.22,2.32,3.45,1.1s.14-2.7-1-3.81c-2.4-2.37-4.72-4.82-7.18-7.13-1.19-1.11-1.22-1.84,0-3,2.55-2.39,5-4.93,7.45-7.39,1.06-1,1.92-2.39.75-3.56s-2.26,0-3.15.94c-2.48,2.47-5,4.87-7.38,7.45-1.27,1.4-2,1.23-3.23,0-2.38-2.56-4.92-5-7.39-7.45-1-1-2.35-2.07-3.52-.82s0,2.49,1,3.49q3.72,3.7,7.4,7.43C23.88,26.37,24.25,26.87,24.72,27.42Z"/><rect class="cls-2" width="55" height="55"/></g></g></svg>