<svg xmlns="http://www.w3.org/2000/svg" viewBox="0 0 55 55"><defs><style>.cls-1,.cls-2{fill:#536185;}.cls-1{stroke:#536185;stroke-miterlimit:10;}.cls-3{fill:none;}</style></defs><title>favorito2</title><g id="Capa_2" data-name="Capa 2"><g id="Capa_1-2" data-name="Capa 1"><path class="cls-1" d="M45.16,48.2c-.58-3.38-1-7-1.85-10.5a4.68,4.68,0,0,1,1.56-5c2.3-2.11,4.43-4.41,6.74-6.5a4.88,4.88,0,0,0,1.72-5c-.48-2.08-2.25-2.47-4-2.75a48.21,48.21,0,0,0-7-1c-3.88,0-6.25-1.63-7.57-5.31a73.13,73.13,0,0,0-3.45-7.06c-.76-1.57-1.84-2.69-3.69-2.71-2,0-3.19,1.17-4,2.86-1.35,2.81-2.83,5.57-4,8.44a5.54,5.54,0,0,1-5.16,3.58c-3,.27-5.93.83-8.89,1.25-1.66.24-3.29.62-3.77,2.52a4.73,4.73,0,0,0,1.5,5.08c2.05,1.82,3.85,3.95,6,5.68A6.38,6.38,0,0,1,11.47,39,78.5,78.5,0,0,0,10,47.14c-.26,1.76-.3,3.51,1.47,4.7a3.91,3.91,0,0,0,4.88-.15c7.4-5.82,14.55-5.73,22.19-.13C41.9,54,45.1,52,45.16,48.2Zm-2.55-.51c.06,2.48-1.63,2.92-3.51,1.48-7.83-6-15.48-6.15-23.24.05-.7.56-1.69,1.2-2.73.42s-.78-2-.58-3.08c.56-3.07,1-6.16,1.67-9.21A5.53,5.53,0,0,0,12.5,31.6c-2.48-2.27-4.87-4.66-7.27-7C3.32,22.68,3.5,21.3,6.33,20.83c3.07-.51,6.15-1,9.25-1.33,2.72-.28,4.63-1.31,5.73-4a92.72,92.72,0,0,1,4.11-8.4c1.43-2.68,2.65-2.7,4.07-.06,1.54,2.85,3.06,5.73,4.35,8.7A5.81,5.81,0,0,0,39,19.44c3.21.39,6.42.89,9.62,1.38,2.71.42,3.26,1.61,1.2,3.64s-4,4.2-6.17,6A7,7,0,0,0,41,38.38C41.71,41.28,42,44.28,42.6,47.69Z"/><path class="cls-2" d="M42.6,47.66c-.58-3.41-.89-6.41-1.62-9.31a7,7,0,0,1,2.64-7.92c2.21-1.81,4.12-4,6.17-6s1.51-3.22-1.2-3.64c-3.2-.5-6.4-1-9.62-1.38a5.81,5.81,0,0,1-5.14-3.7c-1.28-3-2.81-5.85-4.35-8.7-1.42-2.64-2.64-2.62-4.07.06a92.72,92.72,0,0,0-4.11,8.4c-1.1,2.69-3,3.72-5.73,4-3.1.31-6.18.82-9.25,1.33-2.83.47-3,1.85-1.09,3.74,2.4,2.37,4.78,4.76,7.27,7a5.53,5.53,0,0,1,1.71,5.75c-.65,3-1.1,6.14-1.67,9.21-.2,1.11-.54,2.23.58,3.08s2,.14,2.73-.42c7.76-6.2,15.41-6.07,23.24-.05C41,50.58,42.66,50.13,42.6,47.66Z"/><rect class="cls-3" width="55" height="55"/></g></g></svg>