<svg xmlns="http://www.w3.org/2000/svg" viewBox="0 0 55 55"><defs><style>.cls-1{fill:#536185;}.cls-2{fill:none;}</style></defs><title>rotar</title><g id="Capa_2" data-name="Capa 2"><g id="Capa_1-2" data-name="Capa 1"><path class="cls-1" d="M53.69,27.53C53.7,13.9,43.81,4,30.06,4,16.5,3.88,6,13.88,5.58,27.06c-.08,2.4,2.29,6.69-3.51,6-.21,0-.86,1-.74,1.3,1.36,3.34,4.88,3.9,7.56,5.46,2.51,1.46,3.2-.82,3.92-2.58a48,48,0,0,0,1.85-4.73c.35-1.2-.39-2.83-1.53-2.35-6.48,2.69-3.68-2.86-3.52-4.4,1.12-10.92,10-18.43,20.93-18.19C40.73,7.79,49.5,16,50.16,26c.7,10.43-6.43,19.15-17.3,21.2-1.65.31-4.6-.41-4,2.38.48,2.22,3.21,1.32,5,1.12C45.14,49.42,53.67,39.41,53.69,27.53Z"/><rect class="cls-2" width="55" height="55"/></g></g></svg>